<svg width="7" height="11" viewBox="0 0 7 11" fill="none" xmlns="http://www.w3.org/2000/svg">
<path d="M6.55647 5.07078L1.66133 0.17573C1.54811 0.0624223 1.39698 0 1.23582 0C1.07467 0 0.923534 0.0624223 0.810316 0.17573L0.449823 0.536134C0.215247 0.770977 0.215247 1.15267 0.449823 1.38715L4.56039 5.49772L0.445262 9.61285C0.332043 9.72616 0.269531 9.8772 0.269531 10.0383C0.269531 10.1995 0.332043 10.3506 0.445262 10.464L0.805755 10.8243C0.919063 10.9376 1.07011 11 1.23126 11C1.39242 11 1.54355 10.9376 1.65677 10.8243L6.55647 5.92475C6.66996 5.81108 6.73229 5.65932 6.73193 5.49799C6.73229 5.33603 6.66996 5.18436 6.55647 5.07078Z" fill="#405DBE"/>
</svg>
