<svg width="342" height="353" viewBox="0 0 342 353" fill="none" xmlns="http://www.w3.org/2000/svg">
<path fill-rule="evenodd" clip-rule="evenodd" d="M130.779 352.975C130.09 353.113 129.419 352.662 129.282 351.968C129.145 351.274 129.593 350.598 130.282 350.46C130.716 350.372 131.543 350.351 132.703 350.32C139.693 350.136 160.191 349.596 163.801 331.75C166.062 320.574 164.785 305.376 162.162 290.894C158.084 268.386 151.06 247.822 148.963 246.99C143.26 244.727 141.887 239.83 140.456 234.725C139.672 231.929 138.868 229.063 137.266 226.709C134.78 228.34 131.775 229.372 128.706 229.743C125.834 230.09 122.885 229.861 120.231 229.003C117.523 228.128 115.123 226.597 113.414 224.359C112.539 223.213 111.849 221.89 111.395 220.384C107.185 224.522 103.621 227.236 99.8818 228.042C95.6561 228.953 91.426 227.447 86.1536 222.847C81.7596 223.45 77.7552 223.377 74.1458 222.78C66.9342 221.588 61.3228 218.304 57.3378 214.139C55.5572 212.278 54.1014 210.239 52.9721 208.13C52.4015 207.943 51.8436 207.735 51.2984 207.505C47.1675 205.762 43.795 202.82 41.2434 199.282C38.7166 195.777 36.9914 191.675 36.1334 187.575C35.7351 185.671 35.524 183.764 35.506 181.912C21.0463 179.484 13.0346 172.783 9.60365 165.13C6.50052 158.207 7.16249 150.523 10.198 144.479C10.4101 144.057 10.6338 143.643 10.8683 143.238C10.4787 142.694 10.0973 142.123 9.72525 141.52C4.61044 133.238 6.92076 123.899 13.0103 116.232C10.5798 114.53 8.23789 112.685 6.23885 110.76C3.33806 107.968 1.12891 104.979 0.332696 101.959C-0.515071 98.7412 0.189214 95.5657 3.23495 92.6435C4.59293 91.341 6.43584 90.0919 8.84101 88.9177C8.3196 85.241 8.57738 81.1506 9.56766 77.5037C10.5968 73.7137 12.43 70.374 15.021 68.3991C15.6003 67.9576 16.2136 67.5837 16.86 67.2858C17.1674 66.6806 17.5118 66.0445 17.8941 65.3751C20.0833 61.5484 22.1981 58.6713 24.8557 56.7185C27.3119 54.9137 30.165 53.9277 33.8625 53.7547C34.1621 49.656 35.4948 46.1693 37.541 43.4599L37.5989 43.3893C39.1729 41.3292 41.1554 39.7262 43.4059 38.6511C45.6768 37.5661 48.223 37.0173 50.9005 37.0771C53.6039 37.1373 56.4351 37.8195 59.242 39.197C59.1798 39.025 59.1229 38.8544 59.0694 38.6844C57.9876 35.2296 58.673 32.2447 60.511 29.7073C62.2523 27.3036 65.0339 25.3523 68.2946 23.8184C74.5981 20.8537 82.7995 19.3939 88.5802 19.2478C94.268 0.993708 108.177 -2.30575 120.435 1.28724C125.213 2.68779 129.737 5.15319 133.401 8.19048C137.109 11.264 139.958 14.9389 141.338 18.7151C143.486 24.5927 142.216 30.6354 135.402 35.0698C145.883 44.6232 153.449 48.0183 158.22 47.9594C160.449 47.932 161.978 47.1048 162.826 45.815C163.705 44.4762 163.912 42.6028 163.455 40.5578C162.486 36.218 158.6 31.2769 151.838 28.7404C146.154 26.6088 143.501 23.421 143.011 20.1764C142.727 18.2908 143.18 16.4144 144.201 14.7242C145.179 13.1061 146.682 11.6629 148.552 10.5638C152.982 7.9582 159.56 7.21873 166.091 10.6505C167.366 8.08806 169.171 6.27098 171.29 5.08459C173.477 3.86046 175.98 3.32729 178.562 3.35131C181.098 3.37483 183.709 3.93495 186.164 4.90278C190.015 6.42045 193.525 8.96083 195.805 12.03C203.717 -0.20739 213.451 -0.685181 220.542 3.49685C223.728 5.37518 226.363 8.21646 228.039 11.3581C228.568 12.3514 229.004 13.3776 229.332 14.4155C239.95 10.2614 250.502 12.5426 259.069 17.7012C265.398 21.5118 270.633 26.918 273.989 32.4555C277.422 38.1204 278.912 43.9837 277.662 48.5455C275.721 55.6237 267.502 59.4916 250.252 54.6897C246.192 53.5597 243.393 51.7867 241.623 49.6937C231.478 49.5202 220.505 49.776 212.411 51.5564C202.581 53.7189 197.308 58.3092 204.497 67.6474C210.214 75.0745 226.609 69.6742 242.855 64.3235C245.355 63.4997 247.854 62.6764 250.318 61.8997C263.718 57.6731 273.289 57.7632 278.634 60.3237C281.085 61.4979 282.708 63.1924 283.472 65.2487C284.232 67.2951 284.116 69.6453 283.094 72.1436C282.582 73.3971 281.831 74.6972 280.839 76.0223C284.352 76.1854 288.047 76.5285 291.908 77.0788C302.633 78.6072 313.415 82.1213 321.875 87.3898C327.299 90.7686 331.783 94.8762 334.711 99.6571C337.684 104.508 339.054 110.03 338.193 116.157C337.603 120.36 335.96 124.839 333.059 129.567C325.645 141.652 312.971 139.427 299.719 137.102C293.037 135.929 286.2 134.729 279.995 135.436C273.483 136.178 268.644 137.987 266.564 139.649C266.063 140.049 265.795 140.335 265.794 140.472C265.794 140.503 265.949 140.477 266.279 140.593C268.169 141.262 272.514 141.227 280.011 139.813C285.952 138.691 291.249 138.659 295.889 139.435C300.418 140.193 304.322 141.721 307.595 143.762C311.026 143.234 314.493 143.27 317.836 143.834C322.652 144.646 327.216 146.553 331.05 149.435C334.902 152.33 338.023 156.211 339.935 160.96C343.556 169.956 342.824 182.032 334.445 196.347C334.321 196.56 334.166 196.806 333.982 197.088C330.357 202.629 322.966 207.173 313.853 210.346C315.384 212.333 316.321 214.516 316.746 216.737C317.5 220.67 316.631 224.708 314.612 227.978C312.585 231.261 309.389 233.784 305.498 234.673C299.855 235.963 292.805 233.81 285.888 225.498C283.424 222.536 281.493 219.074 279.913 215.34C269.278 215.016 259.177 212.856 251.782 208.463C251.468 208.277 251.141 208.073 250.8 207.853C242.375 208.88 233.066 208.161 224.234 205.871C223.24 207.794 222.047 209.693 220.614 211.565C212.448 222.237 206.792 225.345 202.271 223.778C198.83 236.988 196.438 249.132 199.541 257.684C201.008 261.73 202.026 265.696 202.664 269.51C206.125 277.414 208.093 287.764 207.706 301.672C207.345 314.695 209.68 325.921 214.052 334.325C218.397 342.679 224.761 348.223 232.47 349.911C233.157 350.06 233.593 350.743 233.445 351.434C233.297 352.126 232.62 352.565 231.933 352.416C223.459 350.56 216.506 344.547 211.804 335.508C207.237 326.729 204.796 315.071 205.17 301.602C205.397 293.453 204.778 286.58 203.507 280.734C203.356 288.429 201.657 294.973 199.213 299.531C197.091 303.49 194.359 306.043 191.502 306.702C188.478 307.4 185.44 306.068 182.926 302.187C178.392 295.189 175.406 279.166 177.612 250.503L177.761 248.546C174.537 246.952 171.261 245.578 168.075 244.243C152.921 237.894 139.704 232.355 142.213 209.607C142.263 209.163 142.542 208.757 142.979 208.57C143.624 208.293 144.37 208.597 144.644 209.246C153.272 229.53 160.51 231.489 166.029 229.106C168.465 228.054 170.673 226.158 172.512 224.577C174.584 222.798 176.255 221.362 177.859 221.487C180.831 221.718 181.777 227.431 180.418 247.005C186.989 250.39 193.278 254.761 198.164 261.565C197.855 260.568 197.518 259.565 197.153 258.556C193.759 249.198 196.344 236.377 199.975 222.527L199.837 222.423C195.892 219.358 193.113 212.417 189.878 204.338L188.97 202.079C182.521 186.085 174.814 177.316 168.962 174.549C166.733 173.495 164.861 173.367 163.556 174.091C162.278 174.801 161.457 176.405 161.295 178.831C160.874 185.122 164.802 196.145 176.02 210.907C176.358 211.334 176.398 211.951 176.076 212.426C175.681 213.01 174.89 213.16 174.311 212.762C165.792 206.877 156.166 203.663 146.275 202.73C135.624 201.726 124.656 203.361 114.421 207.149C114.272 207.201 114.111 207.229 113.944 207.223C113.244 207.201 112.694 206.611 112.716 205.906C112.85 201.686 112.595 198.341 111.746 195.177C110.904 192.036 109.467 189.04 107.239 185.505C106.975 185.136 106.914 184.637 107.124 184.199C107.429 183.563 108.188 183.296 108.82 183.603C120.44 189.24 130.063 189.315 136.941 185.962C140.629 184.164 143.536 181.373 145.54 177.928C147.559 174.456 148.668 170.312 148.742 165.838C148.908 155.91 143.992 144.386 132.671 134.884C132.412 134.695 132.222 134.407 132.165 134.063C132.047 133.367 132.512 132.705 133.203 132.586C136.976 131.925 139.584 130.975 141.296 129.353C142.972 127.765 143.873 125.426 144.271 121.955C144.294 121.77 144.355 121.587 144.46 121.419C144.834 120.822 145.617 120.642 146.21 121.018C149.45 123.07 152.363 124.754 155.387 126.001C158.393 127.24 161.549 128.068 165.315 128.429C165.951 128.49 166.454 129.023 166.464 129.681C166.624 138.077 168.96 143.121 173.328 145.968C177.8 148.882 184.496 149.64 193.213 149.388C193.449 149.368 193.694 149.414 193.919 149.536C194.536 149.87 194.768 150.647 194.436 151.269C189.811 159.953 188.746 167.743 190.226 174.519C191.302 179.447 193.725 183.858 197.1 187.699C199.796 190.767 203.104 193.479 206.827 195.809C208.462 188.038 209.457 180.465 208.967 173.557C208.923 172.917 209.361 172.329 210.002 172.209C213.735 171.498 216.35 170.805 218.606 169.579C220.841 168.365 222.801 166.581 225.252 163.677C225.467 163.41 225.787 163.231 226.154 163.206C226.854 163.159 227.46 163.693 227.506 164.398C227.639 166.406 227.811 168.517 227.982 170.614C228.914 182.07 229.812 193.135 225.344 203.521C232.741 205.388 240.463 206.113 247.654 205.586C240.239 199.623 238.152 192.816 239.202 186.712C240.059 181.723 243.033 177.24 246.909 174.097C250.799 170.942 255.626 169.116 260.167 169.456C265.597 169.864 270.572 173.287 273.06 181.089C274.293 184.957 275.288 189.307 276.322 193.826C276.881 196.27 277.452 198.764 278.077 201.251C278.993 201.199 279.9 201.158 280.799 201.128C288.597 200.867 295.724 201.449 301.545 202.956C306.105 204.135 309.53 206.02 311.983 208.3C321.059 205.311 328.402 200.976 331.864 195.685C331.978 195.51 332.11 195.296 332.256 195.045C340.177 181.512 340.924 170.234 337.578 161.922C335.849 157.628 333.021 154.114 329.528 151.488C326.017 148.85 321.834 147.104 317.417 146.358C315.218 145.987 312.961 145.864 310.699 146.001C311.302 146.5 311.875 147.019 312.42 147.555C316.433 151.498 318.899 156.348 319.791 161.145C320.254 163.634 320.294 166.113 319.91 168.448C318.193 178.856 312.336 184.179 305.709 185.778C301.144 186.88 296.225 186.186 292.061 184.156C287.867 182.111 284.416 178.702 282.823 174.393C280.643 168.494 281.933 160.99 289.554 153.126C293.711 148.837 298.651 146.035 303.811 144.583C301.358 143.385 298.58 142.478 295.481 141.959C291.117 141.228 286.114 141.264 280.478 142.327C272.503 143.832 267.695 143.803 265.443 143.007C263.948 142.479 263.25 141.584 263.258 140.461C263.264 139.506 263.865 138.537 264.982 137.645C267.367 135.739 272.704 133.69 279.716 132.891C286.278 132.143 293.291 133.374 300.145 134.577C312.539 136.752 324.392 138.832 330.9 128.224C333.606 123.814 335.134 119.668 335.676 115.805C336.449 110.306 335.219 105.352 332.552 100.999C329.841 96.5737 325.643 92.7416 320.541 89.5636C312.39 84.4873 301.959 81.0957 291.558 79.6133C287.029 78.9674 282.741 78.6102 278.727 78.497C275.094 82.2865 269.532 86.1583 261.958 89.6087C257.606 91.5914 252.767 93.7006 248.234 95.6759L246.318 96.5115C252.443 101.069 266.35 104.58 290.04 104.456C298.9 104.409 305.075 107.411 307.888 111.128C309.094 112.721 309.71 114.462 309.693 116.188C309.676 117.944 309.011 119.65 307.655 121.136C304.736 124.334 298.452 126.539 288.352 125.819C284.084 125.514 279.66 124.982 275.513 124.484C267.374 123.506 260.331 122.66 258.515 123.841C258.012 124.194 257.314 124.138 256.875 123.678C247.53 113.915 234.325 114.295 223.586 119.214C221.25 120.283 219.033 121.566 216.998 123.005C220.216 124.314 222.829 126.296 224.865 128.656C228.64 133.031 230.394 138.711 230.316 143.788C230.236 149.026 228.206 153.679 224.43 155.778C220.913 157.732 215.989 157.452 209.872 153.343C203.291 148.923 201.58 142.989 203.122 136.996C204.14 133.039 206.61 129.087 210.037 125.581C210.51 125.097 211.001 124.621 211.511 124.155C207.574 123.545 202.879 123.899 197.381 125.618L197.284 125.646C196.603 125.818 195.912 125.4 195.742 124.715C193.822 116.978 189.446 113.418 184.003 112.309C178.341 111.154 171.465 112.543 164.898 114.681C164.59 114.778 164.244 114.761 163.934 114.6C163.311 114.279 163.064 113.51 163.382 112.882C164.814 110.056 165.53 107.425 165.66 104.994C165.87 101.043 164.525 97.5763 162.198 94.616C159.812 91.5821 156.384 89.0564 152.517 87.0673L152.519 87.0634C146.37 83.8997 139.16 82.1218 133.238 81.8009C132.733 81.7744 132.27 81.4426 132.1 80.9296C131.878 80.2602 132.236 79.5354 132.9 79.3114C143.99 75.5366 147.569 69.6674 153.5 59.9425L154.282 58.6605C154.451 58.3861 154.722 58.1739 155.058 58.0896C155.739 57.9181 156.429 58.3356 156.599 59.0217C158.579 67.0011 162.755 74.1528 168.064 78.3823C170.111 80.0127 172.328 81.2045 174.65 81.8288C176.935 82.4428 179.327 82.5046 181.764 81.891C185.748 80.8874 189.879 78.0844 193.907 72.959C194.082 72.7253 194.338 72.5503 194.644 72.4822C195.328 72.3298 196.005 72.765 196.156 73.4535C197.28 78.5524 198.156 83.2651 198.773 88.0293C199.16 91.0112 199.445 94.0166 199.627 97.1519C203.437 90.1051 209.781 85.3164 215.767 83.5768C218.266 82.8505 220.717 82.6457 222.918 83.0167C225.208 83.4023 227.232 84.403 228.782 86.0755C231.418 88.9207 232.608 93.6697 231.232 100.583C233.871 99.2346 237.6 97.5528 241.869 95.6764C240.591 93.8966 240.121 92.0207 240.395 90.1414C240.788 87.4457 242.747 84.8519 246.067 82.6462C252.172 78.5906 263.195 75.6895 277.662 75.9238C279.102 74.287 280.128 72.6875 280.746 71.1738C281.516 69.29 281.626 67.5754 281.094 66.1425C280.566 64.7194 279.377 63.5159 277.549 62.6397C272.72 60.3267 263.808 60.3291 251.073 64.346C248.627 65.1173 246.134 65.9382 243.639 66.7604C226.55 72.3891 209.305 78.0692 202.487 69.2121C193.424 57.4379 199.814 51.7063 211.873 49.0537C219.74 47.3224 230.174 46.996 240.005 47.1156C239.401 45.7307 239.142 44.2773 239.177 42.8223C239.23 40.647 239.946 38.482 241.15 36.5517C242.916 33.7173 245.752 31.3646 249.081 30.2258C255.372 28.0735 262.242 30.5237 266.333 34.2779C268.137 35.9343 269.43 37.8704 269.937 39.8159C270.484 41.9202 270.138 44.0068 268.593 45.7768C266.238 48.4735 260.933 50.3239 251.427 49.974C249.524 49.9039 247.532 49.8363 245.483 49.7814C246.863 50.7576 248.658 51.5956 250.926 52.2267C266.41 56.5367 273.647 53.5807 275.214 47.8663C276.271 44.0112 274.9 38.8726 271.819 33.7898C268.662 28.5797 263.731 23.4901 257.765 19.8976C249.769 15.0829 239.89 13.0042 229.922 17.0279C230.118 18.4775 230.09 19.9177 229.801 21.2952C228.665 26.7283 223.606 31.1211 212.645 31.099C210.991 33.2591 209.366 35.6633 207.78 38.3365C201.992 48.0947 194.53 48.3691 189.159 45.1348C186.897 43.7735 185.018 41.7599 183.812 39.5655C182.57 37.3039 182.03 34.8253 182.493 32.6147C183.472 27.9309 188.718 24.5501 200.884 27.1331C204.906 27.9872 208.395 28.4288 211.404 28.5356C216.421 22.2116 221.694 17.9938 226.987 15.4412C226.7 14.4728 226.299 13.5084 225.8 12.5729C224.333 9.8238 222.034 7.34075 219.258 5.704C212.949 1.98311 204.088 2.75443 196.941 15.0374C196.83 15.2393 196.663 15.4127 196.448 15.5333C195.836 15.8758 195.063 15.6538 194.723 15.0369C192.888 11.7095 189.288 8.88634 185.237 7.28929C183.051 6.42731 180.749 5.92844 178.541 5.90786C176.379 5.88777 174.305 6.32293 172.521 7.32115C170.561 8.41835 168.926 10.2198 167.884 12.8753C167.855 12.9586 167.817 13.0399 167.771 13.1184C167.408 13.724 166.627 13.9191 166.026 13.554C159.999 9.87966 153.855 10.4138 149.833 12.7792C148.322 13.6682 147.124 14.8056 146.367 16.0581C145.653 17.2386 145.334 18.527 145.526 19.7972C145.884 22.1758 148.039 24.5912 152.721 26.3476C160.373 29.2177 164.799 34.9385 165.929 39.9987C166.537 42.7233 166.21 45.2975 164.941 47.2293C163.641 49.2091 161.408 50.4773 158.248 50.5155C152.848 50.5822 144.449 46.8823 133.087 36.4042C132.004 36.9575 130.813 37.4779 129.511 37.9606C124.882 39.6777 121.733 39.0544 119.888 37.4902C118.157 36.022 117.6 33.7649 118.023 31.7434C118.451 29.699 119.873 27.8736 122.092 27.3012C124.44 26.696 127.653 27.5442 131.375 31.2372C132.078 31.9355 132.77 32.6069 133.45 33.2547C139.511 29.5093 140.725 24.4614 138.947 19.5982C137.724 16.2522 135.152 12.9566 131.786 10.1658C128.377 7.33927 124.169 5.04539 119.726 3.74334C108.518 0.458581 95.7699 3.60025 90.766 20.7817C90.6459 21.3643 90.1337 21.8019 89.5199 21.8019C83.9907 21.8019 75.656 23.1755 69.3646 26.1344C66.4624 27.4997 64.0207 29.1888 62.5558 31.2112C61.1871 33.1009 60.6798 35.3315 61.4915 37.9243C61.8223 38.9804 62.3651 40.1001 63.1496 41.2855C65.3325 40.4167 67.4541 39.8669 69.493 39.6106C74.4532 38.9868 78.9615 40.0668 82.7378 42.471C86.4849 44.8575 89.4897 48.5441 91.4756 53.1559C92.2422 54.9357 92.857 56.8493 93.304 58.8742C99.7626 49.6423 106.64 48.9121 112.211 52.2282C116.376 54.7073 119.726 59.5509 121.517 64.7415C123.324 69.9786 123.562 75.6302 121.481 79.6633C118.437 85.5605 110.729 88.0234 96.266 80.9266C96.0204 83.4067 95.447 85.5276 94.6065 87.3192C93.212 90.2918 91.0982 92.3569 88.5345 93.657C86.0204 94.9321 83.0875 95.4554 79.9931 95.3702C78.5806 95.3314 77.1327 95.1653 75.6745 94.8855L75.8214 95.3344C79.1118 105.014 78.5777 109.092 76.3131 109.873C73.8758 110.714 69.4298 106.88 65.94 102.281C62.4945 97.7405 59.8675 92.3495 60.9847 89.9684C61.8369 88.1533 64.0781 87.7358 68.3218 89.7567C69.6278 90.3791 70.9668 90.9196 72.3155 91.3675C71.7032 86.1103 73.1993 81.8141 74.6677 77.5987C77.4561 69.5929 80.1346 61.9002 65.3252 47.7056C63.9079 46.3472 62.7386 45.0359 61.7936 43.7725C58.1511 41.018 54.3573 39.711 50.847 39.6331C48.5722 39.5826 46.4107 40.0477 44.4861 40.967C42.5912 41.8716 40.9253 43.2178 39.6057 44.9442L39.5561 45.0148C37.6369 47.5566 36.4452 50.9213 36.3382 54.9333L36.3407 55.0107C36.3407 55.7188 35.7706 56.2931 35.0678 56.2931C31.3387 56.2931 28.6057 57.1208 26.343 58.7835C24.0565 60.4644 22.1669 63.0342 20.182 66.4821C23.9919 66.3248 28.6256 68.5422 33.9793 74.4198C35.4768 74.3125 36.9598 74.2723 38.3825 74.3532C44.6029 74.706 48.0255 76.7363 49.4404 78.9591C50.5148 80.6463 50.5061 82.456 49.7177 83.8919C48.9458 85.2973 47.4312 86.3107 45.4715 86.4455C42.7653 86.6322 39.1286 85.1028 35.579 80.3743C34.6704 79.1644 33.7876 78.0672 32.9292 77.0729C31.3168 77.2243 29.6898 77.439 28.1227 77.6458C23.4019 78.2691 19.1805 78.8268 16.7948 77.4419C15.1061 76.4618 14.3746 74.7614 15.0497 71.8971C13.6932 73.5294 12.6727 75.7326 12.0098 78.1755C11.1752 81.2486 10.9154 84.6784 11.2632 87.8382C13.289 87.0139 15.6304 86.2338 18.3177 85.5066C21.5444 84.6333 23.8766 85.682 25.2798 87.5853C25.9568 88.5037 26.396 89.6156 26.5964 90.7922C26.7915 91.9413 26.7628 93.162 26.5089 94.3298C25.8693 97.2705 23.826 99.9236 20.3571 100.447C14.4305 101.343 10.8323 97.2142 9.3517 91.513C7.49275 92.4706 6.05305 93.4698 4.98057 94.4989C2.71159 96.6756 2.17365 98.9916 2.78455 101.309C3.44749 103.824 5.39886 106.419 7.98497 108.909C9.94898 110.8 12.2642 112.614 14.6664 114.286C17.7394 110.92 21.5507 107.951 25.7341 105.653C30.1757 103.215 35.0396 101.533 39.8883 100.938C50.2999 99.659 60.6345 103.322 66.7036 115.079C72.6083 112.923 78.2708 112.963 83.0724 114.632C84.2952 115.057 85.461 115.587 86.5612 116.214C89.6609 112.767 93.8657 109.684 98.5817 107.228C102.711 105.077 107.242 103.397 111.754 102.374C116.297 101.344 120.827 100.977 124.922 101.46C133.25 102.443 139.809 106.86 141.287 116.189C141.35 116.485 141.311 116.806 141.15 117.09C140.805 117.704 140.03 117.919 139.42 117.571C136.328 115.8 132.82 115.535 129.645 116.381C127.921 116.84 126.296 117.625 124.892 118.673C123.497 119.714 122.319 121.012 121.477 122.504C120.142 124.87 119.648 127.744 120.47 130.876C120.635 131.517 120.286 132.189 119.655 132.409C113.874 134.425 109.66 137.72 107.095 141.66C105.533 144.061 104.582 146.704 104.263 149.44C103.942 152.194 104.252 155.046 105.215 157.847C106.921 162.814 110.675 167.651 116.583 171.566C116.67 171.618 116.752 171.682 116.826 171.757C117.323 172.258 117.323 173.069 116.826 173.57C106.772 183.7 99.6639 180.255 91.9747 176.529C86.7937 174.018 81.3204 171.367 74.4508 173.431C74.1682 173.515 73.8554 173.502 73.566 173.37C72.9264 173.08 72.6414 172.322 72.9293 171.677C74.8773 167.358 75.1234 163.678 74.1862 160.657C73.6006 158.767 72.547 157.116 71.1584 155.716C69.743 154.288 67.9726 153.113 65.9838 152.202C60.3315 149.614 52.9998 149.174 46.9438 151.073C46.3981 151.259 45.777 151.049 45.4594 150.536C43.8995 148.012 42.3159 145.863 40.7283 144.055C40.1476 145.042 39.4394 145.971 38.6242 146.82C36.1052 149.445 32.5551 151.326 28.6456 151.866C23.3834 152.594 17.4782 150.919 12.5808 145.397L12.4607 145.633C9.74519 151.04 9.1484 157.905 11.9159 164.079C15.0083 170.977 22.3245 177.036 35.6052 179.339C35.7969 177.273 36.2516 175.32 36.9783 173.57C40.4778 165.149 46.33 164.025 50.9735 165.984C52.957 166.821 54.7094 168.248 55.9409 169.917C57.2099 171.636 57.9429 173.634 57.8432 175.554C57.6287 179.685 53.7542 183.31 43.4307 182.766C41.5508 182.667 39.757 182.506 38.0459 182.289C38.0868 183.846 38.2779 185.449 38.614 187.056C39.3995 190.811 40.9803 194.569 43.2964 197.781C45.4185 200.724 48.1573 203.2 51.4623 204.779C50.8923 203.22 50.4934 201.655 50.2673 200.122C49.9706 198.112 49.9701 196.148 50.2678 194.322C51.7537 185.204 57.0917 182.604 62.6744 183.527C65.8281 184.049 69.0407 185.758 71.603 188.054C74.1876 190.369 76.1468 193.316 76.7693 196.29C77.8457 201.436 75.1424 206.531 65.3174 208.618C62.1209 209.296 59.1511 209.368 56.422 208.951C57.2138 210.137 58.1272 211.284 59.1627 212.367C62.797 216.165 67.9308 219.163 74.549 220.257C78.0621 220.838 82.0004 220.883 86.3637 220.23C86.7227 220.177 87.1011 220.279 87.3929 220.54C92.196 224.842 95.8589 226.292 99.3502 225.539C102.947 224.763 106.593 221.68 111.194 216.972C111.394 216.739 111.678 216.579 112.005 216.54C112.702 216.457 113.335 216.959 113.417 217.662C113.663 219.728 114.376 221.433 115.418 222.798C116.795 224.601 118.764 225.846 121.002 226.569C123.294 227.31 125.872 227.505 128.403 227.2C131.465 226.83 134.431 225.727 136.713 223.974L136.717 223.971C137.255 223.517 138.056 223.589 138.507 224.131C140.94 227.054 141.933 230.593 142.898 234.035C144.153 238.514 145.359 242.811 149.883 244.607C152.468 245.633 160.437 267.174 164.653 290.445C167.325 305.196 168.615 320.73 166.282 332.262C162.27 352.099 140.263 352.679 132.758 352.876C131.765 352.901 131.053 352.92 130.779 352.975ZM52.7892 199.75C53.0912 201.798 53.7401 203.916 54.7337 205.984C57.7187 206.782 61.084 206.902 64.8058 206.112C72.8087 204.412 75.0816 200.6 74.2893 196.811C73.7844 194.397 72.1244 191.943 69.9186 189.967C67.6915 187.971 64.9376 186.492 62.2727 186.052C58.0372 185.351 53.9652 187.456 52.7799 194.733C52.526 196.29 52.5294 197.989 52.7892 199.75ZM39.3314 174.551C38.6855 176.105 38.2867 177.856 38.1257 179.718C39.847 179.942 41.6583 180.109 43.5659 180.209C52.0226 180.655 55.1686 178.224 55.314 175.423C55.3816 174.118 54.8407 172.701 53.9088 171.439C52.9404 170.127 51.5625 169.005 50.0046 168.347C46.5377 166.885 42.1082 167.868 39.3314 174.551ZM12.3843 140.947C15.5726 136.708 20.1178 133.826 25.3109 133.522C29.8474 133.256 34.8455 134.963 39.8037 139.468C39.9448 138.728 39.9973 137.973 39.9506 137.21C39.7016 133.154 36.6364 128.809 29.2234 125.457C26.4962 124.223 20.7744 121.37 15.1304 117.668C9.58566 124.564 7.39839 132.903 11.8848 140.167C12.0492 140.435 12.216 140.694 12.3843 140.947ZM25.45 136.076C20.8129 136.348 16.7511 139.096 13.9738 143.092C18.3469 148.362 23.6426 149.976 28.3134 149.33C31.6436 148.87 34.6626 147.273 36.8003 145.045C37.6539 144.155 38.3645 143.166 38.8951 142.111C34.2327 137.56 29.5931 135.834 25.45 136.076ZM41.8864 141.531C43.6476 143.424 45.3947 145.688 47.1048 148.36C53.544 146.598 61.1243 147.161 67.0334 149.867C69.2922 150.901 71.3199 152.252 72.9639 153.911C74.6341 155.596 75.9046 157.594 76.6181 159.894C77.5544 162.913 77.5262 166.424 76.1764 170.394C82.799 169.245 88.0627 171.795 93.0744 174.223C99.626 177.399 105.705 180.343 113.919 172.825C108.25 168.744 104.58 163.79 102.824 158.677C101.732 155.498 101.379 152.265 101.743 149.147C102.108 146.011 103.193 142.991 104.973 140.256C107.668 136.115 111.96 132.627 117.767 130.385C117.148 126.993 117.792 123.868 119.275 121.24C120.296 119.431 121.714 117.865 123.387 116.617C125.051 115.376 126.971 114.446 129.005 113.905C131.978 113.113 135.205 113.144 138.253 114.228C136.325 107.874 131.1 104.766 124.64 104.003C120.824 103.553 116.584 103.898 112.317 104.866C108.02 105.84 103.698 107.444 99.7514 109.5C95.4251 111.754 91.5593 114.539 88.7032 117.611C91.5369 119.73 93.7898 122.563 95.2383 125.903C97.1799 130.378 96.5194 134.005 94.7125 136.282C93.8477 137.373 92.7222 138.151 91.4873 138.569C90.2456 138.989 88.892 139.049 87.5778 138.701C84.9119 137.994 82.4211 135.624 81.4474 131.209C80.46 126.731 81.9055 122.275 84.9167 118.222C84.0695 117.768 83.1799 117.377 82.2528 117.054C77.7066 115.474 72.2601 115.545 66.5689 117.874C65.9181 118.14 65.1764 117.823 64.9133 117.168L64.9099 117.159C59.4852 105.82 49.8757 102.291 40.1923 103.48C35.6631 104.036 31.1135 105.611 26.953 107.895C23.1441 109.986 19.6596 112.675 16.8153 115.724C22.2063 119.232 27.6436 121.939 30.2575 123.121C38.6836 126.932 42.1831 132.118 42.4861 137.058C42.58 138.596 42.3631 140.103 41.8864 141.531ZM87.052 119.569C84.3851 123.088 83.0928 126.895 83.9231 130.659C84.658 133.991 86.3949 135.742 88.2237 136.227C89.051 136.446 89.9017 136.409 90.6809 136.146C91.4669 135.88 92.1828 135.384 92.7329 134.691C94.0073 133.085 94.4168 130.399 92.9105 126.926C91.6211 123.951 89.5987 121.436 87.052 119.569ZM18.9802 87.9808C16.1499 88.7472 13.7403 89.5631 11.7092 90.4192C12.8221 95.1183 15.5405 98.5853 19.9952 97.912C22.2526 97.5709 23.5964 95.7803 24.0293 93.7883C24.2151 92.9346 24.2375 92.0481 24.0974 91.2229C23.9622 90.4266 23.6781 89.6915 23.2477 89.1079C22.4388 88.0117 21.0215 87.428 18.9802 87.9808ZM36.0897 76.8774C36.5916 77.4978 37.0994 78.1476 37.6125 78.8312C40.5513 82.7457 43.331 84.0271 45.3076 83.8909C46.3553 83.8189 47.1364 83.3308 47.5051 82.6594C47.8572 82.0179 47.8368 81.1721 47.3081 80.341C46.2702 78.7102 43.5109 77.2062 38.2487 76.9078C37.5483 76.8681 36.8261 76.8602 36.0897 76.8774ZM30.7735 74.7325C25.7706 69.7046 21.7204 68.4099 18.6562 69.3508C16.9417 72.9046 16.9709 74.5938 18.0633 75.2279C19.7039 76.1801 23.5269 75.6753 27.8007 75.1108C28.774 74.9824 29.7696 74.8511 30.7735 74.7325ZM69.8073 42.1549C68.1754 42.3602 66.4882 42.7714 64.76 43.404C65.4308 44.1935 66.2022 45.0094 67.0811 45.8518C83.0792 61.1852 80.1346 69.6404 77.0699 78.4396C75.6113 82.628 74.1229 86.9032 75.0096 92.1295C76.7231 92.5323 78.4265 92.77 80.069 92.8151C82.7558 92.8891 85.2743 92.4485 87.3968 91.3719C89.4693 90.3207 91.1809 88.6453 92.3156 86.2264C93.2188 84.3006 93.767 81.9023 93.857 78.9723C93.8463 78.7533 93.891 78.5288 93.999 78.3201C94.3229 77.6923 95.0914 77.4483 95.7145 77.7742C109.628 85.0636 116.698 83.3881 119.23 78.4803C120.975 75.099 120.72 70.2006 119.127 65.5819C117.518 60.9172 114.56 56.5965 110.925 54.4319C106.029 51.5177 99.7349 52.7305 93.7364 62.9263C93.5476 63.2836 93.195 63.5458 92.766 63.5982C92.0685 63.6835 91.4338 63.1836 91.3492 62.4809C90.9722 59.4426 90.2232 56.6469 89.1546 54.1663C87.3749 50.0333 84.7052 46.7441 81.3914 44.634C78.1074 42.5435 74.1653 41.6065 69.8073 42.1549ZM72.8437 94.2038C70.9473 93.6584 69.0616 92.9371 67.2435 92.0712C64.6457 90.8343 63.4882 90.6329 63.2878 91.0607C62.6112 92.5034 65.0071 96.83 67.9648 100.728C70.8768 104.566 74.2158 107.894 75.5038 107.449C76.3968 107.14 76.1079 104.061 73.4206 96.1557C73.1939 95.4897 73.0033 94.8399 72.8437 94.2038ZM128.641 35.556C129.519 35.2306 130.337 34.8861 131.099 34.5254C130.605 34.0496 130.106 33.562 129.6 33.0607C126.632 30.1155 124.303 29.379 122.724 29.7857C121.528 30.0939 120.754 31.1147 120.514 32.2643C120.268 33.437 120.568 34.7258 121.523 35.5364C122.737 36.5664 125.02 36.8992 128.641 35.556ZM227.321 20.7728C227.499 19.9231 227.551 19.0366 227.49 18.1339C223.183 20.3117 218.885 23.6778 214.743 28.5091C222.739 28.0647 226.48 24.7956 227.321 20.7728ZM209.555 30.9834C206.817 30.7918 203.763 30.3561 200.372 29.6358C190.032 27.4404 185.689 29.7578 184.983 33.1337C184.649 34.7298 185.077 36.5875 186.035 38.3311C187.03 40.1418 188.587 41.8079 190.466 42.939C194.749 45.5176 200.776 45.1677 205.608 37.0227C206.899 34.8454 208.217 32.8362 209.555 30.9834ZM241.717 42.8821C241.682 44.3493 242.049 45.8165 242.914 47.1626C245.901 47.2239 248.802 47.3185 251.522 47.4189C260.149 47.7365 264.789 46.258 266.688 44.0832C267.617 43.0193 267.821 41.7486 267.485 40.4574C267.108 39.0078 266.082 37.5073 264.627 36.1719C261.109 32.944 255.238 30.8251 249.902 32.6505C247.131 33.5982 244.772 35.556 243.302 37.9141C242.334 39.466 241.758 41.1831 241.717 42.8821ZM260.919 87.2761C267.051 84.4829 271.767 81.4515 275.125 78.4627C262.465 78.5695 252.871 81.1878 247.465 84.7793C244.773 86.568 243.201 88.5512 242.916 90.5114C242.719 91.8595 243.155 93.2542 244.282 94.6214L247.235 93.333C251.572 91.4425 256.204 89.424 260.919 87.2761ZM243.691 97.6631C237.497 100.379 232.37 102.7 230.002 104.185C229.406 104.558 228.622 104.375 228.251 103.774C228.045 103.44 228.01 103.047 228.123 102.699C230.179 95.2349 229.334 90.4168 226.927 87.8186C225.78 86.5812 224.252 85.8354 222.505 85.5409C220.672 85.2317 218.601 85.4105 216.466 86.0314C209.756 87.9818 202.536 94.2078 199.798 103.349C199.597 104.026 198.89 104.412 198.216 104.211C197.642 104.038 197.278 103.492 197.31 102.914C197.217 97.7297 196.864 93.0194 196.261 88.3596C195.757 84.4642 195.077 80.6066 194.228 76.5388C190.334 80.8977 186.318 83.3847 182.384 84.3755C179.509 85.0993 176.689 85.0268 173.997 84.303C171.343 83.589 168.818 82.2355 166.496 80.3861C161.396 76.3227 157.277 69.833 154.939 62.4829C150.012 70.5426 146.44 75.9674 138.448 79.8176C143.465 80.6532 148.876 82.3203 153.672 84.7882L153.674 84.7842C157.833 86.9238 161.552 89.6793 164.19 93.0346C166.887 96.4649 168.445 100.501 168.199 105.125C168.092 107.122 167.647 109.223 166.808 111.423C172.895 109.67 179.127 108.709 184.503 109.805C190.573 111.042 195.496 114.812 197.861 122.807C204.223 121.002 209.594 120.936 214.024 122.039C216.59 120.045 219.474 118.288 222.545 116.881C233.912 111.674 247.888 111.232 258.073 121.266C261.273 120.194 268.077 121.012 275.815 121.942C279.951 122.439 284.363 122.969 288.534 123.266C297.762 123.924 303.336 122.092 305.788 119.405C306.702 118.404 307.15 117.29 307.161 116.17C307.172 115.019 306.732 113.82 305.873 112.683C303.481 109.522 298.034 106.97 290.054 107.012C265.14 107.142 250.583 103.213 244.307 98.185C244.094 98.012 243.888 97.838 243.691 97.6631ZM222.951 130.33C220.876 127.926 218.1 125.969 214.579 124.864C213.611 125.668 212.699 126.508 211.852 127.375C208.727 130.572 206.486 134.129 205.583 137.639C204.312 142.579 205.765 147.499 211.289 151.21C216.491 154.704 220.49 155.046 223.212 153.534C226.142 151.906 227.719 148.105 227.786 143.759C227.855 139.251 226.299 134.21 222.951 130.33ZM310.655 149.39C309.579 148.332 308.378 147.346 307.054 146.452C301.393 147.511 295.884 150.261 291.379 154.91C284.565 161.943 283.344 168.469 285.204 173.503C286.557 177.163 289.535 180.081 293.17 181.853C296.835 183.641 301.146 184.255 305.127 183.295C310.833 181.918 315.891 177.241 317.409 168.038C317.746 165.994 317.709 163.814 317.3 161.617C316.499 157.311 314.276 152.948 310.655 149.39ZM311.251 211.202C306.792 212.581 301.992 213.645 297.065 214.353C292.341 215.032 287.493 215.387 282.714 215.384C284.115 218.506 285.786 221.385 287.841 223.856C294.037 231.301 300.149 233.275 304.946 232.179C308.136 231.45 310.771 229.357 312.458 226.625C314.153 223.881 314.883 220.502 314.254 217.219C313.852 215.118 312.885 213.05 311.251 211.202ZM296.707 211.818C300.99 211.203 305.167 210.318 309.083 209.194C307.032 207.623 304.341 206.316 300.923 205.431C295.341 203.987 288.455 203.431 280.883 203.683C280.174 203.707 279.458 203.738 278.738 203.776C279.572 206.875 280.512 209.929 281.642 212.823C286.638 212.882 291.739 212.532 296.707 211.818ZM254.813 207.219C261.387 210.612 269.891 212.368 278.891 212.75C277.833 209.904 276.944 206.936 276.15 203.942C269.705 204.423 262.877 205.447 256.01 206.97C255.615 207.057 255.215 207.14 254.813 207.219ZM241.712 187.144C240.718 192.931 243.091 199.52 251.403 205.193C252.786 205.001 254.141 204.758 255.463 204.465C262.265 202.956 269.055 201.93 275.506 201.426C274.921 199.069 274.381 196.712 273.852 194.399C272.829 189.926 271.843 185.62 270.649 181.873C268.535 175.244 264.43 172.346 259.983 172.012C256.098 171.72 251.916 173.325 248.506 176.092C245.081 178.869 242.459 182.8 241.712 187.144ZM221.723 205.174C217.144 203.815 212.731 202.03 208.682 199.841L208.555 199.772C207.334 205.068 205.881 210.409 204.45 215.668C203.939 217.546 203.431 219.413 202.938 221.264C206.455 222.52 211.212 219.67 218.61 210.003C219.821 208.42 220.85 206.809 221.723 205.174ZM209.885 197.587C213.906 199.761 218.298 201.522 222.854 202.846C227.244 192.876 226.364 182.04 225.451 170.816L225.192 167.573C223.368 169.476 221.691 170.814 219.814 171.835C217.522 173.08 214.993 173.817 211.575 174.51C211.92 181.635 210.83 189.331 209.137 197.175L209.885 197.587ZM206.254 198.453C202.023 195.897 198.257 192.867 195.206 189.395C191.545 185.229 188.917 180.436 187.745 175.071C186.251 168.235 187.12 160.498 191.226 151.985C183.007 152.068 176.551 151.112 171.95 148.114C167.05 144.92 164.339 139.543 163.968 130.854C160.423 130.419 157.367 129.575 154.437 128.367C151.759 127.263 149.213 125.867 146.506 124.209C145.92 127.276 144.831 129.521 143.04 131.218C141.37 132.799 139.143 133.841 136.186 134.578C146.812 144.295 151.45 155.825 151.282 165.88C151.2 170.799 149.97 175.372 147.731 179.222C145.476 183.1 142.202 186.242 138.049 188.267C131.269 191.573 122.164 191.888 111.37 187.531C112.657 189.933 113.579 192.182 114.206 194.517C114.991 197.444 115.306 200.488 115.29 204.124C125.362 200.657 136.072 199.202 146.508 200.186C154.75 200.964 162.817 203.261 170.26 207.284C161.488 194.505 158.361 184.681 158.763 178.661C158.988 175.298 160.286 172.986 162.337 171.848C164.362 170.724 167.034 170.814 170.04 172.235C176.377 175.232 184.616 184.463 191.331 201.118L192.239 203.386C195.122 210.587 197.627 216.842 200.702 219.799C201.129 218.208 201.565 216.606 202.002 214.996C203.494 209.52 205.009 203.951 206.254 198.453ZM196.981 298.32C200.263 292.198 202.097 282.217 200.284 270.632C195.633 260.096 188.202 254.115 180.22 249.813L180.153 250.694C177.996 278.727 180.783 294.195 185.059 300.795C186.907 303.646 188.977 304.662 190.941 304.208C193.071 303.717 195.212 301.621 196.981 298.32ZM177.968 245.789C179.168 229.038 178.938 224.141 177.675 224.042C177.106 223.998 175.794 225.125 174.168 226.522C172.194 228.218 169.825 230.254 167.029 231.461C160.847 234.13 153.071 232.737 144.472 215.01C144.632 231.643 156.085 236.446 169.054 241.88C171.986 243.108 174.992 244.368 177.968 245.789Z" fill="#F4F4F4"/>
</svg>
