<svg width="245" height="282" viewBox="0 0 245 282" fill="none" xmlns="http://www.w3.org/2000/svg">
<path fill-rule="evenodd" clip-rule="evenodd" d="M202.907 28.1737C202.869 28.6813 202.538 29.0973 202.093 29.269C202.516 29.4846 202.801 29.9308 202.788 30.4375C202.606 36.9721 203.646 44.1685 204.433 49.614C204.718 51.5877 204.971 53.3346 205.125 54.7762C205.147 54.9957 205.114 55.2244 205.015 55.4395C202.838 60.1769 201.152 65.6527 199.507 70.9959C197.616 77.1408 195.776 83.115 193.253 87.7817C193.206 87.8812 193.146 87.9758 193.072 88.0641L193.056 88.0816L193.053 88.0792C192.587 88.6274 181.133 102.071 176.632 119.849C176.545 120.185 176.324 120.486 175.994 120.662C173.596 121.941 170.221 123.183 166.458 124.566C158.432 127.518 148.577 131.144 143.85 136.693C145.126 137.038 146.519 137.479 148.244 138.205C157.449 142.074 159.324 146.733 157.755 150.463C156.78 152.779 154.404 154.653 151.627 155.688C148.899 156.706 145.734 156.937 143.116 155.995C138.578 154.362 135.668 149.461 139.242 139.538C139.396 139.113 139.572 138.698 139.769 138.29C136.609 137.462 132.926 136.145 125.428 131.418C94.9684 112.218 97.5587 93.7301 100.541 72.4399C102.262 60.1516 104.119 46.8976 99.4693 32.0747C99.26 31.4031 99.6352 30.6887 100.307 30.4794C100.979 30.2707 101.694 30.6458 101.903 31.3168C106.722 46.6801 104.824 60.2277 103.064 72.7886C100.204 93.2097 97.7192 110.943 126.784 129.264C134.547 134.158 137.999 135.233 141.149 136.016C146.047 129.358 156.845 125.385 165.58 122.173C169.011 120.911 172.114 119.769 174.304 118.673C178.893 101.182 189.913 87.8612 191.038 86.5284C193.425 82.0987 195.224 76.2561 197.073 70.2478C198.703 64.9514 200.374 59.5264 202.554 54.706C202.404 53.3922 202.17 51.7779 201.91 49.9725C201.111 44.4469 200.055 37.1472 200.244 30.3673C200.258 29.8391 200.594 29.3948 201.058 29.2158C200.613 28.9895 200.324 28.5126 200.363 27.9839C200.701 23.5723 201.678 19.5186 203.731 16.4773C205.867 13.3122 209.106 11.2703 213.89 11.0679C216.724 10.9484 217.756 11.6921 217.815 13.0972C217.856 14.0652 217.204 15.0162 216.41 16.1725C216.181 16.5061 215.936 16.8636 215.666 17.2884C213.161 21.2314 212.369 26.2263 212.993 29.249C213.181 30.1551 213.473 30.8111 213.852 31.0871C214.077 31.2515 214.441 31.2159 214.956 30.9125C216.055 30.2644 217.406 28.7501 218.995 26.0883C218.815 24.1877 218.74 22.2706 218.819 20.3794C219.028 15.362 220.314 10.5353 223.573 6.66939C228.052 1.35697 232.4 -0.427021 235.859 0.0835917C237.5 0.325974 238.935 1.07557 240.091 2.21043C241.207 3.3048 242.055 4.7586 242.57 6.4543C243.98 11.0991 242.881 17.6776 237.835 23.5811C235.534 26.2726 233.833 27.2621 232.348 26.7389C230.909 26.2321 230.138 24.3989 229.571 21.3957C229.071 18.7568 229.186 16.9289 230.112 15.4C231.016 13.9087 232.605 12.8816 235.085 11.7994C235.757 11.5063 236.056 11.1376 236.071 10.803C236.085 10.4753 235.86 10.1213 235.47 9.86132C234.963 9.52384 234.209 9.36582 233.293 9.56187C231.049 10.0432 228.09 12.5007 225.351 18.9417C224.028 22.0517 222.776 24.5857 221.607 26.6194C221.896 29.2529 222.384 31.8528 222.925 34.2854C224.423 41.0214 225.119 47.0673 225.26 52.5519C226.878 46.029 229.353 38.6024 233.118 30.0108C234.426 27.0276 236.354 25.0744 238.239 24.2726C239.219 23.8561 240.202 23.7322 241.111 23.9132C242.068 24.1034 242.923 24.6145 243.594 25.4577C244.633 26.7652 245.206 28.9071 244.932 31.9103C244.691 34.5366 243.617 37.5529 242.209 41.5037C239.686 48.587 236.062 58.7607 234.461 74.5785C234.456 74.6345 234.446 74.6892 234.434 74.7428L226.96 106.685C226.919 106.863 226.841 107.025 226.737 107.162C226.599 107.392 226.388 107.724 226.104 108.171C222.714 113.499 207.765 136.991 202.739 147.273C203.652 149.352 204.138 152.769 204.096 157.787C203.963 173.557 195.784 178.693 184.542 185.751C182.7 186.907 180.771 188.118 178.742 189.468C170.086 195.225 160.095 201.889 150.338 208.786C140.609 215.663 131.144 222.75 123.538 229.349C107.714 243.079 102.362 268.427 97.4894 291.512C96.2301 297.476 95.002 303.292 93.6471 308.684C89.8819 323.659 82.1344 326.702 72.2927 324.23C64.7726 322.341 56.1131 317.103 47.1083 311.656C32.5085 302.825 16.9725 293.428 4.95234 297.571L4.09215 297.867C1.2852 298.846 0.021519 299.289 5.09594e-05 297.187C-0.00629187 296.493 0.579683 295.711 1.64284 294.293C2.07952 293.71 2.62403 292.985 3.46421 291.811C5.12603 289.491 6.9918 286.951 8.87367 284.39C21.2539 267.539 34.3733 249.681 38.5664 224.493C39.6042 218.262 41.0904 212.261 43.0303 207.445C44.4404 203.944 46.1032 201.044 48.0236 199.092C48.2027 198.91 48.3847 198.736 48.5681 198.57C48.3139 196.989 48.1329 195.355 48.0104 193.709C47.4518 186.195 48.1202 178.398 48.6954 174.526C51.3965 156.334 54.9124 147.696 58.318 139.329C59.6783 135.988 61.021 132.689 62.2716 128.869C67.7235 112.223 68.0089 94.7923 68.2446 80.3201C68.4065 70.4194 68.5461 61.8804 70.2826 55.7541C72.1805 49.0585 72.0107 47.2697 71.7951 45.0014C71.6433 43.4004 71.4706 41.5817 71.8453 38.0587C72.0849 35.8075 72.3728 33.7865 72.7016 31.9757C73.0305 30.1644 73.3983 28.5823 73.7975 27.2065C74.5235 24.7057 75.4398 22.7729 76.4732 21.3352C76.7825 19.6405 77.0396 18.4544 77.2011 18.117C77.8013 16.8646 79.2577 15.5741 81.1883 14.7436C82.5052 14.1769 84.0753 13.8038 85.7713 13.7872C87.4575 13.7707 89.2637 14.1116 91.0602 14.9718C94.1404 16.4471 97.1757 19.442 99.4747 24.7803C99.6826 25.2631 99.9182 25.8337 100.18 26.4897C100.423 27.091 100.641 27.6572 100.837 28.1897C101.079 28.8501 100.74 29.5831 100.079 29.825C99.4176 30.0669 98.6848 29.7274 98.4428 29.0671C98.2315 28.4945 98.0227 27.9493 97.8178 27.4368V27.4314C97.6358 26.9754 97.4069 26.4272 97.1308 25.7869C95.1064 21.085 92.5337 18.4959 89.9629 17.2645C88.5441 16.5846 87.1199 16.3164 85.7908 16.3291C84.472 16.3418 83.238 16.6373 82.1954 17.086C81.405 17.4259 80.7438 17.8395 80.2589 18.2686C81.2288 17.9185 82.2188 17.8336 83.1971 17.979C84.6042 18.1877 85.963 18.8748 87.1755 19.9282C89.514 21.9595 91.3573 25.4197 91.9155 29.4109C92.4605 33.3076 92.7884 36.9579 91.9994 39.9046C91.1407 43.1131 89.0656 45.4174 84.7993 46.209C80.3481 47.0346 77.4221 46.9781 75.6286 45.6291C75.0294 45.179 74.5757 44.6152 74.2541 43.9256L74.3293 44.7615C74.5703 47.3009 74.7606 49.3034 72.7372 56.4422C71.0842 62.2745 70.9471 70.6496 70.7885 80.36C70.5494 95.0156 70.2611 112.667 64.696 129.656C63.4079 133.59 62.054 136.916 60.6824 140.286C57.3329 148.516 53.8741 157.012 51.2189 174.895C50.6603 178.656 50.0113 186.23 50.5539 193.529C50.6403 194.693 50.7574 195.848 50.9091 196.977C52.2416 196.35 53.6721 196.127 55.2022 196.382L55.2481 196.39C55.816 196.489 56.3913 196.653 56.9699 196.886C62.6551 199.173 65.0683 202.595 65.4615 205.701C65.7245 207.779 65.0848 209.714 63.9007 211.121C62.6936 212.555 60.923 213.445 58.9542 213.398C56.3498 213.335 53.4414 211.634 51.2072 207.342C50.3387 205.674 49.6727 203.726 49.1697 201.617C47.7694 203.294 46.5096 205.624 45.3947 208.391C43.528 213.027 42.0901 218.845 41.0801 224.911C36.7875 250.698 23.4837 268.807 10.9292 285.895C9.16008 288.303 7.40409 290.693 5.5393 293.296C5.10359 293.905 4.62593 294.55 4.18681 295.137C17.3199 290.658 33.3551 300.356 48.4251 309.472C57.2656 314.82 65.7674 319.962 72.9109 321.757C81.2708 323.857 87.882 321.156 91.1729 308.065C92.5356 302.643 93.7506 296.892 94.9957 290.993C99.9534 267.507 105.397 241.718 121.872 227.424C129.567 220.748 139.096 213.611 148.872 206.701C158.62 199.81 168.647 193.122 177.335 187.344C179.331 186.017 181.303 184.779 183.186 183.597C193.747 176.966 201.431 172.142 201.552 157.768C201.578 154.777 201.466 152.497 201.238 150.838C198.439 160.318 191.311 170.334 186.495 174.895C184.823 176.479 183.328 177.475 182.247 177.671C180.309 178.024 179.334 177.019 179.795 174.294C180.264 171.522 182.781 165.867 188.509 156.32C192.39 149.849 195.998 145.357 198.796 144.787C199.614 144.621 200.353 144.711 201.002 145.089C206.655 133.983 220.669 111.96 223.949 106.805C224.3 106.254 224.44 106.127 224.499 106.013L231.937 74.2263C233.577 58.1418 237.248 47.8349 239.806 40.6556C241.157 36.8624 242.188 33.966 242.398 31.6806C242.607 29.3934 242.258 27.8718 241.599 27.0427C241.323 26.6954 240.987 26.4882 240.623 26.416C240.211 26.3341 239.737 26.4028 239.237 26.6155C237.898 27.1846 236.482 28.6794 235.453 31.0276C224.324 56.4227 224.679 71.4226 224.954 83.037C225.183 92.6938 225.358 100.093 219.206 109.102C217.206 112.032 215.249 114.384 213.39 116.342C213.278 117.615 213.17 118.531 212.901 119.496C212.355 121.455 211.234 123.233 208.17 128.095L207.018 129.924C203.341 135.774 200.126 139.235 198.051 140.433C196.93 141.08 195.95 141.193 195.172 140.794C194.328 140.36 193.9 139.467 193.959 138.139C194.052 136.042 195.505 132.17 198.79 126.706C200.127 124.483 202.158 122.829 204.686 120.77C206.525 119.272 208.643 117.548 210.923 115.227C211.179 112.182 211.623 107.113 213.731 96.5714C214.442 93.0108 215.634 89.3375 216.924 85.3584C220.831 73.3119 225.677 58.3715 220.442 34.8336C220.09 33.2481 219.759 31.5919 219.487 29.8981C218.291 31.5075 217.208 32.5414 216.252 33.1052C214.742 33.9967 213.426 33.9211 212.356 33.1403C211.439 32.4721 210.814 31.2749 210.5 29.7562C209.767 26.2112 210.652 20.4208 213.512 15.9209C213.756 15.5361 214.039 15.123 214.305 14.7353C214.839 13.9579 215.277 13.3186 215.272 13.1952C215.263 12.965 214.95 13.5688 213.99 13.6092C210.134 13.7726 207.54 15.3932 205.846 17.9024C204.069 20.5359 203.214 24.1692 202.907 28.1737ZM221.334 21.6664C221.872 20.5418 222.43 19.304 223.007 17.9453C226.141 10.5763 229.852 7.69547 232.765 7.07025C234.413 6.71716 235.851 7.05513 236.877 7.73839C238.019 8.49919 238.668 9.69257 238.615 10.9133C238.559 12.1691 237.794 13.3951 236.102 14.1335C234.103 15.006 232.867 15.7595 232.287 16.7173C231.73 17.6371 231.697 18.9309 232.075 20.928C232.466 23.0017 232.808 24.2004 233.196 24.337C233.538 24.4574 234.38 23.7045 235.9 21.9263C240.324 16.7509 241.326 11.1118 240.136 7.19268C239.746 5.90908 239.12 4.82444 238.306 4.02561C237.533 3.26773 236.578 2.76689 235.489 2.60644C232.834 2.21433 229.341 3.76956 225.518 8.3046C222.676 11.676 221.549 15.975 221.362 20.4789C221.346 20.8734 221.337 21.2694 221.334 21.6664ZM222.321 76.3566C221.385 79.8577 220.338 83.0887 219.349 86.1377C218.091 90.0178 216.929 93.5984 216.235 97.0708C214.787 104.312 214.136 108.922 213.789 112.062C214.874 110.762 215.982 109.309 217.102 107.668C222.795 99.3298 222.629 92.288 222.412 83.0979C222.361 80.9755 222.309 78.7414 222.321 76.3566ZM206.015 126.74C208.595 122.648 209.728 120.849 210.264 119.385C208.842 120.668 207.508 121.755 206.292 122.745C203.957 124.647 202.08 126.175 200.975 128.014C197.921 133.092 196.579 136.523 196.503 138.25C196.492 138.489 196.243 138.483 196.339 138.532C196.369 138.547 196.455 138.416 196.774 138.231C198.545 137.209 201.421 134.047 204.863 128.57L206.015 126.74ZM198.804 150.091C199.009 149.395 199.385 148.469 199.895 147.362C199.712 147.264 199.515 147.238 199.306 147.281C197.309 147.688 194.229 151.736 190.694 157.627C185.148 166.874 182.733 172.215 182.31 174.714C182.266 174.972 181.523 175.22 181.8 175.169C182.379 175.064 183.421 174.303 184.741 173.051C189.337 168.698 196.142 159.134 198.804 150.091ZM2.5445 297.168C2.55182 297.897 2.60549 297.507 2.71966 296.917C2.60402 297.036 2.54401 297.106 2.5445 297.168ZM54.7841 198.895C53.5741 198.694 52.428 198.973 51.3487 199.645C51.8317 202.093 52.5187 204.335 53.4726 206.166C55.2071 209.498 57.2573 210.815 59.0152 210.857C60.1774 210.885 61.2313 210.35 61.9569 209.488C62.7053 208.598 63.1083 207.361 62.939 206.022C62.6487 203.727 60.6932 201.13 56.0234 199.25C55.6091 199.084 55.2095 198.968 54.8241 198.901L54.7841 198.895ZM80.2428 21.1065C79.7744 21.4152 79.3152 21.8332 78.8727 22.3721L78.5585 24.2209C77.9018 28.1453 77.0665 33.6065 76.4292 37.8612C75.9594 40.997 76.1307 42.8253 77.1558 43.5964C78.2906 44.4498 80.6121 44.3992 84.3412 43.7071C87.438 43.1326 88.9324 41.5047 89.5365 39.2476C90.2108 36.7282 89.8985 33.3754 89.393 29.7611C88.9212 26.3872 87.4131 23.505 85.5112 21.8536C84.6608 21.1153 83.7435 20.6383 82.8297 20.5022C81.968 20.3745 81.0854 20.5525 80.2428 21.1065ZM147.257 140.548C145.284 139.718 143.751 139.283 142.304 138.92C142.043 139.4 141.818 139.891 141.637 140.397C138.703 148.542 140.689 152.42 143.974 153.603C146.007 154.334 148.528 154.131 150.739 153.306C152.902 152.499 154.719 151.12 155.411 149.476C156.456 146.993 154.732 143.691 147.257 140.548Z" fill="#F4F4F4"/>
</svg>
