<svg width="36" height="44" viewBox="0 0 36 44" fill="none" xmlns="http://www.w3.org/2000/svg">
<path d="M5.51766 42.7677C5.6046 42.391 5.69153 42.0142 5.77847 41.6375C6.41603 39.0583 7.11155 36.5081 7.63319 33.9289C8.00992 32.0452 7.43033 30.3354 6.27113 28.8284C4.18458 26.0463 2.21395 23.4382 1.40251 19.9606C0.649037 16.6858 0.938837 13.1793 2.32987 10.1074C4.70622 4.92001 9.86464 1.67426 15.4867 1.12365C18.1239 0.862828 20.7031 0.978748 23.2533 1.81916C26.4991 2.89142 29.3971 5.73145 30.7591 8.86127C31.3967 10.2813 31.7444 11.8172 31.8314 13.3532C31.8604 14.0776 31.9183 14.947 31.7155 15.6715C31.5126 16.425 31.2518 16.9756 31.5995 17.7581C31.6575 17.874 31.7155 18.0189 31.8024 18.1348C32.4689 19.2361 33.1934 20.3083 33.8889 21.4096C34.1787 21.8732 34.4975 22.3079 34.7583 22.8006C35.193 23.641 35.0481 24.0177 34.2077 24.4814C33.6281 24.8002 32.8167 24.9741 32.5559 25.4667C32.411 25.7565 32.6428 26.1623 32.7587 26.4521C32.9326 26.8288 33.0775 27.2345 33.0485 27.6692C33.0196 27.8721 32.9616 28.0459 32.8167 28.1908C32.7587 28.2198 32.7008 28.2778 32.6428 28.3068C32.5849 28.3647 32.5559 28.4227 32.5559 28.4806C32.5849 28.7704 32.8747 28.8284 32.8167 29.1762C32.7587 29.4949 32.4979 29.7558 32.2661 29.9296C31.4546 30.6541 32.0053 32.1611 31.9183 33.0595C31.8604 33.697 31.5995 34.3346 31.1069 34.7113C30.0926 35.4938 28.4697 35.0881 27.3105 34.9142C25.4848 34.6244 23.0795 34.7983 22.8766 37.1166C22.7027 39.0583 22.9346 41.0289 23.5431 42.8547" stroke="#3464AF" stroke-miterlimit="10" stroke-linecap="round" stroke-linejoin="round"/>
<path d="M17.7754 3.58694V8.33964" stroke="#3464AF" stroke-miterlimit="10" stroke-linecap="round" stroke-linejoin="round"/>
<path d="M10.4438 15.7005H5.66211" stroke="#3464AF" stroke-miterlimit="10" stroke-linecap="round" stroke-linejoin="round"/>
<path d="M17.7755 10.9478V15.7005H12.9648" stroke="#3464AF" stroke-miterlimit="10" stroke-linecap="round" stroke-linejoin="round"/>
<path d="M17.7754 8.36862C18.1521 7.90494 18.7317 7.61514 19.3693 7.61514C20.4995 7.61514 21.4269 8.5425 21.4269 9.67271C21.4269 10.8029 20.4995 11.7303 19.3693 11.7303C18.7317 11.7303 18.1521 11.4405 17.7754 10.9478" stroke="#3464AF" stroke-miterlimit="10" stroke-linecap="round" stroke-linejoin="round"/>
<path d="M10.4436 15.7006C9.92195 15.2659 9.66113 14.7152 9.66113 14.0777C9.66113 12.9475 10.5885 12.0201 11.7187 12.0201C12.8489 12.0201 13.7763 12.9475 13.7763 14.0777C13.7763 14.7442 13.4575 15.3238 12.9648 15.7006" stroke="#3464AF" stroke-miterlimit="10" stroke-linecap="round" stroke-linejoin="round"/>
<path d="M29.8888 15.7005H25.165" stroke="#3464AF" stroke-miterlimit="10" stroke-linecap="round" stroke-linejoin="round"/>
<path d="M22.5281 15.7005H17.7754" stroke="#3464AF" stroke-miterlimit="10" stroke-linecap="round" stroke-linejoin="round"/>
<path d="M25.1361 15.7005C25.5998 16.0772 25.8896 16.6568 25.8896 17.2944C25.8896 18.4246 24.9622 19.352 23.832 19.352C22.7018 19.352 21.7744 18.4246 21.7744 17.2944C21.7744 16.6568 22.0642 16.0772 22.5569 15.7005" stroke="#3464AF" stroke-miterlimit="10" stroke-linecap="round" stroke-linejoin="round"/>
<path d="M17.7744 27.8141V23.0904" stroke="#3464AF" stroke-miterlimit="10" stroke-linecap="round" stroke-linejoin="round"/>
<path d="M17.7744 20.4532V15.7005" stroke="#3464AF" stroke-miterlimit="10" stroke-linecap="round" stroke-linejoin="round"/>
<path d="M17.7745 23.0614C17.3978 23.5251 16.8182 23.8149 16.1806 23.8149C15.0504 23.8149 14.123 22.8876 14.123 21.7573C14.123 20.6271 15.0504 19.6998 16.1806 19.6998C16.8182 19.6998 17.3978 19.9896 17.7745 20.4822" stroke="#3464AF" stroke-miterlimit="10" stroke-linecap="round" stroke-linejoin="round"/>
</svg>
