<svg width="51" height="40" viewBox="0 0 51 40" fill="none" xmlns="http://www.w3.org/2000/svg">
<path d="M6.73412 3.95312C8.96431 3.59744 11.9455 5.25296 11.1488 8.41174C10.6364 10.4431 7.47618 11.1625 5.72644 10.2074C4.30305 9.43046 3.82801 7.28106 4.81259 5.99267C7.30248 2.73452 12.0021 6.52578 9.56964 9.77904C8.06204 11.7953 3.22831 11.9649 3.66048 8.72894C3.8377 7.40193 5.68264 6.36419 6.96022 6.72882C8.59376 7.19504 8.34944 9.68189 7.08224 10.5714C4.11627 12.6533 -0.393698 8.46342 0.887267 5.47864C2.02213 2.83431 8.26719 2.9062 10.9322 2.75216C15.9223 2.46371 17.825 7.04596 16.7693 11.2683C14.2641 21.2883 -0.75818 17.0877 2.1993 7.19444C2.35147 6.68538 2.55872 6.17016 2.93031 5.79007C4.58095 4.1017 7.27744 3.82274 9.54399 3.49328C11.6267 3.19055 14.4028 3.80053 14.9228 6.1688C16.2755 12.3283 10.4478 17.038 5.65548 12.9328C4.22554 11.7079 2.68798 6.36981 3.92996 5.29058C6.08474 3.41814 8.6939 9.33718 8.94338 11.2328C9.38225 14.5676 6.92223 17.239 3.83671 15.3822C1.13316 13.7553 -0.549362 9.37107 1.09277 6.56188C3.14532 3.0506 12.6907 1.3611 15.9485 3.83748C22.0546 8.47914 15.4444 19.3916 8.63568 18.606C4.68299 18.1499 2.45486 14.0466 0.982795 10.6247C0.298083 9.03309 -0.282623 7.2715 0.141041 5.59142C0.786195 3.03304 4.08139 0.626258 7.11373 1.04843C11.2174 1.61975 13.2884 4.34878 13.4713 8.91489C13.6339 12.9742 18.9472 14.4926 24.5757 11.5766C32.7167 7.35896 40.7339 13.413 41.7855 15.7864C42.7557 17.9762 39.2699 20.096 34.2715 18.9909C29.3236 17.8968 30.4061 14.6468 32.8917 13.182C36.4863 11.0636 40.1816 10.9384 42.7313 12.6972C46.8848 15.5623 40.4594 18.5905 36.0008 17.1898C30.9112 15.5909 30.8967 11.655 33.9494 10.3576C37.026 9.05001 39.0803 9.91831 39.9509 10.7306C40.894 11.6105 41.6923 13.8939 38.9371 15.2904C36.8402 16.3532 30.309 17.263 29.5166 14.3245C28.9074 12.0652 31.8074 8.91771 35.3551 8.31384C38.9028 7.70998 42.6769 9.74802 44.4372 11.631C45.7654 13.0517 46.7098 15.3969 46.821 17.3173C46.9805 20.0714 45.7465 21.9458 45.1743 23.2143C41.5846 31.1727 48.0478 40.4409 49.1233 39.2373C50.21 38.0212 39.2305 39.3519 36.5127 39.3972C36.1999 39.4024 35.9402 39.1505 35.9348 38.8377C35.9119 37.5119 35.6027 36.089 34.8669 35.1687C33.6851 33.6906 35.0189 32.2416 35.3087 32.3552C35.3985 32.3904 35.388 32.5758 35.1711 32.9572C34.2545 34.5685 30.0068 35.0483 28.2651 34.0269C26.5235 33.0054 28.1599 31.2302 27.1447 31.0326C26.1294 30.835 26.1149 30.002 26.363 29.6988C26.8451 29.1095 27.7592 28.471 27.8092 28.7978C27.8626 29.1466 26.5668 29.1288 26.3421 29.0786C26.1173 29.0284 25.9063 29.0186 25.8834 28.7645C25.8526 28.4238 26.3632 27.9426 26.3007 27.2776C26.2381 26.6126 25.1875 26.526 25.0044 26.1727C24.8214 25.8193 26.6677 26.1505 26.383 26.5361C26.0983 26.9216 24.3506 26.9697 23.9873 26.1293C23.5294 25.07 26.7576 21.9367 26.2335 19.6239C25.8417 17.8947 26.0923 15.3796 27.0766 13.0233C27.9067 11.0363 29.8022 9.10664 30.9116 8.38938C35.3958 5.49008 41.4974 5.19158 45.9081 10.4845C47.2119 12.0491 48.2878 14.428 48.4043 16.439C48.5713 19.3229 47.2727 21.2828 46.68 22.6141C44.2642 28.0402 46.6064 33.8873 49.9971 38.6342" stroke="#3464AF" stroke-width="0.6" stroke-miterlimit="10" stroke-linecap="round" stroke-linejoin="round"/>
</svg>
