<svg width="72" height="44" viewBox="0 0 72 44" fill="none" xmlns="http://www.w3.org/2000/svg">
<path d="M-3 37.5403C-3 37.5403 27.1255 37.8369 27.5963 37.879C28.0671 37.9212 29.4781 38.6423 29.4781 38.6423C29.4781 38.6423 32.064 38.7847 32.834 38.7746C33.6041 38.7644 35.6194 38.2934 35.2674 38.2934C34.9153 38.2934 32.8619 38.4722 32.4439 38.5013C32.0259 38.5289 29.5529 38.3312 29.5339 38.398C29.5148 38.4635 29.4004 38.8313 29.9519 39.3212C30.5034 39.8111 31.3585 40.1222 32.196 40.2633C33.032 40.4043 35.153 39.8678 34.7349 39.8954C34.3169 39.9231 32.4908 40.0655 32.3295 40.1033C32.1681 40.1411 31.7692 40.2255 31.9775 40.4421C32.1872 40.6587 32.9954 40.9887 33.4413 41.073C33.8886 41.1573 35.857 41.073 36.2559 40.7721C36.6549 40.4711 37.4499 38.3457 37.4499 37.3847C37.4499 36.4238 36.6226 34.0628 35.2967 33.9785C33.9708 33.8942 31.4465 34.9816 30.1631 35.4207C28.8797 35.8582 28.4426 35.6751 28.0612 35.8263C27.6814 35.9775 27.5948 36.9006 28.2226 37.1361C28.8504 37.3717 34.9828 36.7407 34.3653 36.4296C33.7478 36.1185 30.7806 36.8439 29.5353 36.9006C28.2901 36.9573 27.7386 36.873 27.5391 36.9951C27.3396 37.1172 27.3968 37.6551 27.4672 37.6261C27.5391 37.5984 27.7518 36.6506 27.2677 36.4674C26.7822 36.2842 22.0241 37.8427 20.7686 36.7494C19.5131 35.6562 19.2945 30.9255 18.1827 28.1691C17.0709 25.4127 18.9528 16.1258 19.9369 15.6592C20.9211 15.1925 27.2531 13.5105 27.3953 13.8216C27.5376 14.1327 27.5948 20.2677 28.1375 20.4654C28.6787 20.6631 30.2775 19.5612 30.6765 19.8432C31.0754 20.1252 32.5832 24.065 33.0438 23.1506C33.1156 23.0096 34.5839 20.1398 34.4988 19.9842C34.4137 19.8287 31.8176 18.2179 31.005 17.4822C30.1924 16.7466 29.3358 13.3404 29.4077 13.256C29.4796 13.1717 30.0355 10.4429 29.0513 9.43982C28.0671 8.43669 27.0404 9.25664 27.212 10.1318C27.3836 11.0085 28.2534 13.1426 28.4675 13.2982C28.6817 13.4538 28.6391 14.0905 28.5819 14.3726C28.5247 14.6546 28.9809 17.0577 29.4239 17.85C29.8653 18.6424 30.2511 19.1076 30.0795 19.3489C29.9079 19.5888 28.1683 20.07 28.1405 19.8301C28.1126 19.5902 27.6271 13.7372 27.699 13.6238C27.7708 13.5105 29.0117 13.5177 29.1041 13.4043C29.1965 13.2909 29.4107 10.9518 29.1041 10.3223C28.7976 9.69278 27.6755 9.83816 27.4995 9.64335C27.3235 9.44999 27.4848 4.00988 28.8122 2.83666C30.1396 1.66345 31.1795 5.46658 31.6782 6.59619C32.1769 7.72724 31.1223 11.7557 30.6222 12.6324C30.1235 13.509 30.166 10.1158 29.6805 9.48052C29.195 8.84521 27.7547 8.49049 27.8119 8.08051C27.8691 7.67054 27.5552 1.63437 32.1755 1.06884C36.7957 0.503316 39.5341 3.58537 39.6779 4.34861C39.8201 5.11186 38.4942 6.44063 35.9699 6.58165C33.4457 6.72267 32.0904 6.55403 31.819 6.0452C31.5477 5.53637 31.3776 3.47197 30.6354 2.90644C29.8932 2.34092 30.2364 1.90332 31.5198 1.74777C32.8032 1.59221 34.3154 1.36542 36.1694 2.28422C38.0234 3.20302 39.4212 4.99846 39.9067 6.10044C40.3922 7.20242 40.5198 10.8078 40.335 11.1044C40.1502 11.401 39.8641 11.7543 39.936 12.1221C40.0079 12.4899 40.0929 13.8754 39.6368 14.893C39.1806 15.9107 38.4531 15.9528 38.1392 16.8149C37.8254 17.677 37.7256 19.2893 37.4117 19.8403C37.0979 20.3913 35.5402 20.2401 34.1878 19.5292C32.8355 18.8183 30.4374 15.713 30.6647 15.7697C30.8935 15.8264 33.8593 18.8226 34.9579 19.4303C36.0565 20.038 36.9262 19.7981 37.1404 19.4303C37.3545 19.0625 37.6391 16.5896 38.1524 15.9528C38.6658 15.3161 39.5077 14.0731 39.5781 14.0876C39.65 14.1021 44.612 15.162 45.0549 16.3352C45.4964 17.5084 46.3677 20.9713 46.2811 24.7032C46.1961 28.4351 46.0817 33.9203 45.6827 35.361C45.2838 36.8032 44.4785 38.3471 44.0282 38.8109C43.5779 39.2747 36.6886 40.2153 36.6696 39.7064C36.6505 39.1976 37.7344 37.6522 37.0113 36.1824C36.2882 34.7127 35.2043 34.166 34.8053 34.2605C34.4064 34.355 32.9939 35.0528 32.6566 34.8449C32.3192 34.6371 31.2881 30.7932 31.3248 30.1899C31.3629 29.5866 32.1241 30.0198 32.3896 29.8133C32.6566 29.6055 33.8916 25.987 33.94 25.0914C33.9869 24.1959 33.9121 22.8395 33.7683 22.8962C33.6246 22.9529 33.0936 23.9429 32.7035 23.2916C32.1769 22.4135 31.819 29.4266 31.5052 29.6534C31.1913 29.8802 26.7133 31.3776 26.2278 31.1523C25.7423 30.9255 25.7717 27.8158 24.7728 24.6785C23.774 21.5412 21.4638 17.4124 21.92 17.6392C22.3761 17.866 25.6279 25.6875 25.9418 26.9217C26.2557 28.156 26.2645 30.8514 26.5124 30.8136C26.7602 30.7758 32.8062 28.9105 34.157 28.5515C35.5064 28.1938 35.3172 28.4759 35.1075 29.0036C34.8977 29.5313 34.8405 31.3413 35.6399 32.359C36.4393 33.3766 36.3058 33.6601 36.0579 33.7531C35.8101 33.8476 33.4149 33.711 33.0731 33.8942C32.7314 34.0773 32.0171 32.2397 31.8748 31.6321C31.7325 31.0244 32.0464 29.5255 32.3881 29.3569C32.7299 29.1868 35.8966 28.5369 36.2105 28.3101C36.5244 28.0833 38.7347 24.4648 39.0633 24.2671C39.3918 24.0694 42.3576 23.264 42.9282 23.6173C43.4987 23.9705 44.6545 25.2281 44.7396 25.4272C44.8247 25.625 45.187 26.6572 45.0344 26.7415C44.8819 26.8258 44.6355 26.8258 44.6545 26.9203C44.6736 27.0148 44.7308 27.259 44.8159 27.2881C44.9009 27.3157 48.6279 27.9379 48.8289 27.8158C49.0284 27.6937 45.382 26.8694 45.1327 26.8825C44.8833 26.897 44.7689 26.9668 44.3978 26.5859C44.0268 26.2036 43.1218 25.0449 42.6935 24.9678C42.2652 24.8908 41.438 25.1874 40.9891 25.0667C40.5403 24.946 40.1267 25.1801 40.1839 25.1874C40.2411 25.1946 41.7958 25.1452 42.5585 25.4272C43.3213 25.7093 43.7701 26.1192 43.9065 26.3388C44.0414 26.5583 44.7983 27.3143 44.9831 27.8086C45.1679 28.3029 45.3468 28.9323 45.0901 29.1373C44.8335 29.3423 44.634 29.0239 44.5049 28.819C44.3758 28.614 44.1192 27.8653 43.8199 27.4437C43.5207 27.0235 41.1534 26.6208 40.8175 26.5219C40.4816 26.4231 40.3115 26.189 40.3687 26.1687C40.4259 26.1483 41.2106 26.4304 41.545 26.5292C41.8809 26.6281 43.4415 26.8825 43.7407 27.0947C44.04 27.307 44.4609 28.0208 44.4682 28.204C44.4756 28.3872 44.546 29.8017 44.4462 30.0067C44.3465 30.2117 43.6542 29.8439 43.5765 29.6244C43.4987 29.4048 43.5046 29.1228 43.3198 28.9876C43.135 28.8538 42.3855 28.1895 42.1435 28.1458C41.9014 28.1037 40.1898 27.6021 40.2103 27.6719C40.2323 27.7431 41.4937 28.3581 41.8428 28.4642C42.1919 28.5704 42.8123 28.6198 43.0044 29.0298C43.1966 29.4397 43.2963 29.588 43.333 29.8846C43.3697 30.1812 43.0983 30.8528 42.7624 30.7118C42.4265 30.5708 42.2916 29.9834 41.9851 29.9195C41.6785 29.8555 40.9862 29.7785 40.687 29.7915C40.3878 29.8061 40.2088 31.241 39.0618 31.6015C37.9134 31.9621 37.0363 32.1249 36.6945 32.2659C36.3528 32.4069 36.1958 32.7747 35.9963 32.5625C35.7969 32.3502 35.483 30.9938 35.6252 31.2061C35.7675 31.4183 36.1533 32.026 36.3234 32.0537C36.495 32.0813 37.5247 31.5477 37.5922 31.7716C37.6596 31.9955 36.451 33.4537 36.5508 33.5249C36.6505 33.5961 39.9448 33.7372 40.002 33.397C40.0592 33.0582 38.8037 31.7425 38.7905 32.0827C38.7758 32.4215 39.2466 32.987 39.2188 33.2283C39.1909 33.4682 36.4085 33.7793 36.0389 33.8651C35.6678 33.9494 38.3783 35.377 37.8928 37.5694C37.4073 39.7602 36.8236 39.8024 37.1507 40.0292C37.4792 40.256 43.9109 39.9725 44.9097 38.4315C45.9086 36.8904 48.2187 28.5922 48.603 28.3377C48.9888 28.0833 68.1987 27.6588 68.1987 28.2534C68.1987 28.8466 62.851 41.3144 62.0369 41.9511C61.2243 42.5879 43.9388 43.1389 43.9388 42.9688C43.9388 42.7987 48.1322 28.8887 49.1164 29.0167C50.1005 29.1446 65.9971 28.5922 66.2846 28.8887C66.5721 29.1853 62.3303 40.4232 61.2243 41.3565C60.1184 42.2898 44.6956 42.8539 44.3377 42.8263C43.9813 42.7987 36.4936 41.0454 37.4059 40.8186C38.3182 40.5918 44.4506 39.3197 44.48 39.6309C44.5079 39.942 43.6527 42.3451 43.7671 42.3727C43.8816 42.4003 75 40.6485 75 40.6485" stroke="#3464AF" stroke-width="0.6" stroke-miterlimit="10"/>
</svg>
