<svg width="300" height="184" viewBox="0 0 300 184" fill="none" xmlns="http://www.w3.org/2000/svg">
<path d="M-35 172.906C-33.474 172.906 71.1046 172.906 71.1046 172.906C71.1046 172.906 65.3059 133.743 71.1046 121.6C76.9033 109.456 89.1112 78.4898 98.2672 98.2232C107.423 117.957 95.5204 137.994 93.9944 151.655C92.4684 165.317 97.6568 157.423 86.9749 159.548C76.293 161.674 90.3321 155.602 103.456 167.745C116.579 179.889 133.06 180.496 132.754 162.281C132.449 144.065 128.787 120.689 119.326 108.242C109.865 95.7944 103.761 82.74 98.8775 87.5974C93.9944 92.4549 106.507 89.419 101.319 77.8826C96.1308 66.3462 83.6177 74.2395 86.0593 57.8456C88.5009 41.4517 86.6697 35.9871 95.5204 37.2015C104.371 38.4158 93.9944 25.3614 107.728 28.701C121.462 32.0404 136.964 25.797 131.228 38.7194C126.892 48.4883 124.766 37.9998 128.176 49.9523C131.021 59.9208 119.936 58.1492 113.832 58.1492C107.728 58.1492 113.832 77.2755 115.663 73.9359C117.495 70.5965 112.917 56.6313 115.053 65.4354C117.189 74.2395 120.289 89.9941 132.755 89.7227C146.273 89.4283 145.582 60.7101 134.586 45.702C126.162 34.2048 103.761 28.3974 112.917 43.2733C122.073 58.1492 85.1438 43.8805 93.6892 62.0959C102.235 80.3113 106.508 65.4354 111.391 80.0077C116.274 94.58 113.518 98.5955 125.735 98.2231C137.061 97.8779 132.12 117.992 146.308 125.191C159.504 131.887 157.134 156.653 165.105 170.174C167.576 174.364 163.579 131.314 154.424 117.956C145.268 104.598 137.943 98.2231 134.891 98.2231C131.839 98.2231 155.644 105.509 159.002 119.474C162.359 133.44 168.768 153.78 171.515 140.119C174.261 126.457 179.145 122.207 183.112 127.671C187.08 133.136 174.035 114.105 183.112 100.348C193.591 84.467 213.532 56.2322 203.678 85.2343C195.134 110.382 201.323 110.792 199.288 124.028C197.389 136.376 188.911 143.762 188.606 144.369C188.3 144.976 182.195 144.534 182.195 144.534C182.195 144.534 199.593 150.441 205.697 141.333C211.801 132.225 220.816 139.842 213.464 143.751C208.261 146.517 214.93 151.757 211.327 154.268C207.855 156.688 188.469 161.967 179.755 165.317C168.8 169.527 165.723 144.765 167.242 154.994C168.957 166.545 169.738 188.138 180.958 174.407C187.415 166.505 197.731 163.399 192.543 176.757C187.355 190.115 277.113 179.282 278.334 169.87C279.555 160.459 283.522 154.084 271.925 158.03C260.327 161.977 235.911 151.655 224.924 157.423C213.937 163.191 208.854 146.403 213.127 143.974C217.399 141.546 226.145 140.422 227.366 143.458C228.587 146.494 219.431 137.386 225.229 136.475C231.028 135.565 227.366 143.762 236.217 144.065C245.067 144.369 271.009 139.815 274.061 135.565C277.113 131.315 274.671 134.35 270.399 133.44C266.126 132.529 272.535 111.278 274.671 102.777C276.808 94.2765 285.353 73.3287 291.152 84.8652C296.951 96.4017 303.877 137.134 294.111 138.044C284.345 138.955 281.691 136.172 285.048 135.565C288.405 134.958 295.12 144.673 292.068 111.278C289.016 77.8827 292.373 78.4899 272.84 75.1504C253.308 71.8109 265.821 57.5422 247.814 76.3647C229.807 95.1873 242.321 82.7401 235.606 69.9894C228.892 57.2386 236.217 61.7924 213.022 68.775C189.827 75.7577 235.911 70.9002 228.892 55.417C221.872 39.9339 216.989 16.2539 234.08 16.5575C251.171 16.8611 248.73 23.8436 253.918 29.6118C259.106 35.38 265.821 23.54 264.6 36.2908C263.379 49.0417 254.834 31.4334 259.106 35.38C263.379 39.3267 258.191 58.1493 242.015 59.6673C225.84 61.1852 228.677 37.7949 236.522 25.6651C242.833 15.9059 240.287 15.4035 226.174 16.8722C218.033 17.7194 224.148 5.4636 227.976 7.75326C236.284 12.7228 235.606 -4.08677 241.405 2.59223C247.204 9.27122 260.671 -3.96913 259.451 8.47807C258.23 20.9253 267.041 6.84248 265.515 18.6825C263.989 30.5225 267.041 20.2005 268.873 29.0046C270.704 37.8087 264.6 39.6303 262.464 47.22C260.327 54.8098 255.139 49.6488 257.886 56.9349C260.632 64.2211 254.524 64.0894 269.478 68.3397C284.433 72.5899 285.338 78.2975 285.338 78.2975" stroke="#3464AF" stroke-miterlimit="10"/>
</svg>
