<svg width="307" height="502" viewBox="0 0 307 502" fill="none" xmlns="http://www.w3.org/2000/svg">
<path d="M243.482 177.522C241.058 173.226 226.986 159.557 225.657 158.542C224.328 157.526 221.67 149.872 221.748 146.592C221.826 143.311 230.484 121.519 230.015 120.582C229.546 119.645 213.539 120.172 206.092 116.189C198.646 112.205 186.723 99.8058 185.707 99.8058C184.69 99.8058 189.772 109.96 197.981 115.818C206.19 121.676 221.435 124.019 228.627 123.16C235.82 122.301 241.605 117.224 246.452 106.601C251.3 95.9787 254.349 73.4059 252.316 68.7975C250.283 64.1891 247.547 53.3325 246.218 45.756C244.889 38.1797 231.52 7.48374 203.688 6.54656C175.856 5.60922 157.328 49.5833 157.484 52.5513C157.64 55.5194 170.305 37.0081 175.152 32.6342C180 28.2602 198.645 20.762 212.131 19.9418C225.617 19.1217 231.794 25.3702 234.608 26.4637C237.423 27.5573 237.462 24.9797 235.038 17.5596C232.614 10.1395 218.229 2.25081 209.786 1.07921C201.343 -0.0923903 170.931 11.8578 160.142 28.6509C149.353 45.4437 157.191 67.8018 158.832 69.7348C160.474 71.6681 166.103 66.0443 166.689 60.8307C167.276 55.6171 172.553 36.3444 176.892 35.1728C181.231 34.0012 186.567 39.9177 188.209 43.9012C189.85 47.8846 181.055 52.8638 179.062 56.9645C177.068 61.065 179.882 78.0533 178.534 81.568C177.185 85.0828 172.67 75.4171 170.149 75.4758C167.628 75.5343 173.843 82.1539 173.785 87.5432C173.726 92.9326 170.384 94.8071 165.615 91.5267C160.846 88.2462 160.064 77.077 160.924 73.4841C161.784 69.8911 166.006 65.8296 171.791 74.6557C177.576 83.4817 176.247 90.8236 174.684 93.4793C173.12 96.1349 177.811 113.318 176.638 119.489C175.465 125.659 162.175 130.892 166.983 132.767C171.791 134.641 181.876 146.943 183.049 145.42C184.222 143.897 172.964 127.495 151.386 128.666C129.808 129.838 116.44 146.826 117.261 151.512C118.081 156.199 139.073 138.273 147.516 138.273C155.96 138.273 167.921 155.379 171.322 172.484C174.723 189.589 163.23 250.395 165.224 250.63C167.218 250.864 174.723 207.046 175.544 189.121C176.365 171.195 165.693 135.813 149.744 136.047C133.796 136.282 116.44 158.073 109.052 172.953C101.664 187.832 97.5984 248.364 99.0839 253.441C100.569 258.518 100.257 247.349 120.427 246.412C140.597 245.474 160.299 256.722 162.41 255.628C164.52 254.535 158.149 250.083 157.132 249.888C156.116 249.692 155.217 264.923 155.178 267.188C155.139 269.453 192.822 270.547 193.682 271.875C194.541 273.202 163.23 270.02 156.722 270.078C150.214 270.137 146.461 273.944 145.933 276.288C145.406 278.631 145.875 279.509 149.158 275.409C152.442 271.308 170.149 272.499 172.339 270.625C174.528 268.75 195.949 207.983 196.262 194.705C196.574 181.427 185.043 149.638 185.16 148.642C185.277 147.646 216.471 172.66 221.514 172.25C226.556 171.84 227.338 165.533 223.273 162.252C219.207 158.972 220.966 154.637 221.357 154.051C221.748 153.465 231.951 157.253 239.339 166.392C246.727 175.53 251.3 189.004 248.134 190.644C244.968 192.284 222.98 182.326 219.872 182.208C216.764 182.091 193.603 263.752 194.424 267.735C195.245 271.718 238.479 258.597 243.482 256.409C248.486 254.222 254.74 247.037 263.809 238.289C272.878 229.541 292.931 229.365 295.1 228.662C297.27 227.959 305.596 203.883 304.423 201.54C303.251 199.197 232.185 183.849 229.371 184.317C226.556 184.786 195.636 265.158 198.138 269.844C200.64 274.53 253.88 256.956 255.444 252.738C257.007 248.521 269.125 237.664 276.24 234.93C283.354 232.197 295.394 230.634 298.677 230.244C301.961 229.853 304.541 229.775 306.104 233.134C307.668 236.492 302.195 240.085 298.599 240.32C295.003 240.554 287.419 244.928 285.856 245.631C284.292 246.334 289.843 248.365 291.641 248.365C293.439 248.365 293.674 243.053 294.846 242.507C296.019 241.96 301.804 255.472 299.537 259.534C297.27 263.595 299.928 267.423 299.537 272.265C299.146 277.108 296.723 275.389 293.126 282.419C289.53 289.449 278.116 292.378 275.653 293.002C273.191 293.627 270.845 320.457 269.125 323.269C267.405 326.081 209.318 310.498 207.911 310.44C206.503 310.381 195.011 316.884 194.542 318.7C194.073 320.516 272.116 321.629 273.757 320.691C275.399 319.754 278.976 292.3 278.819 291.284C278.663 290.269 275.458 290.855 270.337 291.245C265.216 291.636 260.682 287.027 255.365 288.433C250.049 289.839 158.423 327.33 155.452 329.673C152.481 332.017 152.481 351.075 150.917 355.761C149.354 360.448 79.4611 386.379 75.3958 388.097C71.3305 389.815 66.1706 390.128 66.327 399.501C66.4833 408.874 57.7272 430.899 57.7272 438.398C57.7272 445.896 114.173 448.552 120.271 439.179C126.369 429.806 159.947 362.283 156.429 354.902C152.911 347.521 158.54 329.83 156.195 325.846C153.849 321.863 134.617 333.579 117.965 330.415C101.312 327.252 97.4425 296.088 96.0352 273.124C94.628 250.161 102.602 207.281 99.0842 204.937C95.5661 202.594 73.9884 212.436 59.4471 230.01C44.9056 247.584 36.6968 286.715 49.5964 319.754C62.4961 352.793 86.1845 345.06 88.5299 338.5C90.8753 331.939 69.7668 338.265 62.7306 314.365C55.6944 290.464 51.8245 254.145 55.108 244.772C58.3916 235.399 57.3361 231.181 52.6453 237.274C47.9545 243.366 35.0548 253.207 28.4877 289.292C21.9207 325.378 36.9311 407.389 42.7946 426.369C48.6581 445.349 50.0652 442.303 73.2847 450.504C96.5042 458.706 115.033 451.988 119.333 452.223C123.633 452.457 126.994 494.947 128.167 498.384C129.34 501.82 243.599 497.993 245.28 496.899C246.961 495.806 254.818 488.757 258.747 482.84C262.675 476.924 262.851 461.693 261.209 459.174C259.568 456.655 260.154 464.681 258.043 472.472C255.932 480.263 240.57 497.134 240.394 498.481C240.218 499.828 267.014 501.527 268.656 500.414C270.298 499.301 271.588 489.401 271.822 479.677C272.057 469.953 270.155 451.959 270.181 448.864C270.22 444.178 264.434 323.581 262.402 327.018C260.369 330.454 264.122 393.252 264.747 394.814C265.373 396.376 273.347 410.279 274.129 417.465C274.911 424.651 274.598 434.258 276.865 438.788C279.132 443.318 290.547 459.408 289.296 461.595C288.045 463.782 281.947 466.047 278.35 460.892C274.754 455.737 271.538 451.883 270.181 451.441C267.235 450.483 202.751 456.128 166.866 450.27C130.982 444.412 130.747 429.806 130.747 429.806C130.747 429.806 130.161 428.127 128.167 436.445C126.174 444.763 116.44 449.567 115.737 451.793C115.033 454.019 125.822 501 124.649 501C123.476 501 -222 500.883 -222 500.883" stroke="#3464AF" stroke-miterlimit="10"/>
</svg>
