<svg width="1140" height="337" viewBox="0 0 1140 337" fill="none" xmlns="http://www.w3.org/2000/svg">
<path d="M1139.99 335.503C1134.97 335.569 630.819 337.561 618.35 334.701L618.476 332.778C618.572 331.316 616.727 330.687 614.174 329.817C610.375 328.522 604.637 326.565 601.319 320.591C596.325 311.571 594.013 299.328 595.138 287.826C595.148 287.664 595.016 282.885 594.74 278.218C594.166 268.528 593.554 268.457 593.108 268.407C592.55 268.333 592.258 269.014 591.901 271.168L589.532 285.584C589.245 286.58 589.143 287.306 589.075 287.788C589.037 288.057 588.995 288.363 588.965 288.412C588.841 288.458 588.301 288.33 587.726 288.195C587.438 288.128 587.101 288.049 586.703 287.962C585.957 287.802 584.239 287.441 581.854 286.938C570.357 284.517 535.827 277.242 533.217 276.245C533.144 273.61 538.009 242.576 539.863 230.748L540.536 226.445C540.679 225.523 540.793 224.793 540.951 224.692C541.063 224.62 541.551 224.755 542.068 224.9C542.554 225.036 543.16 225.206 543.964 225.373L544.058 225.392L544.151 225.364C548.035 224.168 547.473 221.348 547.171 219.833C547.096 219.461 546.995 218.95 547.036 218.852C547.042 218.849 547.203 218.788 547.893 219.059C548.145 219.141 573.244 227.342 582.654 228.881C583.343 228.994 583.885 229.056 584.314 229.105C585.554 229.246 585.554 229.246 585.577 230.682L585.586 231.176C585.593 231.628 585.624 232.006 585.649 232.322C585.683 232.744 585.715 233.142 585.629 233.228C585.443 233.415 584.266 233.324 583.405 233.256C579.937 233.029 571.369 231.554 550.244 225.817C549.025 225.485 547.924 225.63 547.369 226.196C547.068 226.503 546.963 226.907 547.079 227.304C547.293 228.032 548.167 228.604 549.54 228.916L584.709 236.83C585.785 237.066 586.606 242.171 587.329 246.674C588.201 252.102 589.19 258.253 591.075 261.662C591.524 262.465 593.783 265.12 594.854 264.625C595.474 264.333 595.431 263.413 594.71 261.546C593.193 257.653 589.623 247.862 589.253 241.03C589.24 240.863 588.056 224.405 593.751 223.204C594.396 223.148 595.221 223.241 595.361 223.468C595.4 223.532 595.361 223.673 595.254 223.846C594.34 225.338 591.149 236.52 593.71 238.838L593.776 238.898L593.862 238.921C594.284 239.034 594.678 238.973 595.003 238.738C596.173 237.896 596.338 234.95 596.546 231.219C596.778 227.052 597.04 222.329 598.868 220.735C599.341 220.323 599.891 220.148 600.608 220.203C601.068 220.181 602.357 220.245 602.795 220.795C602.953 220.993 602.983 221.25 602.878 221.648C602.522 225.336 601.782 234.015 602.61 234.925L602.682 234.986C602.771 235.045 603.574 235.553 604.238 235.221C604.64 235.021 604.866 234.588 604.911 233.907C604.908 233.228 604.865 232.382 604.815 231.403C604.578 226.762 604.182 218.995 607.985 218.2C609.839 217.795 610.948 218.288 611.28 219.673C611.282 228.377 611.685 232.956 612.497 233.294C612.661 233.351 613.51 233.622 614.017 233.263C614.175 233.152 614.364 232.935 614.362 232.504C614.071 229.384 613.638 220.942 615.115 219.371C615.283 219.192 615.427 219.181 615.511 219.178L615.564 219.18L615.616 219.166C616.362 218.971 617.022 219.11 617.633 219.589C621.029 222.247 621.633 234.226 621.577 238.211L621.573 238.503L621.855 238.577C622.902 238.853 623.94 238.595 624.939 237.813C628.092 235.341 630.037 228.145 630.003 226.205C630.001 226.123 629.805 217.95 632.195 215.754C632.617 215.366 633.082 215.211 633.63 215.269C633.689 215.275 634.206 215.339 634.325 215.902C634.387 216.192 634.563 216.415 634.835 216.544C636.176 217.189 640.024 215.389 644.542 213.149C645.512 212.667 646.349 212.253 646.896 212.017C647.267 211.847 647.642 211.677 648.017 211.509C648.136 212.822 648.248 213.899 648.382 214.766L634.747 221.13L634.807 221.419C634.829 221.528 636.983 232.285 631.994 237.406C618.938 251.941 611.927 265.398 620.155 283.854C621.879 286.992 632.422 312.061 631.909 314.095C629.838 322.376 624.087 325.895 621.324 327.586C620.264 328.235 619.78 328.531 619.695 328.925C619.276 330.766 619.888 331.317 620.474 331.455C623.526 332.174 633.412 321.803 635.536 313.143C635.582 312.945 640.232 293.207 641.111 275.372C641.132 274.862 641.164 274.437 641.19 274.088C641.261 273.12 641.293 272.679 640.949 272.434C640.602 272.186 640.198 272.36 639.224 272.782C638.996 272.881 638.736 272.993 638.439 273.117L626.647 277.953C625.476 278.437 624.466 278.475 623.944 278.053C623.703 277.858 623.601 277.583 623.658 277.279C623.755 276.751 624.276 276.285 625.054 276.031L640.712 270.856C643.943 269.785 651.224 246.21 658.61 220.893C659.061 219.351 659.465 217.962 659.815 216.776C660.042 216.015 660.252 215.404 660.417 214.923C660.791 213.836 660.946 213.386 660.622 213.085C660.289 212.774 659.846 212.962 658.527 213.52C658.205 213.656 657.832 213.813 657.404 213.989L650.148 216.889C649.982 216.955 649.913 216.913 649.879 216.892C649.598 216.72 649.387 216.099 649.215 215.2L652.155 213.828C652.836 213.516 653.457 213.286 654.004 213.083C655.166 212.652 655.867 212.392 655.935 211.783C655.994 211.258 655.55 210.769 654.239 209.912C652.363 208.7 651.924 208.835 650.537 209.536C650.228 209.693 649.857 209.881 649.393 210.086C649.152 210.191 648.91 210.297 648.667 210.403C648.658 210.297 648.649 210.19 648.639 210.083C647.969 202.316 646.953 190.588 639.821 184.756C633.792 176.551 624.217 172.67 615.765 169.246C611.469 167.507 607.413 165.863 604.132 163.808C601.602 162.227 600.409 160.76 599.695 159.884C599.21 159.286 598.913 158.925 598.489 158.987C597.986 159.059 597.763 159.587 597.025 161.336L596.861 161.724C592.694 171.542 587.494 176.989 580.911 183.885C579.106 185.776 577.24 187.73 575.262 189.915C573.937 191.379 572.847 191.979 572.025 191.703C569.814 190.961 569.233 184.293 568.81 179.424C568.41 174.836 568.192 172.803 567.216 172.69C566.524 172.617 565.796 173.476 564.3 178.025L563.733 179.74C561.638 186.061 558.77 194.718 558.881 198.634C559.022 203.304 557.567 216.175 556.664 218.948C556.611 218.644 556.552 218.163 556.503 217.405C556.421 216.286 557.091 189.987 558.068 184.756C558.882 180.415 558.716 171.928 556.983 170.06C556.609 169.658 556.224 169.609 555.968 169.635C555.472 169.69 553.966 169.859 545.356 186.935C544.984 187.68 544.136 189.375 543.778 189.646C543.597 189.418 543.342 188.536 543.094 187.68C542.853 186.847 542.552 185.81 542.132 184.604C541.767 183.555 542.179 182.286 542.522 182.157C542.631 182.11 542.909 182.326 543.208 183.055C543.392 183.505 543.679 183.617 543.889 183.63C544.8 183.71 545.879 181.878 548.017 178.108C549.727 175.089 551.667 171.666 553.556 169.678C555.913 167.232 553.602 164.844 551.367 162.535C550.332 161.466 549.261 160.36 548.59 159.22C547.973 158.182 547.931 156.603 548.307 155.937C548.456 155.673 548.597 155.673 548.651 155.676C548.84 155.676 549.549 155.85 550.827 158.046C552.72 161.354 556.203 167.204 558.268 169.205C559.552 170.449 559.52 175.683 559.505 178.199C559.488 181.113 559.696 181.641 560.171 181.721C560.794 181.823 561.136 180.918 562.221 177.752C563.3 174.601 564.931 169.841 566.488 169.382C578.264 164.671 584.139 161.646 590.973 152.441C594.069 148.237 593.844 146.218 593.605 144.082C593.282 141.23 593.727 139.485 593.895 138.829C593.981 138.49 594.049 138.222 593.769 138.068C593.482 137.912 593.312 138.096 592.97 138.46C592.442 139.02 591.208 140.332 588.613 142.339C581.749 147.603 570.173 153.758 554.028 153.179C552.754 153.133 551.85 152.772 551.546 152.189C551.378 151.867 551.411 151.495 551.64 151.141C551.987 150.605 552.837 150.054 554.173 150.136C559.344 150.462 577.128 150.599 588.904 138.545L588.982 138.43C592.336 130.504 597.983 118.425 599.791 117.641L599.906 117.563C601.923 115.547 605.809 114.397 607.466 115.324C608.231 115.753 608.468 116.605 608.166 117.856C608.141 117.963 605.467 128.589 597.06 130.002C594.031 130.502 593.769 131.779 593.796 132.304C593.842 133.193 594.743 133.916 595.893 133.985C598.016 134.106 605.649 130.373 609.195 124.888C611.636 121.112 611.865 117.224 609.874 113.33C609.905 112.755 610.116 109.696 611.219 107.562C615.054 100.138 615.408 92.1111 612.273 83.7021C608.345 73.1698 600.415 65.9864 599.448 65.5361L599.45 65.5324C598.852 65.2237 598.179 64.8278 597.486 64.332C598.276 63.2525 597.773 60.8369 597.194 58.059C596.671 55.5488 596.078 52.7038 596.646 51.2134C596.951 50.4038 597.354 49.6426 597.843 48.9246C599.037 50.2629 600.802 51.3104 603.858 51.7726L612.234 53.043C642.035 56.6335 654.352 40.7765 654.982 39.9318C661.085 34.2433 659.864 22.5539 659.809 22.0588C658.025 5.88046 637.686 1.83513 637.507 1.80158C622.043 -2.30339 583.768 -0.0838791 570.119 15.7068C564.66 22.0216 563.812 29.6903 567.61 38.5257C575.527 53.7572 583.632 51.5817 587.989 50.4105C589.203 50.0847 590.254 49.8028 590.646 50.1249C590.878 50.3135 590.972 50.7832 590.926 51.5206C590.548 57.8525 593.241 61.7838 596.005 64.124C593.094 63.6752 590.447 63.1093 587.887 62.5614C584.141 61.7606 580.604 61.004 576.302 60.5775C569.573 59.8961 561.606 62.4771 556.02 67.1525C552.876 69.7835 549.027 74.259 548.543 80.6394C548.405 82.5167 548.512 83.1712 548.985 83.3315C549.573 83.5343 550.045 82.8074 551.196 81.0629C553.315 77.8548 556.864 72.4816 561.58 73.1392C563.794 73.4568 565.338 75.1179 566.973 76.8766C569.171 79.2423 571.667 81.921 576.23 81.4669C576.716 81.6079 579.749 82.5286 580.857 83.8266C581.865 85.006 584.325 85.021 586.931 85.0366C589.603 85.053 592.365 85.0694 593.485 86.3048C593.884 86.7462 594.053 87.3277 593.998 88.0807C593.737 88.5273 592.548 90.7035 593.119 92.3519C593.368 93.0714 593.907 93.5873 594.69 93.8736C594.718 93.8863 597.47 95.1775 598.17 97.4462C598.503 98.5258 598.318 99.6747 597.62 100.862C597.186 101.236 594.299 103.833 594.134 106.823C594.061 108.135 594.524 109.328 595.509 110.37C596.913 112.974 598.117 116.12 597.627 116.693C597.596 116.728 597.583 116.734 597.537 116.724C596.648 116.549 594.534 112.948 594.051 111.502C593.94 111.162 593.701 110.803 593.425 110.386C592.389 108.823 590.827 106.464 594.147 102.335C594.464 102.069 596.861 99.9818 596.561 98.0442C596.421 97.1286 595.727 96.4159 594.501 95.9261C594.475 95.9156 591.997 94.9017 591.359 92.8552C591.007 91.7272 591.281 90.4732 592.174 89.1275L592.23 89.041L592.236 88.9381C592.244 88.7532 592.289 87.116 591.366 86.5568C590.902 86.275 590.317 86.3264 589.631 86.7067C586.455 87.031 581.211 87.0503 580.308 85.7508C580.147 85.3259 578.926 82.5219 575.608 82.6091C572.627 82.6859 565.716 80.8004 563.85 77.5983C562.815 75.809 561.524 74.8726 560.016 74.9054C556.019 74.9121 552.182 81.2433 551.461 82.4995C551.348 82.68 540.088 100.81 538.808 126.961C538.829 127.426 538.828 128.162 538.828 129.074C538.827 133.781 538.824 142.543 541.439 144.447C542.004 144.859 542.653 144.952 543.369 144.72C548.494 143.045 552.342 142.419 553.409 143.085C553.564 143.182 553.643 143.295 553.665 143.455C553.816 144.472 551.065 146.527 542.893 149.249C541.628 149.668 539.061 149.73 536.342 149.795C532.118 149.896 528.127 149.992 526.915 151.3C526.643 151.595 526.515 151.937 526.535 152.32C526.552 152.641 526.69 152.915 526.934 153.112C527.792 153.812 529.928 153.494 532.633 153.092C536.429 152.528 541.154 151.824 542.242 154.256C542.29 154.341 546.999 162.819 545.134 169.206C544.967 169.725 544.715 170.261 544.545 170.481C544.525 170.434 544.502 170.37 544.477 170.282C544.425 170.106 544.4 169.608 544.372 169.031C544.233 166.192 543.944 160.283 539.627 157.054C536.547 154.75 531.993 154.302 526.093 155.724L525.896 155.772L525.829 155.964C525.789 156.077 525.454 157.086 525.844 157.734C526.007 158.005 526.271 158.177 526.609 158.229C526.842 158.266 527.188 158.181 527.952 157.987C530.023 157.463 534.332 156.373 537.534 158.37C539.384 159.524 540.628 161.574 541.239 164.484C542.296 168.34 543.315 172.651 543.195 173.189C543.046 173.733 542.503 174.179 542.405 174.21C542.405 174.21 542.383 174.174 542.374 174.066C542.362 173.915 539.942 158.971 532.886 158.615C530.593 158.524 525.097 159.713 524.985 160.962C524.929 161.603 525.832 161.732 526.128 161.774C526.294 161.797 526.463 161.734 526.874 161.58C528.027 161.144 530.729 160.124 533.433 161.427C535.743 162.539 537.558 165.098 538.822 169.02C539.849 172.62 540.672 176.791 540.302 177.423L540.038 177.396C538.951 177.287 538.812 177.273 538.748 175.289C538.575 169.941 536.231 166.818 534.095 165.679C532.814 164.994 531.494 164.967 530.474 165.603C529.161 166.421 528.485 168.211 528.571 170.643C528.614 171.809 528.784 172.978 528.948 174.107C529.484 177.791 529.945 180.974 526.073 182.966C523.509 184.282 522.438 185.428 522.888 186.376C523.255 187.15 524.545 187.287 525.197 187.004C527.233 186.157 533.892 181.616 532.186 176.737C530.751 171.299 531.073 168.644 531.852 167.973C532.075 167.781 532.351 167.76 532.695 167.908C534.185 168.55 536.517 172.295 536.8 178.357C536.811 178.407 537.71 183.391 529.248 188.682C519.953 194.517 518.359 220.924 517.304 238.398C517.044 242.711 516.819 246.436 516.519 249.211L516.449 250.349C514.828 276.62 514.088 288.624 495.999 306.721C488.63 309.929 482.835 309.307 478.775 304.869C470.2 295.498 472.265 271.639 479.692 258.134C483.385 251.393 485.855 246.321 487.014 243.099C488.03 241.074 511.914 193.464 512.718 189.432C512.744 189.328 515.285 179.116 514.699 171.41C514.806 171.204 514.802 170.812 514.792 169.86C514.758 166.62 514.667 158.01 520.234 152.632C524.524 148.489 524.124 148.002 523.859 147.68C523.707 147.495 523.245 146.932 520.126 149.097C514.313 153.083 513.312 157.61 512.581 160.916C512.051 163.315 511.668 165.048 509.716 165.601C503.621 167.334 488.621 173.764 480.989 196.004C480.794 196.568 480.336 197.789 479.705 199.474C473.424 216.242 466.441 235.884 468.21 238.951C468.422 239.318 468.715 239.436 468.923 239.471C473.156 240.197 477.39 240.902 481.64 241.605C483.867 241.985 484.275 242.553 484.258 242.675C484.223 242.907 483.299 243.342 481.672 243.125C480.326 242.946 478.549 242.565 476.669 242.16C471.06 240.953 468.551 240.534 468.059 241.578C467.754 242.226 468.403 243.116 470.228 244.551C470.618 244.858 470.946 245.105 471.222 245.313C472.441 246.232 472.441 246.232 472.165 247.481C472.062 247.949 471.921 248.589 471.783 249.458C470.19 259.457 465.775 293.105 475.846 306.243C478.264 309.398 481.381 311.199 485.11 311.594L485.151 311.598L485.192 311.594C485.225 311.59 488.429 311.221 491.333 310.6C492.725 310.311 493.749 310.491 494.461 311.156C496.621 313.172 495.746 319.491 494.9 325.602C494.643 327.455 494.378 329.372 494.192 331.186L494.127 331.836C493.992 333.143 493.93 333.74 494.282 334.118C494.609 334.47 495.129 334.455 496.068 334.429C496.481 334.417 496.991 334.404 497.62 334.413L548.003 335.203C547.974 335.505 547.933 335.713 547.862 335.794C547.762 335.909 547.318 335.892 546.706 335.87C546.446 335.859 546.146 335.849 545.793 335.844L0 336.254L0.000751352 337L545.788 336.59C546.129 336.595 546.424 336.606 546.678 336.615C548.289 336.677 548.621 336.5 548.746 335.216L549.563 335.237C550.193 335.258 550.509 335.271 550.749 335.047C550.979 334.832 550.989 334.534 551.005 334.039C551.009 333.907 551.014 333.755 551.023 333.579L553.682 286.012C553.79 284.224 553.443 282.843 552.778 282.406C552.514 282.232 552.217 282.212 551.942 282.353C551.291 282.681 550.879 283.865 550.781 285.686L548.1 333.438L548.06 334.239C548.056 334.315 548.053 334.388 548.05 334.459L497.632 333.669C496.992 333.658 496.469 333.673 496.047 333.685C495.47 333.7 494.926 333.717 494.829 333.612C494.707 333.481 494.782 332.755 494.869 331.914L494.935 331.262C495.119 329.462 495.383 327.552 495.639 325.706C496.551 319.117 497.413 312.892 494.97 310.613C494.08 309.782 492.803 309.535 491.179 309.873C488.486 310.449 485.528 310.805 485.148 310.851C481.649 310.469 478.719 308.768 476.439 305.792C466.549 292.89 470.939 259.503 472.52 249.577C472.655 248.731 472.793 248.103 472.894 247.645C473.255 246.008 473.199 245.871 471.672 244.721C471.4 244.516 471.075 244.27 470.69 243.968C468.63 242.347 468.734 241.902 468.735 241.899C469.096 241.294 473.921 242.334 476.513 242.891C478.409 243.299 480.199 243.684 481.576 243.868C483.426 244.109 484.865 243.657 484.996 242.788C485.071 242.292 484.751 241.381 481.765 240.873C477.514 240.17 473.282 239.465 469.049 238.739C468.997 238.73 468.93 238.705 468.858 238.581C467.038 235.426 477.098 208.564 480.405 199.737C481.04 198.044 481.499 196.817 481.696 196.25C489.214 174.34 503.939 168.02 509.921 166.32C512.302 165.646 512.748 163.63 513.312 161.078C514.055 157.716 514.979 153.532 520.552 149.711C521.898 148.777 522.761 148.374 523.16 148.256C522.957 148.646 522.239 149.662 519.718 152.098C513.92 157.698 514.013 166.54 514.048 169.869C514.051 170.168 514.055 170.473 514.051 170.706L513.888 170.623L513.943 171.287C514.576 178.888 512.023 189.148 511.993 189.269C511.206 193.221 486.599 242.272 486.334 242.807C485.169 246.034 482.715 251.071 479.042 257.777C471.34 271.782 469.306 295.624 478.227 305.375C482.477 310.02 488.75 310.714 496.366 307.379L496.48 307.301C514.817 288.977 515.613 276.084 517.197 250.398L517.265 249.278C517.565 246.501 517.79 242.768 518.052 238.445C519.098 221.125 520.678 194.948 529.647 189.317C538.593 183.724 537.581 178.429 537.541 178.267C537.275 172.468 535.019 168.1 532.994 167.227C532.388 166.965 531.811 167.032 531.369 167.411C530.101 168.502 530.136 171.883 531.476 176.959C533.014 181.359 526.807 185.53 524.908 186.321C524.483 186.504 523.704 186.356 523.565 186.06C523.428 185.772 523.875 184.935 526.417 183.632C530.764 181.396 530.218 177.637 529.69 174.002C529.528 172.893 529.361 171.745 529.319 170.619C529.243 168.466 529.795 166.91 530.872 166.239C531.67 165.741 532.691 165.776 533.747 166.339C535.61 167.333 537.843 170.279 538.006 175.316C538.082 177.694 538.47 177.991 539.967 178.14L540.272 178.173C540.499 178.198 540.704 178.117 540.851 177.941C541.749 176.881 540.076 170.69 539.539 168.807C538.205 164.671 536.261 161.963 533.76 160.759C530.769 159.318 527.856 160.416 526.613 160.886C526.435 160.953 526.233 161.029 526.237 161.039C526.052 161.012 525.926 160.983 525.842 160.957C526.616 160.375 530.382 159.28 532.857 159.363C538.757 159.66 541.526 172.726 541.633 174.126C541.686 174.812 542.14 174.909 542.278 174.922C542.917 174.964 543.715 174.13 543.918 173.388C544.165 172.476 542.484 166.194 541.968 164.312C541.319 161.217 539.961 159.006 537.933 157.74C534.462 155.575 529.944 156.717 527.772 157.267C527.335 157.377 526.842 157.516 526.725 157.495C526.575 157.472 526.519 157.407 526.487 157.354C526.355 157.135 526.409 156.699 526.482 156.403C532.054 155.095 536.326 155.516 539.184 157.654C543.219 160.674 543.497 166.345 543.631 169.071C543.665 169.772 543.687 170.235 543.763 170.493C543.821 170.694 543.995 171.304 544.503 171.313C545.117 171.347 545.57 170.299 545.85 169.428C547.807 162.729 543.096 154.252 542.911 153.926C541.607 151.008 536.571 151.758 532.526 152.359C530.307 152.69 528.012 153.03 527.407 152.539C527.327 152.473 527.289 152.397 527.283 152.284C527.273 152.106 527.331 151.956 527.465 151.811C528.463 150.733 532.66 150.633 536.363 150.544C539.138 150.478 541.759 150.414 543.131 149.96C550.88 147.38 554.673 145.155 554.406 143.353C554.355 142.979 554.147 142.67 553.807 142.456C552.045 141.355 546.367 142.96 543.142 144.015C542.66 144.17 542.247 144.114 541.882 143.848C539.574 142.168 539.576 133.326 539.578 129.078C539.578 128.152 539.578 127.405 539.557 126.967C540.827 101.055 551.984 83.0796 552.104 82.888C554.017 79.5539 557.239 75.6599 560.021 75.6554C560.023 75.6554 560.024 75.6554 560.025 75.6554C561.245 75.6554 562.316 76.436 563.207 77.9763C565.241 81.4677 572.39 83.4501 575.63 83.3584C575.672 83.3576 575.713 83.3569 575.755 83.3569C578.694 83.3569 579.584 85.9298 579.622 86.0409L579.661 86.1236C581.036 88.2924 588.896 87.5372 589.788 87.444L589.937 87.3963C590.256 87.2106 590.698 87.0265 590.982 87.1987C591.409 87.4559 591.495 88.3871 591.495 88.8113C590.52 90.3196 590.236 91.7555 590.649 93.0818C591.392 95.4631 594.11 96.5769 594.226 96.6231C595.19 97.0086 595.729 97.526 595.827 98.162C596.034 99.4987 594.322 101.234 593.646 101.789L593.593 101.843C589.899 106.415 591.719 109.162 592.806 110.803C593.052 111.175 593.264 111.496 593.346 111.741C593.723 112.87 595.94 117.176 597.397 117.46C597.707 117.523 597.991 117.423 598.196 117.184C599.247 115.955 596.892 111.357 596.145 109.976L596.086 109.895C595.227 109.001 594.821 107.983 594.883 106.871C595.038 104.032 598.121 101.422 598.152 101.396L598.232 101.302C599.07 99.9065 599.29 98.5355 598.885 97.2278C598.085 94.6393 595.131 93.2585 594.978 93.1892C594.379 92.97 594.003 92.6181 593.828 92.1141C593.317 90.6424 594.669 88.4207 594.683 88.3983L594.729 88.3238L594.737 88.2373C594.83 87.2382 594.597 86.4219 594.042 85.8098C592.702 84.3306 589.772 84.3134 586.938 84.2963C584.616 84.2821 582.214 84.268 581.427 83.348C580.079 81.7689 576.517 80.7766 576.366 80.7356L576.297 80.7169L576.227 80.7244C571.98 81.1732 569.715 78.736 567.523 76.3756C565.796 74.5177 564.165 72.762 561.688 72.4071C556.496 71.6839 552.793 77.3031 550.578 80.658C550.101 81.3804 549.572 82.1819 549.269 82.498C549.235 82.2602 549.213 81.7577 549.291 80.6998C549.754 74.5803 553.468 70.2681 556.503 67.7288C561.941 63.1772 569.682 60.6632 576.23 61.3245C580.492 61.7465 584.011 62.4988 587.735 63.2958C590.307 63.846 592.967 64.4141 595.898 64.8666C596.268 64.9255 596.592 64.9061 596.866 64.8062C597.659 65.3893 598.431 65.847 599.111 66.1982L599.281 65.8701L599.143 66.2131C599.964 66.5582 607.975 74.0279 611.692 84.2769C614.627 92.3691 614.245 100.089 610.559 107.223C609.267 109.728 609.133 113.254 609.127 113.403L609.124 113.501L609.17 113.587C611.078 117.256 610.876 120.923 608.572 124.486C605.054 129.929 597.606 133.341 595.94 133.244C595.196 133.199 594.57 132.762 594.545 132.268C594.518 131.77 595.194 131.07 597.187 130.74C606.074 129.247 608.868 118.146 608.895 118.034C609.378 116.021 608.585 115.098 607.834 114.677C605.685 113.475 601.504 114.958 599.426 116.994C596.731 118.41 589.305 135.765 588.324 138.078C576.768 149.854 559.302 149.715 554.221 149.395C552.827 149.318 551.604 149.831 551.016 150.739C550.641 151.32 550.594 151.975 550.886 152.537C551.14 153.023 551.882 153.851 554.002 153.927C570.373 154.511 582.106 148.272 589.069 142.932C591.06 141.393 592.268 140.253 592.973 139.538C592.793 140.502 592.625 142.046 592.864 144.168C593.096 146.242 593.296 148.033 590.374 152.002C584.025 160.553 578.772 163.669 566.245 168.682C564.494 169.195 563.067 172.986 561.517 177.513C561.107 178.711 560.654 180.034 560.347 180.668C560.295 180.288 560.245 179.569 560.254 178.208C560.277 174.304 560.185 170.024 558.79 168.673C556.717 166.663 552.986 160.315 551.476 157.677C550.399 155.825 549.456 154.914 548.647 154.934C548.243 154.937 547.892 155.164 547.66 155.575C547.113 156.542 547.25 158.426 547.951 159.603C548.666 160.818 549.768 161.956 550.833 163.057C553.35 165.657 554.754 167.366 553.02 169.166C551.064 171.222 549.102 174.687 547.37 177.743C546.084 180.011 544.485 182.834 543.973 182.9C543.973 182.9 543.942 182.875 543.901 182.776C543.303 181.318 542.617 181.326 542.26 181.461C541.396 181.788 540.97 183.531 541.43 184.851C541.844 186.039 542.141 187.065 542.379 187.89C542.87 189.585 543.094 190.359 543.704 190.416C544.317 190.455 544.801 189.717 546.025 187.271C554.046 171.363 555.786 170.408 556.052 170.378C556.133 170.368 556.261 170.379 556.438 170.57C557.857 172.099 558.18 180.125 557.337 184.622C556.353 189.885 555.678 216.337 555.76 217.46C555.894 219.484 556.092 220.12 556.601 220.12C556.611 220.12 556.621 220.12 556.632 220.119C557.014 220.101 557.654 220.071 558.729 211.075C559.329 206.063 559.699 200.939 559.629 198.615C559.52 194.831 562.483 185.892 564.443 179.977L565.01 178.26C566.423 173.96 567.012 173.478 567.102 173.425C567.564 173.72 567.843 176.92 568.067 179.491C568.557 185.128 569.114 191.515 571.788 192.413C572.937 192.799 574.252 192.146 575.815 190.418C577.787 188.24 579.649 186.289 581.451 184.402C588.087 177.452 593.327 171.961 597.548 162.017L597.712 161.628C598.101 160.708 598.414 159.965 598.591 159.758C598.71 159.856 598.924 160.119 599.117 160.355C599.86 161.268 601.103 162.795 603.736 164.442C607.072 166.531 611.158 168.186 615.485 169.938C623.856 173.329 633.344 177.173 639.246 185.231L639.547 185.011L639.312 185.3C646.237 190.921 647.236 202.491 647.897 210.148C647.913 210.344 647.93 210.537 647.947 210.723C647.492 210.927 647.04 211.131 646.593 211.334C646.035 211.576 645.189 211.996 644.211 212.48C641.44 213.855 636.283 216.408 635.158 215.872C635.096 215.841 635.068 215.808 635.055 215.747C634.865 214.844 634.077 214.553 633.703 214.527C632.944 214.446 632.271 214.672 631.691 215.205C629.055 217.628 629.249 225.875 629.258 226.221C629.289 228.006 627.402 234.935 624.481 237.226C623.755 237.795 623.044 238.021 622.324 237.914C622.315 235.688 622.086 222.128 618.095 219.003C617.312 218.39 616.432 218.199 615.477 218.434C615.141 218.439 614.829 218.586 614.571 218.861C612.598 220.961 613.51 231.392 613.619 232.54C613.619 232.633 613.595 232.65 613.587 232.656C613.47 232.737 613.082 232.698 612.808 232.612C612.319 231.863 612.027 225.471 612.027 219.63L612.018 219.548C611.606 217.734 610.079 216.979 607.829 217.472C603.404 218.396 603.805 226.247 604.07 231.441C604.12 232.412 604.163 233.25 604.167 233.883C604.143 234.244 604.05 234.481 603.907 234.553C603.707 234.653 603.346 234.508 603.151 234.398C602.756 233.593 603.074 227.375 603.608 221.783C603.809 221.071 603.593 220.599 603.377 220.329C602.622 219.384 600.781 219.445 600.619 219.459C599.76 219.386 599.001 219.628 598.377 220.172C596.311 221.973 596.04 226.863 595.799 231.176C595.627 234.285 595.447 237.498 594.566 238.132C594.442 238.222 594.31 238.248 594.145 238.22C592.171 236.157 595.017 225.659 595.891 224.233C596.229 223.681 596.134 223.297 595.995 223.074C595.537 222.336 593.99 222.433 593.641 222.466C587.267 223.807 588.455 240.379 588.508 241.077C588.885 248.009 592.485 257.889 594.014 261.812C594.698 263.583 594.526 263.94 594.545 263.943C594.113 264.013 592.356 262.421 591.727 261.297C589.906 258.004 588.928 251.92 588.066 246.553C587.028 240.098 586.368 236.43 584.871 236.1L549.705 228.187C548.45 227.902 547.896 227.434 547.794 227.092C547.754 226.954 547.788 226.83 547.901 226.716C548.197 226.415 548.974 226.242 550.047 226.534C571.231 232.287 579.853 233.769 583.35 233.998C585.043 234.13 585.767 234.143 586.157 233.752C586.485 233.423 586.448 232.961 586.392 232.261C586.368 231.958 586.339 231.595 586.331 231.16L586.322 230.668C586.292 228.714 586.166 228.563 584.397 228.361C583.979 228.314 583.449 228.253 582.774 228.143C573.42 226.613 548.376 218.431 548.145 218.355C547.58 218.132 546.952 217.949 546.567 218.27C546.164 218.606 546.285 219.21 546.437 219.976C546.743 221.512 547.162 223.611 544.02 224.62C543.287 224.465 542.724 224.307 542.268 224.179C541.413 223.939 540.942 223.807 540.546 224.062C540.106 224.344 540.015 224.924 539.797 226.327L539.124 230.628C533.236 268.19 532.241 276.088 532.544 276.655C532.727 277.001 532.935 277.392 581.699 287.664C584.082 288.166 585.8 288.528 586.543 288.687C586.935 288.773 587.269 288.852 587.553 288.918C588.598 289.163 589.03 289.265 589.377 289.029C589.682 288.82 589.731 288.469 589.812 287.889C589.881 287.401 589.975 286.733 590.257 285.745L592.635 271.287C592.808 270.25 592.952 269.7 593.052 269.409C593.884 271.935 594.419 286.573 594.394 287.763C593.257 299.397 595.601 311.803 600.666 320.949C604.124 327.176 610.027 329.188 613.933 330.52C616.087 331.254 617.789 331.835 617.731 332.727L617.59 334.901L617.703 335.209C618.139 335.668 619.395 336.997 823.229 336.997C839.194 336.997 856.405 336.989 874.952 336.972C1004.68 336.85 1133.77 336.328 1140 336.246L1139.99 335.503ZM649.694 210.77C650.175 210.558 650.557 210.364 650.877 210.202C652.086 209.589 652.24 209.509 653.834 210.538C655.124 211.381 655.194 211.655 655.196 211.697C655.133 211.87 654.365 212.155 653.746 212.385C653.215 212.582 652.552 212.829 651.844 213.151L649.09 214.437C648.953 213.502 648.844 212.378 648.738 211.189C649.058 211.048 649.376 210.908 649.694 210.77ZM649.491 217.528C649.685 217.646 650.004 217.753 650.428 217.581L657.686 214.68C658.12 214.503 658.496 214.343 658.82 214.206C659.297 214.004 659.753 213.812 660.02 213.728C659.961 213.958 659.836 214.324 659.713 214.68C659.545 215.169 659.332 215.79 659.101 216.564C658.751 217.753 658.346 219.141 657.896 220.684C653.674 235.158 643.784 269.052 640.479 270.148L624.822 275.322C623.782 275.662 623.074 276.342 622.926 277.142C622.82 277.712 623.027 278.268 623.476 278.632C624.227 279.239 625.487 279.24 626.932 278.642L638.725 273.806C639.028 273.679 639.292 273.565 639.522 273.465C639.918 273.295 640.296 273.131 640.488 273.082C640.503 273.271 640.473 273.657 640.446 274.031C640.42 274.387 640.388 274.819 640.366 275.337C639.491 293.098 634.858 312.773 634.812 312.967C632.636 321.838 622.77 331.244 620.648 330.728C620.156 330.612 620.296 329.652 620.415 329.116C620.503 328.963 621.146 328.569 621.716 328.221C624.563 326.478 630.49 322.852 632.635 314.276C633.263 311.786 622.031 285.712 620.826 283.522C612.774 265.46 619.689 252.222 632.541 237.914C637.386 232.942 635.928 223.383 635.596 221.557L648.521 215.524C648.742 216.607 649.035 217.249 649.491 217.528ZM548.805 334.275L551.525 285.728C551.627 283.834 552.062 283.128 552.278 283.019C552.302 283.006 552.318 282.997 552.368 283.031C552.645 283.213 553.045 284.171 552.937 285.97L550.277 333.541C550.268 333.722 550.263 333.88 550.258 334.016C550.25 334.24 550.243 334.471 550.264 334.485C550.191 334.514 549.885 334.504 549.589 334.493L548.795 334.473C548.799 334.409 548.802 334.343 548.805 334.275ZM597.827 47.6959C597.23 46.8393 596.791 45.8768 596.33 44.8673C596.247 44.6847 596.162 44.4998 596.076 44.3141C597.674 44.4714 599.35 44.5758 601.094 44.6265C599.832 45.5562 598.728 46.5717 597.827 47.6959ZM581.322 33.5872C583.255 36.9004 589.094 38.484 589.932 38.6965C590.104 38.7829 590.28 38.8679 590.46 38.9514C590.799 39.1333 591.113 39.322 591.406 39.518C585.768 37.8704 581.438 35.3266 579.331 32.4249C579.514 31.9 579.763 31.3603 580.077 30.8063C580.389 30.2546 580.715 29.7141 581.056 29.1877C580.987 29.4919 580.93 29.8014 580.885 30.1167C580.537 31.3275 580.684 32.4942 581.322 33.5872ZM608.177 13.5917C596.499 17.8711 585.37 24.6012 584.721 31.2313C584.503 33.4568 585.417 35.434 587.388 37.0674C585.441 36.2891 583.017 35.0127 581.966 33.2122C581.428 32.2892 581.309 31.3439 581.612 30.2725C581.782 29.0893 582.131 27.983 582.631 26.9504C585.006 23.8593 587.863 21.2559 591.025 19.1087C596.855 15.964 603.978 14.3372 608.177 13.5917ZM597.227 15.627C603.222 12.8752 609.794 11.4236 616.02 11.1075C614.764 11.443 613.487 11.815 612.203 12.2199C610.898 12.3899 609.586 12.5897 608.276 12.8178C605.517 13.2979 601.42 14.1702 597.227 15.627ZM591.093 38.4198C590.991 38.3751 590.891 38.3296 590.793 38.2841C590.624 38.1939 590.452 38.1067 590.273 38.021L590.199 37.9941C590.197 37.9941 590.194 37.9934 590.189 37.9919C586.786 36.2652 585.198 34.0181 585.463 31.3036C586.111 24.6832 598.681 17.2083 611.998 13.0034C618.249 12.1833 624.516 12.0357 629.795 12.4599C635.29 14.0114 639.216 16.7431 640.623 20.1995C640.701 20.394 640.773 20.5901 640.835 20.7884C640.749 21.9999 640.465 23.1406 639.984 24.2172C639.768 24.7018 639.513 25.1678 639.222 25.6173C638.563 25.8932 637.7 26.251 636.665 26.6693C637.299 25.4212 637.836 24.0912 638.27 22.6754C639.028 20.2047 638.408 18.2528 636.48 17.0309C634.325 15.6658 630.621 15.3079 626.362 15.6673C624.309 11.4236 615.819 12.5121 609.005 14.8039C597.7 18.6062 586.906 26.5336 589.168 33.7356C589.621 35.1812 590.641 36.2734 592.198 36.9817C593.742 37.684 595.764 37.9874 598.109 37.9874C608.706 37.9867 625.868 31.783 634.956 28.1716C634.279 29.2504 633.522 30.2568 632.695 31.194C628.642 33.4508 623.549 35.1857 618.548 36.8892C614.649 38.2171 610.698 39.5628 607.183 41.1664C600.921 41.0755 595.05 40.1674 591.093 38.4198ZM616.255 11.7793C617.285 11.5123 618.312 11.2671 619.331 11.0456C620.15 11.0576 620.961 11.0889 621.76 11.1403C622.801 11.2074 623.814 11.3081 624.795 11.44C622.08 11.4147 619.202 11.5243 616.255 11.7793ZM641.592 20.7042C641.701 18.8977 641.4 16.9481 640.69 14.8307C641.883 15.4175 642.722 16.0959 643.126 16.8579C644.019 18.5622 644.914 21.6115 641.927 24.121C642.031 22.9386 641.92 21.7964 641.592 20.7042ZM633.18 31.777C635.937 30.2263 638.23 28.4265 639.721 26.219C640.285 25.9797 640.685 25.8067 640.893 25.7157C640.259 28.1708 638.702 30.7981 636.248 33.5134C633.09 37.0078 626.297 39.3257 618.698 40.4276C624.355 38.7852 629.448 35.964 633.18 31.777ZM611.733 41.0889C610.831 41.1314 609.932 41.1575 609.035 41.1679C612.116 39.867 615.473 38.724 618.791 37.5938C623.031 36.1497 627.337 34.6824 631.048 32.8857C626.037 37.5588 619.087 40.1726 611.733 41.0889ZM601.879 24.3723C599.201 26.8065 599.366 28.7464 599.976 29.9445C602.325 34.5594 608.867 33.7445 614.203 31.443C621.68 28.22 628.28 21.7323 626.622 16.333C630.604 16.0244 634.057 16.3778 636.082 17.6601C637.743 18.7121 638.226 20.2814 637.558 22.4569C637.047 24.1255 636.386 25.6718 635.591 27.1017C625.014 31.3238 600.911 40.1234 592.51 36.3025C591.134 35.677 590.275 34.7644 589.882 33.5119C587.839 27.0078 598.122 19.2511 609.245 15.5099C612.826 14.3051 616.578 13.5275 619.628 13.5275C622.413 13.5275 624.613 14.1769 625.556 15.7418C616.926 16.6335 606.362 20.2971 601.879 24.3723ZM625.859 16.4001C627.554 21.3595 620.997 27.7034 613.907 30.7594C608.88 32.9259 602.755 33.7617 600.641 29.6075C599.924 28.2006 600.51 26.6253 602.381 24.9247C606.835 20.8756 617.388 17.2217 625.859 16.4001ZM636.104 27.7123C636.948 27.3723 637.702 27.063 638.352 26.7931C637.341 27.9979 636.059 29.0744 634.579 30.0533C635.129 29.31 635.637 28.5309 636.104 27.7123ZM640.668 25.0037C640.65 25.0112 640.549 25.0552 640.372 25.132C640.477 24.9314 640.575 24.7279 640.667 24.5214C640.888 24.0271 641.07 23.5216 641.213 23.0034C641.23 23.5693 641.192 24.1471 641.098 24.7361C640.96 24.8263 640.817 24.915 640.668 25.0037ZM640.817 18.8917C639.407 16.3927 636.719 14.3096 633.114 12.8215C635.752 13.1921 638.022 13.7289 639.753 14.4177C640.34 16.0065 640.695 17.4938 640.817 18.8917ZM610.876 41.9373C621.504 41.5743 632.378 38.9067 636.802 34.0137C639.58 30.9398 641.252 27.9524 641.781 25.1663C646.068 22.1341 644.643 18.1477 643.787 16.5112C643.238 15.4757 642.039 14.5825 640.335 13.8467C640.221 13.5522 640.1 13.2547 639.972 12.9542C639.627 12.1468 639.065 11.4609 638.297 10.8958C642.76 12.3064 646.141 14.4528 647.725 17.4066C650.942 23.4068 649.701 28.7702 644.034 33.3471C635.35 40.3597 618.259 43.881 603.774 43.881C603.706 43.881 603.638 43.8802 603.571 43.8802C604.561 43.2868 605.621 42.7291 606.732 42.1998C608.117 42.1677 609.503 42.0805 610.876 41.9373ZM639.285 13.2465C639.317 13.321 639.348 13.3956 639.38 13.4702C636.871 12.5643 633.507 11.9447 629.621 11.6443C627.437 11.0538 625.028 10.6445 622.445 10.4425C622.774 10.3865 623.104 10.3329 623.43 10.2829C632.126 8.94169 637.905 10.0205 639.285 13.2465ZM623.317 9.54557C622.04 9.74239 620.702 9.99588 619.323 10.3008C609.857 10.1718 599.149 12.6992 590.615 18.4899C586.876 20.5148 583.642 23.1585 581.973 26.5851C581.049 27.7958 580.196 29.0811 579.427 30.4395C579.194 30.8496 578.996 31.2551 578.829 31.654C578.283 30.7064 577.971 29.726 577.927 28.7322C577.621 21.9395 585.623 15.633 599.335 11.8628C606.588 9.86842 614.702 8.79852 622.226 8.79852C624.221 8.79852 626.174 8.87385 628.057 9.02668C626.593 9.11167 625.01 9.28388 623.317 9.54557ZM579.076 33.3464C581.606 36.4822 586.508 39.1184 592.844 40.6908C593.69 41.5303 594.288 42.4436 594.785 43.3777C588.787 42.6583 583.884 41.1664 581.208 38.8992C579.352 37.3269 578.641 35.466 579.076 33.3464ZM594.11 40.9868C595.598 41.3133 597.158 41.5825 598.779 41.7875C600.836 42.0477 602.932 42.1916 605.033 42.211C604.03 42.7321 603.077 43.2815 602.188 43.8661C599.927 43.825 597.741 43.6953 595.676 43.4776C595.256 42.6411 594.766 41.7949 594.11 40.9868ZM596.891 63.8855C594.134 61.7032 591.294 57.8958 591.672 51.5691C591.735 50.5514 591.56 49.9094 591.12 49.5508C590.847 49.3279 590.509 49.2392 590.106 49.2392C589.49 49.2392 588.721 49.4457 587.796 49.694C583.645 50.8093 575.915 52.8849 568.285 38.2096C564.621 29.6835 565.428 22.2773 570.685 16.1973C584.148 0.621377 622.009 -1.53996 637.342 2.53073C637.543 2.56875 657.346 6.51495 659.068 22.1431C659.082 22.2609 660.309 33.9846 654.45 39.4114L654.4 39.4688C654.283 39.6336 642.313 55.9134 612.336 52.3064L603.972 51.0375C601.044 50.5939 599.407 49.6038 598.297 48.3058C599.358 46.9414 600.74 45.7381 602.351 44.6526C605.078 44.6891 607.962 44.5982 610.946 44.3693C625.216 43.2741 637.761 39.3697 644.501 33.9257C650.404 29.1594 651.745 23.3248 648.382 17.0532C643.023 7.0644 618.129 5.92076 599.138 11.1441C584.856 15.0716 576.854 21.4944 577.181 28.7665C577.24 30.0779 577.698 31.3558 578.504 32.5688C577.73 35.2081 578.478 37.5632 580.725 39.4674C583.543 41.8553 588.673 43.4896 595.209 44.2224C595.361 44.5408 595.506 44.8591 595.652 45.1767C596.155 46.2786 596.647 47.3575 597.356 48.3214C596.777 49.1401 596.302 50.0138 595.949 50.951C595.304 52.6441 595.894 55.475 596.464 58.2126C596.964 60.6081 597.48 63.0818 596.891 63.8855Z" fill="#3464AF"/>
</svg>
