<svg width="366" height="666" viewBox="0 0 366 666" fill="none" xmlns="http://www.w3.org/2000/svg">
<path d="M21.1873 -1.50285e-05C21.1873 3.03826 21.1873 211.256 21.1873 211.256C21.1873 211.256 99.5135 199.711 123.801 211.256C148.088 222.802 210.02 247.108 170.554 265.337C131.087 283.567 91.013 259.868 63.6899 256.83C36.3669 253.792 52.1535 264.122 47.9032 242.854C43.653 221.586 55.7967 249.538 31.5093 275.667C7.22202 301.796 6.00785 334.61 42.4387 334.002C78.8695 333.395 125.622 326.103 150.517 307.265C175.411 288.428 201.52 276.275 191.805 266.553C182.09 256.83 188.162 281.744 211.235 271.414C234.308 261.084 218.521 236.17 251.309 241.031C284.097 245.893 295.026 242.247 292.597 259.868C290.168 277.49 316.277 256.83 309.598 284.175C302.919 311.519 315.406 342.384 289.561 330.964C270.023 322.331 291 318.097 267.095 324.887C247.158 330.55 250.702 308.481 250.702 296.328C250.702 284.175 212.449 296.328 219.128 299.974C225.807 303.62 253.737 294.505 236.129 298.758C218.521 303.012 187.012 309.183 187.555 334.002C188.143 360.919 245.58 359.541 275.596 337.648C298.59 320.877 310.205 276.275 280.453 294.505C250.702 312.734 279.239 239.208 242.808 256.223C206.377 273.237 236.129 281.744 206.985 291.467C177.84 301.189 169.809 295.701 170.554 320.026C171.244 342.576 131.017 332.739 116.619 360.987C103.227 387.262 53.6932 382.543 26.652 398.413C18.2718 403.332 104.371 395.375 131.087 377.146C157.803 358.916 170.554 344.333 170.554 338.256C170.554 332.179 155.982 379.576 128.051 386.261C100.121 392.945 59.4398 405.705 86.7629 411.174C114.086 416.643 122.586 426.366 111.657 434.265C100.728 442.165 138.79 416.192 166.304 434.265C198.066 455.129 254.536 494.831 196.531 475.213C146.235 458.202 145.416 470.523 118.943 466.471C94.2476 462.69 79.4767 445.81 78.2624 445.203C77.048 444.595 77.9325 432.439 77.9325 432.439C77.9325 432.439 66.1187 467.078 84.3342 479.231C102.55 491.385 87.3161 509.333 79.499 494.696C73.9666 484.337 63.4863 497.614 58.4645 490.441C53.6241 483.528 43.065 444.932 36.367 427.581C27.9466 405.769 77.4703 399.644 57.0112 402.667C33.9093 406.081 -9.27678 407.637 18.1856 429.976C33.9891 442.831 40.2024 463.373 13.4864 453.042C-13.2296 442.712 8.43667 621.422 27.2592 623.853C46.0818 626.284 58.8326 634.183 50.9393 611.092C43.0461 588.002 63.6901 539.389 52.1536 517.514C40.6172 495.638 74.194 485.517 79.0514 494.025C83.9089 502.532 86.1558 519.944 80.084 522.375C74.0121 524.806 92.2276 506.576 94.049 518.121C95.8706 529.667 79.4767 522.375 78.8695 539.997C78.2622 557.619 87.37 609.269 95.8705 615.346C104.371 621.423 98.2992 616.561 100.121 608.054C101.942 599.547 144.445 612.308 161.446 616.561C178.447 620.815 220.342 637.829 197.27 649.374C174.197 660.92 92.7326 674.71 90.911 655.266C89.0894 635.821 94.656 630.537 95.8703 637.221C97.0847 643.906 77.655 657.274 144.445 651.198C211.235 645.121 210.02 651.805 216.699 612.915C223.378 574.026 251.916 598.939 214.271 563.088C176.625 527.236 201.52 552.15 227.021 538.782C252.523 525.413 243.415 539.997 229.45 493.815C215.485 447.634 225.2 539.389 256.166 525.413C287.132 511.437 334.492 501.715 333.885 535.743C333.278 569.772 319.313 564.911 307.776 575.241C296.24 585.571 319.92 598.939 294.418 596.509C268.917 594.078 304.133 577.064 296.24 585.571C288.346 594.078 250.701 583.748 247.665 551.542C244.63 519.337 291.41 524.986 315.67 540.605C335.188 553.171 336.193 548.101 333.256 520.002C331.561 503.793 356.073 515.969 351.493 523.59C341.554 540.132 375.174 538.782 361.816 550.327C348.458 561.872 374.938 588.687 350.044 586.256C325.149 583.826 353.315 601.37 329.635 598.332C305.955 595.293 326.599 601.37 308.991 605.016C291.383 608.662 287.739 596.509 272.56 592.255C257.38 588.002 267.702 577.672 253.13 583.14C238.558 588.609 238.821 576.447 230.321 606.221C221.82 635.996 210.405 637.798 210.405 637.798" stroke="#3464AF" stroke-miterlimit="10"/>
</svg>
