<svg width="585" height="575" viewBox="0 0 585 575" fill="none" xmlns="http://www.w3.org/2000/svg">
<path d="M-318 603.438C-285.164 603.381 -86.8649 603.788 -53.8199 604C-52.8277 580.331 -49.6792 556.755 -45.9117 531.389C-68.0213 532.717 -90.3144 530.943 -111.935 526.133C-118.847 524.594 -125.939 522.623 -131.352 518.066C-142.921 508.327 -140.478 478.935 -133.398 465.582C-126.32 452.228 -101.655 454.551 -87.4636 445.719C-102.965 456.399 -127.573 460.514 -129.673 459.44C-132.017 458.245 -132.077 454.976 -131.785 452.364C-126.525 405.175 -111.271 357.557 -93.4204 313.548C-88.6763 301.855 -83.3984 290.156 -75.2292 280.53C-67.6886 271.644 -57.9896 264.882 -48.2693 258.443C-27.0071 244.355 -22.4718 239.014 2.48645 224.648C5.0915 217.386 7.69845 196.608 10.3056 189.346C21.5479 209.968 40.3153 221.258 57.497 224.457C60.5565 225.027 63.7495 225.457 66.7493 224.633C70.2072 223.683 72.9978 221.186 75.5643 218.688C101.281 193.667 118.543 160.132 124.315 124.095C120.955 115.005 123.048 103.721 116.656 96.4313C112.916 92.1659 107.139 90.4156 101.679 88.8591C96.8866 87.4924 92.0922 86.126 87.2979 84.7593C84.6058 83.9919 81.7203 83.2252 79.0571 84.0846C76.3475 84.9587 74.4523 87.319 72.4699 89.3588C64.2737 97.7948 52.6 129.037 43.7926 136.836C30.8639 148.282 25.6518 138.838 21.0237 155.461C22.0701 148.457 23.0642 141.012 20.1959 134.536C17.3299 128.06 9.01169 123.472 2.92351 127.102C1.003 128.247 -0.45144 130.041 -1.61555 131.948C-9.46767 144.816 -3.00035 164.049 11.8894 171.864C10.9553 179.61 10.0213 187.357 9.08911 195.106C8.80086 197.483 8.49721 199.918 7.40068 202.049C3.42052 209.78 -8.75203 208.95 -15.1071 203.007C-21.4603 197.062 -23.9378 188.216 -27.535 180.3C-31.1322 172.383 -37.2823 164.32 -45.962 163.625C-53.4815 163.022 -60.4787 168.498 -63.7645 175.275C-67.0504 182.055 -67.3191 189.875 -66.9942 197.398C-66.6925 204.357 -65.5941 211.999 -60.3453 216.587C-57.069 219.454 -52.6228 220.653 -48.2752 220.962C-36.7853 221.775 -25.0363 216.585 -17.9134 207.546C-25.2355 188.682 -31.5422 167.434 -24.0229 148.647C-21.1396 141.446 -22.1991 137.088 -18.5942 130.22C-12.9295 119.432 -14.028 113.186 -9.51399 101.87C-1.14565 80.8912 15.8136 62.0326 36.0624 51.9734C56.3114 41.9143 81.9291 41.7138 100.849 54.0871C120.847 67.1659 138.353 83.9576 140.732 107.707C142.463 124.988 130.586 150.11 116.886 154.772C123.86 152.895 136.441 142.371 138.255 135.391C140.069 128.411 139.4 121.06 138.777 113.875C137.007 93.4048 135.727 72.8927 134.94 52.362C134.36 37.2265 135.816 18.8915 149.265 11.8837C155.119 8.83321 162.004 8.78142 168.586 8.21471C194.631 5.9718 221.972 -5.12065 245.814 5.58818C254.714 9.58586 262.075 16.2992 269.051 23.1148C278.945 32.7827 288.839 43.7007 291.338 57.2959C294.487 74.4227 285.221 91.1257 276.912 107.148C268.494 125.237 261.305 143.897 255.414 162.955C252.047 166.39 246.189 167.025 242.163 164.391C251.836 157.326 259.706 147.818 264.831 137.002C267.337 131.711 269.223 125.779 268.006 120.052C266.792 114.327 261.56 109.129 255.729 109.734C245.615 110.784 244.22 124.959 237.683 132.736C240.377 122.279 243.071 111.821 245.765 101.363C238.293 103.631 232.307 94.3727 231.908 86.5855C231.51 78.7984 233.475 70.2611 229.267 63.6921C214.195 67.1065 198.851 70.1567 183.412 69.4664C167.974 68.7762 152.243 64.0032 140.908 53.5153C131.225 88.1831 135.909 128.106 150.482 161.024C158.49 179.114 173.585 197.62 193.372 196.68C208.809 195.946 220.848 183.632 229.023 174.7C222.163 179.271 215.179 189.58 207.47 192.501C199.762 195.422 190.799 198.597 182.837 196.455C180.859 201.478 179.269 198.775 174.258 204.25C176.716 213.15 173.575 223.376 178.07 231.443C181.021 236.742 186.881 239.993 192.882 240.914C198.882 241.835 205.026 240.682 210.816 238.862C235.976 230.955 256.451 209.611 266.858 184.546C289.629 188.915 312.053 196.867 330.701 210.624C349.348 224.384 363.981 244.367 368.396 267.091C371.742 284.318 369.183 302.11 365.87 319.343C361.641 341.336 356.185 363.093 349.538 384.483C323.473 382.506 283.869 380.529 253.316 376.233C266.467 351.369 282.527 305.168 293.719 270.563C280.351 325.288 263.854 379.251 240.673 428.606C237.045 413.458 227.613 384.794 223.983 369.646C232.568 390.23 238.714 420.342 238.194 442.634C237.995 451.161 236.807 460.371 230.901 466.534C225.577 472.09 217.545 473.978 209.936 475.156C173.138 480.856 138.611 481.64 102.472 465.835C76.1098 474.83 48.6702 480.668 20.9271 483.184C32.1385 477.664 46.1811 469.118 58.4292 466.621C67.6194 464.75 39.1452 473.625 31.5021 477.461C19.701 483.389 -8.26849 483.266 2.69141 475.903C14.3051 468.102 52.3854 459.616 43.3595 462.746C25.6035 468.904 14.0865 473.331 3.78794 476.268C-6.51059 479.205 -20.8453 476.216 -12.9468 468.994C-3.48197 460.342 21.8128 458.172 37.2829 448.108C28.7481 453.287 6.54592 458.521 -3.05252 461.279C-12.651 464.034 -27.1424 462.36 -18.6038 457.189C-8.36907 450.993 28.9861 434.848 29.1252 437.283C35.1245 435.252 41.1238 433.221 47.1229 431.188C34.9272 433.032 23.8589 440.639 11.5258 440.678C10.5511 440.682 9.52221 440.618 8.71187 440.081C6.983 438.936 7.18603 436.16 8.5494 434.599C9.91482 433.039 11.9978 432.361 13.953 431.666C21.3119 429.048 28.2492 425.246 34.4127 420.454C37.7315 417.872 41.1295 414.874 45.3205 414.503C47.4865 414.312 49.643 414.858 51.7472 415.401C57.6904 416.932 63.6355 418.463 71.5261 418.793C88.2611 420.34 105.044 421.342 121.845 421.8C126.361 421.923 131.091 421.96 135.116 419.911C141.113 416.858 144.13 409.633 143.776 402.921C143.42 396.208 140.255 389.955 136.516 384.366C133.77 380.258 130.61 376.316 126.506 373.556C123.135 371.29 119.261 369.909 115.432 368.55C103.099 364.174 89.7288 359.756 78.2719 364.147C81.0955 366.317 85.1588 363.5 86.8279 360.357C88.495 357.213 89.4872 353.321 92.6086 351.604C93.9953 350.842 95.6314 350.637 97.0317 349.899C101.114 347.746 101.623 341.695 99.221 337.758C96.819 333.821 92.4771 331.548 88.2823 329.619C81.318 326.416 72.9669 323.676 66.2676 327.399C61.0496 330.299 58.4891 336.259 56.2862 341.801C55.882 342.817 55.4759 343.956 55.8782 344.972C56.3908 346.275 57.9591 346.763 59.342 346.989C68.9945 348.573 79.9563 345.661 87.9535 351.284C80.7572 348.719 73.1565 347.291 65.5211 347.065C64.2196 347.028 62.8502 347.04 61.717 347.679C60.7577 348.219 60.0865 349.142 59.46 350.048C53.9055 358.069 49.4264 366.831 46.1773 376.028C44.5797 380.556 43.2646 385.294 43.5238 390.087C43.785 394.879 45.8408 399.78 53.8668 405.53C72.2455 409.606 90.6224 413.682 109.001 417.76C115.904 419.29 123.092 420.821 129.968 419.181C136.843 417.542 143.269 411.717 143.109 404.661C150.94 407.028 159.821 405.638 166.553 400.992C171.927 397.283 175.958 389.708 172.229 384.35C169.827 380.902 165.122 379.853 160.927 380.168C146.691 381.236 135.439 396.789 138.897 410.616C139.291 412.19 139.897 413.806 141.154 414.831C142.363 415.818 143.983 416.107 145.528 416.333C149.002 416.839 152.499 417.196 156.003 417.401C171.458 418.301 187.657 415.997 200.504 407.372C221.608 393.201 228.785 361.871 215.949 339.951C203.113 318.03 172.247 308.905 149.526 320.314C139.701 325.25 131.768 333.216 122.553 339.21C116.865 342.907 110.455 346.068 106.735 351.735C103.013 357.401 103.708 366.665 109.034 367.414C83.4859 361.17 49.9466 360.871 25.3618 371.738C14.8118 375.871 4.2618 380.006 -6.28817 384.141C-5.02904 383.139 -6.74458 381.305 -8.22994 380.681C-20.2902 375.617 -34.1474 370.552 -45.995 376.094C-51.8299 378.824 -56.278 383.811 -60.1189 388.978C-68.8799 400.757 -75.3413 414.049 -81.7506 427.251C-87.5682 423.719 -94.2578 421.633 -101.054 421.232C-102.721 421.133 -104.643 421.247 -105.674 422.558C-107.121 424.397 -105.79 427.054 -104.384 428.923C-99.5202 435.387 -93.7123 441.143 -87.2026 445.953C-78.3681 452.476 -64.9636 456.818 -57.8 449.22C-70.0519 455.225 -79.2906 466.729 -71.6572 466.477C-81.7043 477.77 -85.0926 494.571 -80.2073 508.865C-76.6546 519.263 -67.3366 528.873 -57.8619 527.84C-43.6549 527.454 -29.5366 524.096 -16.6814 518.047C-26.7188 511.659 -35.4817 503.283 -42.3107 493.549C-43.4517 491.924 -44.585 489.908 -43.858 488.06C-42.3571 484.244 -36.6268 486.606 -33.4704 489.228C-24.4793 496.701 -1.84192 512.602 9.47398 515.569C-2.56136 512.831 -25.7906 496.262 -34.5863 487.616C-36.6866 485.554 -38.5839 481.854 -36.2535 480.055C-34.7353 478.882 -32.5537 479.603 -30.7939 480.363C-16.1766 486.691 12.7539 501.512 27.3711 507.84C17.7071 504.221 -21.5341 484.633 -11.7224 481.431C-7.77528 480.143 -1.79719 480.587 2.90035 482.57C16.887 488.469 47.1172 499.004 61.1038 504.905C57.1081 503.161 38.5515 496.569 36.3061 492.839C34.0609 489.108 31.2953 483.123 35.5094 482.005C38.8533 481.12 53.6637 484.706 56.443 486.759C63.9991 492.339 73.6091 480.342 82.8477 482.055C85.5668 482.559 93.5098 495.699 98.2732 494.673C130.296 487.782 131.06 491.933 161.298 478.724C135.864 476.93 130.271 478.608 108.846 464.806C107.263 463.787 105.537 462.371 105.624 460.491C105.677 459.407 106.336 458.463 106.938 457.563C112.865 448.705 115.403 437.643 115.088 423.352C129.105 421.514 143.125 419.674 157.144 417.836C171.396 415.965 186.233 413.879 198.108 405.795C208.215 398.911 215.377 387.855 217.514 375.827C219.653 363.8 216.74 350.957 209.621 341.023C202.726 331.399 192.44 324.825 179.093 320.683C174.946 292.199 166.57 264.332 154.324 238.273C152.241 233.841 149.965 229.348 146.316 226.077C139.303 219.79 128.968 219.36 119.541 219.265C108.881 219.159 98.2211 219.053 84.3872 220.244C73.0056 254.762 58.5181 288.258 41.1547 320.196C15.5273 300.011 -0.929103 268.644 -6.39652 237.705C-17.0355 245.861 -29.355 251.522 -40.5739 258.86C-51.795 266.197 -62.3218 275.838 -66.5069 288.561C-70.3498 300.246 -68.3771 312.946 -66.3657 325.082C-63.4861 342.471 -60.6043 359.861 -57.6975 378.27C-48.3293 379.907 -38.6458 378.606 -29.2523 380.098C-19.859 381.593 -9.97247 387.111 -7.96106 396.393C-18.1165 400.176 -24.4425 410.06 -33.1416 416.515C-41.8388 422.97 -49.0043 439.84 -50.888 450.728C-50.3001 455.129 -51.9362 459.769 -55.1563 462.829C-58.3764 465.89 -63.1012 467.291 -67.4719 466.486C-53.7001 462.493 -39.0867 462.908 -24.752 463.356C-23.8836 463.383 -22.9708 463.424 -22.2339 463.881C-20.5881 464.905 -20.7604 467.539 -22.0754 468.961C-23.3924 470.383 -25.3902 470.906 -27.2739 471.364C-33.2925 472.825 -39.3111 474.285 -47.4106 477.838C-41.6087 480.773 -43.9546 489.531 -41.893 495.689C-40.8719 498.734 -38.6515 501.217 -36.3501 503.459C-15.1651 524.102 15.7439 530.914 45.1561 534.245C109.032 541.478 228.918 538.433 294.036 491.785C302.043 486.048 304.242 475.026 307.771 465.841C317.855 439.589 327.941 413.335 337.965 390.448C325.897 576.135 335.601 431.483 333.646 543.891C333.329 562.025 333.014 580.157 333.892 601.53C339.982 600.851 536.382 596.975 584 596.486" stroke="#3464AF" stroke-miterlimit="2" stroke-linecap="round" stroke-linejoin="round"/>
</svg>
