<svg width="1140" height="408" viewBox="0 0 1140 408" fill="none" xmlns="http://www.w3.org/2000/svg">
<path d="M0 396.064C38.6467 399.259 77.2938 402.453 108.155 398.62C139.017 394.786 162.093 383.924 186.287 382.131C210.481 380.337 235.793 387.612 248.449 391.249C261.105 394.887 261.105 394.887 266.846 394.538C272.586 394.19 284.067 393.494 295.474 391.466C306.882 389.439 318.215 386.08 330.177 382.091C342.14 378.102 354.733 373.484 362.708 368.237C370.683 362.989 374.041 357.111 376.349 351.023C378.658 344.935 379.917 338.638 381.806 338.218C383.695 337.798 386.213 343.256 389.782 351.652C393.349 360.049 397.967 371.385 406.572 377.053C415.177 382.72 427.77 382.72 429.449 385.45C431.128 388.179 421.893 393.637 409.72 395.736C397.547 397.836 382.436 396.576 372.029 396.156C361.622 395.736 355.92 396.157 343.204 397.206C330.488 398.255 310.76 399.934 299.846 397.415C288.933 394.897 286.834 388.179 286.625 380.412C286.415 372.645 288.094 363.828 290.403 354.382C292.711 344.935 295.649 334.859 297.538 323.943C299.427 313.027 300.267 301.271 302.785 295.393C305.304 289.516 309.501 289.516 312.439 289.096C315.377 288.676 317.056 287.837 316.637 280.489C316.217 273.142 313.699 259.287 313.069 247.112C312.44 234.936 313.699 224.44 314.748 214.153C315.797 203.867 316.636 193.791 315.377 186.863C314.118 179.936 310.76 176.157 306.982 179.516C303.205 182.875 299.007 193.371 297.118 205.337C295.229 217.302 295.649 230.737 295.649 242.493C295.649 254.249 295.229 264.325 300.686 277.34C306.143 290.355 317.476 306.309 322.513 320.584C327.55 334.859 326.291 347.454 328.6 354.801C330.909 362.149 336.785 364.248 339.724 360.889C342.662 357.531 342.662 348.714 344.761 342.626C346.86 336.538 351.057 333.18 357.143 331.08C363.229 328.981 371.205 328.141 377.291 324.992C383.378 321.843 387.576 316.385 387.366 307.149C387.156 297.912 382.538 284.897 382.118 271.672C381.698 258.447 385.476 245.012 388.804 231.406C392.131 217.801 395.009 204.024 392.7 194.158C390.392 184.292 382.897 178.335 376.841 178.086C370.786 177.837 366.168 183.295 366.168 194.211C366.168 205.127 370.786 221.501 372.674 233.257C374.563 245.012 373.724 252.15 370.995 258.447C368.267 264.745 363.649 270.203 357.772 272.722C351.896 275.241 344.76 274.821 340.353 268.313C335.945 261.806 334.266 249.21 333.217 241.443C332.168 233.676 331.748 230.737 336.156 231.366C340.563 231.997 349.797 236.195 352.736 233.046C355.674 229.897 352.316 219.401 349.168 212.054C346.02 204.707 343.081 200.509 347.489 201.768C351.896 203.028 363.649 209.745 369.316 210.795C374.983 211.844 374.562 207.226 373.933 200.089C373.303 192.951 372.464 183.295 369.106 177.207C365.748 171.12 359.872 168.601 356.304 169.44C352.736 170.28 351.477 174.478 349.168 177.836C346.859 181.195 343.501 183.714 340.563 182.245C337.624 180.776 335.106 175.318 333.847 171.33C332.587 167.341 332.587 164.822 334.896 164.192C337.205 163.563 341.823 164.822 345.6 163.353C349.378 161.883 352.316 157.685 354.415 154.536C356.514 151.387 357.772 149.288 357.563 144.88C357.353 140.471 355.675 133.754 353.604 129.865C351.534 125.976 349.072 124.915 346.344 125.334C343.615 125.754 340.62 127.654 339.461 129.487C338.301 131.319 338.978 133.084 340.447 133.084C341.916 133.084 344.178 131.319 343.211 129.177C342.243 127.035 338.045 124.516 334.477 125.356C330.909 126.196 327.971 130.394 326.711 134.803C325.452 139.211 325.872 143.829 326.082 147.188C326.292 150.547 326.292 152.646 325.242 155.795C324.193 158.944 322.095 163.142 318.317 166.291C314.539 169.44 309.082 171.539 305.934 169.86C302.786 168.181 301.947 162.723 302.996 158.734C304.045 154.745 306.983 152.226 308.828 148.444C310.673 144.662 311.424 139.617 313.523 136.469C315.622 133.32 319.068 132.067 321.84 127.872C324.612 123.677 326.711 116.54 331.316 113.514C335.921 110.488 343.032 111.574 347.02 112.833C351.007 114.093 351.871 115.527 355.784 118.133C359.697 120.739 366.659 124.517 369.388 131.235C372.117 137.952 370.611 147.608 370.698 153.906C370.785 160.204 372.464 163.143 375.192 166.292C377.92 169.441 381.698 172.799 382.301 180.9C382.905 189.001 380.334 201.844 383.72 210.223C387.106 218.601 396.448 222.514 405.352 222.235C414.255 221.956 422.719 217.483 435.176 216.365C447.632 215.247 464.081 217.483 472.425 210.335C480.77 203.187 481.009 186.655 478.494 175.433C475.979 164.212 470.709 158.302 466.916 147.56C461.568 132.412 454.446 90.4739 458.132 74.7211C460.328 65.3367 465.997 57.3502 469.271 48.1257C472.545 38.9011 473.423 28.4385 471.624 23.1175C469.824 17.7965 465.345 17.6166 463.409 14.5217C461.472 11.4269 462.078 5.41693 465.42 2.82111C468.762 0.225286 474.841 1.04316 481.164 1.4525C487.487 1.86143 494.054 1.86144 497.83 3.5036C501.606 5.14577 502.591 8.42971 503.412 13.192C504.232 17.9543 504.888 24.1945 504.56 27.9715C504.232 31.7485 502.919 33.0626 499.142 32.2415C495.367 31.4204 489.127 28.4649 485.516 25.3444C481.904 22.2239 480.919 18.9392 481.247 16.4759C481.576 14.0127 483.217 12.3709 483.875 12.0425C484.531 11.7144 484.203 12.6993 483.054 14.8345C481.905 16.9694 479.935 20.2533 476.968 23.9169C474.002 27.5806 470.039 31.6235 467.084 32.1161C464.128 32.6088 462.181 29.5512 461.863 27.2009C461.546 24.851 462.859 23.2088 464.008 22.7161C465.158 22.2235 466.143 22.8804 466.577 24.3319C467.011 25.7834 466.894 28.03 466.507 31.6163C466.12 35.2026 465.462 40.1291 465.955 45.2198C466.447 50.3105 468.09 55.5655 471.537 58.6856C474.985 61.8057 480.239 62.791 485.647 60.9405C491.056 59.0897 496.62 54.4031 498.919 50.2977C501.217 46.1923 500.25 42.668 498.946 42.3841C497.641 42.0997 495.999 45.0556 496.437 48.8602C496.875 52.6648 499.392 57.3178 503.004 60.7659C506.616 64.2141 511.323 66.4582 509.479 69.4538C507.636 72.4497 499.244 76.1975 494.155 78.0038C489.065 79.8102 487.278 79.6749 486.649 77.7856C486.019 75.8963 486.547 72.2531 488.725 69.8147C490.903 67.3762 494.733 66.1434 496.111 66.9797C497.489 67.8164 496.416 70.7226 492.596 73.3253C488.776 75.9279 482.209 78.2265 477.283 77.2412C472.358 76.2559 469.074 71.9863 467.761 69.1946C466.447 66.403 467.104 65.0896 469.894 65.9107C472.685 66.7318 477.611 69.6877 477.892 72.3824C478.172 75.0772 473.808 77.5112 469.375 76.3617C464.943 75.2118 460.442 70.4787 455.072 69.9188C449.702 69.3584 443.463 72.9716 438.268 80.552C433.073 88.1324 428.922 99.6804 424.384 111.038C419.846 122.395 414.92 133.561 414.099 143.578C413.278 153.594 416.562 162.462 420.173 170.672C423.785 178.883 427.725 186.438 430.516 191.528C433.307 196.619 434.949 199.246 436.427 195.744C437.905 192.242 439.216 182.61 439.381 176.699C439.544 170.787 438.56 168.595 436.262 164.544C433.963 160.492 430.352 154.58 429.308 150.94C428.264 147.301 429.789 145.935 433.506 140.982C437.223 136.029 443.134 127.49 445.597 118.786C448.06 110.083 447.075 101.216 445.433 99.7385C443.791 98.2605 441.492 104.173 442.805 113.861C444.118 123.55 449.044 137.014 449.431 156.254C449.818 175.493 445.667 200.507 440.308 222.21C434.949 243.913 428.383 262.304 426.905 274.292C425.427 286.28 429.039 291.863 440.308 293.15C451.578 294.438 470.505 291.429 488.342 290.91C506.179 290.392 522.925 292.362 528.835 288.585C534.746 284.808 529.82 275.283 526.372 263.459C522.924 251.636 520.954 237.513 519.805 225.198C518.656 212.882 518.327 202.372 519.148 195.639C519.969 188.906 521.939 185.95 527.521 180.203C533.103 174.455 542.297 165.917 547.716 155.735C553.134 145.554 554.775 133.73 553.297 126.505C551.82 119.279 547.223 116.652 541.641 107.784C536.06 98.9166 529.492 83.8087 525.388 77.7327C521.283 71.6567 519.642 74.6126 518.164 81.017C516.686 87.4215 515.373 97.2749 516.851 105.485C518.328 113.696 522.596 120.264 525.879 125.191C529.163 130.117 531.461 133.401 530.969 137.835C530.477 142.269 527.193 147.852 524.073 153.435C520.954 159.019 517.999 164.602 515.044 162.796C512.089 160.99 509.134 151.794 508.641 143.254C508.149 134.715 510.119 126.832 511.925 125.683C513.731 124.534 515.373 130.117 516.358 139.313C517.343 148.51 517.671 161.318 519.477 171.664C521.283 182.009 524.566 189.892 528.999 204.014C533.432 218.137 539.014 238.5 541.805 256.399C544.596 274.299 544.596 289.734 541.805 296.959C539.014 304.184 533.432 303.199 527.029 303.035C520.626 302.871 513.402 303.528 507.656 304.678C501.91 305.827 497.641 307.47 495.014 312.888C492.387 318.308 491.402 327.503 490.64 339.681C489.878 351.859 489.339 367.019 491.203 375.257C493.068 383.494 497.336 384.808 502.86 385.439C508.383 386.07 515.162 386.018 519.759 383.718C524.356 381.419 526.771 376.873 527.979 372.63C529.187 368.386 529.187 364.445 528.221 363.212C527.255 361.98 525.322 363.456 521.863 365.257C518.404 367.058 513.419 369.183 509.46 368.117C505.5 367.051 502.567 362.793 502.251 354.095C501.933 345.397 504.232 332.26 506.472 321.559C508.712 310.859 510.893 302.596 505.909 299.614C500.925 296.632 488.775 298.93 481.552 303.528C474.328 308.126 472.03 315.022 472.195 325.532C472.359 336.042 474.986 350.165 475.642 360.017C476.299 369.87 474.985 375.453 472.088 379.257C469.192 383.06 464.712 385.084 458.861 385.439C453.01 385.794 445.786 384.48 440.966 380.677C436.146 376.874 433.73 370.58 434.164 368.911C434.598 367.243 437.881 370.199 441.329 372.005C444.777 373.812 448.389 374.469 451.016 372.17C453.643 369.871 455.284 364.616 455.612 357.555C455.94 350.494 454.956 341.626 454.135 332.266C453.314 322.905 452.658 313.053 453.971 312.068C455.284 311.083 458.567 318.965 461.358 328.982C464.149 338.999 466.448 351.15 465.792 362.153C465.135 373.155 461.524 383.007 465.628 389.311C469.731 395.615 481.551 398.37 496.486 398.698C528.018 399.39 561.27 392.062 593.691 391.429C611.32 391.084 632.309 391.924 649.099 394.233C665.889 396.542 678.481 400.32 695.061 398.011C711.642 395.703 732.208 387.305 749.528 384.157C766.848 381.008 780.919 383.107 783.018 386.676C785.116 390.244 775.244 395.282 760.485 388.019C745.727 380.755 726.084 361.19 715.326 336.176C704.567 311.163 702.692 280.704 707.143 254.227C711.595 227.748 722.37 205.255 724.715 188.619C727.057 171.983 720.965 161.203 712.064 155.58C703.162 149.957 691.448 149.49 683.483 150.427C675.519 151.364 671.303 153.706 667.321 156.986C663.338 160.266 659.59 164.485 655.842 165.422C652.094 166.36 648.346 164.016 647.877 160.736C647.409 157.456 650.22 153.239 654.203 149.021C658.184 144.804 663.337 140.585 669.663 138.945C675.987 137.304 683.485 138.242 690.98 138.477C698.477 138.71 705.972 138.242 707.378 132.385C708.784 126.527 704.098 115.279 701.054 103.564C698.008 91.8485 696.602 79.6632 699.18 74.977C701.756 70.2909 708.315 73.1042 714.172 79.6648C720.027 86.2251 725.181 96.5363 726.821 108.72C728.46 120.904 726.588 134.963 721.201 143.633C715.812 152.302 706.909 155.581 696.134 158.86C685.358 162.141 672.707 165.422 663.572 170.812C654.436 176.201 648.814 183.7 656.778 193.072C664.743 202.444 686.295 213.691 688.873 236.419C691.449 259.147 675.049 293.355 669.107 315.028C663.163 336.702 667.674 345.841 666.035 353.338C664.395 360.836 656.604 366.696 643.104 371.031C629.604 375.366 610.395 378.177 594.466 377.24C578.535 376.303 565.885 371.615 565.182 367.633C564.479 363.649 575.724 360.369 584.626 352.169C593.527 343.968 600.088 330.845 605.945 302.26C611.801 273.674 616.954 229.623 619.063 190.026C621.17 150.426 620.233 115.281 629.838 97.9421C639.442 80.6025 659.589 81.0707 672.707 87.6313C685.825 94.1916 691.917 106.845 690.746 111.532C689.574 116.218 681.14 112.936 671.77 109.891C662.4 106.844 652.091 104.032 649.28 105.673C646.469 107.312 651.156 113.406 654.435 118.327C657.715 123.247 659.589 126.996 655.372 127.464C651.156 127.933 640.847 125.121 635.46 126.527C630.071 127.933 629.603 133.556 633.586 152.535C637.568 171.515 646 203.849 649.515 231.029C653.028 258.209 651.623 280.235 646.704 299.449C641.784 318.662 633.351 335.063 627.027 342.327C620.701 349.591 616.483 347.717 618.124 339.048C619.763 330.378 627.26 314.912 630.54 296.402C633.819 277.891 632.884 256.335 627.497 231.497C622.109 206.66 612.269 178.544 609.693 153.004C607.115 127.464 611.8 104.501 619.296 89.974C626.792 75.4473 637.101 69.3536 644.597 66.7774C652.093 64.1992 656.778 65.1365 662.868 66.0737C668.959 67.011 676.455 67.9498 680.671 65.6067C684.888 63.2636 685.826 57.6386 687.7 52.0156C689.574 46.3922 692.385 40.7692 690.511 34.6771C688.637 28.5851 682.077 22.0232 677.627 20.3839C673.175 18.7429 670.833 22.0232 670.599 25.07C670.364 28.1153 672.24 30.9286 673.88 30.4596C675.519 29.9909 676.925 26.242 676.691 23.4303C676.456 20.6186 674.581 18.7429 671.77 18.5094C668.959 18.2743 665.211 19.6801 663.805 22.0232C662.4 24.3663 663.337 27.6478 661.931 31.6319C660.526 35.6144 656.777 40.3001 655.607 44.9863C654.435 49.6725 655.84 54.3583 654.201 56.9365C652.561 59.5131 647.876 59.9833 645.065 57.8753C642.254 55.7657 641.317 51.0779 643.191 47.0959C645.065 43.1118 649.749 39.8303 651.623 36.55C653.497 33.2697 652.561 29.9909 652.796 26.2424C653.029 22.4934 654.435 18.2759 656.777 14.996C659.12 11.7156 662.4 9.37134 665.679 8.2002C668.958 7.02785 672.238 7.02786 676.689 8.43371C681.139 9.83956 686.761 12.6513 690.276 15.6977C693.789 18.7429 695.194 22.0232 696.366 25.3036C697.537 28.5839 698.475 31.8654 701.287 34.6771C704.098 37.4888 708.782 39.8319 710.656 43.1118C712.53 46.3922 711.593 50.6093 712.257 55.8414C712.918 61.0719 715.179 67.3166 718.706 72.6756C730.606 90.7623 738.374 86.8255 738.681 115.172C738.84 129.948 735.806 152.789 743.591 159.698C751.377 166.606 769.981 157.581 783.795 155.504C797.609 153.428 806.632 158.3 815.342 161.739C824.052 165.178 832.449 167.185 836.502 166.001C840.555 164.818 840.263 160.445 840.097 157.949C839.93 155.454 839.89 154.838 837.374 154.003C834.859 153.169 829.87 152.116 826.378 149.76C822.886 147.404 820.89 143.744 819.393 140.417C817.897 137.091 816.899 134.097 815.569 133.431C814.239 132.766 812.576 134.43 812.576 136.093C812.576 137.757 814.238 139.42 815.735 139.919C817.232 140.418 818.562 139.752 818.72 136.843C818.878 133.934 817.862 128.78 820.578 124.358C823.295 119.937 829.743 116.248 835.628 117.494C841.513 118.74 846.834 124.921 850.104 125.184C853.375 125.447 854.594 119.792 855.037 114.303C855.481 108.814 855.148 103.491 847.664 100.663C840.181 97.8356 825.547 97.5032 817.996 100.504C810.446 103.504 809.979 109.836 809.979 115.325C809.979 120.814 810.446 125.46 815.834 123.957C821.223 122.454 831.534 114.802 835.026 110.145C838.518 105.487 835.192 103.824 833.03 104.157C830.868 104.49 829.871 106.818 832.813 109.795C835.756 112.772 842.64 116.397 845.633 120.722C848.627 125.047 847.73 130.071 847.614 132.916C847.498 135.76 848.163 136.426 849.327 136.259C850.491 136.093 852.155 135.095 852.986 133.931C853.818 132.766 853.818 131.436 852.155 131.103C850.492 130.771 847.166 131.436 845.336 135.096C843.507 138.755 843.174 145.408 840.101 148.796C837.028 152.183 831.214 152.305 827.556 152.333C823.897 152.361 822.394 152.293 821.928 154.212C821.462 156.13 822.033 160.034 820.37 162.362C818.707 164.691 814.81 165.444 816.686 167.457C818.563 169.47 826.212 172.742 829.704 178.037C833.197 183.332 832.531 190.651 832.365 197.97C832.199 205.289 832.532 212.608 833.031 217.265C833.53 221.922 834.195 223.919 835.359 222.921C836.523 221.922 838.186 217.93 838.685 211.111C839.184 204.291 838.518 194.643 839.682 186.992C840.847 179.34 843.84 173.685 847.499 170.358C851.157 167.032 855.481 166.034 859.306 166.533C863.13 167.032 866.456 169.027 868.784 173.186C871.112 177.345 872.443 183.666 873.274 194.976C874.106 206.287 874.439 222.588 874.272 230.904C874.106 239.221 873.441 239.554 871.445 240.053C869.449 240.552 866.123 241.217 864.461 242.215C862.798 243.213 862.798 244.544 863.463 249.866C864.128 255.189 865.458 264.504 867.786 266.334C870.114 268.163 873.44 262.508 874.272 257.85C875.104 253.193 873.441 249.534 868.784 247.537C864.128 245.542 856.478 245.209 852.986 237.724C849.494 230.239 850.159 215.601 851.323 205.788C852.488 195.974 854.15 190.984 855.481 196.639C856.811 202.295 857.809 218.596 858.141 230.572C858.474 242.548 858.141 250.199 858.307 256.52C858.473 262.841 859.139 267.831 858.474 270.326C857.809 272.821 855.814 272.821 852.987 271.324C850.159 269.827 846.5 266.833 842.343 265.669C838.186 264.504 833.529 265.169 828.707 267.498C823.884 269.827 818.895 273.819 815.403 275.316C811.911 276.813 809.915 275.815 808.252 273.653C806.589 271.491 805.259 268.164 804.095 264.338C802.931 260.513 801.933 256.188 802.099 251.697C802.266 247.206 803.596 242.549 804.927 236.228C806.257 229.907 807.588 221.923 808.253 215.103C808.918 208.284 808.918 202.628 808.918 198.802C808.918 194.976 808.918 192.98 809.916 193.313C810.914 193.646 812.91 196.307 813.575 199.967C814.24 203.626 813.574 208.284 812.41 213.939C811.246 219.595 809.583 226.248 808.253 231.238C806.923 236.228 805.925 239.554 804.095 240.552C802.266 241.55 799.605 240.219 796.279 239.055C792.954 237.891 788.963 236.893 787.133 234.731C785.304 232.568 785.636 229.242 785.303 219.123C784.97 209.004 783.972 192.092 787.963 181.474C791.955 170.855 800.935 166.531 805.258 166.364C809.582 166.198 809.25 170.19 806.589 173.184C803.929 176.178 798.94 178.174 796.279 185.965C793.618 193.755 793.285 207.34 792.62 217.293C791.955 227.245 790.957 233.566 791.456 240.552C791.955 247.538 793.95 255.19 793.95 261.676C793.95 268.164 791.955 273.486 791.788 277.312C791.622 281.138 793.285 283.467 795.946 284.299C798.607 285.13 802.265 284.464 807.254 282.968C812.243 281.471 818.562 279.143 827.043 278.477C835.525 277.812 846.168 278.81 852.986 281.97C859.804 285.13 862.798 290.453 863.796 296.108C864.794 301.763 863.796 307.751 864.128 318.064C864.461 328.377 866.124 343.015 865.126 354.159C864.128 365.304 860.47 372.955 856.811 376.448C853.153 379.941 849.494 379.276 847.332 380.274C845.17 381.272 844.505 383.933 844.505 386.096C844.505 388.258 845.17 389.921 846.667 391.418C848.164 392.915 850.492 394.246 853.651 394.08C856.811 393.914 860.802 392.25 861.135 390.088C861.468 387.925 858.141 385.264 853.818 383.6C849.494 381.937 844.173 381.272 840.847 378.112C837.521 374.951 836.19 369.296 834.361 367.3C832.531 365.304 830.203 366.967 827.043 370.793C823.884 374.619 819.892 380.607 816.067 384.432C812.243 388.258 808.584 389.921 804.759 390.919C800.935 391.917 796.944 392.25 794.948 390.753C792.953 389.256 792.952 385.929 795.946 383.434C798.939 380.939 804.926 379.276 809.582 376.615C814.239 373.954 817.565 370.294 824.217 363.142C830.869 355.989 840.847 345.344 846.833 336.528C852.82 327.712 854.815 320.726 850.325 321.391C845.835 322.056 834.86 330.373 825.547 335.03C816.234 339.688 808.584 340.686 807.752 338.69C806.921 336.694 812.908 331.704 819.061 324.551C825.214 317.399 831.533 308.084 831.533 304.591C831.533 301.098 825.214 303.427 818.396 304.259C811.577 305.09 804.26 304.425 800.435 302.596C796.611 300.766 796.278 297.772 795.945 300.267C795.613 302.762 795.28 310.746 795.612 321.225C795.945 331.704 796.942 344.679 797.276 353.827C797.608 362.975 797.276 368.297 800.269 370.127C803.263 371.957 809.582 370.294 815.901 373.953C822.22 377.613 828.539 386.595 838.943 392.25C849.346 397.905 863.833 400.234 885.119 397.739C906.405 395.244 934.49 387.925 953.023 385.43C971.556 382.935 980.536 385.264 988.947 389.637C997.357 394.011 1005.2 400.428 1026.21 403.717C1047.22 407.005 1081.39 407.165 1102.55 406.925C1123.71 406.686 1131.86 406.047 1140 405.408" stroke="#3464AF" stroke-miterlimit="2.6131" stroke-linecap="round"/>
</svg>
