<svg width="277" height="186" viewBox="0 0 277 186" fill="none" xmlns="http://www.w3.org/2000/svg">
<path d="M1 184.828C11.0111 184.811 71.468 184.935 81.5427 185C81.8452 177.778 82.8051 170.584 83.9537 162.843C77.213 163.249 70.4163 162.707 63.8248 161.24C61.7175 160.77 59.5553 160.168 57.9049 158.778C54.3777 155.806 55.1225 146.837 57.2811 142.763C59.4392 138.688 66.9587 139.397 71.2855 136.702C66.5596 139.961 59.0571 141.217 58.4168 140.889C57.7021 140.524 57.6838 139.527 57.7729 138.73C59.3766 124.33 64.0271 109.8 69.4694 96.3713C70.9158 92.8032 72.5249 89.2332 75.0155 86.2961C77.3144 83.5846 80.2715 81.5213 83.235 79.5563C89.7174 75.2576 91.1001 73.6279 98.7093 69.2443C99.5035 67.0283 100.298 60.688 101.093 58.4721C104.521 64.7647 110.242 68.2096 115.481 69.186C116.414 69.3598 117.387 69.4912 118.302 69.2396C119.356 68.9497 120.207 68.1878 120.989 67.4254C128.829 59.7907 134.093 49.5576 135.852 38.5614C134.828 35.7876 135.466 32.3444 133.517 30.12C132.377 28.8185 130.615 28.2844 128.951 27.8094C127.49 27.3924 126.028 26.9754 124.566 26.5584C123.746 26.3242 122.866 26.0903 122.054 26.3525C121.228 26.6192 120.65 27.3395 120.046 27.9619C117.547 30.5361 113.988 40.0692 111.303 42.449C107.361 45.9417 105.772 43.06 104.361 48.1323C104.68 45.9953 104.983 43.7234 104.109 41.7472C103.235 39.7711 100.699 38.3712 98.8425 39.4789C98.257 39.8282 97.8136 40.3756 97.4587 40.9577C95.0647 44.8841 97.0365 50.753 101.576 53.1375C101.291 55.5013 101.006 57.8652 100.722 60.2296C100.634 60.9549 100.542 61.6979 100.208 62.3484C98.9941 64.7075 95.2829 64.4541 93.3454 62.6406C91.4084 60.8265 90.6531 58.1274 89.5564 55.7117C88.4597 53.296 86.5847 50.8355 83.9384 50.6234C81.6459 50.4396 79.5126 52.1105 78.5108 54.1786C77.509 56.2473 77.4271 58.6335 77.5261 60.929C77.6181 63.0525 77.953 65.3845 79.5533 66.7844C80.5521 67.6593 81.9077 68.0253 83.2332 68.1195C86.7362 68.3676 90.3182 66.7838 92.4898 64.0258C90.2575 58.2694 88.3347 51.7859 90.6272 46.0531C91.5062 43.856 91.1832 42.5262 92.2823 40.4304C94.0093 37.1386 93.6744 35.2325 95.0506 31.7795C97.6019 25.3781 102.772 19.6235 108.946 16.5541C115.119 13.4846 122.93 13.4234 128.698 17.1991C134.795 21.1899 140.132 26.3137 140.857 33.5608C141.385 38.8337 137.764 46.4997 133.587 47.922C135.713 47.3493 139.549 44.1382 140.102 42.0083C140.655 39.8783 140.451 37.6352 140.261 35.4429C139.722 29.1965 139.331 22.9374 139.091 16.6726C138.915 12.0542 139.359 6.45944 143.459 4.32107C145.244 3.39023 147.343 3.37443 149.349 3.2015C157.29 2.5171 165.625 -0.867661 172.894 2.40004C175.608 3.6199 177.852 5.66842 179.979 7.74812C182.995 10.6982 186.012 14.0297 186.774 18.1782C187.734 23.4043 184.909 28.501 182.376 33.3901C179.809 38.9097 177.617 44.6036 175.821 50.419C174.795 51.4672 173.009 51.661 171.781 50.8573C174.731 48.7015 177.13 45.8003 178.692 42.4996C179.457 40.8853 180.031 39.0752 179.661 37.3277C179.29 35.5808 177.695 33.9945 175.917 34.1791C172.834 34.4996 172.409 38.8249 170.416 41.1981C171.237 38.0071 172.058 34.816 172.88 31.6248C170.601 32.3169 168.776 29.4918 168.655 27.1156C168.534 24.7395 169.133 22.1344 167.85 20.1299C163.255 21.1718 158.576 22.1025 153.869 21.8919C149.163 21.6813 144.367 20.2249 140.911 17.0246C137.959 27.6031 139.387 39.7852 143.83 49.8298C146.271 55.3499 150.873 60.9967 156.906 60.7098C161.612 60.4859 165.283 56.7286 167.775 54.0031C165.684 55.3977 163.555 58.5434 161.204 59.4348C158.854 60.3263 156.122 61.2949 153.694 60.6415C153.091 62.174 152.606 61.3491 151.079 63.02C151.828 65.7357 150.871 68.856 152.241 71.3177C153.141 72.9344 154.927 73.9266 156.757 74.2076C158.586 74.4887 160.459 74.1369 162.224 73.5813C169.895 71.1686 176.137 64.6556 179.31 57.0073C186.253 58.3407 193.089 60.767 198.775 64.965C204.46 69.1636 208.921 75.2611 210.267 82.1953C211.287 87.4521 210.507 92.8809 209.497 98.1395C208.207 104.85 206.544 111.489 204.518 118.016C196.571 117.413 184.497 116.81 175.182 115.499C179.191 107.912 184.087 93.8142 187.5 83.2547C183.424 99.9536 178.395 116.42 171.327 131.48C170.221 126.858 167.345 118.111 166.239 113.489C168.856 119.77 170.73 128.958 170.571 135.761C170.511 138.362 170.149 141.173 168.348 143.054C166.725 144.749 164.276 145.325 161.956 145.684C150.737 147.424 140.211 147.663 129.193 142.84C121.155 145.585 112.79 147.366 104.331 148.134C107.75 146.45 112.031 143.842 115.765 143.08C118.567 142.509 109.886 145.217 107.556 146.388C103.958 148.197 95.4303 148.159 98.7718 145.912C102.313 143.532 113.922 140.943 111.171 141.898C105.757 143.777 102.246 145.128 99.1061 146.024C95.9663 146.92 91.596 146.008 94.004 143.804C96.8896 141.164 104.601 140.502 109.318 137.431C106.716 139.011 99.9469 140.608 97.0206 141.45C94.0942 142.291 89.6761 141.78 92.2793 140.202C95.3997 138.311 106.788 133.385 106.831 134.128C108.66 133.508 110.489 132.888 112.318 132.268C108.6 132.831 105.225 135.152 101.465 135.164C101.168 135.165 100.854 135.145 100.607 134.982C100.08 134.632 100.142 133.785 100.558 133.309C100.974 132.833 101.609 132.626 102.205 132.414C104.449 131.615 106.564 130.455 108.443 128.993C109.455 128.205 110.491 127.29 111.768 127.177C112.429 127.118 113.086 127.285 113.728 127.451C115.54 127.918 117.352 128.385 119.758 128.486C124.86 128.958 129.977 129.264 135.099 129.403C136.476 129.441 137.918 129.452 139.145 128.827C140.974 127.895 141.893 125.691 141.785 123.643C141.677 121.594 140.712 119.686 139.572 117.981C138.735 116.727 137.771 115.524 136.52 114.682C135.492 113.99 134.311 113.569 133.144 113.154C129.384 111.819 125.308 110.471 121.815 111.811C122.675 112.473 123.914 111.614 124.423 110.655C124.931 109.695 125.234 108.507 126.186 107.984C126.608 107.751 127.107 107.689 127.534 107.463C128.779 106.806 128.934 104.96 128.202 103.759C127.469 102.557 126.145 101.864 124.867 101.275C122.743 100.298 120.197 99.4616 118.155 100.598C116.564 101.483 115.783 103.301 115.112 104.992C114.988 105.302 114.865 105.65 114.987 105.96C115.144 106.358 115.622 106.507 116.043 106.576C118.986 107.059 122.328 106.17 124.766 107.886C122.572 107.103 120.255 106.667 117.927 106.598C117.53 106.587 117.113 106.591 116.767 106.786C116.475 106.951 116.27 107.232 116.079 107.509C114.386 109.956 113.02 112.63 112.03 115.436C111.543 116.818 111.142 118.264 111.221 119.726C111.3 121.189 111.927 122.684 114.374 124.439C119.977 125.682 125.58 126.926 131.183 128.171C133.288 128.637 135.479 129.104 137.575 128.604C139.672 128.104 141.631 126.326 141.582 124.174C143.969 124.896 146.677 124.472 148.73 123.054C150.368 121.922 151.597 119.611 150.46 117.976C149.728 116.924 148.293 116.604 147.014 116.7C142.674 117.025 139.244 121.771 140.298 125.991C140.418 126.471 140.603 126.964 140.986 127.277C141.354 127.578 141.849 127.666 142.32 127.735C143.379 127.89 144.445 127.999 145.513 128.061C150.225 128.336 155.164 127.633 159.081 125.001C165.515 120.677 167.703 111.116 163.789 104.428C159.876 97.7388 150.465 94.9543 143.538 98.4359C140.543 99.9418 138.124 102.373 135.315 104.202C133.581 105.33 131.627 106.294 130.492 108.024C129.358 109.752 129.569 112.579 131.193 112.808C123.404 110.903 113.179 110.811 105.683 114.127C102.467 115.389 99.2506 116.65 96.0341 117.912C96.418 117.606 95.8949 117.047 95.4421 116.856C91.7652 115.311 87.5404 113.765 83.9283 115.456C82.1494 116.29 80.7933 117.811 79.6223 119.388C76.9513 122.982 74.9813 127.038 73.0273 131.066C71.2536 129.989 69.2141 129.353 67.1421 129.23C66.6339 129.2 66.0478 129.235 65.7335 129.635C65.2924 130.196 65.6981 131.006 66.1268 131.577C67.6097 133.549 69.3804 135.306 71.365 136.773C74.0585 138.764 78.1452 140.089 80.3293 137.77C76.5939 139.603 73.7773 143.113 76.1045 143.036C73.0414 146.482 72.0084 151.609 73.4978 155.97C74.5809 159.143 77.4218 162.076 80.3104 161.76C84.6418 161.643 88.9462 160.618 92.8654 158.772C89.8052 156.823 87.1336 154.267 85.0516 151.297C84.7038 150.801 84.3582 150.186 84.5799 149.622C85.0375 148.458 86.7845 149.178 87.7468 149.978C90.488 152.259 97.3897 157.111 100.84 158.016C97.1703 157.181 90.0882 152.125 87.4066 149.486C86.7663 148.857 86.1878 147.728 86.8983 147.179C87.3612 146.822 88.0263 147.041 88.5629 147.273C93.0193 149.204 101.84 153.727 106.296 155.658C103.35 154.553 91.3859 148.576 94.3773 147.599C95.5807 147.206 97.4033 147.342 98.8355 147.947C103.1 149.747 112.316 152.961 116.58 154.762C115.362 154.23 109.705 152.219 109.02 151.08C108.336 149.942 107.492 148.115 108.777 147.774C109.797 147.504 114.312 148.599 115.159 149.225C117.463 150.928 120.393 147.267 123.21 147.79C124.039 147.943 126.46 151.953 127.913 151.64C137.676 149.537 137.909 150.804 147.128 146.773C139.373 146.226 137.668 146.738 131.136 142.526C130.653 142.215 130.127 141.783 130.154 141.209C130.17 140.879 130.371 140.591 130.554 140.316C132.361 137.613 133.135 134.238 133.039 129.877C137.313 129.316 141.587 128.755 145.861 128.194C150.206 127.623 154.73 126.986 158.35 124.519C161.431 122.419 163.615 119.045 164.266 115.375C164.919 111.705 164.031 107.786 161.86 104.755C159.758 101.818 156.622 99.8122 152.553 98.5484C151.289 89.8566 148.735 81.3534 145.001 73.4016C144.366 72.0494 143.672 70.6784 142.56 69.6803C140.422 67.7619 137.271 67.6305 134.397 67.6016C131.147 67.5692 127.897 67.5368 123.679 67.9003C120.209 78.4333 115.792 88.6541 110.498 98.3999C102.685 92.2404 97.668 82.669 96.0011 73.2284C92.7575 75.7172 89.0015 77.4447 85.5811 79.6836C82.1601 81.9225 78.9507 84.8644 77.6747 88.7466C76.5031 92.3124 77.1045 96.1875 77.7178 99.8905C78.5957 105.197 79.4743 110.503 80.3605 116.12C83.2167 116.62 86.169 116.223 89.0328 116.678C91.8966 117.134 94.9108 118.818 95.5241 121.651C92.4279 122.805 90.4992 125.821 87.8471 127.791C85.1955 129.76 83.0109 134.908 82.4366 138.23C82.6158 139.573 82.117 140.989 81.1353 141.923C80.1535 142.857 78.7131 143.285 77.3805 143.039C81.5792 141.82 86.0346 141.947 90.4049 142.084C90.6696 142.092 90.9479 142.104 91.1726 142.244C91.6744 142.556 91.6218 143.36 91.2209 143.794C90.8194 144.228 90.2103 144.388 89.636 144.527C87.8011 144.973 85.9661 145.419 83.4968 146.503C85.2656 147.398 84.5504 150.071 85.179 151.95C85.4903 152.879 86.1672 153.637 86.8689 154.321C93.3277 160.62 102.751 162.698 111.718 163.715C131.193 165.922 167.743 164.993 187.596 150.759C190.037 149.008 190.708 145.645 191.784 142.842C194.858 134.831 197.933 126.82 200.989 119.836C197.31 176.497 200.269 132.358 199.673 166.658C199.576 172.192 199.48 177.725 199.747 184.246C201.604 184.039 261.482 182.856 276 182.707" stroke="#3464AF" stroke-miterlimit="2" stroke-linecap="round" stroke-linejoin="round"/>
</svg>
