<svg width="366" height="394" viewBox="0 0 366 394" fill="none" xmlns="http://www.w3.org/2000/svg">
<path d="M47.9223 397C39.0089 350.362 30.0954 303.724 25.2974 274.913C20.4994 246.103 19.8176 235.12 18.9945 226.923C18.1715 218.725 17.2075 213.313 15.5021 211.274C13.7968 209.235 11.35 210.57 11.0905 212.831C10.8308 215.092 12.7587 218.28 18.2456 217.539C23.7324 216.798 32.7782 212.127 39.4143 208.271C46.0505 204.416 50.2767 201.376 62.1775 201.858C74.0779 202.34 93.6526 206.344 120.345 207.419C147.038 208.494 180.849 206.64 207.468 204.008C234.086 201.376 253.512 197.966 266.266 196.52C279.019 195.074 285.099 195.594 288.046 194.611C290.994 193.629 290.808 191.145 290.011 187.123C289.214 183.101 287.805 177.54 283.282 177.021C278.759 176.502 271.122 181.025 259.815 183.916C248.508 186.808 233.53 188.068 209.024 189.403C184.519 190.737 150.486 192.146 124.201 191.849C97.916 191.553 79.3794 189.551 66.8488 190.181C54.3179 190.811 47.793 194.074 44.9014 192.85C42.0098 191.627 42.7513 185.918 45.606 183.101C48.4606 180.284 53.4283 180.358 68.2576 180.469C83.0868 180.58 107.778 180.728 129.651 181.618C151.524 182.508 170.58 184.139 191.526 181.915C212.472 179.69 235.31 173.611 250.398 171.016C265.487 168.421 272.828 169.311 277.017 168.829C281.206 168.347 282.244 166.494 282.466 164.084C282.689 161.675 282.096 158.709 276.646 157.708C271.196 156.707 260.89 157.671 249.953 160.414C239.016 163.157 227.45 167.68 206.058 170.201C184.667 172.721 153.452 173.241 128.538 172.87C103.625 172.499 85.0142 171.239 71.9272 171.239C58.8403 171.239 51.2776 172.499 47.3108 172.351C43.344 172.202 42.9732 170.646 43.1586 168.681C43.344 166.716 44.0854 164.344 51.2407 162.453C58.3957 160.563 71.9647 159.154 90.0562 159.636C108.148 160.118 130.762 162.49 152.265 161.823C173.767 161.156 194.158 157.449 212.472 154.928C230.786 152.407 247.024 151.073 257.849 150.257C268.675 149.442 274.087 149.145 276.868 147.588C279.649 146.031 279.797 143.214 279.611 141.509C279.426 139.804 278.907 139.21 271.011 140.063C263.114 140.916 247.84 143.214 233.567 144.511C219.293 145.809 206.021 146.105 193.565 146.958C181.108 147.811 169.467 149.219 155.268 150.146C141.069 151.073 124.312 151.518 109.149 150.999C93.9859 150.479 80.4172 148.997 70.2221 149.145C60.027 149.293 53.2055 151.073 48.8308 152.185C44.4561 153.297 42.5282 153.742 41.6386 152.111C40.7487 150.479 40.8972 146.772 47.6443 145.141C54.3917 143.51 67.7381 143.955 83.7167 143.733C99.6952 143.51 118.306 142.621 128.612 142.361C138.919 142.102 140.921 142.473 146.852 142.139C152.784 141.805 162.645 140.767 178.476 139.173C194.306 137.579 216.105 135.429 232.38 133.501C248.656 131.574 259.407 129.869 265.969 129.238C272.531 128.608 274.903 129.053 275.978 128.979C277.054 128.905 276.831 128.312 276.349 127.126C275.867 125.939 275.126 124.16 274.644 122.232C274.162 120.305 273.94 118.229 273.161 117.043C272.382 115.857 271.048 115.56 265.709 116.598C260.371 117.636 251.028 120.008 236.829 121.676C222.63 123.344 203.575 124.308 189.524 124.494C175.473 124.679 166.427 124.086 159.309 124.642C152.191 125.198 147.001 126.903 144.035 126.421C141.069 125.94 140.327 123.27 140.179 121.12C140.031 118.97 140.476 117.339 150.337 116.709C160.199 116.079 179.477 116.45 196.679 115.412C213.881 114.374 229.007 111.927 240.573 110.519C252.14 109.11 260.148 108.739 264.263 107.145C268.379 105.551 268.601 102.734 268.675 99.9166C268.749 97.0994 268.675 94.2818 263.93 94.875C259.184 95.4682 249.768 99.4716 236.718 101.177C223.668 102.882 206.985 102.289 192.86 102.808C178.736 103.327 167.169 104.958 158.938 106.218C150.708 107.479 145.815 108.368 142.737 107.924C139.66 107.479 138.4 105.7 137.658 103.327C136.917 100.955 136.694 97.9889 141.959 96.3949C147.223 94.801 157.974 94.5784 171.246 93.6517C184.519 92.725 200.312 91.0939 214.214 89.8335C228.117 88.573 240.128 87.6832 248.247 86.7937C256.366 85.9039 260.593 85.0144 262.446 84.4583C264.3 83.9023 263.781 83.6798 262.966 81.7893C262.15 79.8987 261.038 76.3398 257.108 74.9684C253.178 73.5966 246.431 74.4123 239.869 75.5244C233.307 76.6364 226.93 78.045 218.96 79.0461C210.989 80.0469 201.424 80.64 189.041 81.2332C176.659 81.8264 161.459 82.4194 152.079 83.346C142.7 84.2727 139.141 85.5332 137.028 85.0141C134.914 84.495 134.247 82.1968 133.765 80.3435C133.283 78.4901 132.986 77.0812 138.992 75.6725C144.998 74.2639 157.307 72.8553 168.651 72.0767C179.995 71.2982 190.376 71.1501 204.872 70.3715C219.367 69.593 237.978 68.1844 247.246 67.4799C256.515 66.7755 256.44 66.7755 256.033 65.5893C255.625 64.403 254.883 62.0307 253.289 60.4737C251.695 58.9166 249.248 58.1753 240.833 58.7313C232.417 59.2873 218.033 61.1407 204.946 62.1046C191.859 63.0684 180.07 63.1425 165.945 63.9579C151.82 64.7734 135.359 66.3304 122.977 67.183C110.595 68.0357 102.29 68.1838 87.7204 68.2951C73.1506 68.4063 52.3154 68.4804 38.9321 67.3312C25.5485 66.182 19.6169 63.8095 18.8754 66.0338C18.134 68.2582 22.5828 75.0788 26.4756 81.9741C30.3683 88.869 33.7047 95.8381 35.1137 104.679C36.5225 113.52 36.0036 124.234 34.6689 141.972C33.3342 159.71 31.1841 184.472 27.8846 195.964C24.5851 207.456 20.1363 205.676 17.8008 200.264C15.4652 194.852 15.2427 185.807 14.1306 167.606C13.0184 149.404 11.0164 122.047 7.92088 100.213C4.82534 78.3785 0.635979 62.0676 1.02528 51.614C1.41458 41.1602 6.38227 36.5636 9.68176 37.3421C12.9812 38.1207 14.6125 44.274 14.057 48.1276C13.5015 51.9812 10.7594 53.5342 8.88349 53.6474C7.00757 53.7605 5.99836 52.4333 6.39897 51.1232C6.79959 49.8132 8.60976 48.5201 12.0154 49.8132C15.4208 51.1063 20.4211 54.9854 31.6717 57.6147C42.9223 60.2439 60.4233 61.6231 77.5795 60.4594C94.7356 59.2956 111.547 55.5889 128.272 50.589C144.997 45.5892 161.636 39.2963 179.651 40.4587C197.666 41.6211 217.058 50.2391 237.921 52.0063C258.784 53.7735 281.119 48.6898 294.356 39.5536C307.593 30.4173 311.731 17.228 309.575 9.25415C307.42 1.28027 298.971 -1.47826 293.669 3.47847C288.367 8.43521 286.212 21.1072 297.118 32.9387C308.023 44.7702 331.99 55.7613 351.376 56.9094C370.761 58.0573 385.566 49.3622 397.98 43.5004C410.395 37.6385 420.419 34.6097 429.096 38.6557C437.772 42.7013 445.1 53.8217 457.859 59.8991C470.619 65.9765 488.809 67.0109 507 68.0454" stroke="#3464AF" stroke-miterlimit="2.6131" stroke-linecap="round" stroke-linejoin="round"/>
</svg>
