<svg width="7" height="5" viewBox="0 0 7 5" fill="none" xmlns="http://www.w3.org/2000/svg">
<path d="M3.77314 4.44463L6.88817 1.32954C6.96028 1.25749 7 1.16131 7 1.05876C7 0.956209 6.96028 0.860031 6.88817 0.787983L6.65882 0.558578C6.50938 0.409303 6.26649 0.409303 6.11727 0.558578L3.50145 3.17439L0.882733 0.555676C0.810628 0.483628 0.714507 0.443847 0.612012 0.443847C0.509403 0.443847 0.413281 0.483628 0.34112 0.555676L0.111829 0.78508C0.0397239 0.857185 4.54568e-07 0.953307 4.50085e-07 1.05586C4.45603e-07 1.15841 0.0397238 1.25459 0.111829 1.32664L3.22971 4.44463C3.30204 4.51685 3.39861 4.55651 3.50128 4.55629C3.60434 4.55651 3.70086 4.51685 3.77314 4.44463Z" fill="#686868"/>
</svg>
