<svg width="62" height="58" viewBox="0 0 62 58" fill="none" xmlns="http://www.w3.org/2000/svg">
<path d="M1 55.5515C5.10306 55.921 8.75916 55.8221 12.6211 55.7297C14.3478 55.6868 12.1773 58.3096 12.367 56.1388C12.396 55.8023 12.5182 54.1824 12.5632 50.0353C10.3444 49.0918 5.94554 47.7292 5.2767 45.4231C4.89084 44.0903 5.14487 42.6716 5.40211 41.3091C6.42788 35.8688 7.47937 30.3559 9.88461 25.3643C10.1226 24.8694 10.3862 24.3646 10.8139 24.0116C11.1548 23.7279 11.5792 23.5629 11.994 23.4046C14.3607 22.4973 16.737 21.6263 19.3159 20.8015C19.5603 25.0179 19.8079 29.2705 20.9687 33.3713C20.1712 33.7342 19.4059 34.1664 18.6856 34.6613C17.8431 33.2525 17.0039 31.8438 16.1614 30.4351C16.0456 30.2404 15.9234 30.0227 15.962 29.7983C15.991 29.6268 16.11 29.4882 16.2257 29.3562C17.0039 28.482 17.8399 27.6539 18.721 26.8819C18.0136 26.3639 17.3029 25.8459 16.5955 25.3247C16.3575 25.1498 16.0939 24.9321 16.0874 24.6385C16.0842 24.4438 16.1968 24.2689 16.3061 24.1073C16.9782 23.1406 17.7949 22.273 18.5699 21.4944C18.84 21.2469 19.1101 21.0028 19.3802 20.7553C19.4509 20.6894 19.5281 20.6234 19.6246 20.6135C19.7307 20.6036 19.8271 20.6696 19.9108 20.7356C20.914 21.5043 21.7694 22.4841 22.8884 23.0714C23.2356 23.2561 23.6408 23.398 24.017 23.2825C24.2904 23.1967 24.5058 22.9823 24.7052 22.7777C25.673 21.7847 26.6441 20.7916 27.4095 19.6765C27.2519 18.8781 27.1651 18.0632 27.1458 17.2483C26.2165 17.1395 25.2743 17.1131 24.3418 17.1659C25.5348 17.4397 26.7953 17.3935 27.9625 17.0339C28.342 16.9184 28.7214 16.7601 29.0012 16.473C29.4867 15.9749 29.5639 15.2095 29.6025 14.5067C29.7825 11.3099 29.7311 8.10309 29.3613 4.83362C29.5285 3.50736 28.5767 2.25698 27.4223 1.63674C25.7631 0.745968 23.7276 0.868036 21.9687 1.52127C20.2066 2.1745 18.6631 3.30941 17.1421 4.42783C16.9782 4.5499 16.7917 4.74125 16.8753 4.9293C16.9235 5.03817 17.0425 5.08766 17.1486 5.12725C17.6856 5.3285 18.229 5.50665 18.7757 5.66831C18.2451 4.99198 17.1389 5.06456 16.5087 5.64192C15.8784 6.21927 15.6501 7.13643 15.6308 8.00411C15.6115 8.91798 15.7916 9.83844 16.2868 10.6929C16.8367 12.9297 18.2805 14.9224 20.213 16.1002C20.3095 15.447 20.3674 14.675 19.885 14.2395C19.7146 14.0845 19.4992 13.9987 19.2998 13.8898C18.393 13.3916 17.7917 12.359 17.7949 11.3033C17.7981 10.7886 17.9911 10.2079 18.4573 10.0199C18.8496 9.86154 19.3159 10.0496 19.5924 10.3762C19.8722 10.7028 19.9944 11.135 20.0683 11.5606C20.1358 11.94 20.2966 12.4448 20.6857 12.3359C20.9237 11.6893 20.6278 10.8018 21.1616 10.3828C21.242 10.3201 21.3385 10.2739 21.406 10.1947C21.5057 10.0793 21.525 9.91762 21.5218 9.76256C21.4992 9.07634 21.033 8.41321 21.2163 7.75337C21.287 7.49604 21.4478 7.2783 21.6214 7.08365C22.4736 6.12029 23.6762 5.53634 24.9142 5.25921C26.1522 4.98208 27.4352 4.98868 28.506 5.09096C28.879 4.78413 28.8822 4.16719 28.6249 3.7515C28.3677 3.33581 27.9239 3.08837 27.4834 2.90032C25.4994 2.05573 23.1263 2.12831 21.2838 3.25992C20.6471 3.65252 20.0522 4.20678 19.8657 4.94579C19.6792 5.6848 20.0651 6.59867 20.795 6.75043C19.9847 6.13019 18.7821 6.11369 17.9589 6.71414C17.2354 7.23871 16.8431 8.15257 16.7788 9.05654C16.7145 9.96381 16.9428 10.8678 17.2643 11.7124C17.6759 12.7978 18.2387 13.8205 18.93 14.741C19.2258 15.1369 19.5506 15.5163 19.7693 15.9617C20.2677 16.9778 20.1551 18.182 19.914 19.1915C19.8754 19.9273 19.7178 20.6564 19.4445 21.336C19.885 23.1637 20.3738 25.0805 21.6568 26.4266C22.4768 25.4962 23.2967 24.5626 24.1199 23.6322C24.7663 24.3976 25.5283 25.0574 26.374 25.582C27.1812 24.1469 27.9368 22.6821 28.6474 21.1941C28.6989 21.0886 28.7503 20.9764 28.7439 20.8609C28.7343 20.4353 28.1008 20.3891 27.5767 20.1153C26.8049 22.0024 25.2004 23.5101 23.3 24.1337C23.1746 24.1733 23.0427 24.2162 22.9591 24.3184C22.8015 24.5065 22.8819 24.7968 22.9945 25.0146C23.2324 25.4797 23.5861 25.8822 24.0106 26.1759C24.1231 26.255 24.2486 26.3243 24.3836 26.3342C24.7438 26.354 24.9753 25.9317 25.0074 25.5622C25.0396 25.1927 24.9656 24.8034 25.1135 24.4636C25.1071 24.9222 25.0524 25.3808 24.9528 25.8294C24.9206 25.968 24.8852 26.1132 24.7952 26.2253C24.5219 26.5619 23.9977 26.3969 23.6151 26.2056C23.3257 27.8221 23.226 29.475 23.4382 31.3687C19.3673 34.1466 15.2964 36.9212 11.2223 39.6991C10.5888 40.1313 9.92963 40.5899 9.54698 41.2629C10.3444 40.7878 11.0744 40.1973 11.7078 39.511C12.0455 39.1448 12.3606 38.7456 12.5246 38.2739C12.6789 37.8351 12.6982 37.36 12.7143 36.8948C12.8204 33.8629 12.9265 30.8343 13.0294 27.8023C12.7883 27.8716 12.7143 28.1817 12.6822 28.4391C12.3381 31.3621 12.2738 34.3182 12.486 37.2511C12.4989 37.4293 12.5149 37.6107 12.605 37.7625C12.9298 38.3134 13.7529 37.9736 14.2578 37.5909C17.184 35.3574 20.2612 33.3317 23.4575 31.5337C24.8434 32.9919 24.956 35.7335 25.3354 37.9901C25.7502 37.5876 26.3097 37.3468 26.8789 37.3171C27.4898 37.2874 28.67 37.0532 29.2391 36.8156C31.0913 36.0403 31.0463 35.4201 31.162 35.2122C30.6733 35.298 30.1877 35.3838 29.7022 35.4696C30.1941 35.4564 30.7151 35.43 31.1267 35.1529C31.5382 34.8757 31.8437 34.3248 31.535 33.9289C31.3035 33.6319 30.7794 33.7441 30.4353 33.8959C30.9627 33.9355 32.8052 33.1932 31.4675 32.1737C31.0302 32.1242 30.5961 32.1539 30.1588 32.1011C32.1203 32.022 33.9081 32.0451 35.7024 31.2368C35.786 31.2005 35.876 31.1543 35.9211 31.0718C36.04 30.8508 35.7571 30.633 35.5191 30.5703C34.8278 30.379 34.0978 30.4021 33.3808 30.4285C31.8212 30.4846 30.2617 30.5373 28.6989 30.5934C29.3999 30.6033 30.1041 30.567 30.7987 30.4813C30.2906 29.7192 29.5349 29.1319 28.6796 28.8416C28.5317 28.7921 28.3773 28.7492 28.223 28.7525C28.0076 28.7591 27.805 28.8581 27.522 29.0956C26.8274 29.5278 26.1329 29.96 25.4415 30.3922C25.2261 29.221 25.0106 28.0531 24.7952 26.8819C25.0878 27.9607 25.3129 29.056 25.4673 30.1645C25.4833 30.2899 25.4994 30.4186 25.4512 30.534C25.3933 30.6693 25.2582 30.7518 25.1328 30.8244C24.6344 31.1114 24.1392 31.3984 23.644 31.6854C23.5411 31.7448 23.4286 31.8141 23.3868 31.9263C23.3385 32.0517 23.3836 32.1902 23.4286 32.3156C24.1167 34.2357 24.4994 36.2647 24.8788 38.4058C21.8047 41.253 18.7306 44.1002 15.6276 46.9143C14.8655 47.6039 14.0906 48.3033 13.1677 48.7355C12.2448 49.1677 11.1387 49.3062 10.2222 48.8576C9.3026 48.4089 8.73022 47.462 8.20287 46.5679C9.58235 47.4356 11.3606 47.3168 12.9072 46.8286C16.5859 45.6739 19.4381 42.7508 22.1263 39.93C22.8112 41.1177 23.181 43.1104 23.8659 44.2981C24.3064 42.6584 25.0621 40.2105 25.5444 38.7885C26.7342 37.6107 27.8339 36.2878 28.4674 34.724C29.1041 33.1569 29.2295 31.3126 28.506 29.7851C28.3484 29.4486 28.149 29.1319 28.0397 28.7789C27.9239 28.4028 27.9111 28.0036 27.9111 27.611C27.9047 25.4237 28.2037 23.233 28.7986 21.1315C29.9787 22.4412 30.4257 23.365 31.3871 24.8562C30.371 25.4896 29.9883 26.608 29.1394 27.5813C29.8276 28.0234 30.5189 28.4622 31.207 28.9043C31.1074 29.0692 31.0077 29.2342 30.908 29.3991C30.252 28.8119 29.596 28.2213 28.9433 27.6341C28.8082 27.512 28.6667 27.3833 28.6121 27.2052C28.5413 26.971 28.641 26.7268 28.7278 26.4992C29.3131 24.9717 29.4224 23.2561 29.0333 21.6626C30.3228 21.9958 31.5382 22.5633 32.7473 23.1274C33.8277 23.6322 34.9307 24.1535 35.7892 24.9948C36.8214 26.0076 37.4067 27.3965 37.9694 28.7459C39.3038 31.9593 40.6415 35.1727 42.0467 38.6533C41.4872 39.61 40.8763 40.5305 40.2171 41.418C40.1335 40.6592 40.6447 39.9795 41.1303 39.4022C43.5355 36.5484 47.3974 33.3317 48.8284 31.3027C49.4554 30.4087 49.748 33.3416 53.3977 33.4274C53.7803 32.883 53.9861 32.4608 54.4202 31.9593C54.7643 31.5634 55.2884 31.3951 55.7836 31.2434C56.4718 31.0322 57.1631 30.8244 57.8512 30.6132C58.266 30.4879 58.6937 30.3526 59.0346 30.0755C59.2854 29.8709 59.4751 29.5971 59.6584 29.3299C60.0057 28.8251 60.3497 28.3203 60.697 27.8155C60.8256 27.6275 60.9607 27.4295 60.9961 27.2019C61.0346 26.9743 60.7806 26.0967 60.6616 26.2946C60.4848 26.5817 58.0281 28.99 58.8352 28.5348C59.1953 28.3302 60.3337 27.3042 60.3626 26.4992C60.3787 26.0538 57.5876 28.4358 56.2434 28.2741C55.5232 28.3632 54.6003 28.901 54.7032 29.0659C54.7772 29.1847 55.9187 28.7261 56.5747 28.4985C56.8351 28.4094 56.9509 28.0663 57.1342 27.8584C57.3207 27.6506 57.3753 27.2943 57.1824 27.093C56.983 26.8885 56.655 26.9479 56.3849 27.0171C55.3688 27.2844 54.3527 27.5483 53.3366 27.8155C53.0182 27.898 52.6967 27.9838 52.4041 28.1389C51.5552 28.5974 50.4876 30.0524 49.986 30.9035C50.2496 32.1044 51.3365 33.0678 52.5327 33.1602C52.7706 33.18 53.0761 33.213 53.1404 33.4472C53.1694 33.5495 53.1372 33.6616 53.1018 33.7639C52.4845 35.6213 51.2818 37.2016 50.0696 38.7192C48.1113 41.1672 46.0694 43.5591 43.7735 45.6739C43.1947 46.2083 42.5773 46.7362 41.8248 46.9473C40.1656 47.4158 38.4871 46.1654 37.4935 44.7237C36.4999 43.282 35.8664 41.5631 34.6123 39.7288C34.6863 37.0862 34.7602 34.4468 34.8342 31.8042C34.8438 39.422 34.8535 47.043 34.8664 54.6608C31.371 55.9903 24.7341 56.1817 24.5733 55.2909C23.7308 50.6061 23.2292 45.2945 23.6408 44.8788C24.2389 45.1526 24.7791 50.3422 24.4318 53.0937C24.3193 53.9943 24.1971 55.0633 24.8595 55.6637C25.3901 56.1454 26.1875 56.0893 26.8917 56.0101C28.2519 55.8584 32.2617 55.6142 37.9501 55.6175C42.0724 55.6208 42.0371 54.9478 48.0856 55.4328" stroke="#3464AF" stroke-width="0.6" stroke-miterlimit="10" stroke-linejoin="round"/>
</svg>
