<svg width="65" height="50" viewBox="0 0 65 50" fill="none" xmlns="http://www.w3.org/2000/svg">
<path d="M7.28405 22.1337C7.28405 22.1337 6.18103 22.8508 5.36599 23.3158C4.55095 23.7807 5.0667 23.4833 5.35658 23.3082C5.64833 23.1332 7.97486 22.2033 9.42987 23.5417C10.8849 24.88 6.63654 29.2431 6.63654 28.8366C6.63654 28.43 8.26473 26.0432 10.5348 25.1134C12.8048 24.1816 8.96306 22.0885 7.27652 22.1469C5.58998 22.2052 15.7243 22.1996 15.7243 22.1996C15.7243 22.1996 9.09859 21.9888 8.05015 21.4636C7.00359 20.9403 6.45208 21.3902 5.8121 21.6236C5.17211 21.857 6.93394 21.3864 6.64407 20.2815C6.35231 19.1766 11.1748 20.577 10.068 17.667C8.96306 14.757 14.0246 17.842 15.4796 17.6086C16.9346 17.3752 17.3995 11.7905 17.3995 11.7905C17.3995 11.7905 16.5845 16.0369 13.9662 16.7936C11.3479 17.5503 9.45623 14.7532 9.77622 12.022L10.1244 10.1754C10.5461 7.9468 11.8769 5.99298 13.8025 4.79207C15.5681 3.69093 17.0739 2.92483 16.6993 3.23541C15.5906 4.15585 9.68587 10.1303 7.4177 5.36053C5.14764 0.588898 16.5826 -0.254373 18.8527 2.77048C21.1227 5.79534 18.4461 9.92698 18.4461 9.92698C18.4461 9.92698 18.271 7.36706 19.9595 7.89034C21.646 8.41362 18.1562 10.8568 18.6211 13.6502C19.0861 16.4435 24.6144 17.955 24.6144 17.955C24.6144 17.955 19.3195 13.4751 18.6795 16.0934C18.0395 18.7117 13.9662 21.3883 12.6279 19.9333C11.2896 18.4783 10.1263 13.4168 9.13624 15.0468C8.14803 16.675 3.60416 16.6468 3.35005 17.5296C2.7063 19.7526 1.86491 24.6466 1.45645 27.4982C1.04988 30.3499 4.01638 27.0917 2.91147 27.9048C1.80656 28.7199 0.00143805 30.8713 1.68986 33.4331C3.3764 35.9931 5.82151 33.8981 6.75136 30.4083C7.6831 26.9166 5.23799 39.0781 5.81962 40.9981C6.40125 42.918 21.5293 41.8715 21.2959 40.7063C21.0625 39.5431 22.6926 34.5964 21.7025 34.3065C20.7143 34.0148 16.816 30.4666 15.7676 29.3034C14.721 28.1401 10.7644 24.8818 11.0543 22.9619C11.3461 21.042 15.2443 23.7769 15.1276 22.6701C15.0109 21.5652 19.3176 22.2636 18.5026 25.055C17.6875 27.8484 24.0873 30.525 23.0991 29.5932C22.1109 28.6615 21.5858 20.8067 24.6709 18.5969C27.7559 16.387 27.1724 28.0234 27.5809 31.8633C27.9875 35.7032 22.5194 36.0533 22.461 35.355C22.4027 34.6566 23.2761 47.9231 23.2761 47.9231H32.9341C32.9341 47.9231 33.1676 47.0497 33.1676 44.9566C33.1676 42.8635 35.4941 41.64 35.4941 41.64C35.4941 41.64 29.9093 41.2334 28.7441 38.8466C27.5809 36.4618 31.0707 27.2103 32.584 25.407C34.0974 23.6038 33.8056 31.4586 33.8056 31.4586C33.1224 31.4642 33.5421 30.3066 33.5139 26.3971C33.4838 22.2372 37.0639 23.7788 38.3439 23.4306C39.6238 23.0824 35.3774 17.2623 35.3774 17.2623C35.3774 17.2623 36.0381 21.8815 37.4837 23.4419C37.6437 23.6151 37.8149 23.7506 37.9956 23.8372C39.7989 24.7106 42.6506 23.3722 41.6605 18.3672C40.6704 13.3622 37.3557 14.644 35.5505 15.8656C33.7454 17.0872 31.2457 13.829 35.0273 10.454C38.8088 7.07906 38.2855 13.3641 38.4606 13.3057C38.6356 13.2474 38.4606 8.30256 41.8355 8.41926C45.2105 8.53596 44.3955 16.2157 43.4637 14.4125C42.1273 11.8206 46.5733 8.25174 48.7586 14.0059C50.6334 18.9451 43.8082 23.2762 44.2731 19.2632C44.738 15.2482 42.5903 18.7776 42.707 17.3225C42.7861 16.3287 44.0604 16.2308 44.4708 16.9555C44.6609 17.2905 44.6646 17.8044 44.2788 18.4858C43.0571 20.6391 42.4755 19.9992 43.9305 22.7323C45.3856 25.4672 47.9963 25.392 50.2212 25.9115C52.6362 26.4762 51.4127 37.6702 51.9473 37.7097C51.9473 37.7097 54.0535 35.3587 52.4235 30.2389C50.7953 25.119 47.9436 28.6672 48.0603 31.9838C48.177 35.3004 46.5469 36.1154 44.9771 37.8603C43.4054 39.6052 33.7473 37.162 32.8758 36.9286C32.0024 36.6952 29.3258 35.5902 30.8391 33.4369C32.3525 31.2835 33.7492 35.1818 34.7374 37.2184C35.7256 39.2551 45.0938 38.7902 48.8753 38.1502C52.6569 37.5102 53.5886 42.7467 46.8387 42.8051C40.0888 42.8635 36.0757 39.6635 36.4239 41.3501C36.7722 43.0366 50.6786 45.9467 50.6786 45.9467V48.74C50.6786 48.74 74.6195 48.74 75.7828 48.74" stroke="#3464AF" stroke-width="0.6" stroke-miterlimit="10"/>
</svg>
