<svg width="7" height="11" viewBox="0 0 7 11" fill="none" xmlns="http://www.w3.org/2000/svg">
<path d="M0.443528 5.92922L5.33867 10.8243C5.45189 10.9376 5.60302 11 5.76418 11C5.92533 11 6.07647 10.9376 6.18968 10.8243L6.55018 10.4639C6.78475 10.229 6.78475 9.84733 6.55018 9.61285L2.43961 5.50228L6.55474 1.38715C6.66796 1.27384 6.73047 1.1228 6.73047 0.961733C6.73047 0.80049 6.66796 0.649443 6.55474 0.536045L6.19425 0.175731C6.08094 0.0624227 5.92989 8.83685e-07 5.76874 8.69597e-07C5.60758 8.55509e-07 5.45645 0.0624226 5.34323 0.175731L0.443528 5.07525C0.330041 5.18892 0.267708 5.34068 0.268066 5.50201C0.267708 5.66397 0.330041 5.81564 0.443528 5.92922Z" fill="white"/>
</svg>
