<svg width="7" height="11" viewBox="0 0 7 11" fill="none" xmlns="http://www.w3.org/2000/svg">
<path d="M6.55647 5.92922L1.66133 10.8243C1.54811 10.9376 1.39698 11 1.23582 11C1.07467 11 0.923534 10.9376 0.810316 10.8243L0.449822 10.4639C0.215247 10.229 0.215247 9.84733 0.449822 9.61285L4.56039 5.50228L0.445261 1.38715C0.332042 1.27384 0.26953 1.1228 0.26953 0.961733C0.26953 0.80049 0.332042 0.649443 0.445261 0.536045L0.805754 0.175731C0.919062 0.0624227 1.07011 8.83685e-07 1.23126 8.69597e-07C1.39242 8.55509e-07 1.54355 0.0624226 1.65677 0.175731L6.55647 5.07525C6.66996 5.18892 6.73229 5.34068 6.73193 5.50201C6.73229 5.66397 6.66996 5.81564 6.55647 5.92922Z" fill="white"/>
</svg>
