<svg width="25" height="25" viewBox="0 0 25 25" fill="none" xmlns="http://www.w3.org/2000/svg">
<path d="M22.2656 11.3281H13.6719C12.8089 11.3281 12.1094 12.0276 12.1094 12.8906V17.9687C12.1094 18.8317 12.8089 19.5312 13.6719 19.5312H14.8489C14.7492 20.0576 14.432 20.5452 13.974 20.8262C15.0305 20.9751 16.1206 20.4088 16.6082 19.5312H22.2656C23.1286 19.5312 23.8281 18.8317 23.8281 17.9687V12.8906C23.8281 12.0276 23.1286 11.3281 22.2656 11.3281ZM20.4683 14.1815C21.051 15.5961 19.8206 17.0276 18.3594 17.1615V17.5781H18.75C19.263 17.5865 19.2638 18.3508 18.75 18.3593H17.1875C16.6745 18.3509 16.6737 17.5867 17.1875 17.5781C17.1875 17.5781 17.5781 17.5781 17.5781 17.5781V17.1615C16.1171 17.0279 14.8862 15.5957 15.4694 14.1814C15.4694 14.1815 15.8293 13.2812 15.8293 13.2812H15.625C15.112 13.273 15.1113 12.5084 15.625 12.5C15.625 12.5 16.4062 12.5 16.4062 12.5C16.674 12.4925 16.8756 12.7897 16.769 13.0356L16.1947 14.4714C15.8247 15.3881 16.6554 16.2354 17.5781 16.3695V12.8906C17.5781 12.6747 17.753 12.5 17.9688 12.5C18.1845 12.5 18.3594 12.6747 18.3594 12.8906V16.3695C19.282 16.2356 20.1128 15.3881 19.743 14.4714C19.743 14.4714 19.1685 13.0356 19.1685 13.0356C19.0621 12.7899 19.2634 12.4923 19.5313 12.5C19.5313 12.5 20.3125 12.5 20.3125 12.5C20.8258 12.5087 20.8261 13.2725 20.3125 13.2812H20.1082L20.4683 14.1815Z" fill="#355EC4"/>
<path d="M11.3282 6.64059H2.73449C2.22382 6.64832 2.21881 7.41305 2.73451 7.42184H11.3282C11.8389 7.41409 11.8439 6.64939 11.3282 6.64059Z" fill="#355EC4"/>
<path d="M5.85932 8.59372C5.34756 8.60178 5.34453 9.36627 5.85935 9.37497H11.3281C11.8398 9.36691 11.8429 8.6024 11.3281 8.59372H5.85932Z" fill="#355EC4"/>
<path d="M5.85933 11.3281H11.3281C11.8398 11.32 11.8429 10.5555 11.3281 10.5468H5.85933C5.34756 10.5549 5.34453 11.3194 5.85933 11.3281Z" fill="#355EC4"/>
<path d="M19.5313 10.5468V4.29684C19.5313 3.21995 18.6551 2.34372 17.5782 2.34372H7.42195C6.47881 2.34372 5.68981 3.01587 5.5083 3.90622H11.3282C12.6206 3.90622 13.6719 4.95755 13.6719 6.24997V10.5468H19.5313Z" fill="#355EC4"/>
<path d="M11.3281 17.9687V14.9007C10.1068 15.2321 8.71959 14.6302 7.97462 13.6718H5.46875V20.7031C5.46875 21.78 6.34498 22.6562 7.42188 22.6562H17.5781C18.859 22.644 19.6615 21.5434 19.5312 20.3125H17.0254C16.3094 21.2427 15.0578 21.7708 13.8651 21.5999C13.2561 21.5359 12.9731 20.7277 13.3995 20.2968C12.2351 20.1614 11.3281 19.1688 11.3281 17.9687Z" fill="#355EC4"/>
<path d="M20.3125 20.3125C20.4777 21.9467 19.2557 23.4485 17.5781 23.4374L7.42188 23.4375C5.91412 23.4375 4.6875 22.2107 4.6875 20.7031V13.6718H3.90625V20.7031C3.90625 22.6417 5.48344 24.2187 7.42188 24.2187H17.5781C19.6792 24.23 21.2721 22.3795 21.0938 20.3125H20.3125Z" fill="#355EC4"/>
<path d="M21.0937 10.5468V8.98434C22.1706 8.98434 23.0468 8.10811 23.0468 7.03122V5.46872C23.0497 4.35747 22.1106 3.46803 21.0031 3.51559C20.6465 1.95228 19.2477 0.781219 17.578 0.781219H7.42179C5.61551 0.781219 4.12432 2.15096 3.9292 3.90622H4.71863C4.9092 2.58347 6.047 1.56247 7.42179 1.56247H17.578C19.0858 1.56247 20.3124 2.78927 20.3124 4.29684V10.5468H21.0937ZM21.0937 4.29684C21.7399 4.29684 22.2655 4.82251 22.2655 5.46872V7.03122C22.2655 7.67743 21.7399 8.20309 21.0937 8.20309V4.29684Z" fill="#355EC4"/>
<path d="M11.0274 14.1875C10.5664 13.9062 10.25 13.4179 10.1523 12.8906H11.3281C11.3281 12.6107 11.3812 12.344 11.4714 12.0949C11.4248 12.1036 11.3772 12.1093 11.3281 12.1093H2.73438C2.30291 12.1093 1.95312 11.7596 1.95312 11.3281V6.24997C1.95312 5.81849 2.30291 5.46872 2.73438 5.46872H11.3281C11.7596 5.46872 12.1094 5.81849 12.1094 6.24997V11.1529C12.3358 10.9496 12.5977 10.7854 12.8906 10.6836V6.24997C12.8906 5.38668 12.1914 4.68747 11.3281 4.68747H2.73438C1.87111 4.68747 1.17188 5.38668 1.17188 6.24997V11.3281C1.17188 12.1914 1.87111 12.8906 2.73438 12.8906H8.39064C8.87892 13.7695 9.96876 14.3359 11.0274 14.1875Z" fill="#355EC4"/>
</svg>
