<svg width="29" height="29" viewBox="0 0 29 29" fill="none" xmlns="http://www.w3.org/2000/svg">
<g clip-path="url(#clip0_89_75)">
<path d="M9.60876 15.2798C9.46053 14.8351 9.29942 14.1842 9.31231 13.514C9.31231 13.4495 9.29298 13.3851 9.26075 13.3271C9.08031 13.05 8.84831 12.9598 8.59053 12.9598C8.29409 12.9598 7.97187 13.0822 7.66898 13.1982C6.86342 13.5011 5.85809 13.8813 4.55631 13.0629C4.4532 12.9984 4.32431 12.9984 4.2212 13.0564C4.15031 13.0951 3.64764 13.4173 3.38342 14.6289C3.2352 13.9329 3.24164 13.1144 3.89253 12.644C3.95698 12.5989 4.00209 12.528 4.02142 12.4507C4.24698 11.4775 4.82053 10.8847 5.68409 10.7429C6.97298 10.5302 8.66142 11.3809 9.4412 12.644C9.9632 13.4882 10.0148 14.4098 9.60876 15.2798Z" fill="#343C45"/>
<path d="M9.20919 16.0918C9.18986 16.588 9.11253 17.0198 8.99008 17.4C8.71942 18.2185 8.08142 18.8629 7.28231 19.1722C6.87631 19.3269 6.52831 19.3591 6.10297 19.256C5.14275 19.0111 4.37586 18.2765 4.07942 17.3291C3.96342 16.9554 3.89253 16.53 3.87964 16.0402V16.0338C3.92475 14.616 4.24697 13.9909 4.42742 13.746C5.90319 14.558 7.09542 14.1069 7.89453 13.804C8.37142 13.6236 8.55186 13.5785 8.64853 13.63C8.66142 14.7836 9.08031 15.8082 9.20919 16.0918Z" fill="#343C45"/>
<path d="M7.9653 19.6555V20.4675L6.59264 22.852L5.21997 20.4675V19.6942C5.6453 19.9004 6.10286 20.0035 6.55397 20.0035H6.56042C7.02442 20.01 7.51419 19.894 7.9653 19.6555Z" fill="#343C45"/>
<path d="M12.5345 24.07V28.1493H10.6721V24.0313C10.6721 23.8509 10.5239 23.7027 10.3434 23.7027C10.163 23.7027 10.0148 23.8509 10.0148 24.0313V28.1493H3.16431V24.0313C3.16431 23.8509 3.01609 23.7027 2.83564 23.7027C2.6552 23.7027 2.50698 23.8509 2.50698 24.0313V28.1493H0.644531V24.07C0.644531 22.3171 2.06875 20.8864 3.82809 20.8864H4.69809L6.3092 23.6769C6.3672 23.78 6.47675 23.8444 6.59275 23.8444C6.70875 23.8444 6.81831 23.78 6.87631 23.6769L8.48098 20.8993L8.48742 20.8929H9.35742C11.1103 20.8864 12.5345 22.3171 12.5345 24.07Z" fill="#343C45"/>
<path d="M21.8533 23.4191V28.1493H18.6246V23.8702C18.6246 23.6898 18.4764 23.5416 18.296 23.5416C18.1155 23.5416 17.9673 23.6898 17.9673 23.8702V28.1493H16.0146V23.9089C16.0146 22.2656 17.2198 20.8993 18.7922 20.6416H18.7986C18.9662 20.6158 19.1466 20.6029 19.3206 20.6029H20.2293L21.8533 23.4191Z" fill="#343C45"/>
<path d="M28.3558 23.9089V28.1493H26.4031V23.8702C26.4031 23.6898 26.2549 23.5416 26.0744 23.5416C25.894 23.5416 25.7458 23.6898 25.7458 23.8702V28.1493H22.5171V23.4191L24.1475 20.6029H25.0562C25.3784 20.6029 25.6813 20.648 25.9778 20.7318H25.9842C25.9971 20.7382 26.01 20.7382 26.0229 20.7382C27.3698 21.1571 28.3558 22.4202 28.3558 23.9089Z" fill="#343C45"/>
<path d="M23.6255 20.1711L22.182 22.6716L20.7449 20.1776C20.7449 19.894 20.7578 19.6878 20.7771 19.5073C20.7771 19.5073 20.7771 19.5073 20.7771 19.5009C21.2411 19.9391 21.776 20.1776 22.3302 20.1776C22.762 20.1776 23.1873 20.0293 23.574 19.7587C23.574 19.894 23.5869 20.0293 23.6255 20.1711Z" fill="#343C45"/>
<path d="M24.4633 17.0585C24.4053 17.4516 24.2958 17.7931 24.1604 18.0187C23.2324 19.894 21.312 19.7909 20.4807 17.8576C20.036 16.82 20.5193 15.0156 20.848 14.0231C21.3442 14.5065 22.1949 14.4614 22.8715 14.4227C23.6642 14.384 24.1991 14.3776 24.3602 14.7191C24.4827 14.9769 24.56 16.3754 24.4633 17.0585Z" fill="#343C45"/>
<path d="M25.8552 20.0229C25.5974 19.9713 25.3268 19.9391 25.0497 19.9391H24.2505C24.1603 19.4171 24.4117 18.8049 24.7145 18.3731C24.9594 17.9929 25.069 17.5031 25.1205 17.1551C25.2108 16.5429 25.1914 14.9253 24.9594 14.4356C24.5985 13.6687 23.6641 13.7202 22.8392 13.7589C21.7243 13.8169 21.2281 13.7782 21.1314 13.1338C21.1057 12.9856 20.9897 12.876 20.8479 12.8567C20.6997 12.8373 20.5579 12.9211 20.5063 13.0565C20.4483 13.1918 19.1401 16.3753 19.8812 18.1153C20.1325 18.7018 20.1132 19.3076 20.0939 19.9391H19.327C19.2174 19.9391 19.1143 19.9456 19.0112 19.952C18.7728 18.3216 18.863 15.2862 19.037 13.5849C19.2432 11.5871 20.8994 10.6978 22.4525 10.6978C24.0057 10.6978 25.6619 11.5936 25.8681 13.5849C25.9777 14.7513 26.3257 18.1669 25.8552 20.0229Z" fill="#343C45"/>
<path d="M17.5031 0.857117C16.2529 0.857117 15.5698 1.37912 14.79 2.92578C14.732 3.03534 14.6225 3.10623 14.4936 3.10623C14.3711 3.10623 14.2551 3.03534 14.1971 2.92578C13.4238 1.37912 12.7407 0.857117 11.484 0.857117C10.0082 0.857117 8.80957 2.05578 8.80957 3.53156C8.80957 6.32201 11.658 9.24778 14.4871 12.0769C17.3162 9.24134 20.1647 6.32201 20.1647 3.53156C20.1776 2.05578 18.9789 0.857117 17.5031 0.857117ZM16.8587 7.35956C16.8587 7.54001 16.7105 7.68823 16.53 7.68823H15.5762V8.64201C15.5762 8.82245 15.428 8.97067 15.2476 8.97067H13.7589C13.5785 8.97067 13.4302 8.82245 13.4302 8.64201V7.68823H12.4765C12.296 7.68823 12.1478 7.54001 12.1478 7.35956V5.87089C12.1478 5.69045 12.296 5.54223 12.4765 5.54223H13.4302V4.58845C13.4302 4.40801 13.5785 4.25978 13.7589 4.25978H15.2476C15.428 4.25978 15.5762 4.40801 15.5762 4.58845V5.54223H16.53C16.7105 5.54223 16.8587 5.69045 16.8587 5.87089V7.35956Z" fill="#343C45"/>
<path d="M16.2014 6.19956V7.03089H15.2476C15.0672 7.03089 14.919 7.17911 14.919 7.35956V8.31334H14.0876V7.35956C14.0876 7.17911 13.9394 7.03089 13.759 7.03089H12.8052V6.19956H13.759C13.9394 6.19956 14.0876 6.05134 14.0876 5.87089V4.91711H14.919V5.87089C14.919 6.05134 15.0672 6.19956 15.2476 6.19956H16.2014Z" fill="#343C45"/>
</g>
<defs>
<clipPath id="clip0_89_75">
<rect width="29" height="29" fill="white"/>
</clipPath>
</defs>
</svg>
