<svg width="29" height="29" viewBox="0 0 29 29" fill="none" xmlns="http://www.w3.org/2000/svg">
<g clip-path="url(#clip0_89_98)">
<path d="M16.836 11.5688C16.3667 11.5688 15.9864 11.1885 15.9864 10.7192V2.32227H13.0136V10.7192C13.0136 11.1885 12.6333 11.5688 12.164 11.5688H0V14.5416H12.164C12.6333 14.5416 13.0136 14.9219 13.0136 15.3912V23.786H15.9864V15.3912C15.9864 14.9219 16.3667 14.5416 16.836 14.5416H29V11.5688H16.836Z" fill="#355EC4"/>
<path d="M17.6855 8.66823L23.962 2.39174C23.6656 2.34594 23.3618 2.32227 23.0527 2.32227H17.6855V8.66823Z" fill="#355EC4"/>
<path d="M18.887 9.86963H29V8.26953C29 5.97028 27.6884 3.97192 25.7743 2.98248L18.887 9.86963Z" fill="#355EC4"/>
<path d="M18.8838 16.2408L25.7554 23.1357C27.6799 22.1498 29.0001 20.1455 29.0001 17.8387V16.2408H18.8838Z" fill="#355EC4"/>
<path d="M11.3143 8.66823V2.32227H5.94719C5.6381 2.32227 5.33432 2.34594 5.03784 2.39174L11.3143 8.66823Z" fill="#355EC4"/>
<path d="M17.6855 17.4457V23.7859H23.0527C23.3538 23.7859 23.6496 23.7634 23.9386 23.72L17.6855 17.4457Z" fill="#355EC4"/>
<path d="M10.113 9.86963L3.22564 2.98248C1.31158 3.9717 0 5.97028 0 8.26953V9.86963H10.113Z" fill="#355EC4"/>
<path d="M10.113 16.2408H0V17.8387C0 20.1386 1.31225 22.1374 3.22719 23.1266L10.113 16.2408Z" fill="#355EC4"/>
<path d="M11.3143 17.4424L5.03979 23.7169C5.33561 23.7623 5.63873 23.786 5.94715 23.786H6.82973L8.89822 26.4102C9.05951 26.6147 9.30532 26.7339 9.56551 26.7339C9.82571 26.7339 10.0717 26.6147 10.2328 26.4102L11.3143 25.0383V17.4424Z" fill="#355EC4"/>
</g>
<defs>
<clipPath id="clip0_89_98">
<rect width="29" height="29" fill="white"/>
</clipPath>
</defs>
</svg>
