<svg width="16" height="16" viewBox="0 0 16 16" fill="none" xmlns="http://www.w3.org/2000/svg">
<path d="M15.987 2.63605C15.9805 2.54162 15.9837 2.45046 15.9674 2.35604C15.9447 2.17045 15.9023 1.98812 15.8405 1.80905C15.593 1.09926 15.0395 0.50994 14.346 0.226677C14.2581 0.194118 14.1702 0.158303 14.0823 0.132255C13.9879 0.109464 13.9065 0.0834169 13.8023 0.0671374L13.646 0.044346L13.5678 0.0345783L13.5125 0.0313224L13.4051 0.0248106L13.353 0.0215547H13.2683L12.4185 0.0248106L10.7189 0.0280665C8.45282 0.0313224 6.18997 0.0313224 3.93037 0.011787C3.5299 0.00853109 2.89825 0.122488 2.69964 0.200629C2.30568 0.360169 2.81685 0.493661 3.58199 0.594594C6.10532 0.929952 9.16586 1.07647 12.2818 1.11554L12.985 1.12531L13.3139 1.12856L13.4897 1.13833C13.5385 1.14484 13.5678 1.15461 13.6102 1.15787C13.952 1.22624 14.2841 1.42485 14.5055 1.7016C14.7302 1.98161 14.8474 2.32999 14.8409 2.68488L14.8214 4.09143C14.7986 5.96683 14.779 7.84224 14.7563 9.72089C14.7497 10.6586 14.7432 11.5995 14.7367 12.5372L14.7335 13.2405C14.7367 13.5043 14.7237 13.6508 14.6846 13.7875C14.6065 14.1033 14.4111 14.3899 14.1441 14.5787C14.0107 14.6731 13.8641 14.7448 13.7079 14.7903C13.6297 14.8131 13.5483 14.8261 13.4669 14.8392L13.3432 14.8457C13.2976 14.8489 13.2292 14.8457 13.1739 14.8489L11.7608 14.8555C10.8199 14.8652 9.87565 14.875 8.9347 14.8848C8.00025 14.8717 7.06906 14.862 6.13462 14.8489L3.91409 14.8294L2.80383 14.8229H2.66382H2.59545H2.58568H2.55964L2.41963 14.8164C2.39358 14.8164 2.38056 14.8131 2.37079 14.8099L2.33498 14.8034C2.29265 14.8001 2.22753 14.7773 2.16567 14.7643C2.10706 14.7415 2.0452 14.7252 1.98985 14.6959C1.76194 14.5917 1.56658 14.4192 1.42658 14.2108C1.28983 13.9992 1.20844 13.7582 1.20192 13.5075L1.19867 11.3163C1.19541 9.8381 1.18564 8.35992 1.16936 6.885C1.1596 6.14591 1.14983 5.41008 1.14006 4.67424L1.11401 3.57049L1.10425 3.01699L1.09773 2.74023V2.70442V2.69465V2.6914C1.09773 2.68814 1.09773 2.68814 1.09773 2.68814L1.10099 2.62953C1.10425 2.58721 1.10099 2.5286 1.1075 2.4993C1.11401 2.46999 1.11727 2.43744 1.12053 2.40813C1.12378 2.37883 1.13681 2.3365 1.14006 2.30069C1.14657 2.26487 1.15634 2.22906 1.16936 2.19324C1.18239 2.15743 1.1889 2.12161 1.20192 2.08905C1.25076 1.95231 1.32565 1.82858 1.40053 1.71462C1.56007 1.49322 1.75543 1.32066 1.94101 1.20019C2.30893 0.965767 2.61824 0.894137 2.55964 0.737854C2.53359 0.675991 2.43591 0.604362 2.2666 0.575058C2.0973 0.535988 1.8531 0.542499 1.56659 0.633665C1.28332 0.72483 0.947963 0.907161 0.671211 1.22624C0.391204 1.54206 0.169802 1.98161 0.124219 2.52209L0.114452 2.66535L0.111196 2.8314L0.104684 3.12118L0.0884045 3.70073C0.0818927 4.08818 0.0753809 4.47563 0.0688691 4.86308C0.0558455 5.63799 0.0428219 6.41289 0.0330541 7.1878C0.0102628 8.73761 -0.0027608 10.2907 0.000495101 11.8405L0.00375101 12.7749L0.00700691 13.2438C0.00700691 13.3252 0.00700691 13.3936 0.0102628 13.4847C0.0167746 13.5824 0.0135187 13.6801 0.0330541 13.7777C0.0851486 14.1685 0.228408 14.5461 0.44981 14.8717C0.671211 15.1941 0.967499 15.4676 1.30937 15.6597C1.39402 15.7085 1.48519 15.7476 1.5731 15.7899C1.66426 15.8225 1.75543 15.8615 1.84985 15.8876C1.94753 15.9104 2.03218 15.9397 2.14614 15.9527L2.30568 15.9755C2.36103 15.982 2.38707 15.9787 2.4294 15.982L2.57266 15.9885H2.68987L2.9243 15.9853L3.38989 15.982L5.25878 15.9657C7.74955 15.9429 10.2403 15.9169 12.7311 15.8941L13.1511 15.9104C13.2227 15.9136 13.2846 15.9169 13.3692 15.9169C13.4539 15.9136 13.5385 15.9169 13.6232 15.9071C13.9651 15.8778 14.3004 15.7736 14.6032 15.6043C15.2088 15.269 15.6744 14.6634 15.8307 13.9698C15.9186 13.5401 15.8893 13.3154 15.9056 13.0224L15.9251 12.1791C15.9349 11.6158 15.9447 11.0526 15.9544 10.4893C15.987 8.2362 16 5.9766 16 3.71049V2.8607V2.75326C15.9902 2.7207 15.9902 2.68814 15.987 2.63605Z" fill="white"/>
<path d="M6.08577 10.9647C6.2681 11.1731 6.58392 11.1991 6.7923 11.0168L6.8509 10.9647C7.57371 10.3428 8.2835 9.70138 8.90863 8.97532C9.03887 8.86461 9.16911 8.75391 9.29283 8.64321C10.0938 7.92366 10.8687 7.17806 11.5329 6.32827C11.7217 6.08733 11.7966 5.80407 11.572 5.60871C11.3668 5.43289 11.0738 5.44266 10.8296 5.64127C10.3933 5.99616 9.94727 6.35106 9.5533 6.75479C8.9184 7.40271 8.32257 8.08645 7.71372 8.75391C7.27417 9.02741 6.87044 9.34649 6.4895 9.6851C5.98483 9.18369 5.4704 8.69531 4.99504 8.17111C4.9462 8.11576 4.7834 8.11576 4.70201 8.14506C4.53921 8.20692 4.50991 8.36646 4.53596 8.53902C4.62061 9.1023 4.91038 9.60045 5.28156 10.027L6.08577 10.9647Z" fill="white"/>
</svg>
