<svg width="9" height="15" viewBox="0 0 9 15" fill="none" xmlns="http://www.w3.org/2000/svg">
<path d="M2.87442 8.37852C2.82104 8.37852 1.70125 8.37886 1.18479 8.37835C0.918912 8.37818 0.824052 8.28264 0.824052 8.01506C0.823712 7.32775 0.823542 6.64044 0.824052 5.95313C0.824222 5.68895 0.924522 5.58814 1.187 5.58797C1.70346 5.58763 2.81713 5.5878 2.87442 5.5878C2.87442 5.54071 2.87425 4.54842 2.87442 4.09146C2.87476 3.41588 2.99529 2.7692 3.33852 2.17709C3.68991 1.57104 4.20127 1.1559 4.85662 0.91586C5.27635 0.76201 5.71206 0.70064 6.15746 0.7003C6.71472 0.69996 7.27198 0.70047 7.82941 0.70149C8.06894 0.70183 8.17519 0.80774 8.1757 1.04897C8.17672 1.69548 8.17672 2.34199 8.1757 2.98833C8.17536 3.23211 8.07353 3.33003 7.82856 3.33275C7.37177 3.33768 6.91464 3.33462 6.45836 3.35298C5.99749 3.35298 5.75507 3.57806 5.75507 4.05508C5.74402 4.55964 5.75048 5.06471 5.75048 5.58763C5.79366 5.58763 7.10521 5.58746 7.71823 5.58763C7.99669 5.58763 8.09189 5.68334 8.09189 5.96333C8.09189 6.6469 8.09172 7.33064 8.09121 8.01421C8.09104 8.29012 8.00162 8.37818 7.72146 8.37835C7.10844 8.37869 5.80199 8.37852 5.74487 8.37852V13.9112C5.74487 14.2061 5.65205 14.3001 5.36101 14.3001C4.65143 14.3001 3.94168 14.3003 3.2321 14.3001C2.97489 14.3001 2.87459 14.2002 2.87459 13.943C2.87442 12.1411 2.87442 8.44176 2.87442 8.37852Z" fill="#3D6AD6" fill-opacity="0.5"/>
</svg>
