<svg width="13" height="13" viewBox="0 0 13 13" fill="none" xmlns="http://www.w3.org/2000/svg">
<g clip-path="url(#clip0_89_585)">
<path d="M12.8855 2.58301L8.94287 6.50025L12.8855 10.4175C12.9568 10.2685 13 10.1038 13 9.92798V3.07251C13 2.89663 12.9568 2.73197 12.8855 2.58301Z" fill="#A19D9D"/>
<path d="M11.8574 1.92969H1.14258C0.966701 1.92969 0.802043 1.97293 0.653076 2.0442L5.69218 7.05791C6.13773 7.50346 6.86228 7.50346 7.30783 7.05791L12.3469 2.0442C12.198 1.97293 12.0333 1.92969 11.8574 1.92969Z" fill="#A19D9D"/>
<path d="M0.114512 2.58301C0.0432402 2.73197 0 2.89663 0 3.07251V9.92798C0 10.1039 0.0432402 10.2685 0.114512 10.4175L4.05714 6.50025L0.114512 2.58301Z" fill="#A19D9D"/>
<path d="M8.40406 7.03809L7.84615 7.59599C7.10375 8.33839 5.89574 8.33839 5.15335 7.59599L4.59546 7.03809L0.652832 10.9553C0.801799 11.0266 0.966457 11.0698 1.14234 11.0698H11.8572C12.0331 11.0698 12.1977 11.0266 12.3467 10.9553L8.40406 7.03809Z" fill="#A19D9D"/>
</g>
<defs>
<clipPath id="clip0_89_585">
<rect width="13" height="13" fill="white"/>
</clipPath>
</defs>
</svg>
