<svg width="14" height="16" viewBox="0 0 14 16" fill="none" xmlns="http://www.w3.org/2000/svg">
<path d="M8.29476 0.297852H5.31932C2.45546 0.297852 0.112305 2.64101 0.112305 5.50487V7.73645C0.112305 9.74487 1.28388 11.5859 3.08774 12.4414V14.9333C3.08774 15.1564 3.36669 15.268 3.51546 15.1007L5.67266 12.9435H8.29476C11.1586 12.9435 13.5018 10.6003 13.5018 7.73645V5.50487C13.5018 2.64101 11.1586 0.297852 8.29476 0.297852ZM10.2474 10.061L9.48494 10.8049C8.68529 11.5859 6.62108 10.6933 4.79862 8.83364C2.97616 6.97399 2.17652 4.89118 2.93897 4.11013L3.68283 3.36627C3.96178 3.08733 4.42669 3.10592 4.74283 3.38487L5.82143 4.50066C6.21195 4.89118 6.04459 5.56066 5.54248 5.70943C5.18915 5.82101 4.94739 6.21154 5.05897 6.56487C5.24494 7.38311 6.28634 8.42452 7.06739 8.62908C7.42073 8.70347 7.81125 8.5175 7.94143 8.16417C8.1088 7.66206 8.77827 7.51329 9.1502 7.90382L10.2288 9.01961C10.5263 9.27996 10.5263 9.74487 10.2474 10.061ZM7.47651 3.83118C7.40213 3.83118 7.32774 3.83118 7.25336 3.84978C7.12318 3.86838 6.99301 3.7568 6.97441 3.62662C6.95581 3.49645 7.06739 3.36627 7.19757 3.34768C7.29055 3.32908 7.38353 3.32908 7.47651 3.32908C8.83406 3.32908 9.94985 4.44487 9.94985 5.80241C9.94985 5.8954 9.94985 5.98838 9.93125 6.08136C9.91265 6.21154 9.78248 6.32311 9.6523 6.30452C9.52213 6.28592 9.41055 6.15575 9.42915 6.02557C9.42915 5.95118 9.44774 5.8768 9.44774 5.80241C9.46634 4.72382 8.57371 3.83118 7.47651 3.83118ZM8.96423 5.82101C8.96423 5.95119 8.85265 6.06276 8.72248 6.06276C8.5923 6.06276 8.48073 5.95119 8.48073 5.82101C8.48073 5.28171 8.03441 4.8354 7.49511 4.8354C7.36494 4.8354 7.25336 4.72382 7.25336 4.59364C7.25336 4.46347 7.36494 4.35189 7.49511 4.35189C8.29476 4.33329 8.96423 5.00276 8.96423 5.82101ZM10.8611 6.62066C10.8239 6.75083 10.6937 6.84382 10.5449 6.80662C10.4148 6.76943 10.3404 6.63926 10.3776 6.50908C10.4334 6.28592 10.452 6.06276 10.452 5.82101C10.452 4.18452 9.11301 2.84557 7.47651 2.84557C7.40213 2.84557 7.32774 2.84557 7.25336 2.84557C7.12318 2.84557 6.99301 2.75259 6.99301 2.62241C6.99301 2.49224 7.08599 2.36206 7.21616 2.36206C7.30915 2.36206 7.40213 2.34347 7.47651 2.34347C9.39195 2.34347 10.9541 3.90557 10.9541 5.82101C10.9541 6.08136 10.9169 6.36031 10.8611 6.62066Z" fill="#24CA43" fill-opacity="0.5"/>
</svg>
