<svg width="14" height="16" viewBox="0 0 14 16" fill="none" xmlns="http://www.w3.org/2000/svg">
<path d="M8.48763 0.297852H5.51219C2.64833 0.297852 0.305176 2.64101 0.305176 5.50487V7.73645C0.305176 9.74487 1.47675 11.5859 3.28061 12.4414V14.9333C3.28061 15.1564 3.55956 15.268 3.70833 15.1007L5.86553 12.9435H8.48763C11.3515 12.9435 13.6946 10.6003 13.6946 7.73645V5.50487C13.6946 2.64101 11.3515 0.297852 8.48763 0.297852ZM10.4403 10.061L9.67781 10.8049C8.87816 11.5859 6.81395 10.6933 4.99149 8.83364C3.16904 6.97399 2.36939 4.89118 3.13184 4.11013L3.8757 3.36627C4.15465 3.08733 4.61956 3.10592 4.9357 3.38487L6.0143 4.50066C6.40482 4.89118 6.23746 5.56066 5.73535 5.70943C5.38202 5.82101 5.14026 6.21154 5.25184 6.56487C5.43781 7.38311 6.47921 8.42452 7.26026 8.62908C7.6136 8.70347 8.00412 8.5175 8.1343 8.16417C8.30167 7.66206 8.97114 7.51329 9.34307 7.90382L10.4217 9.01961C10.7192 9.27996 10.7192 9.74487 10.4403 10.061ZM7.66939 3.83118C7.595 3.83118 7.52061 3.83118 7.44623 3.84978C7.31605 3.86838 7.18588 3.7568 7.16728 3.62662C7.14868 3.49645 7.26026 3.36627 7.39044 3.34768C7.48342 3.32908 7.5764 3.32908 7.66939 3.32908C9.02693 3.32908 10.1427 4.44487 10.1427 5.80241C10.1427 5.8954 10.1427 5.98838 10.1241 6.08136C10.1055 6.21154 9.97535 6.32311 9.84518 6.30452C9.715 6.28592 9.60342 6.15575 9.62202 6.02557C9.62202 5.95118 9.64061 5.8768 9.64061 5.80241C9.65921 4.72382 8.76658 3.83118 7.66939 3.83118ZM9.1571 5.82101C9.1571 5.95119 9.04553 6.06276 8.91535 6.06276C8.78518 6.06276 8.6736 5.95119 8.6736 5.82101C8.6736 5.28171 8.22728 4.8354 7.68798 4.8354C7.55781 4.8354 7.44623 4.72382 7.44623 4.59364C7.44623 4.46347 7.55781 4.35189 7.68798 4.35189C8.48763 4.33329 9.1571 5.00276 9.1571 5.82101ZM11.0539 6.62066C11.0168 6.75083 10.8866 6.84382 10.7378 6.80662C10.6076 6.76943 10.5332 6.63926 10.5704 6.50908C10.6262 6.28592 10.6448 6.06276 10.6448 5.82101C10.6448 4.18452 9.30588 2.84557 7.66939 2.84557C7.595 2.84557 7.52061 2.84557 7.44623 2.84557C7.31605 2.84557 7.18588 2.75259 7.18588 2.62241C7.18588 2.49224 7.27886 2.36206 7.40904 2.36206C7.50202 2.36206 7.595 2.34347 7.66939 2.34347C9.58482 2.34347 11.1469 3.90557 11.1469 5.82101C11.1469 6.08136 11.1097 6.36031 11.0539 6.62066Z" fill="#7F50A0" fill-opacity="0.5"/>
</svg>
