<svg width="15" height="9" viewBox="0 0 15 9" fill="none" xmlns="http://www.w3.org/2000/svg">
<path d="M7.85031 8.32384L14.3313 1.84273C14.4813 1.69283 14.564 1.49273 14.564 1.27936C14.564 1.066 14.4813 0.865893 14.3313 0.715992L13.8541 0.238704C13.5432 -0.0718715 13.0378 -0.0718715 12.7274 0.238704L7.28505 5.68105L1.83666 0.232664C1.68664 0.0827642 1.48666 -5.71627e-07 1.27341 -5.80949e-07C1.05993 -5.9028e-07 0.859941 0.0827642 0.709805 0.232664L0.232753 0.709953C0.0827341 0.859972 8.86454e-05 1.05996 8.86361e-05 1.27332C8.86267e-05 1.48669 0.082734 1.68679 0.232753 1.83669L6.71966 8.32384C6.87016 8.4741 7.07109 8.55662 7.28469 8.55615C7.49912 8.55662 7.69994 8.4741 7.85031 8.32384Z" fill="#686868"/>
</svg>
