<svg width="11" height="13" viewBox="0 0 11 13" fill="none" xmlns="http://www.w3.org/2000/svg">
<path d="M5.5001 0C2.90404 0 0.791992 2.11204 0.791992 4.70808C0.791992 7.92985 5.00529 12.6596 5.18467 12.8594C5.35316 13.047 5.64734 13.0467 5.81553 12.8594C5.99491 12.6596 10.2082 7.92985 10.2082 4.70808C10.2082 2.11204 8.09614 0 5.5001 0ZM5.5001 7.07685C4.19396 7.07685 3.13136 6.01423 3.13136 4.70808C3.13136 3.40194 4.19398 2.33934 5.5001 2.33934C6.80622 2.33934 7.86882 3.40196 7.86882 4.70811C7.86882 6.01425 6.80622 7.07685 5.5001 7.07685Z" fill="#A19D9D"/>
</svg>
