<svg width="628" height="384" viewBox="0 0 628 384" fill="none" xmlns="http://www.w3.org/2000/svg">
<path d="M500.52 390.764L500.504 390.141C500.476 388.946 497.57 270.52 497.57 265.061C497.57 263.697 497.648 262.372 497.724 261.091C497.964 257.043 498.022 254.544 496.273 254.169C494.565 253.803 493.676 254.502 492.205 255.661C491.333 256.348 490.346 257.126 488.954 257.864C484.303 260.329 466.215 252.801 462.635 251.267C457.182 248.929 453.876 248.204 452.233 248.985C451.656 249.258 451.291 249.723 451.085 250.444C450.396 252.854 441.416 320.411 436.764 355.795L436.721 356.135L436.404 356.266C435.787 356.52 433.701 357.285 432.718 356.474C432.43 356.237 432.123 355.779 432.29 354.941C432.478 354.004 433.225 347.717 434.091 340.439C435.213 330.998 436.609 319.246 437.359 314.38C438.383 307.725 441.023 284.379 441.951 274.441C439.724 281.327 435.426 294.561 433.426 299.9C432.385 302.671 430.342 307.23 428.147 307.231C428.083 307.231 428.02 307.226 427.956 307.218C426.851 307.083 426.154 305.836 425.888 303.509C424.836 294.389 427.541 285.124 433.93 275.972C437.244 271.224 438.541 267.609 437.89 264.919C437.82 264.629 437.728 264.354 437.617 264.093C435.893 263.47 433.808 262.466 431.39 261.303C428.486 259.906 425.194 258.324 421.469 256.852C417.001 255.089 414.433 254.361 413.054 253.971C411.836 253.626 411.38 253.497 411.166 253.044C410.981 252.655 411.135 252.301 411.313 251.892C411.386 251.723 411.477 251.514 411.569 251.253C411.656 251.008 411.859 250.676 412.341 250.489C415.2 249.368 427.425 255.566 432.551 258.28C434.562 259.344 437.194 260.738 438.47 263.142C440.148 263.704 441.325 263.79 441.767 263.057C443.523 260.133 447.093 250.869 449.069 245.226C449.749 243.281 451.424 239.799 453.538 235.735C455.661 228.992 462.653 208.876 471.727 204.591C482.257 199.618 508.708 197.548 519.592 196.888C521.536 196.772 524.909 196.759 525.697 198.004C525.918 198.355 525.925 198.774 525.717 199.155C524.718 200.969 518.606 202.188 510.509 202.188C492.791 202.188 472.886 205.288 468.358 212.214C465.09 217.211 458.968 227.867 454.665 236.122C454.504 236.625 454.373 237.049 454.272 237.384C455.846 237.281 459.719 237.249 468.505 238.067C476.567 238.817 485.873 240.743 494.084 242.443C498.7 243.398 503.061 244.301 506.484 244.836C515.428 246.232 567.395 251.59 582.241 241.693C594.374 233.604 594.522 219.862 594.691 203.951C594.728 200.521 594.766 196.975 594.92 193.336C595.43 181.25 599.395 170.408 603.987 157.854C607.285 148.831 611.025 138.605 613.832 126.623C615.348 120.158 615.998 114.821 616.011 110.29C615.797 110.132 615.711 109.727 615.492 108.705C614.751 105.235 612.496 94.6751 606.858 91.7706C605.503 91.0722 603.796 90.2561 601.82 89.3112C593.211 85.1921 580.199 78.9683 572.952 71.3599C563.879 61.832 554.693 38.5022 553.164 28.0245C552.24 21.6884 554.316 15.3486 558.583 11.4773C561.711 8.63772 567.496 5.75991 577.271 8.17438C596.023 12.8047 598.038 29.6769 598.457 45.1287C598.53 47.8632 598.554 50.3954 598.576 52.6302C598.691 64.1238 598.753 70.4551 604.541 79.6812C605.615 81.3913 606.777 83.04 607.901 84.6353C611.614 89.9057 615.404 95.2836 616.695 103.819C616.737 100.717 616.227 96.5388 614.295 91.456C610.184 80.634 609.179 76.648 609.404 67.1887C609.621 58.0409 606.982 28.9676 602.185 19.1549C598.057 10.7133 588.776 1.58134 567.989 6.0192C558.019 8.14705 554.037 11.6485 552.454 14.2099C550.841 16.82 551.353 18.9053 551.376 18.9927L551.427 19.1877L551.347 19.3765C551.335 19.4039 550.163 22.1481 548.91 25.6192C547.712 28.9348 546.997 34.0698 547.928 36.5851C548.906 39.2273 547.525 41.1171 546.611 42.3674C546.497 42.5229 546.388 42.6717 546.29 42.8138L545.99 43.2419C544.931 44.7424 542.116 48.7279 542.275 50.5636C542.351 51.4314 543.068 51.6865 544.239 52.0041C545.058 52.2257 545.903 52.4553 546.26 53.1682C546.912 54.4732 547.135 55.9076 546.982 57.8174C546.871 59.205 548.059 59.7831 548.11 59.8068L548.804 60.1341L548.315 60.725C548.06 61.0292 547.357 62.05 547.461 62.7307C547.495 62.9409 547.602 63.0945 547.812 63.2269C549.001 63.9835 549.091 64.4365 549.175 65.6353C549.222 66.2923 549.288 67.1917 549.617 68.6722C550.246 71.5075 552.021 71.3763 558.073 70.4861C558.849 70.3713 559.681 70.2486 560.577 70.126C562.139 69.9116 565.048 69.5102 566.03 72.1166C566.708 73.9208 567.137 76.5368 567.178 79.1171C567.26 84.1671 565.431 89.112 562.16 92.6833C561.576 93.3222 561.535 93.6106 561.602 93.7406C561.708 93.9428 562.202 94.0199 562.413 94.0533C563.099 94.1614 563.785 94.2616 564.471 94.3618C565.523 94.516 566.611 94.6751 567.678 94.8579C568.167 94.9417 568.609 95.0012 569.025 95.0231C572.441 90.9866 575.65 86.7777 578.628 82.4291C578.921 82.001 579.322 81.4162 579.969 81.1435C580.402 80.9601 580.935 80.979 581.354 81.1927C581.712 81.3737 581.956 81.6743 582.044 82.0386C582.197 82.6799 581.817 83.2355 581.612 83.5343L576.888 90.4443C575.681 92.2109 574.312 94.213 572.275 95.419C571.322 95.9838 570.43 96.1902 569.561 96.2176C566.569 99.7288 563.421 103.11 560.137 106.339C559.501 106.964 558.864 107.573 558.232 108.178C555.641 110.655 553.196 112.996 551.233 116.008C549.303 118.972 547.54 122.312 545.516 126.836C542.745 133.041 539.985 139.725 538.59 146.565C538.541 146.805 533.432 170.275 528.389 170.278C528.344 170.278 528.3 170.276 528.253 170.273C527.962 170.248 527.654 170.225 527.333 170.201C523.618 169.921 518.006 169.498 518.006 165.712C518.006 161.621 520.894 136.557 529.094 119.572C535.512 106.279 546.51 99.2606 553.082 95.0668C555.024 93.8268 556.559 92.8479 557.468 92.0354C560.796 89.064 563.757 84.4555 563.581 83.4967C563.482 83.4936 563.217 83.5112 562.656 83.7548C560.649 84.625 558.429 84.962 556.081 85.3191C553.068 85.7775 549.952 86.2512 546.652 87.8611C542.854 89.7132 541.927 93.3811 540.946 97.2627C540.471 99.144 539.978 101.09 539.124 102.747C536.65 107.549 522.345 121.055 521.254 122.081C520.971 122.488 518.995 125.347 516.855 128.88C516.51 130.114 515.843 132.184 514.859 135.225C512.739 141.773 509.836 150.742 508.738 156.412C508.254 158.916 507.645 161.169 507.108 163.157C506.261 166.294 505.53 169.003 506.223 169.728C506.558 170.077 507.39 169.982 508.028 169.84C510.663 169.255 514.516 169.569 518.978 169.933C523.542 170.304 528.714 170.727 533.077 170.125C541.871 168.912 547.76 167.4 553.681 162.888C559.981 158.087 574.098 137.592 576.102 123.276C577.688 111.941 589.793 94.4766 599.999 92.1459C603.981 91.2386 607.375 92.7009 609.826 96.3773C617.816 108.363 613.847 121.896 610.345 133.834C609.518 136.651 608.738 139.312 608.146 141.845C605.194 154.497 577.346 198.338 558.593 198.338C542.711 198.338 509.691 189.251 498.84 186.265C497.279 185.835 496.179 185.532 495.661 185.403C495.126 185.269 493.947 184.83 492.391 184.188C492.252 184.208 492.11 184.219 491.969 184.219C490.604 184.219 488.296 183.29 484.801 181.883C480 179.949 472.744 177.028 463.599 174.938C448.055 171.384 435.321 175.921 432.461 180.414C429.368 185.275 413.515 225.424 412.496 230.112C411.797 233.335 409.128 237.846 406.984 241.47C405.812 243.454 404.703 245.328 404.555 245.996C404.42 246.6 405.334 247.075 406.64 247.683C407.808 248.225 408.911 248.738 409.179 249.676C409.266 249.981 409.177 251.278 408.971 253.177C409.514 253.528 409.632 254.538 409.632 256.006L409.636 258.048C409.656 266.958 409.687 280.423 406.666 290.586C405.23 295.414 403.352 300.21 401.536 304.848C399.231 310.738 397.053 316.301 395.954 321.429C395.057 325.611 394.02 330.024 392.98 334.249C396.873 333.793 400.456 333.538 402.275 333.732C406.407 334.166 410.393 331.29 413.835 325.418C415.702 322.234 417.506 321.417 419.097 320.697C420.755 319.947 422.186 319.298 423.497 315.804C425.098 311.534 426.217 309.833 427.628 309.528C428.863 309.261 430.036 310.131 431.528 311.623C434.37 314.465 435.065 317.77 433.652 321.725C433.174 323.065 432.139 324.339 430.942 325.814C429.201 327.957 427.034 330.625 425.487 334.75C425.342 335.138 425.204 335.525 425.075 335.907C425.957 335.994 426.689 336.48 427.202 337.32C427.383 337.614 427.562 337.903 427.74 338.189C429.95 341.745 432.037 345.104 429.907 351.492L429.449 352.859C427.394 358.995 425.454 364.79 424.639 372.324C424.135 376.985 422.764 379.832 421.105 379.733C419.954 379.671 419.269 378.279 419.269 376.01C419.269 374.116 419.79 371.538 420.294 369.044C421.053 365.288 421.913 361.032 420.766 359.884C420.17 359.289 419.436 359.018 418.58 359.075C416.402 359.223 413.577 361.448 410.626 365.339C409.729 366.52 408.885 367.773 407.99 369.1C404.214 374.699 399.933 381.047 391.197 381.233C381.567 381.437 372.111 380.119 367.119 377.872C365.447 377.12 364.637 375.633 364.897 373.794C365.302 370.925 368.437 367.442 372.794 366.821C374.955 366.512 377.004 365.67 378.866 364.379C378.855 364.36 378.846 364.342 378.835 364.323C378.468 363.621 378.651 362.892 379.336 362.32C382.057 360.053 384.841 354.578 384.638 348.9C384.548 346.4 384.848 345.143 385.671 344.563C386.484 343.989 387.565 344.225 389.072 344.781C389.799 342.018 390.603 338.903 391.416 335.64C386.709 336.25 381.846 337.099 379.429 337.758C378.474 338.018 377.925 338.419 377.797 338.95C377.499 340.182 379.254 342.123 379.892 342.706L381.019 343.734H362.139C362.844 345.297 362.821 347.027 362.049 348.36C360.216 351.526 347.457 353.806 336.69 353.95C335.131 353.971 333.662 353.998 332.281 354.022C323.746 354.178 318.595 354.271 315.919 352.531C313.748 351.12 311.894 347.677 311.065 344.032C311.694 350.242 312.077 354.152 312.094 354.322L312.142 354.824L307.072 356.158L306.979 355.5C306.874 354.761 305.909 347.961 304.71 339.329C304.839 341.897 304.898 344.045 304.863 345.582C304.789 348.896 303.827 351.164 302.001 352.325C298.66 354.452 293.124 352.494 288.15 350.3C280.309 346.84 281.166 343.13 282.463 337.515L282.519 337.274C282.703 336.481 282.853 335.668 282.999 334.881C283.557 331.877 284.084 329.038 286.291 327.637C286.606 327.437 286.948 327.273 287.318 327.145C287.246 326.461 287.342 325.71 287.605 324.876C288.212 322.957 290.71 316.317 293.245 310.282C297.814 299.407 299.068 298.42 299.749 298.393C299.308 294.816 298.913 291.964 298.616 290.308C298.121 287.554 297.658 283.204 297.187 278.284C297.176 279.115 297.163 279.929 297.149 280.719L297.143 281.17C296.979 291.458 292.331 304.907 288.229 316.771C286.763 321.014 285.378 325.02 284.323 328.534C282.507 334.588 279.392 338.802 275.314 340.72C272.071 342.245 268.23 342.28 264.777 340.82C263.409 340.241 262.471 339.265 261.988 337.92C260.676 334.254 263.234 329.029 263.569 328.371C263.733 327.764 264.955 323.529 267.852 320.993C267.428 320.712 267.123 320.379 266.933 319.97C266.248 318.497 267.21 316.534 269.567 312.409C271.985 308.178 274.853 296.416 277.888 283.963C280.33 273.945 282.856 263.585 285.402 256.045C288.105 248.036 289.672 245.871 290.852 245.395C290.092 244.614 289.224 244.064 288.232 243.79C279.589 241.414 257.914 246.223 256.262 246.718C256.133 246.757 256.018 246.817 255.915 246.904C256.676 247.625 257.173 248.629 257.427 249.946C258.208 253.999 259.864 320.029 259.864 326.599C259.864 330.333 258.997 332.584 257.546 332.62C257.535 332.62 257.523 332.62 257.512 332.62C256.344 332.62 255.486 331.107 255.373 328.835C255.164 324.66 253.883 260.397 253.883 254.093C253.883 250.793 253.914 248.594 254.365 247.239C252.618 246.315 249.432 246.416 244.403 247.548C242.046 248.078 239.485 248.599 237.009 249.102C230.326 250.461 223.416 251.868 220.75 253.436C217.319 255.454 214.043 259.491 211.682 286.352C209.432 311.95 200.161 369.762 199.163 372.258C198.682 373.46 197.46 374.586 196.141 374.316C195.01 374.081 193.692 372.803 193.831 368.051C193.972 363.271 199.642 328.171 204.2 299.967C206.82 283.746 209.084 269.736 209.624 265.634C210.111 261.933 209.131 258.501 206.712 255.431C202.845 250.525 196.25 247.817 191.429 247.31C190.987 247.264 190.557 247.216 190.137 247.17C182.648 246.338 178.888 245.922 174.849 259.248C170.497 273.611 157.784 341.016 157.657 341.695L157.622 341.812C156.738 343.946 156.072 343.755 155.823 343.685C155.152 343.493 154.391 343.273 156.341 331.577C158.77 317.001 168.783 260.923 173.395 252.854L174.233 251.386C178.045 244.7 178.951 243.112 181.06 242.644C181.151 242.624 181.195 242.407 181.206 242.341C181.496 240.61 178.901 234.538 172.547 230.628C163.905 225.309 150.343 150.678 150.215 149.929C149.699 146.921 148.873 143.451 147.998 139.776C147.622 138.198 147.237 136.583 146.861 134.943C146.472 135.951 146.501 137.936 146.683 140.672C147.2 148.422 159.212 200.946 165.492 227.635C168.849 241.903 177.157 241.332 177.509 241.299L179.82 241.093L177.892 242.381C177.878 242.39 176.191 243.57 173.959 247.476C171.913 251.057 169.703 261.919 166.643 276.951C166.258 278.842 165.859 280.801 165.444 282.824C161.737 300.922 153.327 342.607 153.243 343.027L153.147 343.502H0V342.319H152.18C153.126 337.629 160.794 299.64 164.286 282.587C164.701 280.565 165.099 278.606 165.484 276.716C168.565 261.574 170.792 250.635 172.933 246.89C174.22 244.637 175.345 243.234 176.122 242.409C173.266 242 167.12 239.716 164.341 227.907C163.599 224.752 146.156 150.533 145.504 140.751C145.224 136.564 145.303 134.402 146.509 133.441C146.513 133.438 146.516 133.435 146.521 133.432C144.891 126.115 143.547 118.383 144.032 111.259C145.093 95.6972 149.563 85.5583 158.098 79.3503C165.761 73.7768 166.715 71.949 167.819 69.8333C168.107 69.2788 168.406 68.7056 168.83 68.04C169.378 67.1783 170.365 66.6318 171.684 66.4599C176.039 65.8994 183.255 69.2303 188.848 74.3932C194.833 79.9175 197.294 84.6523 199.467 88.8296C200.094 90.0363 200.687 91.1755 201.33 92.2655C201.947 93.3088 202.42 93.6215 202.658 93.5723C203.227 93.446 203.815 91.991 204.217 90.2415C203.371 87.3807 202.166 84.4482 200.512 81.1399C196.679 73.4756 191.633 69.011 183.64 66.214C174.407 62.9834 173.946 60.8537 175.985 53.1518C176.187 52.3897 176.284 51.5942 176.299 50.7634C173.982 50.6183 172.286 49.1493 171.576 46.6256C171.274 45.5513 170.967 44.539 170.665 43.5461C168.945 37.8767 167.46 32.9804 168.025 21.2912C168.629 8.81017 175.12 5.7593 176.728 5.19211C176.968 4.45733 177.785 2.85901 180.498 1.59287C184.113 -0.0940996 195.04 -1.08394 208.016 1.99487C221.377 5.16478 227.289 13.9986 227.078 18.9709C226.905 23.0286 223.903 24.4721 222.746 24.8789C222.778 25.2239 222.895 25.9544 223.325 27.2952C224.078 29.6478 224.908 35.3105 224.066 36.8742C223.586 37.765 223.878 38.4045 224.969 40.4849L225.148 40.8293C225.191 40.9112 229.36 49.0977 226.735 50.9942C225.372 51.978 223.732 52.0302 222.828 51.9646C222.785 52.819 222.714 54.3263 222.714 55.1224C222.714 56.0339 222.069 56.6575 221.51 57.0279C222.133 57.7141 222.969 58.9335 222.861 60.459C222.794 61.3972 222.511 62.0561 222.238 62.6931C221.871 63.5481 221.524 64.3552 221.683 65.9456C221.893 68.0425 221.335 69.8102 220.112 70.9233C218.567 72.3297 216.039 72.7008 212.598 72.0261C208.299 71.1832 204.979 69.2734 202.553 67.8785C201.114 67.0508 199.754 66.265 199.189 66.381C199.449 66.7909 200.43 67.5815 201.103 68.1244C202.324 69.107 203.476 70.0361 203.847 70.9233C204.343 72.1172 203.938 72.9091 203.47 73.8254C203.073 74.5997 202.58 75.5634 202.286 77.2279C201.938 79.2003 203.192 81.5443 204.299 83.6133C205.175 85.251 205.931 86.6654 205.822 87.7718C205.796 88.0238 205.687 89.027 205.439 90.1978C206.225 92.9262 206.695 95.6018 206.925 98.4748C207.366 103.982 215.823 125.908 223.684 141.921C229.454 153.675 230.889 159.219 232.706 166.238C233.409 168.951 234.136 171.758 235.19 175.246C238.593 186.5 242.348 186.391 245.09 186.31C245.518 186.298 245.884 186.299 246.371 186.29C243.305 185.747 240.777 184.984 239.888 183.346C239.322 182.304 239.219 181.48 239.571 180.826C240.305 179.465 242.682 179.264 246.998 178.897C248.064 178.807 249.241 178.708 250.52 178.579C258.483 177.776 267.489 179.596 269.792 182.475C270.478 183.333 271.116 184.311 270.63 185.046C270.103 185.85 268.699 185.65 266.452 185.031C265.453 184.757 264.473 184.376 263.57 184.005C263.834 184.292 263.929 184.649 263.826 185.008C263.518 186.081 261.482 186.744 259.771 186.744C259.12 186.744 257.918 186.806 256.471 186.893C256.671 186.96 256.863 187.03 257.045 187.105C259.015 187.128 261.357 187.112 264.699 186.983C267.776 186.865 270.771 186.515 273.413 186.207C277.431 185.739 280.902 185.334 283.553 185.815C284.472 185.982 285.434 186.132 286.423 186.285C288.352 186.583 290.417 186.904 292.461 187.409C292.727 187.399 292.985 187.389 293.237 187.379C298.931 187.162 300.284 187.109 307.714 188.824C315.37 190.59 323.044 192.657 328.122 194.024C329.516 194.399 330.746 194.73 331.725 194.987C330.013 193.925 326.771 192.614 320.662 191.139C311.471 188.922 307.644 187.801 306.791 185.622C306.269 184.288 307.06 182.828 307.808 181.707C308.973 179.96 312.922 174.826 317.494 168.883C324.384 159.925 332.96 148.778 334.546 145.869C337.151 141.092 340.337 141.969 340.951 142.194C341.824 142.321 351.42 143.699 361.291 144.533C369.068 145.19 371.79 145.672 372.588 147.232C373.121 148.273 372.537 149.505 371.897 150.574C370.835 152.342 365.849 159.096 360.075 166.916C353.79 175.428 346.667 185.075 343.35 190.012C338.307 197.516 336.904 197.864 334.781 197.112C334.795 197.306 334.791 197.495 334.772 197.682C334.663 198.763 333.347 199.363 316.028 198.616C314.642 198.556 313.546 198.508 313.154 198.508C312.338 198.508 311.293 198.976 310.958 199.278C311.294 199.441 312.452 199.781 316.168 199.629C322.5 199.371 341.759 198.584 348.982 204.822C355.603 210.54 354.668 223.446 354.626 223.992L354.593 224.145C354.476 224.469 342.967 256.772 342.1 276.309C341.181 296.955 339.486 303.815 334.845 305.672C331.655 306.948 323.116 305.901 316.916 304.85C317.306 308.101 317.277 311.563 316.682 316.083C315.267 326.834 321.553 328.965 330.255 331.915C333.357 332.966 335.499 334.103 337.388 335.106C340.864 336.951 343.609 338.408 350.515 338.502C357.192 338.592 360.15 340.838 361.437 342.551H378.118C377.295 341.564 376.313 340.04 376.642 338.671C376.88 337.69 377.711 336.998 379.114 336.615C381.7 335.91 386.828 335.019 391.719 334.401C392.793 330.056 393.87 325.495 394.793 321.18C395.913 315.959 398.108 310.352 400.431 304.415C402.239 299.801 404.108 295.028 405.529 290.247C408.502 280.251 408.47 266.891 408.45 258.05L408.448 257.456C407.864 261.924 407.037 267.516 406.312 272.047C402.895 293.418 401.643 294.332 401.231 294.632C400.953 294.835 400.612 294.847 400.338 294.665C399.744 294.27 399.129 293.913 398.477 293.536C396.994 292.677 395.311 291.704 393.428 289.977C390.492 287.285 394.04 281.079 398.534 273.22L398.829 272.704C400.444 269.877 402.197 265.595 403.744 261.817C405.912 256.518 406.954 254.15 407.802 253.36C407.998 251.56 408.086 250.343 408.031 249.97C407.919 249.581 406.931 249.122 406.138 248.753C404.76 248.113 403.047 247.316 403.397 245.738C403.577 244.924 404.445 243.432 405.963 240.865C407.953 237.501 410.678 232.894 411.338 229.858C412.411 224.92 428.19 184.916 431.461 179.777C434.504 174.995 447.793 170.109 463.86 173.782C471.845 175.607 478.388 178.053 483.138 179.94C477.704 177.209 472.651 174.181 472.865 172.684C473.219 170.202 476.681 169.235 485.215 169.235C493.388 169.235 498.601 173.293 498.601 175.415C498.601 176.822 496.615 181.795 493.901 183.575C494.721 183.887 495.418 184.12 495.947 184.252C496.47 184.383 497.579 184.688 499.153 185.121C509.965 188.097 542.869 197.152 558.592 197.152C568.959 197.152 581.617 182.851 588.238 174.327C597.293 162.671 605.356 148.59 606.992 141.574C607.591 139.008 608.376 136.331 609.207 133.498C612.638 121.807 616.525 108.558 608.84 97.0307C606.655 93.7515 603.768 92.4969 600.261 93.2973C590.642 95.4931 578.777 112.684 577.273 123.437C575.23 138.028 560.826 158.928 554.398 163.826C548.268 168.496 542.232 170.054 533.237 171.295C528.746 171.915 523.504 171.487 518.881 171.109C514.696 170.768 510.743 170.446 508.285 170.992C506.904 171.299 505.948 171.152 505.367 170.543C504.213 169.336 504.909 166.754 505.964 162.846C506.496 160.878 507.098 158.646 507.575 156.185C508.686 150.443 511.603 141.435 513.732 134.858C513.86 134.461 513.987 134.07 514.11 133.687C513.307 135.206 512.585 136.709 512.039 138.083C511.122 140.392 510.386 143.118 509.738 145.522C508.525 150.015 507.833 152.372 506.555 152.633C506.209 152.704 505.682 152.644 505.141 151.956C504.651 151.333 503.989 150.651 503.286 149.93C500.932 147.51 498.001 144.498 499.163 141.012C499.946 138.664 502.187 136.611 504.559 134.436C506.499 132.659 508.505 130.821 509.6 128.852C510.365 127.475 510.737 126.579 510.754 125.845C510.527 126.273 510.272 126.725 509.984 127.195C508.599 129.444 505.033 134.748 501.827 135.43C500.996 135.606 500.241 135.469 499.587 135.02C498.543 134.306 497.984 133.598 497.535 133.03C496.757 132.044 496.287 131.448 493.596 131.448C488.561 131.448 485.87 127.077 484.858 125.432C484.52 124.883 484.457 124.399 484.671 123.996C484.759 123.828 484.884 123.693 485.044 123.583C484.873 123.566 484.703 123.548 484.534 123.531L484.27 123.504C478.166 122.878 473.917 119.437 473.448 114.738C473.054 110.799 473.1 105.863 475.554 104.731C476.96 104.083 479.18 104.151 482.859 104.264C484.663 104.319 486.709 104.382 489.184 104.382C496.49 104.382 496.816 105.003 497.56 110.666L497.712 111.805C497.786 112.345 497.835 112.873 497.864 113.389C498.534 109.447 499.068 108.16 500.002 107.92C500.972 107.671 501.738 108.666 503.004 110.316L503.329 110.739C504.608 112.396 505.062 113.92 505.501 115.396C506.005 117.087 506.482 118.686 508.192 120.498C508.676 121.009 509.118 121.451 509.517 121.848C509.995 122.327 510.412 122.753 510.758 123.158C511.328 121.975 511.773 121.2 512.566 121C513.279 120.821 513.946 121.231 514.388 121.554C515.965 122.71 516.902 124.326 517.11 126.2C518.824 123.487 520.195 121.524 520.319 121.348L520.397 121.257C520.55 121.115 535.645 106.909 538.071 102.202C538.863 100.665 539.316 98.8695 539.797 96.9694C540.802 92.996 541.839 88.8867 546.132 86.7935C549.594 85.1041 552.945 84.5952 555.902 84.1452C558.172 83.8009 560.318 83.4742 562.186 82.6647C563.375 82.1491 564.176 82.1983 564.57 82.8129C565.679 84.5478 561.048 90.4213 558.257 92.9141C557.276 93.7897 555.706 94.7917 553.717 96.0603C547.253 100.187 536.43 107.092 530.16 120.084C522.177 136.619 519.189 161.824 519.189 165.709C519.189 168.397 524.143 168.771 527.422 169.017C527.747 169.042 528.059 169.065 528.352 169.09C528.373 169.091 528.394 169.093 528.413 169.093C531.043 169.093 535.565 155.461 537.431 146.325C538.849 139.373 541.636 132.616 544.436 126.35C546.487 121.766 548.276 118.376 550.242 115.358C552.279 112.232 554.774 109.845 557.414 107.318C558.043 106.718 558.676 106.112 559.307 105.491C562.359 102.492 565.29 99.3614 568.088 96.1162C567.884 96.0876 567.681 96.0542 567.478 96.0196C566.425 95.8386 565.345 95.6808 564.301 95.5283C563.609 95.4269 562.919 95.3261 562.23 95.218C561.812 95.1524 560.937 95.0152 560.555 94.2853C560.02 93.2657 560.941 92.2588 561.287 91.8799C564.357 88.529 566.072 83.8829 565.994 79.1311C565.957 76.6802 565.555 74.2116 564.922 72.5289C564.38 71.0885 562.977 70.9846 560.739 71.2937C559.848 71.4158 559.018 71.5379 558.245 71.6514C552.514 72.4949 549.36 72.9601 548.462 68.9242C548.115 67.3587 548.044 66.3695 547.996 65.7148C547.927 64.7341 547.924 64.6958 547.177 64.221C546.683 63.9052 546.376 63.4497 546.292 62.9032C546.156 62.0136 546.64 61.0705 547.016 60.4948C546.444 60.0394 545.687 59.1564 545.802 57.7184C545.938 56.0357 545.751 54.7938 545.201 53.6929C545.082 53.4536 544.469 53.2878 543.928 53.1409C542.798 52.8348 541.249 52.4146 541.096 50.6608C540.923 48.6635 542.984 45.442 545.023 42.5545L545.317 42.1355C545.42 41.9855 545.535 41.8288 545.655 41.6648C546.51 40.494 547.576 39.0372 546.818 36.9914C545.78 34.1888 546.501 28.8018 547.796 25.2129C548.881 22.207 549.909 19.7385 550.187 19.079C550.064 18.3995 549.845 16.2072 551.418 13.63C553.883 9.59354 559.376 6.64164 567.741 4.85629C589.275 0.260537 598.935 9.80912 603.249 18.6302C608.121 28.5984 610.807 57.9801 610.587 67.2111C610.375 76.133 611.095 79.6946 615.402 91.0303C618.957 100.385 617.842 106.864 617.15 109.325C617.245 114.164 616.622 119.9 614.985 126.889C612.161 138.94 608.408 149.201 605.097 158.255C600.541 170.717 596.606 181.478 596.102 193.381C595.949 197.002 595.912 200.538 595.875 203.959C595.701 220.206 595.552 234.237 582.899 242.673C567.739 252.779 515.316 247.409 506.302 246.001C502.849 245.461 498.475 244.556 493.844 243.597C485.664 241.904 476.392 239.985 468.397 239.241C456.184 238.103 453.687 238.617 453.587 238.639L453.343 238.694C451.857 241.639 450.716 244.097 450.186 245.612C448.331 250.911 444.682 260.498 442.782 263.663C442.086 264.823 440.813 264.989 439.014 264.528C439.023 264.564 439.031 264.601 439.041 264.637C439.775 267.677 438.421 271.604 434.902 276.647C428.682 285.554 426.046 294.546 427.065 303.371C427.284 305.275 427.76 305.999 428.101 306.041C428.776 306.118 430.457 304.445 432.319 299.482C434.456 293.783 439.235 279.001 441.274 272.69C441.767 271.167 442.111 270.103 442.238 269.723C442.395 269.254 442.779 269.212 442.982 269.26C443.609 269.412 443.621 269.415 443.015 275.729C442.689 279.12 442.192 283.874 441.614 289.112C440.57 298.587 439.212 310.129 438.531 314.558C437.785 319.403 436.39 331.143 435.269 340.576C434.364 348.179 433.651 354.186 433.453 355.17C433.415 355.363 433.423 355.516 433.473 355.558C433.734 355.773 434.762 355.6 435.641 355.29C436.643 347.668 449.083 253.152 449.95 250.117C450.248 249.074 450.846 248.332 451.728 247.913C453.726 246.964 457.235 247.661 463.104 250.177C473.514 254.638 485.372 258.419 488.402 256.816C489.7 256.128 490.644 255.384 491.476 254.729C493.037 253.5 494.269 252.525 496.523 253.01C499.354 253.616 499.148 257.111 498.907 261.159C498.834 262.423 498.755 263.729 498.755 265.059C498.755 270.298 501.447 380.142 501.676 389.487L504.32 389.283C504.082 378.909 501.419 261.696 502.29 258.215C503.008 255.341 506.509 255.783 510.944 256.34C512.973 256.595 515.274 256.884 517.57 256.884C518.781 256.884 519.934 256.867 521.012 256.851C524.809 256.795 527.521 256.754 529.015 257.456C528.902 255.143 529.08 253.655 529.807 252.841C530.201 252.401 530.734 252.178 531.394 252.178C534.347 252.178 553.368 250.464 565.128 248.655C567.671 248.263 570.051 248.034 572.354 247.811C580.282 247.045 586.543 246.439 591.203 239.782C595.688 233.376 596.892 210.239 597.288 202.635C597.472 199.109 597.452 199.113 598.086 199.113C598.691 199.117 598.707 199.576 598.75 200.687C599.042 208.288 599.928 231.364 597.264 242.611C594.556 254.045 571.157 252.578 569.766 252.479C561.192 252.737 551.696 253.247 549.354 253.736C550.579 254.004 554.023 254.357 563.575 253.942C576.984 253.357 584.292 254.437 589.531 262.141C592.821 266.98 603.482 313.287 610.674 345.734L692.727 345.846L692.726 347.028L610.935 346.918C614.56 363.288 617.248 375.877 617.562 377.352L617.714 378.067H612.681L612.58 377.601C612.514 377.29 609.623 363.973 605.807 346.911L539.191 346.822H534.468L534.413 346.291L525.358 260.17L525.38 260.077C525.455 259.736 525.873 258.942 528.03 258.348C526.614 257.951 523.979 257.99 521.032 258.033C519.946 258.049 518.788 258.067 517.571 258.067C515.201 258.067 512.861 257.773 510.796 257.513C506.522 256.975 503.88 256.737 503.439 258.5C502.756 261.247 504.498 345.597 505.516 389.815L505.529 390.376L500.52 390.764ZM379.687 365.247C377.636 366.703 375.362 367.652 372.956 367.995C369.262 368.523 366.411 371.507 366.063 373.963C365.933 374.881 366.094 376.118 367.6 376.795C371.569 378.581 380.399 380.285 391.168 380.052C399.291 379.879 403.212 374.064 407.004 368.44C407.868 367.159 408.762 365.834 409.678 364.625C412.885 360.398 415.935 358.071 418.494 357.896C419.685 357.812 420.761 358.213 421.597 359.049C423.193 360.646 422.345 364.84 421.449 369.281C420.957 371.716 420.448 374.236 420.448 376.011C420.448 377.921 420.973 378.543 421.164 378.553C421.168 378.553 421.172 378.553 421.175 378.553C421.612 378.553 422.932 377.075 423.459 372.198C424.286 364.538 426.247 358.683 428.323 352.486L428.781 351.12C430.734 345.259 428.968 342.415 426.731 338.816C426.551 338.527 426.369 338.236 426.189 337.939C425.841 337.37 425.41 337.096 424.833 337.078C424.788 337.076 424.741 337.078 424.694 337.078C424.086 339.068 423.675 340.917 423.327 342.488C422.57 345.896 422.071 348.148 420.298 348.148C419.796 348.148 419.389 347.981 419.089 347.652C418.316 346.803 418.477 345.084 418.721 342.48C418.764 342.015 418.809 341.53 418.853 341.028C417.515 342.427 416.19 344.059 415.047 345.69C413.71 347.601 401.741 364.421 393.543 366.656C388.494 368.034 382.13 367.033 379.687 365.247ZM613.633 376.888H616.248C615.609 373.904 613.052 361.999 609.712 346.921L607.017 346.917C610.427 362.174 613.089 374.383 613.633 376.888ZM185.649 245.64C187.063 245.64 188.592 245.81 190.268 245.996C190.686 246.042 191.114 246.09 191.553 246.136C196.621 246.67 203.561 249.524 207.642 254.701C210.229 257.983 211.32 261.818 210.797 265.79C210.255 269.91 207.99 283.927 205.368 300.158C200.817 328.328 195.153 363.385 195.014 368.088C194.912 371.596 195.654 373.008 196.382 373.16C196.955 373.287 197.727 372.667 198.065 371.822C198.854 369.85 208.129 313.265 210.504 286.25C212.918 258.792 216.302 254.684 220.151 252.419C222.988 250.75 229.684 249.388 236.774 247.946C239.245 247.444 241.799 246.923 244.145 246.396C249.533 245.184 252.897 245.119 254.934 246.203C255.194 245.911 255.519 245.71 255.924 245.588C257.603 245.084 279.658 240.207 288.548 242.653C294.351 244.248 296.345 253.4 296.97 263.492C297.279 266.469 297.579 269.712 297.875 272.916C298.518 279.873 299.125 286.444 299.781 290.102C300.558 294.433 302.005 306.913 303.158 319.2C305.078 333.59 307.549 351.09 308.058 354.68L310.867 353.939C310.209 347.259 303.204 276.532 299.451 256.097C295.811 236.282 281.593 238.781 272.184 240.436C271.634 240.533 271.106 240.626 270.603 240.709C261.224 242.272 218.669 247.482 209.623 247.482C199.32 247.482 194.983 234.739 193.157 224.048C192.75 221.665 192.459 219.565 192.202 217.711C191.162 210.207 190.772 207.4 186.066 207.187C179.077 206.869 172.004 199.752 170.808 194.07C169.546 188.073 164.589 162.332 162.567 149.334C162.274 147.444 162.051 145.853 161.864 144.509C160.89 137.535 160.89 137.535 156.129 136.176C155.622 136.031 155.066 135.873 154.455 135.691L153.146 135.3C150.701 134.566 148.909 134.028 147.892 134.137C148.306 135.96 148.734 137.755 149.15 139.504C150.029 143.197 150.86 146.685 151.382 149.73C154.192 166.121 166.291 225.388 173.169 229.621C179.462 233.494 182.824 239.858 182.374 242.538C182.259 243.217 181.875 243.677 181.317 243.801C179.72 244.156 178.865 245.657 175.262 251.974L174.424 253.442C170.347 260.577 161.101 310.221 157.509 331.772C156.458 338.076 156.258 340.763 156.275 341.907C156.356 341.75 156.437 341.582 156.508 341.416C156.959 339.02 169.405 273.139 173.719 258.906C177.091 247.777 180.634 245.64 185.649 245.64ZM380.657 364.504C382.746 365.802 388.285 366.864 393.232 365.515C399.563 363.788 409.314 351.815 414.078 345.012C415.255 343.329 417.052 341.081 418.978 339.238C419.017 338.515 419.043 337.759 419.043 336.969C419.043 333.506 418.398 332.424 418.017 332.331C417.769 332.268 416.373 332.311 412.88 339.007C406.732 350.793 396.754 348.84 392.751 347.454C391.709 347.094 390.788 346.728 389.975 346.405C389.941 346.392 389.907 346.378 389.872 346.364C389.335 348.391 388.847 350.194 388.441 351.683C386.948 357.164 384.18 361.619 380.657 364.504ZM386.807 345.416C386.615 345.416 386.462 345.452 386.35 345.532C385.927 345.829 385.748 346.95 385.816 348.86C386.034 354.98 383.1 360.722 380.089 363.232C379.858 363.423 379.817 363.553 379.832 363.652C383.203 360.925 385.86 356.653 387.301 351.372C387.715 349.854 388.212 348.009 388.762 345.933C387.946 345.627 387.269 345.416 386.807 345.416ZM316.306 329.914C315.777 329.914 315.297 330.079 314.849 330.414C313.311 331.566 312.21 334.696 311.83 339.001C311.424 343.601 313.725 349.696 316.563 351.542C318.936 353.084 323.95 352.993 332.259 352.843C333.642 352.817 335.112 352.79 336.675 352.77C347.79 352.622 359.623 350.192 361.024 347.771C361.531 346.897 361.752 345.401 360.856 343.821C360.841 343.794 360.825 343.766 360.807 343.737H359.012L358.86 343.632C358.836 343.617 356.206 341.894 349.331 341.894C342.904 341.894 336.413 338.544 331.672 336.099C330.967 335.734 330.292 335.386 329.654 335.068C325.261 332.871 320.67 330.733 316.862 329.971C316.669 329.932 316.485 329.914 316.306 329.914ZM287.624 328.295C287.372 328.389 287.139 328.504 286.925 328.64C285.153 329.764 284.672 332.357 284.163 335.101C284.015 335.899 283.861 336.726 283.672 337.544L283.617 337.784C282.329 343.359 281.682 346.157 288.628 349.221C293.042 351.168 298.478 353.168 301.366 351.331C302.838 350.396 303.616 348.454 303.68 345.559C303.785 340.823 303.006 330.24 301.997 319.475C300.752 310.143 299.734 302.082 299.621 299.874C297.343 302.578 290.193 320.616 288.733 325.237C288.542 325.844 288.459 326.386 288.486 326.871C289.825 326.684 291.449 326.845 293.392 327.353C296.766 328.237 300.7 329.654 300.285 331.389C299.959 332.753 297.409 332.707 295.322 332.254C291.489 331.42 288.894 330.526 287.804 328.648C287.738 328.532 287.677 328.414 287.624 328.295ZM390.177 345.213C390.254 345.244 390.332 345.274 390.412 345.306C391.214 345.623 392.122 345.984 393.139 346.336C397.751 347.933 406.313 349.033 411.831 338.459C415.507 331.415 417.285 330.931 418.298 331.18C419.596 331.499 420.227 333.392 420.227 336.969C420.227 337.364 420.219 337.754 420.208 338.136C421.427 337.124 422.657 336.346 423.78 336.038C423.961 335.48 424.158 334.912 424.375 334.335C425.989 330.03 428.223 327.279 430.018 325.069C431.195 323.621 432.122 322.478 432.534 321.329C433.795 317.8 433.206 314.982 430.688 312.462C429.294 311.069 428.478 310.556 427.875 310.685C426.719 310.935 425.518 313.775 424.6 316.22C423.118 320.176 421.401 320.953 419.581 321.776C418.08 322.455 416.528 323.158 414.852 326.018C411.157 332.321 406.767 335.402 402.147 334.91C400.354 334.719 396.654 335.001 392.67 335.484C391.805 338.966 390.947 342.288 390.177 345.213ZM420.133 339.768C420.067 340.798 419.977 341.75 419.899 342.591C419.715 344.546 419.542 346.392 419.964 346.856C419.994 346.888 420.063 346.965 420.297 346.965C421.119 346.965 421.608 344.771 422.171 342.231C422.483 340.826 422.843 339.202 423.35 337.447C422.381 337.894 421.272 338.716 420.133 339.768ZM606.753 345.733L609.448 345.736C602.273 313.395 591.696 267.437 588.549 262.811C583.626 255.57 576.586 254.563 563.621 255.128C548.149 255.802 547.806 254.571 547.643 253.98C547.573 253.73 547.567 253.249 548.313 252.841C549.971 251.937 566.466 251.398 569.755 251.299L569.786 251.298L569.816 251.3C570.053 251.317 593.61 252.901 596.11 242.342C597.883 234.857 598.058 221.965 597.894 212.056C597.137 222.218 595.587 235.581 592.17 240.465C587.198 247.568 580.696 248.196 572.465 248.992C570.178 249.213 567.814 249.441 565.305 249.827C553.499 251.644 534.369 253.363 531.391 253.363C530.979 253.363 530.798 253.507 530.686 253.633C530.165 254.215 530.086 255.731 530.227 257.923C531.564 257.743 533.268 257.63 535.439 257.63C544.816 257.63 566.776 257.63 571.641 257.851C572.148 257.874 572.693 257.857 573.269 257.838C578.194 257.689 584.929 257.48 591.079 279.672C594.876 293.38 601.61 322.754 606.753 345.733ZM539.718 345.642L605.539 345.731C600.407 322.806 593.716 293.622 589.938 279.989C584.037 258.694 577.839 258.882 573.306 259.023C572.707 259.041 572.139 259.06 571.587 259.034C566.748 258.815 544.807 258.815 535.439 258.815C533.24 258.815 531.575 258.934 530.317 259.106C530.436 260.478 530.614 262.053 530.808 263.785C531.039 265.826 531.3 268.14 531.539 270.733C532.576 281.929 539.028 339.507 539.718 345.642ZM535.53 345.642H538.527C537.576 337.169 529.112 261.671 529.112 259.326C529.112 259.321 529.112 259.315 529.112 259.311C527.305 259.684 526.722 260.163 526.562 260.339L535.53 345.642ZM359.365 342.554H359.865C358.479 341.203 355.766 339.759 350.497 339.688C343.306 339.59 340.306 337.997 336.832 336.154C334.982 335.173 332.886 334.059 329.874 333.039C321.338 330.145 313.966 327.646 315.508 315.93C316.107 311.377 316.114 307.917 315.69 304.64C313.454 304.242 311.637 303.867 310.667 303.643C306.79 302.748 305.782 289.149 304.945 272.809L304.915 272.215C304.346 261.119 304.499 249.835 309.426 242.444C311.129 239.89 311.879 239.203 312.632 239.491C313.623 239.874 313.434 241.427 312.551 247.305C312.2 249.648 311.761 252.564 311.388 255.782C309.882 268.734 309.668 277.829 312.839 288.785C313.23 290.134 313.603 291.387 313.954 292.57C315.226 296.843 316.219 300.178 316.748 303.633C323.035 304.715 331.488 305.746 334.404 304.578C338.454 302.958 340.036 296.077 340.917 276.261C341.772 257.017 352.813 225.626 353.452 223.829C353.519 222.764 354.128 210.833 348.209 205.721C341.34 199.789 322.431 200.561 316.217 200.816C311.22 201.02 310.18 200.399 309.834 199.836C309.643 199.525 309.642 199.154 309.83 198.818C310.291 197.993 312.025 197.328 313.154 197.328C313.572 197.328 314.624 197.375 316.078 197.438C320.052 197.61 331.949 198.123 333.608 197.383C333.616 197.192 333.595 196.945 333.458 196.648C333.392 196.63 333.324 196.613 333.255 196.597C332.288 196.374 330.412 195.869 327.814 195.17C322.744 193.804 315.082 191.741 307.448 189.979C301.45 188.597 299.496 188.39 295.878 188.476C296.511 188.722 297.131 188.996 297.736 189.305C298.796 189.847 299.753 190.315 300.602 190.729C303.504 192.147 305.103 192.928 305.479 194.056C305.601 194.42 305.554 194.772 305.349 195.059C306.357 195.501 307.148 195.961 307.676 196.459C308.638 197.364 308.961 198.491 308.52 199.399C308.296 199.864 307.751 200.5 306.441 200.742C307.025 201.111 307.545 201.468 308.008 201.803C309.421 202.821 309.211 203.843 309.055 204.237C308.4 205.887 305.168 206.58 300.821 206.006C298.897 205.751 296.845 205.588 294.824 205.481C297.241 207.165 299.036 209.211 299.231 210.839C299.317 211.552 299.142 212.095 298.716 212.456C297.547 213.442 294.931 212.667 290.179 211.26L289.05 210.926C283.321 209.234 279.864 208.214 275.095 209.71C269.911 211.337 259.422 210.389 256.927 209.507C256.864 209.485 256.803 209.46 256.744 209.431C248.626 212.676 227.231 212.186 215.756 210.946C195.92 208.802 184.748 206.237 180.596 202.877C176.069 199.213 170.839 192.569 166.045 159.93C160.871 124.696 161.413 106.677 167.917 97.7345C170.845 93.7096 176.467 91.9333 182.954 92.9827C190.499 94.2033 199.397 99.4725 202.267 108.491C205.644 119.107 204.525 127.582 203.442 135.778C203.028 138.914 202.637 141.876 202.515 144.87C202.073 155.723 201.86 169.567 202.291 173.006C202.456 174.326 202.084 175.854 201.291 177.28C202.001 177.442 202.712 177.685 203.412 178.025C204.859 178.727 205.819 179.217 206.538 179.584C208.616 180.644 208.616 180.644 212.829 181.881C213.961 182.213 215.393 182.633 217.244 183.185C223.967 185.19 233.222 186.211 240.696 186.668C238.512 185.452 236.156 182.528 234.057 175.59C232.996 172.078 232.267 169.261 231.562 166.535C229.761 159.583 228.339 154.09 222.622 142.445C214.712 126.331 206.195 104.19 205.746 98.5701C205.577 96.4544 205.273 94.4468 204.801 92.441C204.36 93.5899 203.749 94.544 202.913 94.7292C201.587 95.0243 200.627 93.4017 200.312 92.8685C199.652 91.7512 199.052 90.598 198.417 89.3768C196.29 85.2857 193.879 80.648 188.046 75.264C182.04 69.7197 175.212 67.1977 171.838 67.6344C170.865 67.7613 170.188 68.1117 169.829 68.6764C169.433 69.2989 169.146 69.8497 168.868 70.3816C167.696 72.6303 166.683 74.5717 158.795 80.3091C150.564 86.2949 146.249 96.1556 145.214 111.341C144.743 118.248 146.042 125.803 147.632 132.976C148.904 132.792 150.734 133.341 153.488 134.168L154.792 134.558C155.399 134.738 155.951 134.896 156.454 135.039C161.956 136.61 161.996 136.9 163.036 144.345C163.223 145.686 163.444 147.27 163.737 149.153C165.756 162.132 170.706 187.838 171.967 193.827C173.071 199.07 179.819 205.718 186.121 206.006C191.81 206.264 192.332 210.036 193.375 217.55C193.631 219.394 193.92 221.485 194.325 223.85C195.756 232.235 199.648 246.299 209.624 246.299C218.626 246.299 261.053 241.102 270.409 239.543C270.908 239.46 271.434 239.367 271.98 239.271C281.25 237.641 296.764 234.914 300.616 255.884C303.477 271.461 308.216 316.125 310.612 339.564C310.62 339.34 310.634 339.119 310.653 338.899C310.894 336.172 311.667 331.321 314.141 329.469C315.013 328.815 316.006 328.594 317.093 328.811C320.819 329.557 325.021 331.429 330.184 334.01C330.826 334.331 331.505 334.682 332.215 335.049C337.105 337.572 343.191 340.713 349.332 340.713C355.731 340.711 358.659 342.145 359.365 342.554ZM269.025 321.561C265.919 323.912 264.717 328.66 264.701 328.728L264.651 328.862C264.623 328.915 261.905 334.18 263.104 337.526C263.475 338.561 264.174 339.284 265.239 339.734C268.383 341.063 271.872 341.035 274.811 339.652C278.577 337.882 281.475 333.92 283.191 328.198C284.253 324.66 285.641 320.643 287.112 316.388C291.184 304.608 295.8 291.254 295.96 281.154L295.967 280.704C296.048 275.641 296.15 269.247 295.75 263.197C295.203 257.967 294.631 253.657 294.014 252.037C293.799 251.474 293.595 250.863 293.391 250.253C292.885 248.745 292.122 246.466 291.463 246.465H291.462C290.989 246.465 289.56 247.437 286.525 256.427C283.996 263.92 281.475 274.253 279.04 284.247C275.984 296.783 273.097 308.624 270.597 313C268.733 316.264 267.545 318.476 268.008 319.475C268.141 319.762 268.434 320.003 268.883 320.221C270.247 319.35 271.911 318.875 273.921 319.18C276.706 319.602 280.127 320.539 280.601 321.789C280.719 322.101 280.667 322.424 280.458 322.674C280.24 322.936 279.579 323.728 274.387 322.773C272.048 322.342 270.277 322.015 269.025 321.561ZM255.365 248.048C255.123 249.144 255.067 251.019 255.067 254.096C255.067 260.396 256.347 324.609 256.556 328.779C256.649 330.656 257.277 331.441 257.514 331.441C257.515 331.441 257.516 331.441 257.517 331.441C257.829 331.433 258.682 330.272 258.682 326.603C258.682 320.241 257.007 254.014 256.266 250.174C256.092 249.269 255.799 248.574 255.365 248.048ZM288.809 328.02C288.816 328.031 288.822 328.042 288.829 328.054C289.698 329.552 292.154 330.354 295.574 331.097C297.741 331.569 298.881 331.29 299.117 331.109C298.955 330.76 297.624 329.685 293.093 328.498C291.373 328.048 289.955 327.889 288.809 328.02ZM270.418 320.746C271.481 321.026 272.879 321.291 274.601 321.609C277.447 322.132 278.714 322.078 279.239 321.988C278.621 321.57 276.919 320.83 273.743 320.349C272.487 320.159 271.382 320.335 270.418 320.746ZM312.118 240.836C311.835 241.117 311.319 241.737 310.41 243.101C305.674 250.204 305.538 261.263 306.097 272.155L306.127 272.75C306.609 282.154 307.61 301.724 310.933 302.492C312.036 302.746 313.641 303.076 315.509 303.414C314.976 300.153 314.026 296.96 312.82 292.907C312.467 291.723 312.094 290.465 311.702 289.115C308.475 277.966 308.689 268.752 310.212 255.647C310.589 252.409 311.028 249.482 311.381 247.131C311.787 244.42 312.175 241.841 312.118 240.836ZM407.475 256.113C406.686 257.755 405.698 260.17 404.838 262.27C403.279 266.081 401.509 270.401 399.856 273.294L399.56 273.813C395.497 280.919 391.989 287.057 394.228 289.109C396.016 290.748 397.568 291.647 399.07 292.516C399.625 292.837 400.154 293.143 400.675 293.476C402.288 290.64 406.039 267.488 407.475 256.113ZM412.329 252.516C412.552 252.598 412.941 252.709 413.374 252.832C414.774 253.228 417.379 253.966 421.901 255.752C425.667 257.238 428.978 258.831 431.9 260.236C433.562 261.035 435.109 261.78 436.466 262.362C435.356 261.175 433.761 260.259 431.996 259.326C422.084 254.078 414.364 250.972 412.77 251.59C412.747 251.599 412.692 251.623 412.683 251.647C412.58 251.939 412.479 252.173 412.396 252.363C412.374 252.411 412.351 252.465 412.329 252.516ZM521.208 198.019C520.749 198.019 520.235 198.033 519.662 198.069C511.224 198.58 482.864 200.638 472.231 205.66C465.86 208.668 460.39 220.463 457.149 228.993C460.854 222.255 464.912 215.319 467.366 211.567C472.464 203.77 493.793 201.004 510.508 201.004C520.423 201.004 524.333 199.265 524.67 198.606C524.495 198.431 523.6 198.019 521.208 198.019ZM279.65 207.79C282.612 207.79 285.493 208.641 289.386 209.79L290.516 210.124C293.99 211.154 297.271 212.129 297.952 211.551C298.056 211.464 298.091 211.271 298.056 210.98C297.874 209.464 295.493 207.066 292.43 205.377C289.993 205.294 287.7 205.279 285.851 205.266C284.672 205.257 283.702 205.25 283.034 205.227C282.739 205.217 281.84 205.186 281.569 204.568C281.505 204.42 281.394 204.031 281.761 203.605C282.599 202.633 285.758 201.816 288.993 202.692C290.254 203.034 291.532 203.561 292.737 204.204C295.447 204.301 298.324 204.483 300.975 204.833C305.521 205.435 307.668 204.519 307.954 203.8C308.115 203.394 307.562 202.94 307.316 202.762C306.431 202.126 305.402 201.443 304.163 200.777C303.999 200.759 303.829 200.738 303.653 200.712C301.616 200.408 291.325 198.853 288.666 198.046C287.66 197.739 286.655 197.322 286.828 196.549C286.947 196.013 287.099 195.346 293.727 196.306C298.485 196.994 301.944 198.293 304.49 199.62C306.318 199.789 307.22 199.368 307.454 198.884C307.658 198.465 307.426 197.851 306.864 197.322C306.283 196.776 305.254 196.255 303.9 195.747C302.195 196 299.595 195.501 298.316 195.213C296.953 194.907 295.433 194.614 293.964 194.331C290.609 193.684 288.681 193.297 288.091 192.854C287.654 192.527 287.639 192.116 287.77 191.841C288.425 190.464 293.816 191.692 295.452 192.101C298.821 192.943 301.78 193.715 304.018 194.531C304.174 194.494 304.282 194.451 304.344 194.408C304.065 193.739 302.386 192.919 300.081 191.792C299.227 191.375 298.263 190.904 297.196 190.36C295.671 189.58 294.016 189.025 292.333 188.601C289.166 188.719 284.852 188.854 277.853 188.807C268.1 188.742 262.84 189.254 259.986 190.213C261.899 194.814 261.353 203.305 259.82 207.053C259.576 207.651 259.058 208.182 258.312 208.653C261.755 209.375 270.38 209.949 274.74 208.582C276.506 208.027 278.089 207.79 279.65 207.79ZM179.37 93.8687C174.813 93.8687 171.019 95.4804 168.874 98.4298C162.572 107.095 162.091 124.863 167.216 159.758C171.723 190.443 176.668 198.174 181.341 201.956C185.253 205.123 196.552 207.679 215.884 209.768C230.624 211.362 248.781 210.998 255.83 208.549C254.625 206.545 254.922 202.059 255.191 198.011C255.261 196.949 255.328 195.946 255.355 195.105C255.436 192.698 255.726 190.845 258.354 189.584C258.062 189.143 257.73 188.798 257.356 188.572C257.19 188.472 257.003 188.377 256.799 188.286C255.833 188.274 254.952 188.252 254.081 188.23C252.76 188.198 251.513 188.167 250.016 188.167C243.027 188.167 227.112 187.363 216.905 184.318C215.056 183.767 213.626 183.347 212.495 183.015C208.217 181.759 208.155 181.736 205.999 180.637C205.285 180.272 204.331 179.786 202.895 179.088C202.151 178.727 201.379 178.486 200.602 178.345C200.43 178.579 200.247 178.806 200.053 179.026C198.224 181.096 195.71 182.284 193.153 182.284C191.975 182.284 191.256 181.97 191.014 181.35C190.854 180.943 190.859 180.277 191.786 179.42C193.115 178.192 196.452 176.702 200.042 177.072C200.864 175.762 201.266 174.341 201.117 173.151C200.674 169.605 200.878 155.961 201.333 144.82C201.457 141.772 201.852 138.785 202.27 135.622C203.335 127.554 204.437 119.212 201.14 108.848C198.423 100.307 189.954 95.3116 182.766 94.1493C181.597 93.961 180.462 93.8687 179.37 93.8687ZM258.909 190.647C256.65 191.752 256.599 193.3 256.538 195.144C256.51 196.005 256.442 197.017 256.371 198.089C256.152 201.401 255.797 206.742 256.934 208.107C257.879 207.663 258.498 207.162 258.726 206.603C260.309 202.735 260.592 194.666 258.909 190.647ZM283.187 204.048C283.841 204.067 284.758 204.073 285.859 204.082C286.975 204.09 288.251 204.098 289.624 204.122C289.312 204.015 288.999 203.918 288.684 203.833C286.21 203.163 284.135 203.628 283.187 204.048ZM289.394 197.019C291.229 197.501 295.487 198.242 299.863 198.932C298.083 198.338 296.007 197.829 293.558 197.474C291.57 197.187 290.257 197.064 289.394 197.019ZM334.239 195.65C334.452 195.723 334.648 195.799 334.833 195.87C336.449 196.497 337.337 196.841 342.367 189.354C345.699 184.395 352.831 174.736 359.122 166.215C364.639 158.743 369.849 151.686 370.881 149.966C371.535 148.877 371.742 148.18 371.534 147.772C370.947 146.625 366.691 146.179 361.192 145.714C350.852 144.839 340.814 143.371 340.714 143.356L340.545 143.305C340.445 143.26 337.907 142.177 335.584 146.436C333.954 149.426 325.707 160.146 318.431 169.605C313.872 175.531 309.935 180.649 308.792 182.364C307.918 183.675 307.641 184.547 307.893 185.192C308.557 186.89 313.265 188.138 320.939 189.99C329.702 192.106 333.073 193.99 334.239 195.65ZM290.484 192.414C291.557 192.66 292.956 192.93 294.19 193.167C295.186 193.359 296.205 193.556 297.186 193.758C296.529 193.59 295.854 193.419 295.167 193.248C293.028 192.713 291.51 192.489 290.484 192.414ZM258.842 188.298C259.063 188.546 259.266 188.827 259.453 189.139C260.578 188.753 262.014 188.441 263.85 188.2C261.863 188.267 260.243 188.295 258.842 188.298ZM280.775 186.783C278.703 186.783 276.254 187.069 273.55 187.384C272.671 187.487 271.754 187.594 270.807 187.695C272.871 187.629 275.208 187.604 277.863 187.622C281.591 187.647 284.557 187.621 286.99 187.572C286.739 187.533 286.489 187.494 286.242 187.456C285.242 187.301 284.269 187.15 283.342 186.982C282.57 186.841 281.711 186.783 280.775 186.783ZM254.387 179.573C253.147 179.573 251.89 179.632 250.639 179.758C249.353 179.888 248.17 179.987 247.097 180.079C243.715 180.365 241.042 180.591 240.612 181.388C240.466 181.659 240.572 182.129 240.927 182.783C241.856 184.495 246.214 185.113 250.059 185.657C250.807 185.763 251.544 185.868 252.258 185.979C252.683 185.951 253.11 185.923 253.535 185.896C256.183 185.724 258.684 185.562 259.771 185.562C261.269 185.562 262.366 185.041 262.635 184.754C262.63 184.751 262.624 184.748 262.619 184.744C262.25 184.513 261.577 184.23 260.926 183.957C259.383 183.309 258.608 182.983 258.668 182.305C258.687 182.102 258.809 181.741 259.421 181.605C260.382 181.391 261.694 181.941 263.358 182.636C264.402 183.072 265.586 183.567 266.765 183.891C268.702 184.424 269.371 184.424 269.597 184.379C269.555 184.232 269.405 183.885 268.867 183.214C267.335 181.3 261.133 179.573 254.387 179.573ZM474.041 172.814C474.548 174.315 485.822 180.242 492.4 182.981C494.828 182.363 497.416 176.858 497.416 175.419C497.416 174.214 492.954 170.422 485.213 170.422C477.886 170.422 474.333 171.182 474.041 172.814ZM192.12 180.934C192.137 180.934 192.349 181.102 193.152 181.102C195.369 181.102 197.561 180.06 199.164 178.244C199.177 178.229 199.191 178.213 199.204 178.198C196.915 178.116 194.723 178.816 193.251 179.78C192.397 180.34 192.117 180.804 192.119 180.934L192.12 180.934ZM511.539 124.27C512.228 125.572 512.027 126.924 510.632 129.432C509.446 131.569 507.368 133.472 505.358 135.314C503.102 137.381 500.97 139.334 500.284 141.391C499.35 144.194 501.891 146.805 504.133 149.109C504.858 149.854 505.542 150.557 506.071 151.229C506.243 151.449 506.338 151.477 506.339 151.478C506.958 151.28 507.903 147.776 508.595 145.217C509.251 142.782 509.996 140.022 510.937 137.65C512.093 134.737 513.984 131.326 515.764 128.379C515.871 127.99 515.935 127.713 515.946 127.575C516.069 126.111 515.778 124.045 513.686 122.513C513.313 122.239 513.017 122.111 512.854 122.151C512.505 122.239 512.068 123.155 511.607 124.125C511.586 124.172 511.562 124.221 511.539 124.27ZM485.737 124.545C485.749 124.589 485.779 124.676 485.865 124.815C487.428 127.354 489.719 130.268 493.595 130.268C496.861 130.268 497.603 131.21 498.465 132.3C498.884 132.832 499.36 133.435 500.254 134.048C500.636 134.309 501.068 134.384 501.582 134.276C503.835 133.797 506.879 129.986 508.976 126.579C509.474 125.769 509.869 125.002 510.199 124.326C509.85 123.857 509.34 123.348 508.682 122.69C508.276 122.286 507.825 121.835 507.333 121.314C505.428 119.298 504.89 117.488 504.368 115.737C503.941 114.304 503.538 112.949 502.393 111.466L502.067 111.041C501.406 110.18 500.584 109.109 500.275 109.072C499.874 109.287 499.347 111.421 498.74 115.409C498.204 118.935 496.881 121.042 495.135 122.268C494.212 123.161 493.079 123.744 491.776 123.945C490.54 124.134 489.346 124.189 488.293 124.237C487.335 124.28 486.039 124.339 485.737 124.545ZM479.524 105.378C477.926 105.378 476.774 105.474 476.05 105.809C474.67 106.445 474.137 109.741 474.625 114.624C475.037 118.739 478.87 121.764 484.392 122.33L484.655 122.358C488.221 122.725 491.864 123.099 494.41 121.319C496.25 119.461 497.095 116.05 496.539 111.969L496.386 110.824C495.697 105.57 495.697 105.57 489.184 105.57C486.692 105.57 484.545 105.504 482.822 105.451C481.566 105.412 480.467 105.378 479.524 105.378ZM570.372 8.45737C565.959 8.45737 562.226 9.76783 559.376 12.3535C555.396 15.9625 553.465 21.9021 554.333 27.8521C555.84 38.184 564.881 61.1707 573.807 70.5432C580.904 77.9943 593.797 84.1616 602.33 88.243C604.313 89.1916 606.028 90.012 607.398 90.7176C611.8 92.9845 614.249 99.2685 615.565 103.972C614.332 95.8168 610.694 90.6532 606.932 85.3148C605.799 83.708 604.627 82.0453 603.538 80.3085C597.571 70.7988 597.503 63.9635 597.391 52.6393C597.37 50.41 597.345 47.8832 597.271 45.1584C596.866 30.1427 594.93 13.7515 576.988 9.32089C574.647 8.74399 572.435 8.45737 570.372 8.45737ZM580.603 82.2008C580.54 82.2008 580.479 82.2123 580.427 82.2342C580.099 82.372 579.836 82.757 579.603 83.0977C576.837 87.1372 573.871 91.0565 570.729 94.8312C571.041 94.731 571.351 94.5907 571.671 94.4013C573.481 93.3288 574.772 91.4421 575.91 89.777L580.634 82.8669C580.714 82.7516 580.923 82.4461 580.891 82.3143C580.883 82.284 580.838 82.2578 580.818 82.2481C580.758 82.2172 580.68 82.2008 580.603 82.2008ZM203.177 84.0286C203.73 85.2917 204.215 86.5117 204.637 87.7074C204.639 87.6904 204.641 87.6734 204.643 87.6564C204.718 86.9089 204.007 85.5802 203.255 84.1744C203.229 84.1252 203.203 84.0772 203.177 84.0286ZM177.484 50.7282C177.471 51.6676 177.362 52.5761 177.128 53.4554C175.202 60.7316 175.513 62.1174 184.031 65.0984C192.224 67.9665 197.631 72.7457 201.56 80.5946C201.137 79.4019 200.913 78.194 201.119 77.0238C201.443 75.1857 202.005 74.0896 202.414 73.2892C202.856 72.4257 203.039 72.0686 202.753 71.3812C202.499 70.7709 201.313 69.8157 200.36 69.0475C198.745 67.7455 197.836 66.9688 197.955 66.135C197.985 65.9249 198.117 65.5393 198.66 65.3134C199.707 64.878 201.073 65.6644 203.142 66.8547C205.495 68.2082 208.719 70.0616 212.825 70.8668C215.877 71.465 218.062 71.1899 219.315 70.0489C220.582 68.8969 220.604 67.0581 220.505 66.0652C220.315 64.1712 220.758 63.1388 221.149 62.2279C221.406 61.6316 221.627 61.1154 221.679 60.3764C221.802 58.6542 220.161 57.3704 220.144 57.3571L219.291 56.7006L220.303 56.332C220.62 56.2142 221.531 55.7381 221.531 55.1236C221.531 53.9449 221.672 51.3762 221.678 51.2669L221.717 50.5801L222.39 50.7209C222.409 50.7246 224.515 51.1369 226.041 50.0366C227.182 49.2119 225.652 44.3574 224.098 41.377L223.918 41.0345C222.825 38.9467 222.223 37.7978 223.023 36.3137C223.536 35.3621 223.056 30.3455 222.196 27.6565C221.435 25.2785 221.533 24.4818 221.61 24.2504L221.717 23.9304L222.048 23.8593C222.195 23.8259 225.72 22.9994 225.894 18.9223C226.062 14.9642 220.911 6.27243 207.741 3.14746C195.181 0.167021 184.357 1.09856 180.997 2.66651C178.082 4.02739 177.814 5.66517 177.804 5.7344L177.747 6.1273L177.36 6.23356C177.056 6.31251 169.835 8.32619 169.205 21.3495C168.65 32.8347 170.107 37.6399 171.796 43.2043C172.1 44.2044 172.409 45.2252 172.714 46.3067C173.41 48.7801 175.007 49.4548 176.266 49.5726C176.094 47.0112 175.279 44.1534 174.384 41.0078C172.828 35.5485 171.066 29.3605 171.776 22.145C173.043 9.26683 178.888 6.95197 179.828 6.66169C184.74 3.31447 204.836 2.47827 214.601 8.91524C220.467 12.7811 223.504 16.8613 222.528 19.5623C221.995 21.0368 220.33 21.7303 217.96 21.4679C215.108 21.1509 213.713 19.7148 212.365 18.3266C210.788 16.7028 209.296 15.1676 205.282 15.5137C201.245 15.8593 201.149 18.1565 201.328 22.527C201.427 24.9463 201.539 27.6893 200.481 30.156C198.043 35.8455 196.481 35.5267 191.912 33.6587C191.34 33.4243 190.712 33.168 190.02 32.9021C188.901 32.4721 188.042 32.4612 187.393 32.8687C185.716 33.9216 185.404 37.7377 185.127 41.1043C185.047 42.082 184.97 43.0069 184.864 43.8899C184.43 47.5134 180.691 50.3365 177.484 50.7282ZM193.823 5.21033C187.811 5.21033 182.529 6.18499 180.43 7.68493L180.337 7.75172L180.225 7.77844C180.168 7.79302 174.213 9.46723 172.954 22.261C172.266 29.253 173.996 35.3256 175.522 40.6835C176.442 43.9123 177.279 46.849 177.453 49.5392C180.183 49.1524 183.336 46.696 183.69 43.749C183.793 42.8879 183.868 41.9745 183.948 41.0072C184.262 37.1857 184.586 33.2348 186.764 31.8661C187.738 31.2552 188.977 31.2315 190.445 31.7968C191.146 32.0659 191.78 32.3264 192.36 32.5632C196.446 34.2332 197.298 34.5818 199.394 29.6903C200.346 27.4695 200.244 24.9816 200.146 22.5756C199.989 18.7498 199.828 14.7935 205.182 14.3344C209.755 13.9446 211.594 15.8338 213.214 17.5019C214.472 18.7978 215.66 20.0214 218.091 20.2917C219.874 20.4908 221.084 20.0779 221.416 19.1609C222.026 17.474 219.949 13.8583 213.95 9.90386C208.842 6.53659 200.835 5.21033 193.823 5.21033Z" fill="white"/>
</svg>
