<svg width="14" height="14" viewBox="0 0 14 14" fill="none" xmlns="http://www.w3.org/2000/svg">
<g clip-path="url(#clip0_89_617)">
<path d="M4.17068 0H9.82932C12.129 0 14 1.87096 14 4.17068V9.82932C14 12.129 12.129 14 9.82932 14H4.17068C1.87096 14 0 12.129 0 9.82932V4.17068C2.47955e-05 1.87096 1.87098 0 4.17068 0ZM1.4084 9.82932C1.4084 11.3549 2.64513 12.5916 4.17068 12.5916H9.82932C11.3549 12.5916 12.5916 11.3549 12.5916 9.82932V4.17068C12.5916 2.6451 11.3549 1.4084 9.82932 1.4084H4.17068C2.64513 1.4084 1.4084 2.6451 1.4084 4.17068V9.82932Z" fill="url(#paint0_linear_89_617)" fill-opacity="0.5"/>
<path d="M6.99995 3.37891C8.99652 3.37891 10.6208 5.00324 10.6208 6.99978C10.6208 8.99632 8.99652 10.6207 6.99995 10.6207C5.00339 10.6207 3.37905 8.99635 3.37905 6.99978C3.37905 5.00321 5.00339 3.37891 6.99995 3.37891ZM6.99995 9.2123C8.22189 9.2123 9.21245 8.22174 9.21245 6.9998C9.21245 5.77787 8.22187 4.78731 6.99995 4.78731C5.77801 4.78731 4.78745 5.77787 4.78745 6.9998C4.78745 8.22172 5.77804 9.2123 6.99995 9.2123Z" fill="url(#paint1_linear_89_617)" fill-opacity="0.5"/>
<path d="M3.3721 4.27435C2.89292 4.27435 2.50446 3.88589 2.50446 3.4067C2.50446 2.92752 2.89292 2.53906 3.3721 2.53906C3.85129 2.53906 4.23975 2.92752 4.23975 3.4067C4.23975 3.88589 3.85129 4.27435 3.3721 4.27435Z" fill="url(#paint2_linear_89_617)" fill-opacity="0.5"/>
</g>
<defs>
<linearGradient id="paint0_linear_89_617" x1="7" y1="13.9592" x2="7" y2="0.10874" gradientUnits="userSpaceOnUse">
<stop stop-color="#E09B3D"/>
<stop offset="0.3" stop-color="#C74C4D"/>
<stop offset="0.6" stop-color="#C21975"/>
<stop offset="1" stop-color="#7024C4"/>
</linearGradient>
<linearGradient id="paint1_linear_89_617" x1="6.99995" y1="13.9591" x2="6.99995" y2="0.108546" gradientUnits="userSpaceOnUse">
<stop stop-color="#E09B3D"/>
<stop offset="0.3" stop-color="#C74C4D"/>
<stop offset="0.6" stop-color="#C21975"/>
<stop offset="1" stop-color="#7024C4"/>
</linearGradient>
<linearGradient id="paint2_linear_89_617" x1="3.37211" y1="13.9597" x2="3.37211" y2="0.109158" gradientUnits="userSpaceOnUse">
<stop stop-color="#E09B3D"/>
<stop offset="0.3" stop-color="#C74C4D"/>
<stop offset="0.6" stop-color="#C21975"/>
<stop offset="1" stop-color="#7024C4"/>
</linearGradient>
<clipPath id="clip0_89_617">
<rect width="14" height="14" fill="white" transform="matrix(-1 0 0 1 14 0)"/>
</clipPath>
</defs>
</svg>
