<svg width="8" height="12" viewBox="0 0 8 12" fill="none" xmlns="http://www.w3.org/2000/svg">
<path d="M0.66691 6.46824L6.00706 11.8083C6.13057 11.9319 6.29545 12 6.47125 12C6.64706 12 6.81193 11.9319 6.93544 11.8083L7.32871 11.4151C7.58461 11.1589 7.58461 10.7425 7.32871 10.4867L2.84445 6.00249L7.33369 1.51326C7.4572 1.38965 7.52539 1.22487 7.52539 1.04916C7.52539 0.873261 7.4572 0.708482 7.33369 0.584775L6.94042 0.191706C6.81681 0.0680971 6.65203 -7.63515e-08 6.47623 -9.17207e-08C6.30043 -1.0709e-07 6.13555 0.068097 6.01204 0.191706L0.66691 5.53664C0.543106 5.66064 0.475106 5.8262 0.475497 6.00219C0.475106 6.17888 0.543106 6.34434 0.66691 6.46824Z" fill="#405DBE"/>
</svg>
