<svg width="21" height="21" viewBox="0 0 21 21" fill="none" xmlns="http://www.w3.org/2000/svg">
<path d="M16.6523 13.6172C15.4366 13.6172 14.3653 14.2152 13.6924 15.1247L7.87459 12.1457C7.97118 11.8165 8.03906 11.4753 8.03906 11.1152C8.03906 10.6269 7.93894 10.1626 7.76598 9.73563L13.8545 6.07179C14.5321 6.867 15.5281 7.38281 16.6523 7.38281C18.6879 7.38281 20.3438 5.72697 20.3438 3.69141C20.3438 1.65584 18.6879 0 16.6523 0C14.6168 0 12.9609 1.65584 12.9609 3.69141C12.9609 4.1605 13.0575 4.60548 13.2178 5.01859L7.11108 8.69318C6.43408 7.92159 5.45249 7.42383 4.34766 7.42383C2.31209 7.42383 0.65625 9.07967 0.65625 11.1152C0.65625 13.1508 2.31209 14.8066 4.34766 14.8066C5.58346 14.8066 6.67287 14.191 7.34323 13.256L13.1419 16.2253C13.0351 16.5701 12.9609 16.9292 12.9609 17.3086C12.9609 19.3442 14.6168 21 16.6523 21C18.6879 21 20.3438 19.3442 20.3438 17.3086C20.3438 15.273 18.6879 13.6172 16.6523 13.6172Z" fill="white"/>
</svg>
