<svg width="22" height="22" viewBox="0 0 22 22" fill="none" xmlns="http://www.w3.org/2000/svg">
<path fill-rule="evenodd" clip-rule="evenodd" d="M13.6264 12.2861C13.21 12.4562 12.944 13.108 12.6742 13.4411C12.5358 13.6116 12.3708 13.6383 12.1581 13.5528C10.5953 12.9302 9.39738 11.8873 8.535 10.4491C8.3889 10.2261 8.41511 10.05 8.59129 9.84285C8.85168 9.53605 9.1791 9.18758 9.24957 8.77422C9.40597 7.85984 8.21058 5.02348 6.63191 6.30867C2.08925 10.0104 14.2099 19.8284 16.3974 14.5183C17.0162 13.0131 14.3164 12.0033 13.6264 12.2861ZM11.0001 20.0784C9.39351 20.0784 7.81269 19.6513 6.42867 18.8427C6.20652 18.7125 5.93797 18.6781 5.68961 18.7455L2.68222 19.571L3.7298 17.2631C3.87246 16.949 3.83594 16.5834 3.63441 16.3041C2.51379 14.7507 1.92125 12.9168 1.92125 11C1.92125 5.99371 5.99383 1.92113 11.0001 1.92113C16.0064 1.92113 20.0786 5.99371 20.0786 11C20.0786 16.0059 16.006 20.0784 11.0001 20.0784ZM11.0001 0C4.93465 0 0.000114999 4.93453 0.000114999 11C0.000114999 13.1338 0.605974 15.183 1.75711 16.9615L0.0860525 20.6418C-0.0682053 20.9816 -0.0119162 21.3795 0.229568 21.6627C0.415193 21.8797 0.683748 22 0.960896 22C1.58051 22 4.95914 20.9382 5.81894 20.7023C7.40836 21.5527 9.19113 22 11.0001 22C17.0652 22 22.0001 17.065 22.0001 11C22.0001 4.93453 17.0652 0 11.0001 0Z" fill="#39AE41"/>
</svg>
