<svg width="8" height="12" viewBox="0 0 8 12" fill="none" xmlns="http://www.w3.org/2000/svg">
<path d="M7.33309 6.46824L1.99294 11.8083C1.86943 11.9319 1.70455 12 1.52875 12C1.35294 12 1.18807 11.9319 1.06456 11.8083L0.671291 11.4151C0.41539 11.1589 0.41539 10.7425 0.671291 10.4867L5.15555 6.00249L0.666314 1.51326C0.542803 1.38965 0.474608 1.22487 0.474608 1.04916C0.474608 0.873261 0.542803 0.708482 0.666314 0.584775L1.05958 0.191706C1.18319 0.0680971 1.34797 -7.63515e-08 1.52377 -9.17207e-08C1.69957 -1.0709e-07 1.86445 0.068097 1.98796 0.191706L7.33309 5.53664C7.45689 5.66064 7.52489 5.8262 7.5245 6.00219C7.52489 6.17888 7.45689 6.34434 7.33309 6.46824Z" fill="#405DBE"/>
</svg>
