<svg width="32" height="32" viewBox="0 0 32 32" fill="none" xmlns="http://www.w3.org/2000/svg">
<path fill-rule="evenodd" clip-rule="evenodd" d="M15.9999 26.6668C15.2635 26.6668 14.6666 26.0699 14.6666 25.3335L14.6666 6.66683C14.6666 5.93046 15.2635 5.3335 15.9999 5.3335C16.7363 5.3335 17.3333 5.93046 17.3333 6.66683L17.3333 25.3335C17.3333 26.0699 16.7363 26.6668 15.9999 26.6668Z" fill="#34BB8B"/>
<path fill-rule="evenodd" clip-rule="evenodd" d="M26.6666 15.9998C26.6666 16.7362 26.0697 17.3332 25.3333 17.3332H6.66659C5.93021 17.3332 5.33325 16.7362 5.33325 15.9998C5.33325 15.2634 5.93021 14.6665 6.66659 14.6665H25.3333C26.0697 14.6665 26.6666 15.2634 26.6666 15.9998Z" fill="#34BB8B"/>
</svg>
