<svg width="25" height="25" viewBox="0 0 25 25" fill="none" xmlns="http://www.w3.org/2000/svg">
<g clip-path="url(#clip0_89_43)">
<path d="M24.268 7.06055H19.4047V14.0688C19.4047 15.2804 18.419 16.2661 17.2075 16.2661H7.66772V21.1295C7.66772 21.534 7.99565 21.862 8.40015 21.862H17.9399L20.8634 24.7854C21.0884 25.0104 21.4084 25.0491 21.6616 24.9442C21.9353 24.8309 22.1138 24.5638 22.1138 24.2676V21.862H24.268C24.6725 21.862 25.0004 21.534 25.0004 21.1295V7.79297C25.0004 7.38843 24.6725 7.06055 24.268 7.06055Z" fill="#355EC4"/>
<path d="M17.9397 14.069V0.732422C17.9397 0.32793 17.6118 0 17.2073 0H0.732666C0.328174 0 0.000244141 0.32793 0.000244141 0.732422V14.069C0.000244141 14.4735 0.328174 14.8014 0.732666 14.8014H2.88696V17.207C2.88696 17.5033 3.06543 17.7704 3.33911 17.8837C3.59228 17.9885 3.9123 17.9499 4.1373 17.7249L7.06084 14.8014H17.2073C17.6118 14.8014 17.9397 14.4735 17.9397 14.069ZM13.2839 5.3874C13.0396 5.3874 12.8404 5.58433 12.8404 5.83174C12.8404 7.71548 11.4875 9.28833 9.70239 9.63179V10.9311C9.70239 11.3355 9.37446 11.6635 8.96997 11.6635C8.56548 11.6635 8.23755 11.3355 8.23755 10.9311V9.63179C6.45249 9.28838 5.09951 7.71548 5.09951 5.83174C5.09951 5.58437 4.90024 5.3874 4.65601 5.3874C4.25151 5.3874 3.92319 5.05947 3.92319 4.65498C3.92319 4.25049 4.25073 3.92256 4.65522 3.92256C5.71353 3.92256 6.5644 4.77827 6.5644 5.83091C6.5644 6.90269 7.26826 7.8123 8.2376 8.1229V4.65498C8.2376 4.25049 8.56553 3.92256 8.97002 3.92256C9.37451 3.92256 9.70244 4.25049 9.70244 4.65498V8.12295C10.6718 7.8123 11.3756 6.90269 11.3756 5.83096C11.3756 4.77827 12.2265 3.92261 13.2848 3.92261C13.6893 3.92261 14.0168 4.25054 14.0168 4.65503C14.0168 5.05952 13.6884 5.3874 13.2839 5.3874Z" fill="#355EC4"/>
</g>
<defs>
<clipPath id="clip0_89_43">
<rect width="25" height="25" fill="white" transform="translate(0.000244141)"/>
</clipPath>
</defs>
</svg>
