<svg width="500" height="362" viewBox="0 0 500 362" fill="none" xmlns="http://www.w3.org/2000/svg">
<path d="M1 346.97C1 346.97 14.4661 324.641 41.5752 337.577C68.6844 350.514 86.0486 349.628 86.7572 342.362C87.4659 335.097 65.377 191.024 68.4481 164.088C71.5193 137.152 91.364 108.325 97.6245 108.089C103.885 107.853 122.942 108.247 133.81 113.681C144.677 119.116 161.332 141.917 161.883 140.105C162.435 138.294 145.582 109.034 136.605 104.545C127.628 100.056 102.054 96.2751 100.282 95.0938C98.5104 93.9124 96.5613 106.199 98.156 105.549C99.7506 104.899 100.223 87.2965 104.298 84.9928C108.374 82.689 134.124 93.2036 144.047 100.883C153.969 108.562 155.229 114.863 156.568 113.76C157.906 112.657 159.166 111.87 159.166 110.295C159.166 108.719 146.252 89.7382 146.252 90.5257C146.252 91.3133 154.678 107.459 163.104 112.736C171.53 118.013 176.727 115.099 177.672 111.87C178.617 108.641 188.737 101.788 189.406 99.8195C190.075 97.8505 197.438 101.533 198.856 98.1655C200.273 94.7986 198.541 80.4444 201.297 79.2631C204.053 78.0816 207.479 75.4234 209.073 72.6471C210.668 69.8708 214.448 64.0819 212.676 63.7275C210.904 63.3731 208.778 67.2717 201.454 65.2634C194.131 63.255 194.308 55.3986 191.414 54.1582C188.52 52.9178 176.176 48.3103 172.554 49.1766C168.931 50.0429 164.6 60.9907 161.45 60.8331C158.3 60.6756 158.694 44.9235 151.528 38.1501C144.362 31.3768 134.833 41.6943 136.723 50.673C138.613 59.6517 143.456 65.9132 148.299 64.6137C153.142 63.3141 156.253 47.9164 152.709 42.482C149.165 37.0475 139.794 46.7351 139.794 44.8448C139.794 42.9545 148.535 30.1167 155.78 36.7325C163.025 43.3483 163.104 54.2173 165.388 51.3819C167.671 48.5465 167.199 33.6607 175.625 39.4103C184.051 45.1598 198.541 51.0669 202.006 57.2889C205.471 63.511 214.448 63.7473 218.385 57.6827C222.323 51.6181 218.228 19.9564 189.17 6.72466C160.111 -6.5071 143.338 5.42512 136.605 19.9564C129.872 34.4877 130.463 57.0526 132.234 56.3437C134.006 55.6348 135.227 53.7446 134.754 53.5871C134.282 53.4295 132.786 52.0119 128.297 63.7472C123.808 75.4825 114.201 84.4612 115.618 85.0126C117.036 85.5639 138.928 92.6524 145.937 98.8744C152.945 105.096 157.513 111.397 157.906 119.982C158.3 128.567 173.578 156.291 180.133 170.29C186.689 184.29 187.516 190.158 189.878 189.528C192.241 188.898 236.34 161.095 238.86 157.945C241.38 154.794 219.803 121.951 220.039 118.88C220.275 115.808 225.63 112.146 225.866 113.524C226.103 114.902 228.898 128.173 231.34 129.985C233.781 131.796 240.474 129.237 244.333 125.062C248.192 120.888 252.405 117.541 257.248 117.226C262.091 116.911 266.717 120.612 269.316 118.84C271.915 117.068 272.948 112.963 266.068 111.279C259.187 109.596 249.501 108.473 250.269 109.448C251.037 110.423 262.524 111.693 267.367 112.52C272.21 113.347 273.421 113.494 273.923 114.292C274.425 115.089 283.491 167.455 283.314 172.122C283.137 176.788 278.589 176.729 277.585 175.37C276.581 174.012 266.186 121.479 266.973 121.242C267.761 121.006 274.336 120.671 275.34 115.946C276.344 111.22 268.076 102.3 263.233 100.233C258.39 98.1655 248.704 97.3975 246.046 98.1064C243.388 98.8153 227.678 111.575 227.737 112.461C227.796 113.347 232.993 129.768 232.403 131.186C231.812 132.603 229.843 133.686 229.489 133.45C229.135 133.214 221.732 117.186 218.858 118.052C215.984 118.919 175.231 147.707 173.656 150.856C172.081 154.005 185.626 170.586 190.233 193.977C194.839 217.369 196.966 231.507 194.524 233.791C192.083 236.075 150.543 250.331 150.543 252.575C150.543 254.82 165.427 263.739 168.144 262.972C170.86 262.204 249.944 273.781 251.893 275.908C253.842 278.035 250.298 299.123 252.602 299.123C254.905 299.123 263.036 297.587 264.296 295.618C265.556 293.649 262.8 279.078 259.413 276.715C256.027 274.352 253.35 276.006 255.633 273.644C257.917 271.281 276.265 262.617 289.259 258.6C302.252 254.584 306.269 251.512 312.49 252.457C318.711 253.402 316.349 258.285 311.86 261.357C307.371 264.429 293.039 273.092 295.401 269.312C297.764 265.531 304.851 265.216 317.372 260.412C329.893 255.608 345.17 250.882 349.58 249.228C353.99 247.574 352.652 245.526 351.549 241.588C350.447 237.65 339.953 172.24 338.004 172.417C336.055 172.594 220.885 215.656 220.177 217.251C219.468 218.846 219.803 225.206 219.173 226.072C218.543 226.939 195.076 236.863 197.674 234.736C200.273 232.61 297.252 192.442 304.339 196.518C311.427 200.593 348.517 245.251 347.218 247.495C345.919 249.74 317.628 257.951 317.687 258.896C317.746 259.841 320.936 259.605 317.156 265.984C313.376 272.364 305.225 275.081 302.745 278.035C300.264 280.988 295.953 285.773 291.405 287.309C286.857 288.845 268.016 297.41 267.249 295.992C266.481 294.574 267.249 285.064 264.591 280.043C261.933 275.022 258.193 273.447 257.523 273.959C256.854 274.471 253.783 277.385 253.861 278.291C253.94 279.196 257.208 299.477 253.192 310.819C249.176 322.16 250.711 335.274 234.292 333.502C217.873 331.73 146.409 317.434 127.982 304.675C109.555 291.916 87.1116 191.024 90.8916 188.897C94.6715 186.771 115.225 285.3 129.872 299.95C144.519 314.599 156.804 291.916 159.403 300.895C162.002 309.873 153.024 312.709 171.451 314.363C189.879 316.017 215.629 316.253 220.354 328.067C225.079 339.881 224.134 350.396 227.324 350.75C230.513 351.105 251.421 320.742 275.4 339.645C299.379 358.547 306.584 357.012 320.995 337.4C335.406 317.789 342.08 315.249 366 325.882C374.833 331.754 403.1 346.4 445.5 358C487.9 369.6 498.833 333.742 499 314.363" stroke="#3464AF" stroke-width="2" stroke-miterlimit="10"/>
</svg>
