<svg width="371" height="384" viewBox="0 0 371 384" fill="none" xmlns="http://www.w3.org/2000/svg">
<path d="M353.838 20.9705C349.288 33.3515 345.076 52.0425 340.584 79.7923C332.983 126.739 320.273 154.154 274.96 164.563L273.818 164.825C263.143 167.276 248.522 170.633 227.001 176.625C221.129 178.259 215.477 180.687 212.63 181.988C210.757 182.845 209.025 183.704 207.754 184.406C205.842 185.462 205.464 185.82 205.624 186.424C205.715 186.769 206.015 187.134 206.922 186.906C215.275 184.81 234.841 184.269 254.65 187.395C272.081 190.145 295.966 196.635 310.98 211.936C310.128 215.455 291.819 247.011 268.596 283.922C241.499 326.989 221.715 355.034 215.674 358.944C214.931 359.425 214.682 359.356 214.676 359.348C202.992 344.792 180.312 333.506 163.344 326.602C144.413 318.898 127.277 314.53 124.631 314.814C124.209 314.86 123.922 315.029 123.778 315.317L123.591 315.739L123.865 316.088C124.634 317.066 149.411 332.786 170.376 345.597C183.401 353.556 194.618 360.2 202.814 364.809C218.27 373.5 219.756 373.163 220.39 373.018C221.651 372.731 225.489 371.859 270.789 299.85C292.784 264.888 313.408 230.824 316.152 225.941C318.406 226.889 320.879 228.022 321.219 228.881C321.254 228.968 321.242 229.009 321.223 229.05C316.693 239.044 296.279 274.024 274.75 308.686C249.466 349.39 230.562 376.978 224.119 382.576C223.677 382.595 221.754 382.187 213.348 377.686C207.819 374.725 200.162 370.358 190.591 364.707C173.093 354.373 152.727 341.848 137.856 332.702C129.842 327.773 123.512 323.88 120.624 322.177C120.333 322.005 120.132 321.742 120.058 321.437C119.987 321.137 120.045 320.819 120.222 320.541L125.038 312.995C125.528 313.042 126.077 313.091 126.695 313.147C131.965 313.622 141.776 314.506 155.606 318.217C177.715 324.149 191.194 332.066 202.025 338.429C207.455 341.618 212.144 344.373 216.973 346.348C217.668 346.631 218.43 346.159 218.943 345.779C226.239 340.366 254.348 296.243 266.094 277.525C275.448 262.62 285.056 246.917 292.457 234.443C304.127 214.774 304.036 213.817 303.998 213.408C303.945 212.857 303.823 211.566 296.196 207.996C291.547 205.819 285.067 203.262 277.951 200.795C260.826 194.859 243.332 190.443 229.955 188.678C223.465 187.822 212.434 188.177 203.129 189.54C202.447 189.64 201.849 190.023 201.487 190.589L124.321 311.509C123.458 311.414 122.787 311.314 122.497 311.202C122.542 310.006 124.952 304.488 139.301 281.926C149.363 266.106 162.288 246.584 173.691 229.36C192.625 200.764 199.785 189.827 199.849 188.43C200.147 181.949 186.032 167.393 160.105 147.443C149.896 139.588 139.719 132.607 131.448 127.786C125.685 124.426 118.226 120.588 115.425 121.387C114.754 121.578 112.973 122.086 99.9272 140.741C92.6039 151.213 83.0156 165.561 72.1985 182.234C51.3615 214.349 31.9281 245.857 27.9564 253.963C27.1259 255.659 27.0541 256.116 27.2077 256.498C27.6528 257.604 30.7206 258.723 40.3523 262.093C58.2944 268.371 91.6915 280.056 109.917 297.196C115.867 302.791 118.34 306.803 119.154 308.547C118.245 307.948 116.771 306.779 115.237 305.561C104.593 297.116 76.3204 274.682 23.3732 263.062C22.725 262.92 22.3194 263.071 22.1655 263.511C21.9305 264.183 22.1981 264.485 25.8008 266.438C27.8546 267.551 30.8473 269.098 34.9501 271.167C42.6011 275.024 52.9168 280.093 63.8389 285.459C87.0674 296.872 115.918 311.047 117.903 313.135C118.073 314.601 116.594 316.463 115.105 317.257C114.724 317.436 112.417 317.529 98.7203 311.151C90.5432 307.343 79.4355 301.764 65.7049 294.57C55.332 289.135 38.3921 280.118 15.0208 267.226C15.171 266.944 15.3209 266.662 15.4697 266.383C17.6947 262.206 19.7959 258.26 21.8529 254.648C29.6626 240.933 69.3881 181.699 93.1231 146.308C102.266 132.675 108.872 122.826 110.591 120.147C110.819 119.792 110.884 119.378 110.776 118.98C110.668 118.582 110.388 118.244 110.008 118.051C109.424 117.755 104.262 115.214 103.02 117.21L7.57501 262.429C7.28387 262.872 7.19171 263.392 7.31543 263.893C7.43994 264.398 7.76736 264.819 8.23703 265.079C9.89825 266 11.5287 266.901 13.1306 267.786C-3.00607 298.034 -25.4849 338.145 -81.0309 349.091C-108.475 354.5 -135.299 353.057 -163.699 351.53C-202.066 349.467 -241.741 347.334 -287.058 361.942C-289.144 362.614 -291.44 363.4 -293.87 364.233C-305.402 368.182 -319.753 373.097 -332 373.097V374.501C-319.519 374.501 -305.045 369.544 -293.415 365.561C-290.991 364.731 -288.7 363.947 -286.627 363.278C-241.557 348.749 -202.015 350.875 -163.774 352.932C-135.285 354.464 -108.376 355.911 -80.7593 350.469C-55.3035 345.452 -34.4951 334.033 -17.1451 315.558C-2.99414 300.49 6.62747 282.956 14.3598 268.465C37.805 281.397 54.7862 290.435 65.1814 295.881C112.091 320.454 114.759 319.031 115.764 318.496C117.756 317.434 119.662 314.94 119.266 312.763C119.155 312.152 119.029 311.46 101.251 302.442C90.8969 297.19 77.4558 290.586 64.4574 284.199C48.9276 276.569 32.9784 268.733 26.4313 265.193C76.9022 276.936 104.017 298.451 114.363 306.661C118.554 309.986 119.818 310.988 120.678 310.043C120.871 309.831 121.457 309.186 118.999 305.456C117.698 303.481 115.232 300.268 110.878 296.174C92.4365 278.83 58.8563 267.08 40.8159 260.768C35.0262 258.742 29.5434 256.824 28.582 256.02C29.5328 252.601 48.6259 221.334 70.067 188.112C98.6607 143.808 113.644 123.354 115.809 122.737C119.279 121.749 136.873 131.339 159.249 148.556C194.876 175.969 198.547 185.49 198.448 188.333C197.982 190.13 185.613 208.811 172.521 228.585C160.808 246.276 147.532 266.328 137.364 282.358C131.808 291.115 127.796 297.698 125.099 302.481C120.614 310.432 120.787 311.577 121.437 312.18C121.781 312.498 122.387 312.673 123.483 312.822L119.039 319.787C118.654 320.388 118.532 321.091 118.693 321.764C118.855 322.443 119.288 323.019 119.911 323.386C122.787 325.083 129.112 328.973 137.12 333.898C152.332 343.254 173.166 356.067 190.888 366.512C216.526 381.623 222.433 384 224.177 384C224.614 384 224.79 383.85 224.949 383.715C234.27 375.755 263.715 329.111 275.942 309.427C297.499 274.721 317.95 239.67 322.501 229.631C322.684 229.227 322.692 228.789 322.524 228.365C322.009 227.063 319.9 226.001 316.701 224.652C317.008 223.282 316.345 222.056 314.829 221.278C313.161 220.421 309.97 220.013 309.339 221.149C309.172 221.447 309.144 221.791 309.258 222.117C309.634 223.194 311.53 224.03 314.848 225.401C311.952 230.514 291.028 265.042 269.601 299.103C256.552 319.845 245.762 336.544 237.53 348.737C223.891 368.937 220.782 371.49 220.08 371.649C219.28 371.79 213.431 370.252 171.418 344.589C151.032 332.137 132.219 320.154 126.596 316.362C131.731 317.21 146.141 321.164 162.231 327.666C179.255 334.545 201.983 345.779 213.58 360.227C213.932 360.665 214.462 360.843 215.074 360.729C216.062 360.545 219.069 359.984 234.66 337.97C243.204 325.905 254.261 309.198 266.637 289.656C288.812 254.639 310.567 217.845 312.28 212.46C312.38 212.144 312.567 211.555 312.18 211.157C296.909 195.436 272.585 188.805 254.869 186.009C237.097 183.204 219.472 183.337 209.813 184.896C213.657 182.936 220.644 179.852 227.378 177.978C248.868 171.995 263.471 168.642 274.133 166.194L275.274 165.932C287.086 163.219 296.842 159.274 305.102 153.873C312.81 148.833 319.048 142.623 324.172 134.889C334.539 119.241 338.853 99.2692 341.97 80.0175C350.665 26.3165 361 4.5 371 1.5V0C362.5 2.5 358 8 353.838 20.9705ZM202.67 191.343C202.81 191.123 203.058 190.968 203.333 190.927C212.523 189.581 223.395 189.228 229.771 190.069C242.946 191.807 260.212 196.155 277.14 201.999C284.174 204.427 290.613 206.953 295.271 209.112C301.648 212.067 302.484 213.298 302.586 213.507C301.886 216.215 283.342 247.55 262.28 280.951C250.959 298.904 240.956 314.195 233.352 325.171C220.904 343.142 218.055 344.936 217.453 345.026C212.735 343.091 208.1 340.368 202.736 337.218C191.832 330.813 178.262 322.841 155.969 316.86C142.023 313.118 132.133 312.227 126.82 311.748C126.505 311.72 126.192 311.692 125.886 311.664L202.67 191.343ZM14.2303 265.722C14.0846 265.995 13.9375 266.271 13.791 266.546C12.1958 265.665 10.5719 264.767 8.91785 263.851C8.79361 263.782 8.70883 263.677 8.67889 263.556C8.65823 263.473 8.65372 263.343 8.74857 263.199L104.203 117.965C104.263 117.889 104.428 117.851 104.673 117.851C105.556 117.851 107.486 118.345 109.373 119.302C109.399 119.316 109.417 119.332 109.421 119.348C109.424 119.358 109.42 119.371 109.41 119.388C107.698 122.054 101.095 131.899 91.957 145.525C68.2111 180.932 28.4676 240.193 20.6325 253.953C18.5657 257.582 16.4597 261.536 14.2303 265.722ZM310.772 221.875C311.662 221.764 313.851 222.028 314.899 223.008C315.248 223.336 315.405 223.686 315.374 224.098C313.749 223.426 311.466 222.478 310.772 221.875Z" fill="#3464AF"/>
</svg>
