<svg width="23" height="23" viewBox="0 0 23 23" fill="none" xmlns="http://www.w3.org/2000/svg">
<path d="M21.8359 20.5188L18.7906 17.4843C20.4415 15.4448 21.2469 12.8495 21.0406 10.2337C20.8343 7.61782 19.6322 5.18086 17.682 3.42529C15.7319 1.66971 13.1824 0.729386 10.5593 0.798205C7.93629 0.867025 5.43964 1.93974 3.58423 3.79516C1.72881 5.65058 0.656087 8.14723 0.587268 10.7703C0.518448 13.3933 1.45878 15.9428 3.21435 17.893C4.96992 19.8431 7.40689 21.0453 10.0227 21.2515C12.6386 21.4578 15.2338 20.6525 17.2734 19.0016L20.3079 22.0469C20.4079 22.1477 20.527 22.2278 20.6581 22.2824C20.7892 22.3371 20.9299 22.3652 21.0719 22.3652C21.214 22.3652 21.3546 22.3371 21.4858 22.2824C21.6169 22.2278 21.7359 22.1477 21.8359 22.0469C21.9368 21.9468 22.0169 21.8278 22.0715 21.6967C22.1261 21.5656 22.1542 21.4249 22.1542 21.2829C22.1542 21.1408 22.1261 21.0002 22.0715 20.869C22.0169 20.7379 21.9368 20.6189 21.8359 20.5188ZM2.77856 11.0601C2.77856 9.46388 3.25189 7.90351 4.1387 6.57631C5.02551 5.24911 6.28596 4.21468 7.76067 3.60383C9.23538 2.99299 10.8581 2.83316 12.4237 3.14457C13.9892 3.45598 15.4272 4.22463 16.5559 5.35332C17.6846 6.48201 18.4533 7.92006 18.7647 9.4856C19.0761 11.0511 18.9163 12.6739 18.3054 14.1486C17.6946 15.6233 16.6602 16.8838 15.3329 17.7706C14.0057 18.6574 12.4454 19.1307 10.8492 19.1307C8.7087 19.1307 6.65591 18.2804 5.14238 16.7669C3.62885 15.2533 2.77856 13.2006 2.77856 11.0601Z" fill="white"/>
</svg>
