<svg width="105" height="53" viewBox="0 0 105 53" fill="none" xmlns="http://www.w3.org/2000/svg">
<path d="M-15 51.9765C-11.7999 51.9765 -11.3127 52.0576 -10.6591 51.9162C-10.3673 51.853 -10.1008 51.7509 -9.86751 51.5589C-9.27809 51.0737 -9.2171 50.2836 -9.07423 49.5853C-8.90881 48.7771 -8.74597 47.9686 -8.57741 47.1612C-8.24305 45.5592 -7.88874 43.9597 -7.4446 42.3842C-7.26106 41.7331 -7.062 41.0863 -6.84021 40.4471C-6.08611 38.2739 -3.65081 32.7449 -1.1512 29.5896C-0.380096 28.6164 0.493401 27.7266 1.42272 26.904C2.08884 26.3145 3.55748 25.5414 3.50019 24.5052C3.4854 24.2378 3.38319 23.9839 3.32515 23.7225C3.07859 22.6093 3.68095 21.4335 4.58346 20.7354C5.48598 20.0373 6.63672 19.7428 7.76824 19.594C8.89975 19.4451 10.0496 19.4245 11.167 19.1925C13.8496 18.636 16.2319 16.8894 18.9648 16.6925C19.9676 16.6203 20.9762 16.7627 21.9797 16.6975C26.1575 16.4261 29.0351 12.9416 33.4255 13.7691C34.982 14.0625 37.0687 15.4108 38.0695 16.6514C38.8199 17.5816 39.4722 18.7991 39.7762 19.9621C40.1477 21.3835 40.5028 22.678 40.787 24.1571C40.8942 24.7149 40.8484 25.3944 40.1503 25.5332C39.7984 25.6032 39.4337 25.4766 39.1271 25.2906C38.5063 24.9141 38.1179 24.4507 37.4276 24.2201C36.5425 23.9245 35.4904 23.8456 34.5692 23.9679C33.2011 24.1494 31.963 24.8432 30.7553 25.5109C28.5468 26.7316 26.0361 27.9446 23.5973 27.2947C22.4955 27.0011 21.527 26.3482 20.468 25.9262C18.8396 25.2772 16.7771 25.1651 15.2891 25.6112C14.2404 25.9254 12.7451 26.7437 11.9163 27.9153C11.3866 28.6638 10.8889 29.6505 10.841 30.6274C10.8188 31.0817 10.8397 31.6243 11.2245 31.8671C11.5944 32.1005 12.1289 31.8756 12.3242 31.4845C12.495 31.143 12.4915 30.3311 12.5736 29.9581C13.3057 26.6304 16.033 25.76 18.4025 26.306C19.7758 26.6224 20.5345 27.9217 20.8252 29.2329C20.8713 29.4408 20.901 29.6557 20.9931 29.8477C21.2594 30.4033 23.2925 29.9138 23.7666 29.8739C24.2316 29.8348 24.4538 29.9875 24.6634 30.4175C25.0166 31.1428 24.9341 31.4026 25.2959 32.1703C25.891 33.4338 27.7027 33.5562 28.6237 33.2656C29.504 32.9877 31.4153 32.4897 31.646 32.4823C31.975 32.4718 32.6775 33.3544 33.3655 33.0549C33.9863 32.7846 34.2138 31.3433 34.5977 30.7004C35.1391 29.7938 35.5431 29.7672 36.2948 29.378C37.2358 28.8907 38.3643 27.926 39.0051 27.0536C39.7182 26.0831 40.1795 25.0984 40.1614 23.8756C40.1579 23.6392 40.1653 23.3748 40.3333 23.2085C40.534 23.0098 40.8857 23.0532 41.1081 23.2271C41.3304 23.401 41.4545 23.6688 41.5685 23.9269C42.3244 25.6368 43.0105 27.4225 43.0867 29.2901C43.1989 32.0438 40.8076 34.2907 39.564 36.5564C38.5732 38.3618 37.7891 40.4482 36.9315 42.992C36.1645 45.2669 35.6346 48.1294 34.5733 49.3342C33.8815 50.1196 35.091 46.0413 36.1248 42.992C36.7351 41.1918 38.9829 36.1452 39.4147 35.3381C39.6624 34.8754 39.906 34.3708 39.8426 33.85C39.6581 32.3319 38.3636 31.0012 38.5386 29.4223C38.6048 28.825 38.899 28.277 39.0267 27.6896C39.1204 27.2587 39.123 26.813 39.097 26.3728C39.0938 26.3194 39.0898 26.2642 39.0648 26.2168C39.0049 26.103 38.8425 26.0789 38.7251 26.1315C38.6077 26.1841 38.5255 26.2912 38.4492 26.3948C37.7749 27.3106 37.1437 28.2971 36.955 29.4409C36.8667 29.9764 36.9504 30.5237 36.9458 31.0665C36.9361 32.1867 36.2442 32.4842 35.7292 33.3418C35.1522 34.3031 34.5916 35.2756 34.0576 36.2613C32.7076 38.7538 31.3577 41.2462 30.0077 43.7387C29.2769 45.0878 28.1792 43.0756 27.7881 42.3949C26.654 40.4211 25.5212 38.4467 24.3954 36.4683C23.3234 34.5846 22.2436 32.7039 21.249 30.7787C20.8247 29.9572 20.3822 29.157 19.9305 28.3488C19.7865 28.0912 19.3381 27.7858 19.2891 28.2858C19.2708 28.4733 20.9371 31.3542 22.3192 34.2323C23.2116 36.0906 24.8179 38.8014 25.7296 40.6502C25.7753 40.7427 25.8208 40.835 25.8664 40.9276C26.4002 42.0099 26.9464 43.1105 27.7785 43.985C28.3917 44.6294 29.141 45.1298 29.779 45.7498C30.8777 46.8177 31.5475 48.1927 31.6369 49.723C31.6565 50.0578 31.6673 50.4038 31.5491 50.7179C30.9104 52.414 27.1336 51.0563 26.105 50.7956C24.9059 50.4917 19.5569 47.386 17.8924 45.8247C16.4764 44.4966 15.1508 42.857 14.1875 41.1801C14.0947 41.0188 13.9988 40.8533 13.8535 40.7361C13.1824 40.1949 13.4452 41.0784 13.5611 41.3939C13.7569 41.9266 15.1516 45.3244 17.5383 47.4302C20.031 49.6296 23.8559 51.9764 27.3149 51.9764C38.3322 51.9764 65.6048 51.9854 72.1224 51.9854C74.9856 51.9854 77.8 50.3323 79.2058 49.4416C80.8012 48.4307 82.2251 46.9108 83.52 45.5655C83.9671 45.101 86.5727 42.1272 86.8327 41.7763C86.9366 41.6362 87.1416 41.4458 87.017 41.2754C86.9083 41.1268 86.6958 41.1078 86.534 41.1691C86.3753 41.2292 86.2494 41.3511 86.1283 41.4698C85.2304 42.3511 84.5588 43.343 83.7047 44.2259C82.5233 45.4472 80.8243 47.1418 79.5481 48.2638C77.6882 49.899 74.4084 51.404 72.3004 51.5774C70.8874 51.6937 68.3575 50.4271 67.2646 49.6614C66.0686 48.8235 58.1369 43.9189 57.4809 43.4097C56.8225 42.8984 56.5019 42.2533 55.9485 41.6212C55.4299 41.0289 55.5064 40.6113 55.1735 40.1705C54.9072 39.8181 54.3643 39.5202 53.8716 39.523C52.7608 39.5293 51.8442 39.641 50.4938 39.2246C50.1878 39.1303 49.8708 39.0764 49.5512 39.0553C49.5124 39.0527 49.4723 39.0507 49.4359 39.0644C49.3485 39.0972 49.2841 39.1864 49.2991 39.2785C49.3228 39.4233 49.4231 39.5697 49.5769 39.7191C50.1691 40.2941 50.762 40.6336 51.5694 40.8723C51.9473 40.984 52.6495 41.3247 53.0402 41.377C51.8468 41.3312 50.3273 41.0173 49.4169 40.6349C47.7057 39.9165 46.8681 39.1345 46.0317 37.9593C45.8476 37.7008 45.8083 37.2493 46.0881 37.0989C47.2647 36.4657 47.9275 37.5739 48.8962 37.9593C49.8266 38.3295 50.9846 38.2318 51.9714 38.1079C52.9652 37.9831 53.9026 37.8961 54.885 38.1323C55.8722 38.3696 56.7697 38.9824 57.6752 39.4211C59.7212 40.412 69.375 43.2861 70.4632 43.978C72.3074 45.1503 73.3453 46.4154 73.6798 48.6717C73.7502 49.1462 73.6964 49.6922 73.807 50.1518C73.8726 50.4243 74.1694 50.8238 74.5051 50.5029C74.6457 50.3685 74.6378 50.1459 74.6198 49.9524C74.4838 48.4911 74.3308 47.0978 73.4852 45.8377C73.1578 45.3498 72.5159 44.5609 72.4311 44.3016C72.2862 43.8583 72.5479 43.5323 72.7274 43.163C72.9364 42.7331 73.132 42.2978 73.3519 41.8736C74.9024 38.8834 78.9119 30.9325 79.1766 30.3684C79.2858 30.1356 79.3986 29.9046 79.5139 29.6747C80.1052 28.4962 80.7532 27.3316 81.5293 26.2635C82.0649 25.5264 82.7674 24.9592 83.6736 24.6629C84.6606 24.3401 85.789 24.2956 86.7553 24.6143C87.1678 24.7504 87.5787 25.0319 87.9942 25.1276C88.1248 25.1577 88.2773 25.1317 88.3635 25.029C88.4673 24.9051 88.4394 24.7096 88.3422 24.5803C88.245 24.4511 88.0949 24.3739 87.9483 24.3056C86.8331 23.7866 85.696 23.7705 84.5871 23.8743C83.7038 23.957 82.6281 24.5497 82.4817 24.4195C82.3362 24.2901 83.1121 23.4363 83.2095 22.8096C83.3402 21.969 82.5482 20.5509 81.4424 20.8008C80.655 20.9787 79.6972 21.1981 78.8578 21.3273C77.6266 21.5168 76.8078 20.6759 76.4591 19.7762C76.1256 18.9161 75.0333 16.0904 74.8949 15.906C74.6975 15.6429 73.5685 15.6471 73.3724 14.9235C73.1954 14.2704 74.179 13.192 74.4413 12.4905C74.8109 11.5016 74.5792 11.17 74.4132 10.3406C74.2053 9.30234 74.1714 7.86252 74.4522 6.81728C74.5152 6.5826 74.613 6.27481 74.7067 6.05029C74.7766 5.88264 74.9144 5.73234 75.0926 5.6967C75.2824 5.65867 75.4713 5.75413 75.6369 5.8542C77.1808 6.78663 78.7214 8.65241 79.0696 10.4117C79.1394 10.7647 79.1847 11.1277 79.332 11.456C79.559 11.9613 79.9981 12.3219 80.4421 12.6323C80.9404 12.9805 81.3858 13.3956 81.7764 13.8639C82.5214 14.7573 82.8445 15.3953 83.438 16.3908C83.9311 17.218 84.3466 18.2481 84.1695 19.2492C84.1074 19.6 83.6888 20.0729 83.2395 20.2712C83.0428 20.358 82.8319 20.5166 82.9273 20.774C83.0909 21.2158 83.9231 20.9317 84.5662 20.7389C86.0137 20.3052 87.0564 19.9165 87.7108 19.6689C89.0006 19.1807 90.6895 18.127 90.8625 17.9939C91.0355 17.8607 91.1721 17.6634 91.1791 17.4455C91.1891 17.136 90.8294 16.8746 90.5733 16.7688C88.289 15.8264 86.9602 15.0891 85.1042 13.5345C84.9852 13.4348 84.8582 13.3367 84.7079 13.2976C84.1154 13.1436 83.9692 14.3701 83.7241 14.7398C83.6637 14.831 83.594 14.9229 83.494 14.9678C83.394 15.0127 83.2567 14.9918 83.2038 14.896C83.1118 14.7287 83.4546 14.0692 83.5258 13.9006C83.6956 13.4992 83.7594 13.0856 83.7063 12.6521C83.6004 11.7859 83.1591 10.977 82.4532 10.4534C82.0917 10.1851 81.4023 9.91571 81.0823 10.386C80.9469 10.5852 80.9336 10.855 80.7729 11.0348C80.7619 11.0472 80.7485 11.0599 80.7319 11.0614C80.7108 11.0632 80.2621 11.1203 80.2477 11.105C79.6006 10.4224 79.5202 8.29661 79.0073 7.49952C78.6783 6.98807 78.2005 6.59054 77.7046 6.23844C77.2723 5.93156 76.9298 5.75062 76.4169 5.63356C76.2156 5.58758 76.0096 5.56007 75.8131 5.49618C75.4691 5.38411 75.1632 5.15866 74.9545 4.86343C74.4616 4.16586 75.152 3.854 75.6817 3.57464C77.0148 2.87154 78.248 2.33867 79.5908 1.7397C80.6894 1.24948 82.0484 0.996709 83.2443 1.00003C84.8392 1.00446 87.1972 1.78844 88.3995 2.81836C91.0043 5.04954 91.7889 8.06267 91.4603 11.8583C91.3272 13.3945 91.9277 16.9656 92.3461 17.2361C92.9034 17.5962 93.0672 16.9865 93.4632 17.1887C93.5239 17.2195 93.5653 17.2773 93.6033 17.3336C94.0637 18.0175 94.3988 18.8078 94.7215 19.5639C94.8422 19.8465 94.972 20.1337 94.9304 20.4488C94.8982 20.6918 94.6145 20.8351 94.6088 21.0785C94.6038 21.2913 95.774 21.9121 97.2474 23.9108C99.6727 27.2005 101.572 31.9812 102.298 36.4755C103.149 41.7424 103.342 47.637 103.468 48.3844C103.594 49.1318 103.794 50.8619 104.711 51.7077C104.872 51.8571 105.182 51.9972 105.391 51.998C105.605 51.9987 109.786 51.9993 110 52" stroke="white" stroke-miterlimit="10" stroke-linecap="round" stroke-linejoin="round"/>
</svg>
