<svg width="81" height="55" viewBox="0 0 81 55" fill="none" xmlns="http://www.w3.org/2000/svg">
<path d="M1 51.1877C1 51.1877 7.39924 49.1707 11.2464 51.454C15.0935 53.7373 19.5121 55.0693 19.5121 52.824C19.5121 50.5788 17.0552 43.5957 16.8267 42.3018C16.5981 41.0079 17.5028 40.1802 17.2933 39.8948C17.0838 39.6094 13.6842 42.1115 12.4462 42.3398C11.2083 42.5682 10.7893 42.1496 10.7417 42.2447C10.6941 42.3398 12.2272 44.861 14.2651 44.0047C16.3029 43.1485 15.7316 41.084 17.6075 39.6665C19.4835 38.2489 20.2358 37.0026 20.2739 35.5185C20.312 34.0343 19.7549 33.4064 19.474 33.473C19.193 33.5396 16.2236 38.0079 15.703 38.6168C15.1824 39.2257 17.8995 36.3208 19.2327 34.2278C20.5659 32.1347 24.8828 20.5533 27.5682 18.7552C30.2536 16.9571 28.4253 13.3038 28.9681 10.8207C29.5109 8.3376 29.3521 9.06065 31.0662 7.4116C32.7803 5.76255 33.7961 5.61032 33.7834 4.81116C33.7707 4.012 32.9009 4.21813 32.2724 4.61772C31.6439 5.01729 30.8536 5.22661 29.968 5.92111C29.0823 6.6156 28.0158 7.81435 28.1682 7.73824C28.3205 7.66214 29.7108 6.33021 30.3298 5.45493C30.9488 4.57966 32.2725 3.63779 33.4247 3.44752C34.5769 3.25726 34.6055 3.19065 34.5103 2.69594C34.415 2.20122 33.2914 2.48663 32.8343 2.54847C32.3772 2.61031 29.787 3.08601 28.8157 3.92322C27.8444 4.76043 26.8255 6.57757 27.254 6.20652C27.6825 5.83548 28.5681 4.45598 29.2633 3.98029C29.9584 3.5046 31.9677 2.89572 32.8152 2.80533C33.6628 2.71495 34.4198 2.55797 34.3198 2.12985C34.2198 1.70173 32.5391 1.94433 31.9201 1.84919C31.3011 1.75405 28.6157 2.51515 27.8349 3.21917C27.054 3.92318 26.2351 5.69275 25.4923 6.35871C24.7495 7.02467 24.502 8.04265 24.502 8.71813C24.502 9.39361 23.9877 15.0353 23.7021 15.53C23.4164 16.0247 22.2927 17.5089 20.6548 18.955C19.0169 20.4011 11.3416 27.4032 8.54198 29.7436C5.74232 32.084 6.24384 36.0924 6.11687 36.8155C5.98989 37.5385 6.73902 39.3652 7.9833 40.38C9.2276 41.3948 10.8404 42.1489 12.7319 41.7246C14.6235 41.3003 18.3567 38.2235 18.4328 38.3631C18.509 38.5026 17.1124 43.7796 17.9504 42.6252C18.7884 41.4709 19.3851 39.7077 19.4867 40.1517C19.5883 40.5956 19.1693 53.8896 21.7118 53.3758C24.2544 52.8621 27.3111 48.8092 29.968 51.2923C32.6248 53.7754 52.7081 55.2025 52.7652 52.6623C52.8223 50.1221 53.6032 42.5682 53.3556 40.8557C53.108 39.1432 51.4193 36.0163 51.3813 36.2827C51.3432 36.5491 53.5143 41.6485 53.7302 41.3568C53.946 41.065 54.0095 40.1897 54.619 40.5069C55.2284 40.824 57.0441 42.2193 57.7424 41.8261C58.4407 41.4329 59.7612 39.8599 59.393 39.3652C59.0248 38.8705 53.6921 38.3504 52.8033 37.2468C51.9145 36.1432 52.2065 34.1009 52.5621 33.0734C52.9176 32.0459 53.6984 31.3039 53.7746 31.3039C53.8508 31.3039 60.6881 37.0882 60.1167 37.3736C59.5454 37.6591 52.3081 29.8578 51.0702 27.5745C49.8322 25.2912 49.08 25.5956 47.6706 25.2626C46.2612 24.9296 41.3856 23.769 41.319 23.8451C41.2523 23.9212 40.1953 26.1664 39.1859 27.0607C38.1765 27.955 37.2433 29.6104 35.6625 29.9719C34.0818 30.3335 32.3613 29.6865 31.9169 28.4688C31.4725 27.251 29.5553 24.4603 29.1109 24.0417C28.6665 23.6231 27.0921 24.2447 26.3049 24.4857C25.5177 24.7267 24.2734 24.9582 24.0544 24.8535C23.8354 24.7489 21.4928 31.2087 21.988 30.7521C22.4831 30.2954 24.0449 25.862 24.9781 27.1178C25.9113 28.3736 26.9017 33.5872 27.9872 31.9128C29.0728 30.2383 26.8255 26.4328 27.5111 26.5089C28.1967 26.5851 29.7585 28.6949 29.8537 27.3641C29.9489 26.0333 28.8633 22.6654 28.3872 21.1242C27.911 19.5829 27.5206 18.8979 27.7301 18.9075C27.9396 18.917 28.8538 21.4286 29.4251 23.2077C29.9965 24.9868 31.1678 26.402 32.1486 27.9206C33.1295 29.4392 34.4722 30.2288 36.3005 29.3726C38.1289 28.5164 38.4431 26.9117 39.7192 25.5877C40.9952 24.2637 41.6332 21.5428 41.8522 20.9339C42.0713 20.325 42.3093 19.2024 42.4807 19.2024C42.6521 19.2024 49.6926 25.5005 49.0704 25.3483C48.4483 25.1961 42.9378 19.6908 42.0363 18.9931C41.1348 18.2954 40.792 17.2045 40.8809 15.3652C40.9698 13.5258 41.4015 11.6231 40.9444 12.0417C40.4873 12.4603 40.081 13.4751 39.4843 12.8916C38.8875 12.3081 39.2049 11.6484 38.4558 12.1305C37.7067 12.6125 37.148 13.4751 36.5767 13.678C36.0053 13.881 32.9454 12.8789 31.5995 12.6632C30.2536 12.4476 29.3204 12.4571 29.2918 11.4487C29.2632 10.4402 29.4251 9.78375 29.5394 9.98354C29.6537 10.1833 28.8062 12.5523 29.8346 13.1041C30.863 13.6559 31.5963 12.6189 32.939 13.5322C34.2817 14.4455 36.2053 14.6834 37.1671 13.9318C38.1288 13.1802 38.8145 12.4666 39.024 12.6855C39.2335 12.9043 39.9001 14.1696 40.7095 13.2658C41.5189 12.362 41.4332 10.4973 40.9571 9.48882C40.4809 8.48036 39.2811 7.42433 38.6145 6.73935C37.9479 6.05435 36.9957 6.0163 36.9337 5.48828C36.8718 4.96027 37.148 4.6035 37.4765 4.77C37.8051 4.9365 38.3145 5.21239 38.9192 5.24093C39.5239 5.26946 41.538 6.60615 41.9093 7.35774C42.2807 8.10933 42.9854 9.21293 42.833 9.22245C42.6807 9.23197 41.7315 7.45895 40.9666 6.64421C40.2017 5.82948 38.3574 4.57971 37.8717 4.10404C37.3861 3.62834 36.0434 3.5237 36.0307 2.97824C36.018 2.43277 36.3163 2.26788 36.9639 2.39472C37.6114 2.52158 41.0713 4.22136 41.4903 4.60191C41.9093 4.98246 43.7948 7.69706 43.6107 7.67803C43.4266 7.65899 41.776 5.28055 41.3316 4.84927C40.8872 4.41798 36.7417 2.71184 36.6528 2.42642C36.564 2.14101 36.8877 1.88096 36.9766 1.76046C37.0655 1.63994 35.3959 0.929583 33.8976 1.00569C32.3994 1.0818 31.9867 1.64946 32.0439 1.68751C32.101 1.72556 33.0771 0.893102 35.0197 1.14998C36.9623 1.40685 37.667 2.05378 39.2573 2.3487C40.8476 2.64363 43.1282 4.70336 44.2138 6.05432C45.2994 7.40528 45.766 8.16638 46.1088 8.75624C46.4517 9.34609 46.1183 9.99304 46.1755 10.5258C46.2326 11.0586 45.7375 14.5026 46.3469 16.0818C46.9564 17.6611 53.9079 21.3144 57.2027 22.9127C60.4976 24.511 67.6205 29.0777 68.2681 31.5893C68.9156 34.1009 68.7823 35.6802 68.1729 36.4984C67.5634 37.3166 66.973 39.5047 64.8971 39.676C62.8211 39.8472 58.6121 38.991 59.0311 38.7817C59.4501 38.5724 66.1921 40.4181 67.7729 39.9804C69.3536 39.5428 72.4961 34.177 73.5246 36.6887C74.553 39.2003 78.5525 41.9783 80 38.4011" stroke="white" stroke-miterlimit="10"/>
</svg>
