<svg width="70" height="54" viewBox="0 0 70 54" fill="none" xmlns="http://www.w3.org/2000/svg">
<path d="M10.1624 4.71241C13.1954 4.22868 17.2498 6.48019 16.1663 10.7761C15.4695 13.5387 11.1716 14.5172 8.79194 13.2182C6.85614 12.1616 6.21008 9.23841 7.54911 7.4862C10.9354 3.05511 17.3269 8.21123 14.0187 12.6357C11.9684 15.3778 5.39448 15.6085 5.98224 11.2075C6.22326 9.4028 8.73238 7.99147 10.4699 8.48737C12.6915 9.12142 12.3592 12.5035 10.6358 13.7132C6.60211 16.5446 0.468555 10.8464 2.21067 6.78712C3.75408 3.19083 12.2474 3.28859 15.8718 3.07911C22.6584 2.68682 25.2459 8.91867 23.8102 14.661C20.4032 28.2883 -0.02714 22.5754 3.99503 9.1206C4.20199 8.42828 4.48384 7.72759 4.98921 7.21067C7.23408 4.91447 10.9013 4.53509 13.9838 4.08703C16.8163 3.67532 20.5917 4.50489 21.299 7.72573C23.1387 16.1026 15.2129 22.5079 8.69543 16.9248C6.75071 15.259 4.65964 7.99911 6.34873 6.53136C9.27924 3.98484 12.8277 12.0347 13.167 14.6128C13.7639 19.1481 10.4182 22.7812 6.22191 20.256C2.54509 18.0434 0.256852 12.0808 2.49015 8.26032C5.28162 3.48498 18.2634 1.18727 22.6939 4.55514C30.9982 10.8678 22.0084 25.7087 12.7485 24.6403C7.37286 24.02 4.3426 18.4395 2.34059 13.7858C1.40938 11.6212 0.619617 9.2254 1.1958 6.9405C2.07321 3.4611 6.55467 0.187878 10.6787 0.762027C16.2596 1.53902 19.0761 5.25051 19.3249 11.4604C19.546 16.9811 26.7722 19.046 34.427 15.0803C45.4987 9.34435 56.402 17.5779 57.8322 20.8057C59.1517 23.7838 54.411 26.6668 47.6132 25.1637C40.884 23.6759 42.3563 19.2558 45.7367 17.2637C50.6254 14.3827 55.6509 14.2124 59.1185 16.6043C64.7674 20.5009 56.0288 24.6193 49.965 22.7143C43.0432 20.5398 43.0235 15.187 47.1752 13.4225C51.3593 11.6442 54.1532 12.8251 55.3372 13.9297C56.6199 15.1265 57.7055 18.2319 53.9585 20.131C51.1067 21.5765 42.2242 22.8138 41.1466 18.8174C40.3181 15.7448 44.262 11.4642 49.0869 10.643C53.9118 9.82173 59.0446 12.5935 61.4386 15.1543C63.245 17.0865 64.5292 20.2759 64.6805 22.8877C64.8975 26.6332 63.2193 29.1824 62.4411 30.9077C57.5591 41.7311 66.349 54.3358 67.8117 52.6988C69.2895 51.045 54.3574 52.8548 50.6612 52.9163C50.2359 52.9234 49.8827 52.5808 49.8753 52.1554C49.8441 50.3524 49.4237 48.4172 48.423 47.1656C46.8157 45.1554 48.6296 43.1848 49.0238 43.3392C49.146 43.3871 49.1317 43.6393 48.8367 44.1579C47.5901 46.3493 41.8132 47.0018 39.4445 45.6127C37.0759 44.2236 39.3015 41.8092 37.9207 41.5405C36.54 41.2717 36.5202 40.1389 36.8576 39.7266C37.5133 38.9251 38.7565 38.0568 38.8245 38.5012C38.8971 38.9756 37.1349 38.9514 36.8292 38.8831C36.5235 38.8148 36.2366 38.8015 36.2054 38.4559C36.1635 37.9926 36.858 37.338 36.7729 36.4337C36.6878 35.5294 35.259 35.4116 35.01 34.931C34.7611 34.4504 37.272 34.9009 36.8848 35.4252C36.4977 35.9495 34.1208 36.0149 33.6267 34.872C33.004 33.4313 37.3944 29.1701 36.6816 26.0246C36.1487 23.673 36.4895 20.2525 37.8282 17.0479C38.9571 14.3455 41.535 11.7212 43.0437 10.7457C49.1423 6.80268 57.4404 6.39671 63.439 13.5951C65.2122 15.7229 66.6754 18.9583 66.8338 21.6932C67.061 25.6153 65.2949 28.2808 64.4888 30.0913C61.2033 37.4709 64.3887 45.4229 69 51.8787" stroke="#3464AF" stroke-miterlimit="10" stroke-linecap="round" stroke-linejoin="round"/>
</svg>
