<svg width="115" height="45" viewBox="0 0 115 45" fill="none" xmlns="http://www.w3.org/2000/svg">
<path d="M-7 43.6303C-5.58426 43.6096 -4.16851 43.5888 -2.75277 43.5681C-2.54459 31.8547 -2.55842 20.5822 -2.03252 8.55204C1.42195 7.46037 4.87645 6.36869 8.33093 5.27702C9.25217 4.98589 10.1911 4.69189 11.1578 4.68872C12.4511 4.68447 13.6807 5.19826 14.883 5.67143C22.3842 8.62357 30.391 10.3041 38.4537 10.6185C39.4996 10.6592 40.7613 10.8097 41.1985 11.7541C41.5558 12.5256 41.1099 13.4772 40.4115 13.9672C39.713 14.4572 38.8309 14.5939 37.9823 14.6984C33.2794 15.2776 28.5175 15.2828 23.6805 15.1948C21.4833 15.2775 19.286 15.3601 17.0888 15.4427C16.4853 15.4654 15.8712 15.49 15.3012 15.6881C14.5324 15.9552 13.9081 16.514 13.3064 17.0591C11.8197 18.4059 10.333 19.7528 8.84628 21.0996C8.69715 21.2347 8.52546 21.3784 8.32378 21.3703C8.12208 21.3621 7.94789 21.0946 8.09414 20.9564C8.58595 21.0526 8.93324 21.4777 9.23057 21.8785C10.8634 24.0792 13.7627 24.299 16.2171 25.5368C19.0002 26.9405 18.2915 29.0274 17.6108 29.726C15.5399 31.8514 7.26018 31.2911 1.83696 27.6358C0.356267 27.5082 -1.25782 27.3118 -2.2939 26.2537C-3.75415 24.7624 -3.3234 22.1519 -1.93556 20.5938C-0.547721 19.0358 1.50762 18.2695 3.47674 17.5601C5.49188 16.834 7.50702 16.1079 9.52215 15.3819C10.9142 14.8803 12.4563 14.3777 14.38 15.1346C16.3389 15.0902 18.2978 15.0458 20.2567 15.0014C20.6063 14.9935 20.965 14.9869 21.2948 15.1023C21.9721 15.3391 22.3719 16.0253 22.6457 16.6844C23.3229 18.3142 23.5906 20.1099 23.4181 21.8645C23.3787 22.2655 23.3069 22.687 23.0461 22.9957C22.8264 23.2559 22.5013 23.401 22.1846 23.5291C19.0912 24.7798 15.6599 25.1952 12.3544 24.719C12.1343 24.6873 11.9066 24.6487 11.7227 24.5244C11.4584 24.3457 11.3356 24.0288 11.1766 23.7534C10.8937 23.2636 10.4642 22.8698 10.1807 22.3803C9.89721 21.8909 9.79198 21.2212 10.1631 20.7934C10.418 20.4995 10.8267 20.3975 11.2099 20.3223C13.6854 19.8371 16.2535 19.822 18.7347 20.278C17.0906 20.7764 15.167 20.1765 14.1233 18.8022C13.7072 18.041 13.4496 17.1948 13.3716 16.3321C18.9881 14.5914 25.2257 15.408 30.6989 13.2637C32.8211 12.4322 34.8571 11.1522 37.1379 11.0982C38.5294 11.0652 40.1198 11.7113 40.4207 12.9474C40.5366 13.0887 40.6524 13.23 40.7683 13.3714C41.0634 13.4031 41.3073 13.0938 41.3071 12.7991C41.3068 12.5043 41.1339 12.2384 40.9461 12.0102C40.7583 11.7819 40.545 11.5645 40.4366 11.2901C40.3672 11.1145 40.3419 10.918 40.2312 10.7647C40.0673 10.538 39.761 10.4639 39.5537 10.2754C39.3465 10.0869 39.3529 9.63469 39.6339 9.62989C39.707 9.62863 39.7757 9.6617 39.8408 9.69459C40.4388 9.99654 41.0219 10.3606 41.4423 10.8797C41.8628 11.3988 42.1017 12.0969 41.9407 12.7436C41.7829 12.7328 41.6252 12.722 41.4675 12.7112C41.1607 12.2978 40.9092 11.8439 40.7218 11.3653C43.5943 10.8392 45.6723 11.1095 48.53 10.1786C49.8499 9.7487 51.2655 8.56257 52.5222 7.97498C53.0471 7.72959 53.5909 7.4795 54.4202 7.51439C54.7915 7.83343 55.2178 8.08905 55.6751 8.2667C55.9692 7.86932 56.301 7.65371 57.0411 7.11333C56.9579 6.63983 56.7892 5.7479 56.7892 5.7479C56.8424 5.47515 57.6493 4.61708 57.5109 2.48706C57.4854 2.09384 57.3132 1.6268 56.9229 1.55624C56.7883 1.5319 56.6488 1.56299 56.5134 1.5435C56.1868 1.4965 55.9701 1.17784 55.6634 1.05702C55.2842 0.907715 54.8652 1.08534 54.4755 1.20482C53.9475 1.36669 53.3865 1.42147 52.8369 1.36479C52.7082 1.35152 52.5667 1.33517 52.4599 1.40751C52.3843 1.45865 52.3412 1.54577 52.3167 1.63324C52.2286 1.94763 52.3603 2.3106 52.7002 2.68929C52.7892 3.60194 52.9669 4.50602 53.2299 5.38497C53.403 5.96357 53.7065 6.61607 54.3027 6.734C54.629 6.79857 54.9624 6.67874 55.2635 6.53814C55.7562 6.30812 56.2667 5.9492 56.3453 5.4142C56.3804 5.17509 56.3222 4.93347 56.304 4.69249C56.2837 4.42228 56.2701 3.94997 56.35 3.69087C56.3717 3.62033 56.3985 3.54844 56.4508 3.49598C56.5673 3.37901 56.7804 3.40597 56.8962 3.52364C57.4899 4.12698 56.7797 4.81003 56.4357 4.90821C56.1539 4.44249 56.4311 3.71798 56.0055 3.37646C55.8199 3.22749 55.5267 3.18547 55.4396 2.96484C55.3807 2.81591 55.4399 2.62437 55.3337 2.50405C55.257 2.41711 55.1263 2.40742 55.0099 2.40675C52.7198 2.39346 52.936 3.11008 52.7481 2.75888C52.7394 3.61748 52.7328 4.13835 52.9775 4.96191C53.2222 5.78546 53.6714 6.47843 54.4701 6.80741C54.3679 7.06724 54.3849 7.07429 54.2982 7.34279C54.0867 7.90475 54.3314 8.59994 54.8495 8.90862C55.1346 8.70705 55.4198 8.5055 55.705 8.30393C55.9113 8.4738 56.1545 8.59923 56.413 8.66918C56.8398 8.28614 57.1031 7.72906 57.2347 7.15281C58.4154 7.14752 59.5966 7.26964 60.8827 7.90829C62.7831 8.62106 64.6597 9.3964 66.5083 10.2326C66.3749 10.4869 65.8855 10.3118 65.9461 10.0315C67.9032 10.1851 69.8602 10.3388 71.8173 10.4925C71.5496 11.1175 71.5072 11.835 71.7505 12.4433C72.34 12.5054 72.9379 12.054 73.0353 11.4733C73.0644 11.2995 73.051 11.112 72.9588 10.9615C72.8666 10.8109 72.6837 10.7082 72.5099 10.7442C72.3362 10.7802 72.2048 10.9793 72.2712 11.1428C72.2832 11.1725 72.3033 11.2021 72.334 11.2121C72.3639 11.2218 72.3964 11.2109 72.4255 11.1988C72.8759 11.0117 73.1484 10.5627 73.3902 10.1415C73.5188 9.91749 73.6475 9.69346 73.7761 9.46941C73.8015 9.42521 73.8275 9.37898 73.8306 9.3282C73.8384 9.19867 73.687 9.10547 73.5574 9.12191C73.4278 9.13833 73.321 9.22739 73.2234 9.31369C72.7577 9.72547 72.3138 10.1614 71.8147 10.6319C71.6749 11.3125 71.6152 11.5594 71.5474 12.2507C71.1008 12.0558 68.9651 13.2877 65.1491 12.4372C63.8588 12.1496 62.5941 11.1546 61.3744 10.6472C61.7481 14.0226 62.3437 18.213 62.7173 21.5884C62.7291 21.6951 62.7384 21.8125 62.6763 21.9003C62.6227 21.976 62.5288 22.0108 62.4401 22.039C61.6755 22.2824 60.8554 22.352 59.926 22.1513C59.7713 18.2985 59.3976 14.4544 58.8075 10.6433C58.6142 9.39499 58.304 8.00337 57.1993 7.39066C56.891 7.86352 56.5827 8.33636 56.2743 8.8092C56.1886 8.94067 56.0991 9.07602 55.967 9.16159C55.8349 9.24716 55.6476 9.26949 55.4932 9.27846C55.3171 12.0409 55.2951 14.813 55.4274 17.5778C55.46 18.2596 55.5049 18.9546 55.7593 19.5887C56.0137 20.2228 56.5155 20.7964 57.1813 20.9661C57.2877 20.6293 57.394 20.2927 57.5004 19.9559C57.5607 19.7651 57.6216 19.5701 57.6178 19.3701C57.6135 19.1392 57.5236 18.9197 57.4422 18.7034C56.3577 15.8199 56.6172 12.6204 55.9909 9.60595C55.9579 9.44728 55.9185 9.28118 55.8084 9.16152C55.6984 9.04187 55.4943 8.99174 55.3713 9.09817C55.2959 8.96392 55.2204 8.8297 55.1431 8.58303C54.8408 8.63093 54.5208 8.55766 54.2702 8.38314C54.2788 12.9899 53.5189 16.4247 53.4217 21.0304C53.4115 21.5121 53.4107 22.0086 53.5925 22.4553C53.0992 22.3735 52.589 22.3938 52.1039 22.5146C51.891 22.2319 51.9128 21.8444 51.9441 21.4929C52.2474 18.0908 52.2844 14.3579 52.5461 11.0213C52.5519 10.688 52.232 10.0744 52.5634 10.0215C52.9703 9.95657 52.8347 10.8363 52.6799 11.2156C52.2517 12.2652 51.5886 12.4437 43.2743 13.2188C42.8216 13.1743 42.3688 13.1298 41.9161 13.0853C41.6693 12.815 41.8543 12.3443 42.1784 12.1725C42.5024 12.0006 42.894 12.0387 43.2586 12.0839C44.1652 12.1964 45.0736 12.3248 45.9872 12.3202C47.1836 12.3142 51.4447 11.5881 52.6656 11.3982C52.599 12.8706 53.0008 14.0394 53.1603 15.5048C53.2805 16.6091 53.4955 17.7734 54.2438 18.5991C55.1155 19.561 56.5185 19.8457 57.8216 19.8605C59.1247 19.8753 60.4409 19.677 61.8326 20.092C61.8585 23.077 61.4404 28.7074 61.4663 31.6925C61.5029 35.9074 61.7611 37.176 61.3937 41.3752C60.7196 41.349 60.2675 41.7636 59.3896 41.4923C58.6097 37.3601 56.4782 20.9459 57.0887 22.3758C58.0297 24.5797 56.0656 35.4405 55.5952 41.2036C54.9775 41.2106 53.9159 41.2176 53.3877 41.2907C52.4792 41.8077 51.5707 42.3246 50.6622 42.8415C50.5489 42.906 50.4256 42.9829 50.3918 43.1082C50.3141 43.3965 50.7313 43.5411 51.0318 43.5409C52.1611 43.54 53.2902 43.4628 54.4089 43.3102C54.6666 43.275 54.941 43.2278 55.1298 43.0501C55.4776 42.7228 55.3598 42.1569 55.2159 41.7031C55.1751 41.5745 55.1296 41.4387 55.0256 41.352C54.9597 41.2971 54.8759 41.2675 54.7916 41.2509C54.5297 41.1994 54.2607 41.2648 53.994 41.2761C53.7273 41.2874 53.0697 41.4873 52.9294 41.2618C52.8021 41.0573 52.9184 37.1168 52.737 35.4777C52.8291 31.0234 52.9211 26.5691 53.0769 22.2836C53.55 21.7914 54.0232 21.2992 54.4963 20.807C54.661 20.6357 54.8322 20.4598 55.052 20.3678C55.2668 20.2778 55.5073 20.2766 55.7404 20.28C57.0533 20.2998 58.3645 20.4243 59.6573 20.6522C60.082 20.7271 60.5367 20.8307 60.8211 21.1528C61.0926 21.4603 61.1462 21.8974 61.1668 22.3058C61.2388 23.731 61.0568 25.1685 60.6235 26.7018C60.5197 28.1337 59.7788 29.5932 60.2734 30.9422C60.4221 31.3475 60.6748 31.7081 60.8338 32.1096C61.017 32.572 61.0703 33.0737 61.1147 33.5687C61.3086 35.729 61.3672 38.0336 61.29 40.2011C61.2841 40.3656 61.2754 40.5375 61.1925 40.6801C61.0306 40.9586 60.6635 41.0198 60.3569 41.1235C59.5541 41.395 58.9542 42.1778 58.9044 43.0185C58.8969 43.1448 58.9037 43.2806 58.9784 43.3831C59.0905 43.5368 59.3084 43.5598 59.4994 43.5664C60.2661 43.5926 61.0344 43.5742 61.799 43.5113C61.8885 43.5039 61.9813 43.4949 62.0586 43.4495C62.3224 43.2946 62.2124 42.8964 62.0706 42.6265C61.8009 42.113 61.4225 41.5289 60.9308 41.4139C60.4845 41.2036 60.0104 40.9681 59.7703 40.5394C59.6661 40.3533 59.6143 40.1435 59.5655 39.9362C59.1129 38.0148 58.817 36.0569 58.817 33.9366C58.58 31.0222 58.3429 28.0982 58.4843 25.1777C58.5334 24.1635 58.6695 23.0595 59.3974 22.3463C60.18 21.5793 61.5484 21.3675 61.9322 20.3442C62.1045 19.8851 62.0201 19.3753 61.9336 18.8929C61.5452 16.7265 61.1567 14.56 60.7021 12.4914C60.7543 11.8285 60.8788 11.1712 61.0729 10.5348C60.7416 10.2607 60.3864 9.94478 60.3344 9.51976C60.2712 9.00402 60.7158 8.52843 61.2218 8.39656C61.7279 8.26468 62.2658 8.40084 62.7511 8.59509C63.7314 8.98751 64.6023 9.61247 65.5757 10.0215C67.3667 10.7742 69.3779 10.7511 71.2341 10.733C71.7465 10.8482 72.2587 10.9634 72.7711 11.0786C72.1418 11.8345 72.6284 13.0704 73.4798 13.5673C74.3312 14.0642 75.3812 14.0344 76.3677 13.9899C81.4731 13.7596 86.1411 13.3356 92.2948 13.9473C97.6075 16.0201 105.423 13.1813 106.235 20.1657C106.327 20.9579 105.062 21.9589 104.339 22.3058C100.635 24.0825 100.423 25.9318 96.7191 27.7094C95.8657 28.1191 94.7569 28.6729 94.8964 29.6039C95.0005 30.2983 95.7781 30.6626 96.467 30.8202C97.6286 31.0859 98.8458 31.1092 100.017 30.8879C101.517 30.6044 102.91 29.9334 104.333 29.3822C109.045 27.5571 114.272 26.9871 118.623 24.4261C118.564 19.0389 118.505 13.6518 117.797 8.3728C112.225 7.75591 107.015 5.13034 101.43 4.64119C99.7811 4.49679 97.905 4.63262 96.8138 5.86863C97.6965 6.09097 98.6614 5.97354 99.4639 5.54613C96.5013 5.53335 93.778 7.03585 90.9373 7.87115C85.8538 9.36596 80.3776 8.71501 75.1697 9.70067C74.4419 9.83842 73.6756 10.0324 73.1662 10.5667C72.6569 11.101 72.5615 12.0825 73.1594 12.517C73.5132 12.7741 73.9877 12.772 74.426 12.7594C76.242 12.7072 78.0579 12.6549 79.8216 12.7475C83.9462 13.5013 88.1634 13.5458 92.3552 13.6746C92.8924 13.6912 94.6952 14.0616 94.3869 14.5064C93.4746 15.4147 92.7182 16.4769 92.16 17.6337C91.7568 18.4693 91.4608 19.4683 91.8682 20.3018C92.1646 20.9083 92.776 21.297 93.3873 21.5905C95.1436 22.4335 97.1059 22.7402 99.0414 22.9817C100.183 23.1243 101.635 23.0868 102.114 22.0473C102.183 21.8968 102.224 21.7248 102.179 21.5656C102.137 21.4207 102.03 21.3048 101.926 21.195C101.004 20.221 99.8997 19.1862 98.5542 19.2267C98.8077 19.4799 99.2344 19.234 99.4829 18.9759C100.436 17.9862 101.137 16.7596 101.505 15.4399C100.25 16.4565 99.2355 17.765 98.5671 19.2304C98.3885 19.6219 98.2317 20.0562 98.3344 20.4736C98.4476 20.933 98.8467 21.2615 99.2397 21.5288C100.183 22.1701 101.254 22.668 102.392 22.7706C103.53 22.8732 104.741 22.5394 105.535 21.7227C106.329 20.9059 106.608 19.577 106.385 18.8203C106.62 15.6468 109.525 12.892 112.728 12.8051C113.512 12.7838 114.312 12.9084 115.007 13.2693C115.942 13.7552 116.617 14.6316 117.093 15.5672C118.176 17.695 118.351 20.1496 118.485 22.5299C118.886 29.6579 119.096 36.7965 119.115 43.9357C120.41 43.9571 121.705 43.9786 123 44" stroke="#3464AF" stroke-width="0.6" stroke-miterlimit="10" stroke-linecap="round" stroke-linejoin="round"/>
</svg>
