<svg width="101" height="71" viewBox="0 0 101 71" fill="none" xmlns="http://www.w3.org/2000/svg">
<path d="M60.9466 31.9547C61.4208 32.5248 57.513 31.2585 61.8758 29.7382C66.2386 28.2179 65.7615 26.1684 63.7698 23.7929C61.7781 21.4174 62.9162 15.051 64.0543 15.8111C65.1924 16.5713 69.3169 19.5145 69.3655 26.3584C69.4163 33.4973 68.6235 36.4619 64.5285 35.9555C61.2787 35.5536 55.7082 37.0007 52.6732 37.9509C49.6382 38.9011 47.7212 38.8519 45.9026 42.5496C44.3982 45.6083 42.4915 47.2037 43.6018 44.6331C44.9558 41.4981 42.9298 45.7266 42.0508 45.7426C41.2922 45.7565 43.3786 42.1319 43.3786 42.1319C43.3786 42.1319 40.3436 45.1725 39.7745 44.4123C39.2055 43.6522 42.2284 41.1316 42.525 41.0866C43.0246 41.0109 38.3899 43.7219 39.6195 41.8846C41.1877 39.5413 41.1571 39.1966 44.9909 37.0007C49.2724 34.5485 53.8113 33.485 53.3371 42.892C52.8628 52.299 50.8711 55.1497 52.1041 60.7559C53.3371 66.3621 55.5184 69.2127 52.0093 70.0679C48.5001 70.9231 46.9826 70.1629 46.9826 66.6471C46.9826 63.1314 47.931 61.421 47.931 61.421C47.931 61.421 46.2238 66.077 49.0691 67.1222C51.9144 68.1675 53.2422 66.7422 52.5783 64.5567C51.9144 62.3712 49.6382 61.9911 47.8362 60.7559C46.0342 59.5206 46.2238 52.7741 46.129 50.1136C46.0342 47.453 48.0259 61.9911 46.8877 62.3712C45.7496 62.7513 39.5849 59.9007 39.3003 53.8194C39.0158 47.7381 40.9127 45.2675 40.9127 45.2675C40.9127 45.2675 38.0871 54.3761 41.9559 58.7604C46.1994 63.5693 53.0572 64.1511 54.6649 61.9911C55.9933 60.2063 55.1391 52.014 55.1391 52.014C55.1391 52.014 55.2339 63.9866 55.0442 65.792C54.8545 67.5973 53.8113 70.2579 56.8462 70.3529C59.8812 70.448 60.1121 70.5856 60.6811 68.9702C61.1165 67.7344 59.0291 63.2839 59.3979 62.0547C59.6853 63.3181 60.6504 66.8372 58.4586 66.8372C55.5184 66.8372 54.6649 61.8011 56.2772 61.6111C57.8895 61.421 58.5908 64.4924 59.9761 60.8509C61.4306 57.0272 66.4755 40.6896 64.5285 39.9464C63.7661 39.6553 60.5451 37.0007 56.7514 42.2269C52.9577 47.453 53.8113 53.1542 57.4153 53.1542C61.0193 53.1542 61.92 54.962 63.5801 50.2086C64.6058 47.2714 64.9288 41.8846 64.7124 39.157C64.6536 38.4154 66.3936 35.6868 66.7429 36.3434C68.6432 39.9148 71.4819 50.1094 69.3655 55.3397C66.5202 62.3712 60.5041 61.2125 60.5041 61.2125C60.7695 66.4072 91.3824 47.3509 99.9997 62.3712" stroke="#3464AF" stroke-width="0.6" stroke-miterlimit="10"/>
<path d="M-31.0002 21.6696C0.791076 48.3149 -3.93977 8.29894 9.11737 24.844C22.1745 41.389 35.0424 36.6756 36.6509 24.6516C38.2594 12.6276 37.7863 26.1907 39.111 28.8841C40.4356 31.5774 41.5983 31.8115 42.6391 30.7534L43.6526 30.1346C45.3148 28.8571 49.4242 27.9221 54.3443 29.846C59.2644 31.7698 59.1698 31.5774 60.4944 32.1546C61.819 32.7317 58.0344 32.8279 57.7505 32.7317C57.4667 32.6356 61.0621 33.2127 62.3867 36.387C63.7114 39.5614 60.3399 36.0488 60.3399 36.0488C60.3399 36.0488 63.9006 40.5233 61.9137 39.5614C59.9267 38.5995 59.0751 36.9642 59.0751 36.9642C59.0751 36.9642 62.8598 40.9081 60.1159 39.7538C57.372 38.5995 56.3313 37.4452 56.3313 37.4452C56.3313 37.4452 60.8729 40.6195 57.7505 39.9462C54.6282 39.2728 51.3166 35.3289 50.465 34.4632C49.6135 33.5975 42.4226 37.0604 39.4894 37.6375C36.5563 38.2147 34.8588 35.5902 34.7586 33.2127C34.3236 22.8971 35.4061 19.367 39.2056 15.6095C43.7955 11.0704 43.558 18.3029 43.9364 9.74182C44.3149 1.18072 51.5058 -3.34032 52.5466 6.85605C53.5874 17.0524 51.1273 -1.60886 56.5205 3.48933C61.9137 8.58751 64.4683 19.9382 61.1567 21.0925C57.8451 22.2468 63.3329 17.5334 58.6967 15.321C54.0604 13.1086 58.4128 14.4553 54.8174 18.0144C51.2219 21.5735 48.8565 20.5154 50.8435 22.5354C52.8304 24.5554 53.7521 26.8049 56.323 24.8297M56.323 24.8297C59.1655 22.6458 60.6048 26.0413 60.1634 22.1371C59.8602 19.4562 60.4723 22.0473 60.2075 23.618C59.9497 25.1468 58.6625 22.8551 56.323 24.8297Z" stroke="#3464AF" stroke-width="0.6" stroke-miterlimit="10"/>
</svg>
