<svg width="106" height="54" viewBox="0 0 106 54" fill="none" xmlns="http://www.w3.org/2000/svg">
<path d="M1 52.3798L4.57638 52.1609C4.57638 52.1609 4.13423 51.8064 3.85306 50.8267C3.57161 49.8471 5.91577 49.206 7.32237 48.7548C8.72915 48.3032 9.22044 48.0364 10.4229 47.1388C11.6258 46.2415 12.5043 45.6979 13.093 46.0519C13.6814 46.4055 14.3946 46.6145 13.4903 47.291C12.5859 47.9677 12.9754 48.2885 13.4687 48.7689C13.9626 49.2487 14.9975 49.8297 15.2873 48.932C15.5774 48.0344 15.951 48.1403 16.3004 48.2869C16.6497 48.4335 17.035 48.0997 16.9211 48.4376C16.8072 48.7754 17.1131 48.7829 17.2335 49.8471C17.3536 50.9112 16.1085 50.8867 16.0025 51.2114C15.8966 51.5354 8.55005 51.3024 7.43963 51.3265C6.32921 51.3505 4.25145 51.4333 5.02266 51.7265C5.79393 52.0201 7.83366 51.94 8.69245 51.9992C9.55148 52.0586 14.5704 51.8246 15.8999 51.9206C17.2294 52.0167 17.0643 51.8377 17.8534 50.6598C18.6425 49.4817 17.711 48.3344 17.711 48.3344C17.711 48.3344 17.5537 47.8571 14.7476 46.3565C11.942 44.8555 12.3133 43.7454 12.3133 43.7454C12.3133 43.7454 13.2642 43.1437 13.941 41.8782C14.6177 40.6123 15.0961 40.265 16.2812 38.9997C17.4665 37.7343 17.3239 37.4954 18.3469 35.5861C19.3691 33.6774 22.7217 28.9469 22.7217 28.9469C22.7217 28.9469 23.1182 29.1857 23.6315 30.0006C24.1447 30.8153 28.081 35.6611 28.081 35.6611C28.081 35.6611 22.1565 42.871 21.8154 43.2887C21.4743 43.7062 21.0511 44.3226 20.6075 44.6801C20.1636 45.0378 19.8846 45.3989 19.4151 46.3127C18.9456 47.2262 18.2799 47.978 18.5149 47.7765C18.7497 47.5743 19.0803 47.8563 19.0803 47.8563C19.0803 47.8563 18.2069 47.7842 18.402 48.3498C18.5975 48.9159 18.3741 50.9265 18.3741 50.9265C18.3741 50.9265 18.9298 50.3841 19.3291 49.4573C19.7283 48.5307 18.8759 48.0352 19.297 47.5607C19.7182 47.0862 19.4127 46.7922 19.7067 45.9843C20.0005 45.176 20.2022 45.6837 21.1252 45.2878C22.0484 44.892 21.2022 44.7757 21.7164 44.2994C22.2304 43.8233 22.1254 44.3799 22.7847 43.1863C23.4434 41.992 24.5001 41.0624 25.3756 39.6593C26.2512 38.256 27.9381 36.3034 28.2262 35.9953C28.5139 35.6876 29.4642 37.4328 30.8571 38.7703C32.2502 40.1077 33.3493 38.6191 34.1312 37.9375C34.9132 37.2557 36.9039 35.6219 37.5779 35.1083C38.2517 34.5954 39.4397 32.59 39.9863 33.2447C40.5327 33.8993 41.7602 33.2218 42.4599 31.9578C43.1598 30.6941 44.3909 29.8101 45.5168 29.3274C46.6422 28.8445 46.0978 27.3411 45.2278 24.7988C44.3584 22.2569 41.0858 22.7861 41.9898 21.1948C42.8938 19.6037 45.6827 20.036 46.4052 19.6081C47.1278 19.1806 46.6406 18.4825 46.6406 18.4825C46.6406 18.4825 48.9251 20.7559 48.6983 19.8309C48.4721 18.906 47.3579 17.904 46.6592 17.4995C45.9605 17.0949 46.0738 16.5359 46.4891 15.5919C46.9046 14.6474 46.697 12.8939 46.2251 12.2195C45.7528 11.5448 45.5829 10.4468 45.5829 10.4468C45.5829 10.4468 45.5829 11.0634 46.2251 12.6434C46.867 14.2234 45.9042 15.4375 45.1864 16.4975C44.4691 17.5573 43.7513 17.5379 43.7513 17.5379C43.7513 17.5379 45.3506 16.3434 45.7466 14.7015C46.1426 13.0595 45.8493 12.8209 44.9544 11.5415C44.059 10.2622 45.052 9.19671 44.7048 6.6851C44.3571 4.17386 42.9491 4.61844 41.0955 3.6622C39.2417 2.7053 39.3475 4.10556 38.0258 4.92214C36.7042 5.73897 35.3608 4.85182 35.3608 4.85182C35.3608 4.85182 37.8152 4.10925 39.7768 2.6853C41.7381 1.26135 45.1664 3.98187 45.5775 5.50806C45.9886 7.03445 46.5666 9.67003 46.8977 10.5946C47.2288 11.5191 47.1651 13.739 47.0433 15.2088C46.922 16.6788 48.0481 17.6 48.7551 18.1893C49.4628 18.778 49.2557 19.5286 49.2557 19.5286C49.2557 19.5286 49.7466 19.1874 48.8655 17.5839C47.9843 15.9807 48.4861 16.4912 48.2278 15.0279C47.9692 13.5647 47.4094 12.9216 47.4094 12.9216C47.4094 12.9216 48.0893 13.541 48.9208 14.5707C49.7524 15.6006 49.7504 18.8993 49.7574 17.4347C49.7637 15.9705 49.8681 15.1127 48.9324 13.7062C47.9967 12.2992 47.3862 12.799 47.5279 10.0232C47.6689 7.24691 46.8685 5.76298 45.4586 3.33241C44.0491 0.902079 41.7188 0.715276 40.8555 1.23949C39.993 1.76309 40.1299 1.60968 38.9731 1.75987C37.8164 1.91006 35.1865 3.576 34.3132 4.51633C33.4401 5.45703 33.1865 6.90444 33.3456 8.04772C33.5051 9.19142 33.372 9.40168 33.411 10.1813C33.4495 10.9611 33.4106 10.9817 33.7963 11.5001C34.1819 12.0184 34.3023 12.4948 34.3023 12.4948C34.3023 12.4948 34.4707 11.9509 34.4971 11.4786C34.5235 11.0062 34.2192 10.8719 33.8401 10.2919C33.4614 9.71184 33.7603 9.89522 33.6448 9.14451C33.5295 8.39342 33.6151 7.13974 33.7943 6.49703C33.9737 5.85414 34.7081 4.836 34.9309 5.38568C35.1536 5.93602 35.559 6.26941 35.9034 6.25766C36.2477 6.24614 36.8644 5.75221 37.3746 6.59736C37.8841 7.44246 38.0842 6.95177 38.4034 7.51278C38.7232 8.07384 38.9216 7.59612 40.1226 6.34179C41.3235 5.08774 43.8248 6.2181 43.5643 7.38989C43.3038 8.5613 44.2735 13.11 43.7904 14.6441C43.3066 16.1786 43.2271 17.7204 41.9693 17.7926C40.7114 17.8645 41.1405 18.7755 41.1405 18.7755C41.1405 18.7755 41.1183 18.185 41.0497 17.2269C40.9806 16.2684 41.2744 15.4759 41.9255 14.5481C42.5767 13.6205 42.9626 10.8244 42.5541 12.0045C42.1454 13.1846 41.8318 13.9373 40.8817 14.7943C39.9317 15.6509 39.6944 17.1751 39.7626 16.8828C39.8307 16.5901 39.6031 16.3147 40.0502 15.5765C40.497 14.8386 40.4889 14.8002 40.7292 13.3637C40.9689 11.9271 41.6115 11.6487 41.433 11.7162C41.2541 11.7842 41.1004 11.5043 41.3835 11.1481C41.667 10.7921 41.6565 10.0904 41.5348 10.5396C41.413 10.9888 41.2712 10.7102 40.9814 11.1283C40.6913 11.5462 40.9486 11.7747 41.6379 11.2891C42.3277 10.8032 42.3816 10.0718 42.2169 9.5528C42.0517 9.03402 42.1742 9.14802 42.3494 8.42946C42.5248 7.71115 41.8342 7.52154 41.1404 7.70651C40.4462 7.89172 40.3571 8.38199 40.1346 8.96992C39.9119 9.55786 40.5164 11.4637 40.37 12.711C40.2239 13.9576 39.317 14.7567 38.816 15.3136C38.315 15.8705 38.1555 17.2411 38.1555 17.2411C38.1555 17.2411 38.0897 17.3963 38.3328 16.0473C38.5755 14.6988 39.0587 14.6528 39.6047 13.6755C40.1509 12.6988 39.8872 11.9565 39.9248 11.0351C39.9627 10.114 39.1653 8.63617 39.1653 8.63617C39.1653 8.63617 39.2477 8.78312 39.4393 10.0805C39.6309 11.3772 38.8352 13.7647 39.0789 13.0919C39.3228 12.4187 39.3921 11.0881 39.0177 9.78314C38.6433 8.47769 37.773 8.59309 37.2202 8.03086C36.6681 7.46901 36.8098 6.83417 36.0092 6.86979C35.2087 6.90556 34.5601 5.87001 34.5601 5.87001C34.5601 5.87001 34.6318 5.20244 34.1524 6.47493C33.6724 7.74682 33.8926 8.92404 33.856 9.60257C33.8196 10.2809 34.3405 10.5603 34.5353 10.8949C34.7297 11.2295 34.9369 11.5681 34.1343 13.0541C33.3318 14.5407 34.8156 14.0599 35.0058 13.9907C35.1959 13.9212 35.1754 14.3605 35.0859 14.7489C34.9961 15.1377 35.2206 15.2804 35.6003 15.3285C35.9805 15.3766 35.7662 15.711 35.8806 15.8912C35.9952 16.0709 36.516 15.9334 36.4808 16.8859C36.4459 17.8377 37.607 18.1901 38.4396 17.9065C39.2721 17.6228 40.2043 17.6149 40.6159 18.1619C41.0278 18.709 41.1753 20.0352 40.6103 20.8772C40.0452 21.7195 38.4959 22.7401 38.4959 22.7401C38.4959 22.7401 38.8099 21.8906 39.2588 21.5722C39.7076 21.2537 40.0646 20.633 40.6917 19.9109C41.3189 19.1893 42.8121 18.5387 44.1965 18.3863C45.5812 18.2341 46.5445 17.8912 46.5322 18.1172C46.5201 18.3435 47.1356 18.8683 47.5988 19.4315C48.0622 19.9945 49.4693 21.3012 49.6676 21.8093C49.8656 22.3177 50.0873 23.7243 50.0873 23.7243C50.0873 23.7243 49.9638 23.5271 49.793 22.5104C49.6223 21.4935 48.7811 20.9688 48.2112 20.3866C47.641 19.8041 46.6376 18.2799 46.6376 18.2799C46.6376 18.2799 46.7489 18.8898 46.5132 19.017C46.2774 19.1436 45.8432 19.5532 44.3811 19.4509C42.9188 19.3491 41.9568 20.1523 41.1721 20.8823C40.3874 21.6122 38.1559 23.7393 37.9662 23.9917C37.7758 24.2441 38.0038 24.5839 37.8136 25.0208C37.6236 25.4575 36.929 26.4377 36.929 26.4377L33.6289 26.0107L36.91 26.506C36.91 26.506 37.3762 25.9039 37.6712 25.2729C37.9662 24.6419 39.3355 23.4386 38.9171 23.7393C38.4985 24.0403 37.9279 24.7103 37.9279 24.7103L37.9073 24.3417L20.7058 21.6504C20.7058 21.6504 22.4361 21.8618 22.7051 22.0794C22.9741 22.2963 22.9879 22.5745 23.3818 22.9013C23.7758 23.2283 23.833 24.1682 23.833 24.1682L25.9144 24.6171L24.9617 25.9478C24.9617 25.9478 26.5664 23.8652 27.648 23.2684C28.7297 22.6713 29.7026 23.1443 30.4281 23.4414C31.1539 23.7388 33.2949 25.8128 33.2949 25.8128L35.6441 28.3341L36.8573 26.6526C36.8573 26.6526 35.5613 28.7327 35.0797 29.4731C34.5981 30.2134 33.1114 31.8927 32.7517 32.3628C32.3922 32.8326 32.7331 33.6881 32.7331 33.6881C32.7331 33.6881 32.7894 33.2683 32.4251 32.5129C32.0603 31.7574 29.617 30.6999 28.4793 29.8193C27.3418 28.9386 24.6364 26.1544 24.1023 25.3465C23.568 24.5388 23.7263 24.3993 23.7855 24.1019C23.8448 23.8047 23.7303 23.5223 23.319 23.109C22.9071 22.6954 22.5517 22.2383 22.0317 21.9484C21.5114 21.6583 20.6964 21.8041 20.3965 21.6839C20.0967 21.5634 20.3315 20.9054 20.3315 20.9054L20.2954 21.3932L19.8842 21.0259C19.8842 21.0259 20.3864 21.0574 20.3418 20.8156C20.2971 20.5734 19.9543 20.0617 19.9876 20.2083C20.0205 20.3553 20.4208 20.7196 20.4208 20.7196L20.7867 20.0818C20.7867 20.0818 21.7475 20.0877 21.5602 20.0186C21.3731 19.9494 20.4468 19.6054 20.0301 19.5489C19.6135 19.4924 19.1557 19.6567 19.0224 19.9816C18.8889 20.3071 19.3241 20.7145 19.3241 20.7145C19.3241 20.7145 19.0232 20.4556 18.8251 20.3837C18.6272 20.3118 18.4221 20.7465 18.3662 21.0794C18.3101 21.4118 18.8332 22.1186 18.8332 22.1186C18.8332 22.1186 18.573 21.5923 18.5699 21.8917C18.5671 22.1915 18.285 22.3298 18.2866 22.8498C18.288 23.3702 18.6186 23.2849 19.2415 23.8554C19.8637 24.4265 21.1629 25.3875 21.365 25.8905C21.5674 26.3937 24.3061 30.3008 24.8424 31.3731C25.3788 32.4458 28.027 35.328 28.6805 36.0999C29.3343 36.8712 30.4917 38.3748 30.4917 38.3748C30.4917 38.3748 31.9783 41.4428 33.6495 44.5395C35.3207 47.6362 37.0052 49.49 38.9293 51.487C40.8528 53.484 47.9173 51.2046 46.8348 51.8265C45.7527 52.4479 42.5852 52.4322 40.5817 52.3159C38.5782 52.1995 36.8929 50.1315 35.8842 48.9485C34.8752 47.7657 32.0805 42.9819 31.648 41.7364C31.2155 40.4905 29.5574 37.142 29.5574 37.142C29.5574 37.142 30.1221 37.6286 30.8811 38.3448C31.6403 39.0611 32.4777 39.0578 33.2701 38.2823C34.0625 37.5068 36.6742 35.63 37.8264 34.5732C38.979 33.5165 39.1933 33.0842 38.3518 32.6247C37.51 32.1651 34.872 30.2051 34.872 30.2051C34.872 30.2051 35.2453 30.5556 36.7212 31.7652C38.1973 32.9746 39.7784 33.6632 40.7169 33.9761C41.6553 34.2892 42.6298 32.7254 43.5875 31.4054C44.545 30.0853 45.9243 30.113 45.9243 30.113C45.9243 30.113 44.6216 30.5689 43.9436 31.375C43.2657 32.1813 41.2435 34.8035 40.8783 34.3393C40.5136 33.875 39.2069 33.2544 39.2069 33.2544L38.4473 34.1591C38.4473 34.1591 39.2089 34.7565 39.9615 35.9575C40.7137 37.1585 41.6525 38.3648 42.0549 38.7659C42.4579 39.1676 42.2201 39.2514 42.1159 40.006C42.0119 40.7603 41.9158 40.8448 42.3072 41.3019C42.6993 41.759 42.9029 42.4207 42.7373 42.2244C42.5723 42.0281 42.0456 41.3347 42.0773 41.8911C42.109 42.448 40.8849 42.5836 41.2752 43.7638C41.6654 44.9443 42.7293 47.451 43.7091 48.3769C44.689 49.3026 47.7165 51.3456 48.123 51.0413C48.5291 50.7375 48.7864 50.8137 49.4915 49.4593C50.1967 48.1053 50.9631 47.7016 51.2362 46.2934C51.5096 44.8846 51.8005 43.1846 51.8817 41.945C51.9627 40.7053 51.4288 40.3927 51.4288 40.3927C51.4288 40.3927 52.1652 41.2407 52.5252 41.991C52.9905 42.962 53.7905 45.681 54.3311 47.5684C54.6169 48.5681 54.1615 48.9504 54.4906 49.6277C55.2962 51.2864 56.3885 50.9291 56.3322 50.7485C56.1763 50.2475 58.0686 49.8074 59.5417 48.172C61.0151 46.5364 63.077 44.5416 63.1832 43.0758C63.2894 41.61 63.1767 41.5495 63.8312 40.7843C64.4856 40.0195 63.6152 39.8977 64.9107 39.1076C66.2064 38.3174 68.7108 37.1721 68.7108 37.1721C68.7108 37.1721 63.8623 38.6727 63.3953 40.803C62.9284 42.9329 63.5423 43.2281 62.4922 44.2678C61.4422 45.3081 60.1966 46.09 59.7658 47.293C59.3346 48.4953 58.9765 49.3437 57.6912 49.8691C56.4058 50.3945 55.3616 51.8019 54.9091 49.9006C54.4572 47.9994 54.2564 46.7153 53.6722 45.7837C53.0875 44.8515 53.143 44.7108 53.1572 43.8131C53.1718 42.9155 52.9373 42.9009 52.642 42.0012C52.3462 41.1016 52.5069 41.3442 52.5069 41.3442C52.5069 41.3442 53.7098 41.7068 54.8954 41.3213C56.0809 40.936 60.5533 40.6489 62.146 39.4864C63.7387 38.3233 66.1631 37.2514 67.2356 37.0516C68.3073 36.8516 69.1412 37.0591 70.0193 36.8252C70.8973 36.5909 71.3545 36.3751 71.7797 35.865C72.2049 35.3553 72.2495 35.3652 72.3164 34.9114C72.3833 34.4573 72.334 34.4033 72.4324 34.1098C72.5314 33.8158 72.3123 33.8109 72.4238 33.5008C72.5359 33.1903 72.723 33.1691 72.6557 32.8197C72.5884 32.4705 72.444 32.2193 72.0661 32.0987C71.6887 31.9783 72.6058 32.3642 73.1847 32.1939C73.7637 32.0239 74.048 31.9613 74.2882 31.8892C74.528 31.8173 74.718 31.156 74.0139 30.9837C73.31 30.8111 72.1451 30.9588 71.7521 31.0931C71.3584 31.2271 71.1199 31.1804 70.4739 31.269C69.8277 31.3576 69.2978 31.0461 68.3371 31.8553C67.3763 32.664 67.0565 33.2064 66.5787 33.3649C66.1002 33.5238 61.4449 35.07 60.5609 35.1123C59.6764 35.1539 58.9361 35.3641 58.9361 35.3641C58.9361 35.3641 59.4499 34.0836 59.4914 33.475C59.5324 32.8663 59.7997 32.6146 60.3345 31.6913C60.8692 30.7675 61.4449 29.5712 61.4449 29.5712C61.4449 29.5712 59.2241 32.9922 59.0799 33.9366C58.9361 34.8812 59.8613 35.07 58.7302 35.6156C57.599 36.1614 56.0361 36.4553 54.9873 36.0985C53.9385 35.7418 51.5731 35.7418 51.5115 36.56C51.4499 37.3786 51.3383 38.6958 51.4047 39.2006C51.4713 39.7056 51.6593 40.486 51.9555 40.7975C52.2521 41.1093 52.4675 41.3294 52.4675 41.3294C52.4675 41.3294 51.5809 40.3559 51.4982 39.6435C51.4158 38.9307 51.3663 37.6381 51.479 37.0825C51.5915 36.527 51.5141 36.5116 51.5141 36.5116C51.5141 36.5116 50.9946 36.5456 51.1573 35.7323C51.3204 34.9191 51.4721 32.0998 51.3647 31.2827C51.2567 30.4652 51.1557 30.0706 51.5561 28.813C51.9571 27.5551 52.0969 26.7846 52.0969 26.7846C52.0969 26.7846 52.1843 25.981 53.0359 25.3839C53.8871 24.7874 51.7279 25.9972 51.5282 27.8748C51.3283 29.7525 51.1127 34.9448 51.167 35.5552C51.2215 36.1659 51.024 33.6504 50.6008 32.1495C50.0433 30.1733 50.1674 29.0888 50.3074 27.0893C50.3377 26.653 50.0354 25.3623 50.1523 24.345C50.2692 23.3277 50.7983 22.7228 51.662 21.9274C52.5258 21.132 53.6729 20.3494 53.9109 20.0823C54.1492 19.8157 55.0223 19.509 55.2422 18.92C55.462 18.3309 55.5169 17.3352 55.5858 16.9567C55.6543 16.5778 57.4824 16.9003 58.9527 17.8262C60.4231 18.7517 62.4981 21.1921 63.144 21.4024C63.7901 21.6128 63.1851 22.0052 62.9652 22.9029C62.7457 23.8005 62.6767 24.0949 62.6767 24.0949C62.6767 24.0949 61.9209 23.0992 60.5742 21.9353C59.2273 20.7714 57.29 18.92 56.3005 19.0741C55.3108 19.2286 55.5445 18.3168 55.7506 17.8121C55.9567 17.3069 56.795 17.1389 57.3723 17.6858C57.9493 18.2329 61.344 21.0518 61.7972 21.3043C62.2509 21.5564 62.993 20.8274 63.1579 20.645C63.3226 20.4625 63.5735 20.2257 64.0511 20.3308C64.5281 20.4364 64.837 20.1069 65.0697 19.7146C65.3028 19.3221 65.4152 19.1977 65.7228 19.1368C66.031 19.0762 65.9539 18.6315 66.1612 18.487C66.3685 18.3431 66.5974 18.229 66.5807 17.9761C66.5645 17.7232 66.4841 17.6138 66.8243 17.4084C67.1638 17.203 68.2024 17.5135 67.8471 16.6031C67.4916 15.6925 67.2742 15.0931 67.7923 14.732C68.3102 14.3712 68.8041 14.1228 68.7883 13.2442C68.7725 12.3657 68.9665 12.2982 68.8522 11.8641C68.8522 11.8641 69.433 10.2718 69.5959 10.8788C69.7581 11.4859 69.2962 11.8233 69.2962 11.8233C69.2962 11.8233 69.8959 11.6448 69.9803 11.1383C70.0648 10.6325 70.2625 10.2746 70.2625 10.2746L70.2815 11.1739C70.2815 11.1739 70.7212 10.7839 70.5265 10.2221C70.3318 9.6602 70.7198 9.65777 70.4508 9.21178C70.1821 8.76575 70.4268 8.39824 69.8324 7.76054C69.2378 7.12289 69.0976 6.64175 68.7247 6.53318C68.3524 6.42442 68.1522 6.31342 67.8312 6.47451C67.5104 6.63543 67.7926 5.33325 66.9757 5.18928C66.1588 5.04513 65.68 4.80533 64.9251 4.4675C64.1701 4.12925 64.0744 3.68088 63.3436 3.93762C62.6127 4.19376 62.0601 3.70494 61.2653 3.54056C60.471 3.376 59.3722 3.65761 59.0508 4.1107C58.73 4.56394 58.5182 4.40243 57.5266 5.06658C56.5347 5.73129 56.1746 6.01477 55.8178 7.10388C55.4605 8.19323 54.531 8.03409 54.9611 8.94066C55.3908 9.84742 55.6323 9.90159 55.2188 10.4315C54.8054 10.9616 54.8205 11.9205 55.5442 11.9355C56.2679 11.9498 55.8867 12.7313 55.6788 13.3307C55.4716 13.9304 56.3934 13.0737 56.2932 13.9556C56.1929 14.838 56.8376 15.3858 57.2098 14.3325C57.5817 13.2794 57.5112 13.2355 58.3003 13.2326C59.0896 13.2294 58.9429 12.6033 59.7127 13.2774C60.4826 13.951 60.5297 13.1664 59.7151 12.3847C58.9 11.6029 60.3033 9.23164 60.9664 9.47424C61.6292 9.71704 61.9951 10.1206 61.9936 10.6416C61.9925 11.162 61.4629 10.9143 61.3717 11.2196C61.2804 11.5243 62.0728 10.2568 62.4372 11.181C62.8018 12.1051 62.696 12.3002 62.696 12.3002C62.696 12.3002 63.6621 10.7765 63.8445 11.2386C64.0268 11.7008 63.7424 11.9411 64.6435 11.3587C65.5446 10.776 65.6176 10.6274 65.9718 10.8029C66.3256 10.9782 67.1553 11.8704 67.4405 11.407C67.726 10.9434 68.3953 11.4274 68.5123 11.9072C68.6293 12.3871 68.6168 11.3843 68.894 11.1259C69.1709 10.8675 68.0817 6.23551 64.0656 6.13279C60.0497 6.03012 57.2897 8.29004 57.3456 11.1425C57.4013 13.9944 57.4962 15.3336 56.8182 16.5652C56.1403 17.7976 56.5813 18.2402 56.5813 18.2402C56.5813 18.2402 59.8588 19.7606 61.3769 21.3651C62.8952 22.9695 62.131 22.3816 63.1524 22.0151C64.174 21.6491 64.2986 21.9174 64.2986 21.9174C64.2986 21.9174 63.9858 22.3812 64.1516 22.9932C64.3176 23.6052 63.4085 23.1619 63.2835 23.2937C63.1585 23.4254 63.5691 22.3505 63.5691 22.3505C63.5691 22.3505 63.2162 23.3816 63.7026 24.1707C64.1895 24.9596 64.0629 25.2592 64.7446 26.02C65.4261 26.7806 65.5527 28.094 65.7755 28.749C65.9982 29.404 66.3885 30.35 66.6101 30.7998C66.8312 31.2499 67.3373 32.5334 67.3373 32.5334L66.5939 30.5885C66.5939 30.5885 72.1688 25.7839 73.4116 24.5116C74.6543 23.2391 75.0816 22.8375 75.0816 22.8375C75.0816 22.8375 76.5726 25.0419 77.2033 25.6791C77.834 26.316 78.1363 26.6463 78.1363 26.6463L73.0457 30.6983L78.8301 26.3722L80.3564 29.1331L79.88 29.6672C79.88 29.6672 78.3991 28.903 77.3045 29.6289C76.2102 30.3546 74.0661 31.9888 73.4631 32.62C72.8601 33.251 72.6403 33.3988 72.6403 33.3988C72.6403 33.3988 74.9334 31.3182 76.0527 30.6031C77.1723 29.8876 77.5501 29.0135 79.4748 29.693C81.3995 30.3725 81.9035 30.7609 82.6066 31.5309C83.3096 32.3008 87.5601 38.7313 88.5882 39.5823C89.6162 40.4326 89.5113 40.4766 90.1006 41.4599C90.6906 42.4429 90.571 42.267 91.1358 43.3109C91.7011 44.3547 91.6956 44.8332 91.8044 45.2896C91.9131 45.7458 91.2988 47.0191 91.703 47.9918C92.1075 48.9639 91.8474 49.2588 91.1831 49.8484C90.5191 50.4375 88.7579 52.0582 87.7185 50.9973C86.6789 49.9366 86.0147 49.9072 85.4371 48.3159C84.8595 46.7248 83.647 46.7542 83.2715 45.31C82.8959 43.8661 82.6075 44.043 81.3367 43.2769C80.0663 42.5105 78.8824 42.098 78.8537 40.9194C78.8248 39.7405 79.1715 40.7425 79.9219 40.1827C80.6725 39.6228 81.1402 38.7575 81.1402 38.7575C81.1402 38.7575 80.5641 39.3277 79.7967 39.6659C79.0286 40.0044 79.6044 38.3482 80.4943 37.511C81.3845 36.6735 80.7043 35.1061 80.7043 35.1061C80.7043 35.1061 81.0356 36.0856 80.2328 37.0653C79.4298 38.0451 79.4298 38.9179 79.0983 39.5414C78.7668 40.1649 78.8192 38.5795 79.0983 37.7778C79.3774 36.9764 79.046 36.6736 79.046 36.6736C79.046 36.6736 78.4871 37.8136 78.5047 38.9357C78.5222 40.0577 78.5222 40.7524 78.2779 40.3608C78.0337 39.9685 77.7367 38.722 77.9115 38.4727C78.086 38.2234 77.4575 39.1498 77.8242 39.8974C78.1908 40.6457 77.6844 40.6457 77.7019 41.8211C77.7193 42.9967 77.0737 43.5134 76.4452 44.2438C75.8173 44.9738 73.3683 47.779 71.1902 49.4261C69.0127 51.0736 68.039 52.3546 65.7844 52.6947C63.5298 53.0345 59.251 53.4267 58.0726 51.8317C56.894 50.2368 58.2522 51.6227 59.0976 50.3937C59.9429 49.1649 59.815 48.877 61.5056 49.3999C63.1968 49.9228 64.119 49.1124 65.1437 48.6157C66.1685 48.1188 66.1685 49.3217 67.7059 49.217C69.2432 49.1125 69.4736 49.8446 68.8074 50.681C68.1417 51.5178 63.2994 52.5898 61.9925 52.5115C60.686 52.433 59.7378 53.5575 59.9943 50.9167C60.2502 48.2759 61.5572 46.8639 63.0173 44.8242C64.4776 42.785 64.0934 42.0791 64.8878 40.8242C65.6817 39.569 67.9623 38.5754 70.2424 37.8694C72.5227 37.1634 73.0863 34.9674 74.7518 33.1373C76.4169 31.3066 78.2617 29.1627 80.7723 31.2023C83.2833 33.2417 83.6388 34.1548 84.8072 36.1793C85.9761 38.2036 87.8241 40.6516 88.7587 41.1968C89.693 41.7421 90.2432 43.8874 90.4503 44.9175C90.6573 45.9478 91.6305 48.0173 90.2168 48.7289C88.8033 49.4411 87.593 50.7255 87.7518 51.3958C87.9102 52.0658 89.1038 52.2993 89.8137 52.0638C90.5238 51.8281 91.7165 51.3867 92.6719 51.8434C93.6278 52.2997 94.7114 52.2227 96.3008 52.229C97.89 52.2345 98.0189 52.6731 98.6294 52.2313C99.2399 51.7896 94.2977 51.4309 93.4777 51.3562C92.6576 51.2815 91.6356 51.3088 91.7212 50.6565C91.8068 50.0039 92.9404 49.0987 92.5787 47.5583C92.2171 46.0185 92.0049 45.4223 92.9247 46C93.844 46.5776 95.2077 46.9912 96.1376 47.6731C97.0676 48.3547 97.248 48.3421 98.5183 48.4929C99.7889 48.644 102.037 49.6068 101.691 50.8742C101.345 52.1412 99.8334 52.4934 99.8334 52.4934L105 52.4823" stroke="#3464AF" stroke-width="0.6" stroke-miterlimit="10" stroke-linecap="round" stroke-linejoin="round"/>
</svg>
