<svg width="63" height="87" viewBox="0 0 63 87" fill="none" xmlns="http://www.w3.org/2000/svg">
<path d="M1.14499 85.7989C1.14499 85.7989 62.2366 86.7612 61.9993 84.4758C61.7621 82.1903 60.2793 65.1098 59.271 65.0497C58.2626 64.9895 44.7395 64.2678 44.6208 65.5308C44.5022 66.7938 43.3094 81.9765 43.6257 82.5378C43.942 83.0992 45.7346 84.4357 45.8664 84.7297C45.9982 85.0237 60.7735 84.997 60.7735 84.0347C60.7735 83.0724 54.526 84.4757 53.0629 82.7917C51.5999 81.1077 56.3844 81.5488 56.7403 80.1454C57.0962 78.7421 55.0005 77.5393 50.8882 75.9756C46.7758 74.4118 49.9787 71.3245 52.3512 71.3245C54.7237 71.3245 57.1752 68.9589 57.452 67.4754C57.7288 65.9918 58.0056 63.1852 57.452 62.9446C56.8985 62.704 42.8217 62.6639 42.7821 63.1451C42.7426 63.6262 43.4741 79.7044 43.138 80.6466C42.8019 81.5889 42.9403 82.3707 42.2286 82.5311C41.5168 82.6915 40.5283 82.8519 40.5283 83.1125C40.5283 83.3731 40.4097 84.3153 41.3191 84.6562C42.2286 84.997 45.7873 85.3578 45.6292 84.997C45.471 84.6361 43.9289 83.2929 43.2764 83.1726C42.624 83.0524 40.2317 82.6514 40.0736 81.9096C39.9154 81.1679 32.106 46.8264 31.7896 47.6283C31.4733 48.4302 24.8106 81.3483 23.6836 81.9497C22.5567 82.5512 21.6407 82.217 20.0063 83.3397C18.3719 84.4623 17.8183 85.1039 18.2928 85.184C18.7673 85.2642 27.1765 86.0127 27.4137 85.3177C27.651 84.6227 27.071 73.503 26.7283 73.6099C26.3856 73.7168 23.6704 82.4309 23.6704 82.8051C23.6704 83.1793 23.6704 84.3287 22.9851 84.5693C22.2997 84.8098 18.9518 85.3177 18.8727 84.9435C18.7937 84.5693 21.092 83.7139 21.2189 83.1793C21.3458 82.6447 20.9685 81.8562 20.7707 81.5087C20.573 81.1612 21.5352 61.0468 21.2189 60.8864C20.9026 60.726 7.19484 60.7527 7.19484 61.1002C7.19484 61.4477 5.53409 85.3979 5.24411 85.3979C4.95414 85.3979 1 85.5315 1 85.1039C1 84.6762 2.34441 62.3298 3.29339 62.1961C4.24239 62.0625 6.69397 61.9556 6.69397 62.41C6.69397 62.8644 4.74324 84.8633 4.90142 84.9167C5.05959 84.9702 17.2911 85.2642 17.3438 84.9969C17.3965 84.7296 8.24925 84.6762 9.14551 83.2595C10.0418 81.8428 14.9186 81.9497 14.9186 81.2013C14.9186 80.4529 9.01371 79.544 10.3581 77.2987C11.7025 75.0533 17.3965 78.261 17.2383 75.1335C17.0801 72.0061 11.6234 70.2419 11.3862 68.5579C11.1489 66.8739 18.4246 65.3503 19.4527 64.3078C20.4807 63.2654 20.283 59.6568 19.8085 58.0931C19.334 56.5294 18.4246 54.7251 16.3289 55.0459C14.2332 55.3666 12.7306 57.9327 12.6515 59.0554C12.5724 60.178 12.3747 62.1427 12.4538 62.3432C12.5329 62.5436 15.1031 60.6592 16.0916 61.7016C17.0802 62.7441 21.5879 60.2983 21.9833 57.8525C22.3787 55.4067 23.0904 41.4736 24.0988 41.5939C25.1071 41.7142 28.3099 44.1199 32.6397 43.2779C36.9695 42.4359 40.0537 40.9323 40.2317 41.8345C40.4096 42.7366 42.8612 63.1851 42.3076 62.8644C41.754 62.5436 35.981 65.4706 36.93 62.303C37.879 59.1355 42.0308 60.1379 40.5282 58.2935C39.0257 56.4492 35.9414 54.7251 36.8113 53.3217C37.6813 51.9184 40.9237 50.9962 38.8675 49.3523C36.8113 47.7084 36.3764 47.3476 37.5626 45.7037C38.7489 44.0598 40.8446 41.8545 40.5678 39.1281C40.291 36.4016 38.5116 20.2833 39.0652 20.3234C39.6188 20.3635 47.5271 20.6041 48.1598 19.2609C48.7924 17.9177 48.7924 16.9955 48.397 16.5144C48.0016 16.0332 38.7225 8.22804 38.5907 8.52208C38.4589 8.81612 38.4523 9.75836 37.8987 9.71825C37.3452 9.67816 36.4357 8.47528 36.4357 8.0543C36.4357 7.6333 36.6532 6.85145 36.4357 6.41039C36.2182 5.96935 35.6251 4.86673 35.9019 4.88678C36.1787 4.90684 36.7323 4.96698 37.1079 5.52829C37.4836 6.08961 38.5512 7.69344 38.4523 8.07433C38.3535 8.45523 37.9661 9.2371 38.0371 9.45761C38.1082 9.67814 42.0506 15.5922 42.5646 16.1535C43.0787 16.7149 44.4033 17.2361 44.4231 17.8776C44.4429 18.5191 44.4429 20.2633 44.2056 19.7621C43.9683 19.2609 43.9881 17.5167 43.652 17.3363C43.3159 17.1559 39.1641 14.4094 36.8113 14.0886C34.4586 13.7678 34.2188 12.2029 34.1199 12.664C34.0211 13.1251 33.5829 15.247 32.4757 15.0666C31.3686 14.8862 30.1684 14.249 30.1091 13.7879C30.0498 13.3268 30.3793 12.5048 30.0893 12.3177C29.7993 12.1306 29.2062 11.3287 28.9162 10.7273C28.6263 10.1259 28.5867 9.01657 28.4154 8.90966C28.244 8.80275 27.7959 7.81372 27.9936 7.42614C28.1913 7.03856 28.7317 7.15884 28.7976 6.73115C28.8635 6.30346 29.2985 5.23425 29.7598 5.3679C30.2211 5.50155 31.6446 5.68866 31.8291 5.31445C32.0136 4.94024 32.554 4.20461 32.7649 4.8865C32.9758 5.56838 32.8836 5.62184 33.503 5.39464C34.1225 5.16743 34.6366 5.1808 34.7947 5.83568C34.9529 6.49056 34.8343 6.42374 35.1506 6.69104C35.467 6.95834 35.7833 8.02754 35.4406 8.56214C35.0979 9.09674 34.9134 9.1502 34.9134 9.4175C34.9134 9.6848 34.9529 10.4332 34.518 10.8342C34.083 11.2351 33.8326 11.3955 34.1094 11.4356C34.3861 11.4757 35.4538 11.1683 35.8492 10.1927C36.2446 9.217 36.4291 8.02751 36.2973 7.41272C36.1655 6.79792 36.1655 6.7311 35.8755 5.95594C35.5855 5.18075 35.9414 4.65952 35.8228 4.2452C35.7042 3.83088 35.0715 3.49675 35.032 3.10917C34.9925 2.72159 34.7354 1.63902 34.34 1.63902C33.9446 1.63902 31.9477 1.95978 31.6116 1.49868C31.2755 1.03759 29.6741 0.656697 29.4566 1.49868C29.2392 2.34067 29.4566 2.78173 28.8042 2.76168C28.1518 2.74162 27.1632 3.58363 27.1632 4.34542C27.1632 5.10722 26.9458 6.19982 27.094 6.45043C27.2423 6.70102 27.5191 6.89146 27.5191 7.13205C27.5191 7.37263 27.4104 8.93633 27.5784 9.7282C27.7465 10.5201 28.8536 11.6127 29.0118 11.5926C29.17 11.5726 29.3973 11.5625 29.1403 11.3821C28.8833 11.2017 28.0628 10.5802 28.132 10.1893C28.2012 9.79837 28.132 9.65803 27.9738 9.3072C27.8156 8.95636 27.8354 8.4251 27.7465 8.00409C27.6575 7.58309 27.5784 6.69099 27.7959 6.44038C28.0134 6.18979 28.7449 5.54825 28.7053 4.99694C28.6658 4.44563 28.6954 3.75398 29.2688 3.98454C29.8421 4.21509 30.9394 4.30529 31.3743 3.70387C31.8093 3.10244 33.4108 2.74157 33.6282 3.60362C33.8457 4.46566 33.8852 4.76638 34.3795 4.68619C34.8738 4.60599 35.1308 4.58596 35.1703 5.34775C35.2099 6.10955 35.5756 6.77114 35.7041 7.11195C35.8327 7.45276 36.2478 7.75346 36.0007 8.21457C35.7536 8.67566 35.2198 9.30717 35.2296 9.6179C35.2395 9.92863 34.9397 11.0079 34.6102 11.1282C34.2806 11.2484 33.4107 12.2642 32.6594 12.3845C31.9081 12.5047 30.3645 12.2427 30.287 12.4246C30.2094 12.6064 30.2968 13.6575 30.2474 13.6675C30.198 13.6775 24.6325 14.0083 23.8417 14.4895C23.0509 14.9706 21.6274 15.4317 21.9635 15.0909C22.2996 14.7501 25.7595 10.059 25.5815 9.6179C25.4036 9.17684 25.028 8.45513 25.2454 7.9339C25.4629 7.41267 26.491 5.46806 26.6689 5.62842C26.8468 5.78881 26.748 6.24991 26.8864 6.57066C27.0248 6.89142 27.3411 7.05181 27.3411 7.4327C27.3411 7.8136 27.1236 9.33723 26.6491 9.47757C26.1746 9.6179 25.9374 9.97877 25.799 9.47757C25.6606 8.97637 25.6983 8.4331 25.4431 8.4351C25.1879 8.43711 15.0042 15.6923 14.9844 17.1558C14.9646 18.6193 15.8939 19.7018 16.7045 19.8622C17.5151 20.0226 20.0062 20.9649 19.8282 19.9825C19.6503 19.0002 19.4526 17.8976 19.591 17.677C19.7294 17.4565 21.8844 15.2312 21.7262 15.6322C21.5681 16.0331 19.7096 17.2761 19.848 17.8775C19.9864 18.4789 20.1841 20.183 20.7575 20.183C21.3308 20.183 24.3953 19.6216 24.4151 20.183C24.4348 20.7443 22.6555 40.4511 23.7626 40.7718C24.8698 41.0926 27.0446 37.6845 27.6772 39.2883C28.3099 40.8921 30.4985 42.7365 31.4999 40.6516C32.5013 38.5666 34.5574 36.0005 36.8509 38.2459C39.1442 40.4912 44.6801 42.4158 49.425 39.128" stroke="#3464AF" stroke-miterlimit="10"/>
</svg>
