<svg width="20" height="20" viewBox="0 0 20 20" fill="none" xmlns="http://www.w3.org/2000/svg">
<path d="M11.2948 2.29822H8.31932C5.45546 2.29822 3.1123 4.64138 3.1123 7.50524V9.73681C3.1123 11.7452 4.28388 13.5863 6.08774 14.4417V16.9337C6.08774 17.1568 6.36669 17.2684 6.51546 17.101L8.67266 14.9438H11.2948C14.1586 14.9438 16.5018 12.6007 16.5018 9.73681V7.50524C16.5018 4.64138 14.1586 2.29822 11.2948 2.29822ZM13.2474 12.0614L12.4849 12.8052C11.6853 13.5863 9.62108 12.6937 7.79862 10.834C5.97616 8.97436 5.17652 6.89155 5.93897 6.1105L6.68283 5.36664C6.96178 5.08769 7.42669 5.10629 7.74283 5.38524L8.82143 6.50102C9.21195 6.89155 9.04459 7.56102 8.54248 7.7098C8.18915 7.82138 7.94739 8.2119 8.05897 8.56524C8.24494 9.38348 9.28634 10.4249 10.0674 10.6294C10.4207 10.7038 10.8113 10.5179 10.9414 10.1645C11.1088 9.66243 11.7783 9.51366 12.1502 9.90418L13.2288 11.02C13.5263 11.2803 13.5263 11.7452 13.2474 12.0614ZM10.4765 5.83155C10.4021 5.83155 10.3277 5.83155 10.2534 5.85015C10.1232 5.86874 9.99301 5.75716 9.97441 5.62699C9.95581 5.49681 10.0674 5.36664 10.1976 5.34804C10.2905 5.32945 10.3835 5.32945 10.4765 5.32945C11.8341 5.32945 12.9498 6.44523 12.9498 7.80278C12.9498 7.89576 12.9498 7.98874 12.9313 8.08173C12.9127 8.2119 12.7825 8.32348 12.6523 8.30488C12.5221 8.28629 12.4105 8.15611 12.4291 8.02594C12.4291 7.95155 12.4477 7.87716 12.4477 7.80278C12.4663 6.72418 11.5737 5.83155 10.4765 5.83155ZM11.9642 7.82138C11.9642 7.95155 11.8527 8.06313 11.7225 8.06313C11.5923 8.06313 11.4807 7.95155 11.4807 7.82138C11.4807 7.28208 11.0344 6.83576 10.4951 6.83576C10.3649 6.83576 10.2534 6.72418 10.2534 6.59401C10.2534 6.46383 10.3649 6.35225 10.4951 6.35225C11.2948 6.33366 11.9642 7.00313 11.9642 7.82138ZM13.8611 8.62102C13.8239 8.7512 13.6937 8.84418 13.5449 8.80699C13.4148 8.7698 13.3404 8.63962 13.3776 8.50945C13.4334 8.28629 13.452 8.06313 13.452 7.82138C13.452 6.18488 12.113 4.84594 10.4765 4.84594C10.4021 4.84594 10.3277 4.84594 10.2534 4.84594C10.1232 4.84594 9.99301 4.75295 9.99301 4.62278C9.99301 4.4926 10.086 4.36243 10.2162 4.36243C10.3091 4.36243 10.4021 4.34383 10.4765 4.34383C12.392 4.34383 13.9541 5.90594 13.9541 7.82138C13.9541 8.08173 13.9169 8.36067 13.8611 8.62102Z" fill="#24CA43"/>
</svg>
