<svg width="20" height="20" viewBox="0 0 20 20" fill="none" xmlns="http://www.w3.org/2000/svg">
<path d="M11.4876 2.29822H8.51219C5.64833 2.29822 3.30518 4.64138 3.30518 7.50524V9.73681C3.30518 11.7452 4.47675 13.5863 6.28061 14.4417V16.9337C6.28061 17.1568 6.55956 17.2684 6.70833 17.101L8.86553 14.9438H11.4876C14.3515 14.9438 16.6946 12.6007 16.6946 9.73681V7.50524C16.6946 4.64138 14.3515 2.29822 11.4876 2.29822ZM13.4403 12.0614L12.6778 12.8052C11.8782 13.5863 9.81395 12.6937 7.99149 10.834C6.16904 8.97436 5.36939 6.89155 6.13184 6.1105L6.8757 5.36664C7.15465 5.08769 7.61956 5.10629 7.9357 5.38524L9.0143 6.50102C9.40482 6.89155 9.23746 7.56102 8.73535 7.7098C8.38202 7.82138 8.14026 8.2119 8.25184 8.56524C8.43781 9.38348 9.47921 10.4249 10.2603 10.6294C10.6136 10.7038 11.0041 10.5179 11.1343 10.1645C11.3017 9.66243 11.9711 9.51366 12.3431 9.90418L13.4217 11.02C13.7192 11.2803 13.7192 11.7452 13.4403 12.0614ZM10.6694 5.83155C10.595 5.83155 10.5206 5.83155 10.4462 5.85015C10.3161 5.86874 10.1859 5.75716 10.1673 5.62699C10.1487 5.49681 10.2603 5.36664 10.3904 5.34804C10.4834 5.32945 10.5764 5.32945 10.6694 5.32945C12.0269 5.32945 13.1427 6.44523 13.1427 7.80278C13.1427 7.89576 13.1427 7.98874 13.1241 8.08173C13.1055 8.2119 12.9754 8.32348 12.8452 8.30488C12.715 8.28629 12.6034 8.15611 12.622 8.02594C12.622 7.95155 12.6406 7.87716 12.6406 7.80278C12.6592 6.72418 11.7666 5.83155 10.6694 5.83155ZM12.1571 7.82138C12.1571 7.95155 12.0455 8.06313 11.9153 8.06313C11.7852 8.06313 11.6736 7.95155 11.6736 7.82138C11.6736 7.28208 11.2273 6.83576 10.688 6.83576C10.5578 6.83576 10.4462 6.72418 10.4462 6.59401C10.4462 6.46383 10.5578 6.35225 10.688 6.35225C11.4876 6.33366 12.1571 7.00313 12.1571 7.82138ZM14.0539 8.62102C14.0168 8.7512 13.8866 8.84418 13.7378 8.80699C13.6076 8.7698 13.5332 8.63962 13.5704 8.50945C13.6262 8.28629 13.6448 8.06313 13.6448 7.82138C13.6448 6.18488 12.3059 4.84594 10.6694 4.84594C10.595 4.84594 10.5206 4.84594 10.4462 4.84594C10.3161 4.84594 10.1859 4.75295 10.1859 4.62278C10.1859 4.4926 10.2789 4.36243 10.409 4.36243C10.502 4.36243 10.595 4.34383 10.6694 4.34383C12.5848 4.34383 14.1469 5.90594 14.1469 7.82138C14.1469 8.08173 14.1097 8.36067 14.0539 8.62102Z" fill="#7F50A0"/>
</svg>
