<svg width="86" height="72" viewBox="0 0 86 72" fill="none" xmlns="http://www.w3.org/2000/svg">
<path d="M47.2 45.6C47.2 40.2 48.2 35 50.2 30C52.2 25 54.4 20.9 56.8 17.7C59.4 14.3 62.2 11.3 65.2 8.7C68.2 5.9 70.5 4 72.1 3C73.7 1.79999 74.8 1.09999 75.4 0.899988L84.1 9.9C83.9 10.1 83.3 10.8 82.3 12C81.5 13 80.8 13.9 80.2 14.7C79 16.3 76.9 19.5 73.9 24.3C71.3 28.7 70 32.3 70 35.1C74.4 35.7 78.1 37.8 81.1 41.4C84.1 44.8 85.6 48.9 85.6 53.7C85.6 58.5 83.8 62.6 80.2 66C76.8 69.4 72.5 71.1 67.3 71.1C61.5 71.1 56.7 68.8 52.9 64.2C49.1 59.4 47.2 53.2 47.2 45.6ZM0.1 45.6C0.1 28.4 9.5 13.5 28.3 0.899988L37 9.9C36.8 10.1 36.2 10.8 35.2 12C34.4 13 33.7 13.9 33.1 14.7C31.9 16.3 29.8 19.5 26.8 24.3C24.2 28.7 22.9 32.3 22.9 35.1C27.3 35.7 30.9 37.8 33.7 41.4C36.7 44.8 38.2 48.9 38.2 53.7C38.2 58.5 36.4 62.6 32.8 66C29.4 69.4 25.1 71.1 19.9 71.1C14.1 71.1 9.3 68.8 5.5 64.2C1.9 59.4 0.1 53.2 0.1 45.6Z" fill="white" fill-opacity="0.1"/>
</svg>
