<svg width="28" height="28" viewBox="0 0 28 28" fill="none" xmlns="http://www.w3.org/2000/svg">
<g clip-path="url(#clip0_89_483)">
<path d="M25.5391 8.80469H22.8285C22.9208 9.41123 22.9688 10.0321 22.9688 10.6641C22.9688 17.4489 17.4489 22.9688 10.6641 22.9688C10.4776 22.9688 10.2919 22.9644 10.1067 22.9562C10.5168 23.746 11.342 24.287 12.2916 24.287H22.521L26.6476 27.804C26.799 27.933 26.9884 28 27.1799 28C27.2963 28 27.4136 27.9752 27.5235 27.9245C27.8141 27.7904 28.0001 27.4996 28.0001 27.1797V11.2656C28.0001 9.90866 26.8961 8.80469 25.5391 8.80469Z" fill="#3464AF"/>
<path d="M21.3281 10.6641C21.3281 4.7839 16.5442 0 10.6641 0C4.7839 0 0 4.7839 0 10.6641C0 13.3504 0.98618 15.8841 2.78748 17.8532L1.89547 20.7593C1.80441 21.056 1.88858 21.3786 2.11291 21.593C2.26811 21.7414 2.47204 21.8204 2.6798 21.8204C2.77227 21.8204 2.86552 21.8047 2.95553 21.7725L6.5292 20.4962C7.83874 21.0484 9.22808 21.3281 10.6641 21.3281C16.5442 21.3281 21.3281 16.5442 21.3281 10.6641ZM9.87109 15.8867V12.2007H9.48145C7.58942 12.2007 6.05019 10.6614 6.05019 8.76936V7.49585C6.05019 7.42263 5.98834 7.36072 5.91505 7.36072H5.85156C5.39853 7.36072 5.03125 6.99344 5.03125 6.54041C5.03125 6.08738 5.39853 5.72009 5.85156 5.72009H5.91505C6.89418 5.72009 7.69081 6.51667 7.69081 7.49585V8.76936C7.69081 9.75674 8.49406 10.56 9.48145 10.56H9.87109V6.60417C9.87109 6.15114 10.2384 5.78386 10.6914 5.78386C11.1444 5.78386 11.5117 6.15114 11.5117 6.60417V10.56H11.9014C12.8888 10.56 13.6921 9.7568 13.6921 8.76936V7.49585C13.6921 6.51673 14.4886 5.72009 15.4678 5.72009H15.5312C15.9843 5.72009 16.3516 6.08738 16.3516 6.54041C16.3516 6.99344 15.9843 7.36072 15.5312 7.36072H15.4678C15.3946 7.36072 15.3327 7.42257 15.3327 7.49585V8.76936C15.3327 10.6614 13.7934 12.2007 11.9014 12.2007H11.5117V15.8867C11.5117 16.3398 11.1444 16.707 10.6914 16.707C10.2384 16.707 9.87109 16.3398 9.87109 15.8867Z" fill="#3464AF"/>
</g>
<defs>
<clipPath id="clip0_89_483">
<rect width="28" height="28" fill="white"/>
</clipPath>
</defs>
</svg>
