<svg width="29" height="29" viewBox="0 0 29 29" fill="none" xmlns="http://www.w3.org/2000/svg">
<g clip-path="url(#clip0_89_475)">
<path d="M22.9961 8.49609C22.9961 3.81135 19.1847 0 14.5 0C9.81525 0 6.00391 3.81135 6.00391 8.49609C6.00391 13.1808 9.81525 16.9922 14.5 16.9922C19.1847 16.9922 22.9961 13.1808 22.9961 8.49609ZM18.4648 6.34375H18.313V6.896C18.3118 7.54602 18.0528 8.16901 17.5928 8.62828C17.1328 9.08754 16.5094 9.34555 15.8594 9.3457H15.3496V11.4539C15.5669 11.471 15.7693 11.571 15.9149 11.7332C16.0605 11.8954 16.1382 12.1074 16.132 12.3252C16.1257 12.5431 16.036 12.7502 15.8813 12.9038C15.7266 13.0574 15.5188 13.1456 15.3009 13.1503H13.6991C13.4812 13.1456 13.2734 13.0574 13.1187 12.9038C12.964 12.7502 12.8743 12.5431 12.868 12.3252C12.8618 12.1074 12.9395 11.8954 13.0851 11.7332C13.2307 11.571 13.4331 11.471 13.6504 11.4539V9.3457H13.1406C12.4907 9.34495 11.8676 9.08644 11.408 8.62687C10.9485 8.16731 10.69 7.54422 10.6892 6.8943V6.34375H10.5352C10.3098 6.34375 10.0937 6.25424 9.93439 6.09491C9.77506 5.93557 9.68555 5.71947 9.68555 5.49414C9.68555 5.26881 9.77506 5.05271 9.93439 4.89338C10.0937 4.73404 10.3098 4.64453 10.5352 4.64453H11.5366C11.7619 4.64453 11.978 4.73404 12.1373 4.89338C12.2967 5.05271 12.3862 5.26881 12.3862 5.49414V6.896C12.3869 7.09549 12.4668 7.28655 12.6082 7.42724C12.7497 7.56794 12.9411 7.64679 13.1406 7.64648H13.6504V5.53832C13.4331 5.52116 13.2307 5.42114 13.0851 5.25896C12.9395 5.09678 12.8618 4.88484 12.868 4.66696C12.8743 4.44909 12.964 4.24195 13.1187 4.08839C13.2734 3.93483 13.4812 3.8466 13.6991 3.84193H15.3009C15.5262 3.83547 15.7449 3.91879 15.9088 4.07356C16.0727 4.22832 16.1684 4.44186 16.1749 4.66719C16.1813 4.89252 16.098 5.11119 15.9432 5.27509C15.7885 5.43899 15.5749 5.53469 15.3496 5.54115V7.64648H15.8594C16.0588 7.64618 16.2499 7.56684 16.3909 7.42584C16.5319 7.28485 16.6113 7.0937 16.6116 6.8943V5.49414C16.6116 5.26881 16.7011 5.05271 16.8604 4.89338C17.0197 4.73404 17.2358 4.64453 17.4612 4.64453H18.4648C18.6902 4.64453 18.9063 4.73404 19.0656 4.89338C19.2249 5.05271 19.3145 5.26881 19.3145 5.49414C19.3145 5.71947 19.2249 5.93557 19.0656 6.09491C18.9063 6.25424 18.6902 6.34375 18.4648 6.34375Z" fill="#3464AF"/>
<path d="M28.987 20.9003L28.0371 11.8305C28.0008 11.491 27.8324 11.1794 27.5682 10.9631C27.304 10.7468 26.9653 10.6432 26.6253 10.6747C26.2853 10.7062 25.9714 10.8702 25.7514 11.1314C25.5315 11.3925 25.4231 11.7297 25.4498 12.0701L25.9323 18.053C25.9533 18.3134 25.8802 18.5727 25.7262 18.7837L23.1841 22.2597C23.0975 22.3794 22.9791 22.4724 22.8423 22.5284C22.7056 22.5843 22.5559 22.6009 22.4102 22.5764C22.2645 22.5518 22.1286 22.4871 22.0177 22.3894C21.9069 22.2917 21.8255 22.165 21.7829 22.0235L21.3915 20.7457C21.2182 20.1836 20.8693 19.6917 20.396 19.3424C19.9227 18.993 19.3499 18.8046 18.7616 18.8046C18.4732 18.8045 18.1964 18.9188 17.9921 19.1225C17.7878 19.3261 17.6726 19.6025 17.6719 19.891V23.1241C17.6717 24.0921 18.0405 25.0239 18.7033 25.7295L19.9216 27.0272V29H26.5333V27.2639L28.6092 22.4529C28.9103 21.9944 29.0438 21.4459 28.987 20.9003Z" fill="#3464AF"/>
<path d="M10.2384 18.8046C9.64969 18.8048 9.07657 18.9937 8.60322 19.3437C8.12986 19.6937 7.78124 20.1863 7.60856 20.7491L7.21717 22.0269C7.17407 22.1681 7.09241 22.2945 6.98137 22.3918C6.87033 22.4891 6.73433 22.5535 6.58869 22.5777C6.44304 22.6019 6.29353 22.5849 6.157 22.5288C6.02046 22.4726 5.90232 22.3794 5.81588 22.2597L3.27555 18.7837C3.12156 18.5727 3.0484 18.3134 3.06938 18.053L3.55195 12.0701C3.56635 11.8912 3.54354 11.7113 3.48497 11.5417C3.4264 11.3721 3.33333 11.2165 3.21164 11.0846C3.08994 10.9527 2.94225 10.8475 2.77788 10.7756C2.61351 10.7036 2.43602 10.6665 2.25658 10.6665C1.93517 10.6662 1.62504 10.7849 1.38611 10.9999C1.14717 11.2149 0.996398 11.5108 0.962912 11.8305L0.0130487 20.9003C-0.0437796 21.4459 0.089684 21.9944 0.390842 22.4529L2.46672 27.2639V28.9999H9.07838V27.0266L10.2967 25.7289C10.9595 25.0233 11.3283 24.0916 11.3281 23.1235V19.891C11.3274 19.6025 11.2122 19.3261 11.0079 19.1224C10.8036 18.9188 10.5269 18.8045 10.2384 18.8046Z" fill="#3464AF"/>
</g>
<defs>
<clipPath id="clip0_89_475">
<rect width="29" height="29" fill="white"/>
</clipPath>
</defs>
</svg>
