<svg width="26" height="26" viewBox="0 0 26 26" fill="none" xmlns="http://www.w3.org/2000/svg">
<path d="M10.7021 3.16748C10.7021 2.92947 10.8958 2.73584 11.1338 2.73584H14.8662C15.1042 2.73584 15.2979 2.92947 15.2979 3.16748V4.14502H16.8213V3.16748C16.8213 2.08945 15.9442 1.2124 14.8662 1.2124H11.1338C10.0558 1.2124 9.17871 2.08945 9.17871 3.16748V4.14502H10.7021V3.16748Z" fill="#3464AF"/>
<path d="M15.4819 15.3927V16.3773C15.4819 16.7055 15.2717 16.9968 14.9602 17.1002L13.24 17.6712C13.0842 17.7229 12.9159 17.7229 12.7601 17.6712L11.0398 17.1002C10.7283 16.9968 10.5181 16.7055 10.5181 16.3773V15.3927L2.37565 13.3571C1.45173 13.1261 0.64025 12.6552 0 12.021V23.2642C0 24.1056 0.682043 24.7877 1.52344 24.7877H24.4766C25.318 24.7877 26 24.1056 26 23.2642V12.021C25.3598 12.6552 24.5483 13.1261 23.6244 13.3571L15.4819 15.3927ZM24.083 22.1089C24.083 22.5296 23.742 22.8707 23.3213 22.8707H19.8809C19.4602 22.8707 19.1191 22.5296 19.1191 22.1089C19.1191 21.6883 19.4602 21.3472 19.8809 21.3472H23.3213C23.742 21.3472 24.083 21.6883 24.083 22.1089Z" fill="#3464AF"/>
<path d="M24.4766 5.66846H1.52344C0.682043 5.66846 0 6.3505 0 7.19189V8.36327C0 10.0262 1.13176 11.4758 2.74508 11.8791L10.5181 13.8224V13.5078C10.5181 13.0871 10.8591 12.7461 11.2798 12.7461H14.7202C15.1409 12.7461 15.4819 13.0871 15.4819 13.5078V13.8224L23.2549 11.8791C24.8682 11.4758 26 10.0262 26 8.36327V7.19189C26 6.3505 25.318 5.66846 24.4766 5.66846Z" fill="#3464AF"/>
<path d="M13.9585 15.8275V14.2695H12.0415V15.8275L13 16.1456L13.9585 15.8275Z" fill="#3464AF"/>
</svg>
